<mxfile host="app.diagrams.net" modified="2023-10-21T23:02:40.090Z" agent="Mozilla/5.0 (Windows NT 10.0; Win64; x64) AppleWebKit/537.36 (KHTML, like Gecko) Chrome/118.0.0.0 Safari/537.36" etag="MlMYS1iaz6hTcm1QhUaI" version="22.0.6" type="device">
  <diagram id="C5RBs43oDa-KdzZeNtuy" name="Page-1">
    <mxGraphModel dx="797" dy="448" grid="1" gridSize="10" guides="1" tooltips="1" connect="1" arrows="1" fold="1" page="1" pageScale="1" pageWidth="827" pageHeight="1169" math="0" shadow="0">
      <root>
        <mxCell id="WIyWlLk6GJQsqaUBKTNV-0" />
        <mxCell id="WIyWlLk6GJQsqaUBKTNV-1" parent="WIyWlLk6GJQsqaUBKTNV-0" />
        <mxCell id="zkfFHV4jXpPFQw0GAbJ--0" value="Cliente&#xa;" style="swimlane;fontStyle=2;align=center;verticalAlign=top;childLayout=stackLayout;horizontal=1;startSize=26;horizontalStack=0;resizeParent=1;resizeLast=0;collapsible=1;marginBottom=0;rounded=0;shadow=0;strokeWidth=1;" parent="WIyWlLk6GJQsqaUBKTNV-1" vertex="1">
          <mxGeometry x="150" y="120" width="180" height="238" as="geometry">
            <mxRectangle x="150" y="120" width="160" height="26" as="alternateBounds" />
          </mxGeometry>
        </mxCell>
        <mxCell id="zkfFHV4jXpPFQw0GAbJ--1" value="-id: Long" style="text;align=left;verticalAlign=top;spacingLeft=4;spacingRight=4;overflow=hidden;rotatable=0;points=[[0,0.5],[1,0.5]];portConstraint=eastwest;" parent="zkfFHV4jXpPFQw0GAbJ--0" vertex="1">
          <mxGeometry y="26" width="180" height="26" as="geometry" />
        </mxCell>
        <mxCell id="zkfFHV4jXpPFQw0GAbJ--2" value="-nombre: String" style="text;align=left;verticalAlign=top;spacingLeft=4;spacingRight=4;overflow=hidden;rotatable=0;points=[[0,0.5],[1,0.5]];portConstraint=eastwest;rounded=0;shadow=0;html=0;" parent="zkfFHV4jXpPFQw0GAbJ--0" vertex="1">
          <mxGeometry y="52" width="180" height="26" as="geometry" />
        </mxCell>
        <mxCell id="zkfFHV4jXpPFQw0GAbJ--3" value="-apellido: String" style="text;align=left;verticalAlign=top;spacingLeft=4;spacingRight=4;overflow=hidden;rotatable=0;points=[[0,0.5],[1,0.5]];portConstraint=eastwest;rounded=0;shadow=0;html=0;" parent="zkfFHV4jXpPFQw0GAbJ--0" vertex="1">
          <mxGeometry y="78" width="180" height="26" as="geometry" />
        </mxCell>
        <mxCell id="cHpn67sG7nii0dPdHd2--3" value="-apellido: String" style="text;align=left;verticalAlign=top;spacingLeft=4;spacingRight=4;overflow=hidden;rotatable=0;points=[[0,0.5],[1,0.5]];portConstraint=eastwest;rounded=0;shadow=0;html=0;" parent="zkfFHV4jXpPFQw0GAbJ--0" vertex="1">
          <mxGeometry y="104" width="180" height="26" as="geometry" />
        </mxCell>
        <mxCell id="cHpn67sG7nii0dPdHd2--25" value="-unaCuenta: CuentaBancaria" style="text;align=left;verticalAlign=top;spacingLeft=4;spacingRight=4;overflow=hidden;rotatable=0;points=[[0,0.5],[1,0.5]];portConstraint=eastwest;" parent="zkfFHV4jXpPFQw0GAbJ--0" vertex="1">
          <mxGeometry y="130" width="180" height="26" as="geometry" />
        </mxCell>
        <mxCell id="zkfFHV4jXpPFQw0GAbJ--4" value="" style="line;html=1;strokeWidth=1;align=left;verticalAlign=middle;spacingTop=-1;spacingLeft=3;spacingRight=3;rotatable=0;labelPosition=right;points=[];portConstraint=eastwest;" parent="zkfFHV4jXpPFQw0GAbJ--0" vertex="1">
          <mxGeometry y="156" width="180" height="10" as="geometry" />
        </mxCell>
        <mxCell id="zkfFHV4jXpPFQw0GAbJ--5" value="Purchase Parking Pass" style="text;align=left;verticalAlign=top;spacingLeft=4;spacingRight=4;overflow=hidden;rotatable=0;points=[[0,0.5],[1,0.5]];portConstraint=eastwest;" parent="zkfFHV4jXpPFQw0GAbJ--0" vertex="1">
          <mxGeometry y="166" width="180" height="24" as="geometry" />
        </mxCell>
        <mxCell id="zkfFHV4jXpPFQw0GAbJ--14" value="Salary" style="text;align=left;verticalAlign=top;spacingLeft=4;spacingRight=4;overflow=hidden;rotatable=0;points=[[0,0.5],[1,0.5]];portConstraint=eastwest;" parent="zkfFHV4jXpPFQw0GAbJ--0" vertex="1">
          <mxGeometry y="190" width="180" height="26" as="geometry" />
        </mxCell>
        <mxCell id="cHpn67sG7nii0dPdHd2--2" value="-apellido: String" style="text;align=left;verticalAlign=top;spacingLeft=4;spacingRight=4;overflow=hidden;rotatable=0;points=[[0,0.5],[1,0.5]];portConstraint=eastwest;rounded=0;shadow=0;html=0;" parent="zkfFHV4jXpPFQw0GAbJ--0" vertex="1">
          <mxGeometry y="216" width="180" height="22" as="geometry" />
        </mxCell>
        <mxCell id="zkfFHV4jXpPFQw0GAbJ--6" value="CuentaBancaria" style="swimlane;fontStyle=0;align=center;verticalAlign=top;childLayout=stackLayout;horizontal=1;startSize=26;horizontalStack=0;resizeParent=1;resizeLast=0;collapsible=1;marginBottom=0;rounded=0;shadow=0;strokeWidth=1;" parent="WIyWlLk6GJQsqaUBKTNV-1" vertex="1">
          <mxGeometry x="150" y="422" width="160" height="158" as="geometry">
            <mxRectangle x="130" y="380" width="160" height="26" as="alternateBounds" />
          </mxGeometry>
        </mxCell>
        <mxCell id="zkfFHV4jXpPFQw0GAbJ--7" value="-id_cuenta: Long" style="text;align=left;verticalAlign=top;spacingLeft=4;spacingRight=4;overflow=hidden;rotatable=0;points=[[0,0.5],[1,0.5]];portConstraint=eastwest;" parent="zkfFHV4jXpPFQw0GAbJ--6" vertex="1">
          <mxGeometry y="26" width="160" height="26" as="geometry" />
        </mxCell>
        <mxCell id="Y-RljND5M3sKUDQWpeOn-2" value="-cbu: Long" style="text;align=left;verticalAlign=top;spacingLeft=4;spacingRight=4;overflow=hidden;rotatable=0;points=[[0,0.5],[1,0.5]];portConstraint=eastwest;" vertex="1" parent="zkfFHV4jXpPFQw0GAbJ--6">
          <mxGeometry y="52" width="160" height="26" as="geometry" />
        </mxCell>
        <mxCell id="zkfFHV4jXpPFQw0GAbJ--8" value="-saldo: Double" style="text;align=left;verticalAlign=top;spacingLeft=4;spacingRight=4;overflow=hidden;rotatable=0;points=[[0,0.5],[1,0.5]];portConstraint=eastwest;rounded=0;shadow=0;html=0;" parent="zkfFHV4jXpPFQw0GAbJ--6" vertex="1">
          <mxGeometry y="78" width="160" height="26" as="geometry" />
        </mxCell>
        <mxCell id="cHpn67sG7nii0dPdHd2--23" value="-listaMovimientos: List" style="text;align=left;verticalAlign=top;spacingLeft=4;spacingRight=4;overflow=hidden;rotatable=0;points=[[0,0.5],[1,0.5]];portConstraint=eastwest;" parent="zkfFHV4jXpPFQw0GAbJ--6" vertex="1">
          <mxGeometry y="104" width="160" height="24" as="geometry" />
        </mxCell>
        <mxCell id="zkfFHV4jXpPFQw0GAbJ--9" value="" style="line;html=1;strokeWidth=1;align=left;verticalAlign=middle;spacingTop=-1;spacingLeft=3;spacingRight=3;rotatable=0;labelPosition=right;points=[];portConstraint=eastwest;" parent="zkfFHV4jXpPFQw0GAbJ--6" vertex="1">
          <mxGeometry y="128" width="160" height="8" as="geometry" />
        </mxCell>
        <mxCell id="cHpn67sG7nii0dPdHd2--13" style="edgeStyle=orthogonalEdgeStyle;rounded=0;orthogonalLoop=1;jettySize=auto;html=1;entryX=0.75;entryY=0;entryDx=0;entryDy=0;exitX=0.27;exitY=1.013;exitDx=0;exitDy=0;exitPerimeter=0;endArrow=block;endFill=0;" parent="WIyWlLk6GJQsqaUBKTNV-1" source="cHpn67sG7nii0dPdHd2--12" target="cHpn67sG7nii0dPdHd2--14" edge="1">
          <mxGeometry relative="1" as="geometry">
            <mxPoint x="600" y="640" as="targetPoint" />
          </mxGeometry>
        </mxCell>
        <mxCell id="zkfFHV4jXpPFQw0GAbJ--13" value="&lt;&lt;Movimiento&gt;&gt;" style="swimlane;fontStyle=0;align=center;verticalAlign=top;childLayout=stackLayout;horizontal=1;startSize=26;horizontalStack=0;resizeParent=1;resizeLast=0;collapsible=1;marginBottom=0;rounded=0;shadow=0;strokeWidth=1;" parent="WIyWlLk6GJQsqaUBKTNV-1" vertex="1">
          <mxGeometry x="500" y="435" width="150" height="162" as="geometry">
            <mxRectangle x="340" y="380" width="170" height="26" as="alternateBounds" />
          </mxGeometry>
        </mxCell>
        <mxCell id="cHpn67sG7nii0dPdHd2--5" value="-id_movimiento: Long" style="text;align=left;verticalAlign=top;spacingLeft=4;spacingRight=4;overflow=hidden;rotatable=0;points=[[0,0.5],[1,0.5]];portConstraint=eastwest;" parent="zkfFHV4jXpPFQw0GAbJ--13" vertex="1">
          <mxGeometry y="26" width="150" height="26" as="geometry" />
        </mxCell>
        <mxCell id="cHpn67sG7nii0dPdHd2--9" value="-fecha: Date" style="text;align=left;verticalAlign=top;spacingLeft=4;spacingRight=4;overflow=hidden;rotatable=0;points=[[0,0.5],[1,0.5]];portConstraint=eastwest;" parent="zkfFHV4jXpPFQw0GAbJ--13" vertex="1">
          <mxGeometry y="52" width="150" height="26" as="geometry" />
        </mxCell>
        <mxCell id="cHpn67sG7nii0dPdHd2--10" value="-monto: Double" style="text;align=left;verticalAlign=top;spacingLeft=4;spacingRight=4;overflow=hidden;rotatable=0;points=[[0,0.5],[1,0.5]];portConstraint=eastwest;" parent="zkfFHV4jXpPFQw0GAbJ--13" vertex="1">
          <mxGeometry y="78" width="150" height="26" as="geometry" />
        </mxCell>
        <mxCell id="zkfFHV4jXpPFQw0GAbJ--15" value="&lt;table&gt;&lt;tbody&gt;&lt;tr&gt;&lt;td&gt;&lt;br&gt;&lt;/td&gt;&lt;td&gt;&lt;br&gt;&lt;/td&gt;&lt;td&gt;&lt;br&gt;&lt;/td&gt;&lt;td&gt;&lt;br&gt;&lt;/td&gt;&lt;td&gt;&lt;br&gt;&lt;/td&gt;&lt;/tr&gt;&lt;tr&gt;&lt;td&gt;&lt;br&gt;&lt;/td&gt;&lt;td&gt;&lt;br&gt;&lt;/td&gt;&lt;td&gt;&lt;br&gt;&lt;/td&gt;&lt;td&gt;&lt;br&gt;&lt;/td&gt;&lt;td&gt;&lt;br&gt;&lt;/td&gt;&lt;/tr&gt;&lt;/tbody&gt;&lt;/table&gt;" style="line;html=1;strokeWidth=1;align=left;verticalAlign=middle;spacingTop=-1;spacingLeft=3;spacingRight=3;rotatable=0;labelPosition=right;points=[];portConstraint=eastwest;" parent="zkfFHV4jXpPFQw0GAbJ--13" vertex="1">
          <mxGeometry y="104" width="150" height="6" as="geometry" />
        </mxCell>
        <mxCell id="cHpn67sG7nii0dPdHd2--8" value="+ incrementarSaldo()" style="text;strokeColor=none;fillColor=none;align=left;verticalAlign=top;spacingLeft=4;spacingRight=4;overflow=hidden;rotatable=0;points=[[0,0.5],[1,0.5]];portConstraint=eastwest;whiteSpace=wrap;html=1;" parent="zkfFHV4jXpPFQw0GAbJ--13" vertex="1">
          <mxGeometry y="110" width="150" height="26" as="geometry" />
        </mxCell>
        <mxCell id="cHpn67sG7nii0dPdHd2--12" value="+ reducirSaldo()" style="text;strokeColor=none;fillColor=none;align=left;verticalAlign=top;spacingLeft=4;spacingRight=4;overflow=hidden;rotatable=0;points=[[0,0.5],[1,0.5]];portConstraint=eastwest;whiteSpace=wrap;html=1;" parent="zkfFHV4jXpPFQw0GAbJ--13" vertex="1">
          <mxGeometry y="136" width="150" height="26" as="geometry" />
        </mxCell>
        <mxCell id="zkfFHV4jXpPFQw0GAbJ--17" value="Address" style="swimlane;fontStyle=0;align=center;verticalAlign=top;childLayout=stackLayout;horizontal=1;startSize=26;horizontalStack=0;resizeParent=1;resizeLast=0;collapsible=1;marginBottom=0;rounded=0;shadow=0;strokeWidth=1;" parent="WIyWlLk6GJQsqaUBKTNV-1" vertex="1">
          <mxGeometry x="580" y="110" width="160" height="216" as="geometry">
            <mxRectangle x="550" y="140" width="160" height="26" as="alternateBounds" />
          </mxGeometry>
        </mxCell>
        <mxCell id="zkfFHV4jXpPFQw0GAbJ--18" value="Street" style="text;align=left;verticalAlign=top;spacingLeft=4;spacingRight=4;overflow=hidden;rotatable=0;points=[[0,0.5],[1,0.5]];portConstraint=eastwest;" parent="zkfFHV4jXpPFQw0GAbJ--17" vertex="1">
          <mxGeometry y="26" width="160" height="26" as="geometry" />
        </mxCell>
        <mxCell id="zkfFHV4jXpPFQw0GAbJ--19" value="City" style="text;align=left;verticalAlign=top;spacingLeft=4;spacingRight=4;overflow=hidden;rotatable=0;points=[[0,0.5],[1,0.5]];portConstraint=eastwest;rounded=0;shadow=0;html=0;" parent="zkfFHV4jXpPFQw0GAbJ--17" vertex="1">
          <mxGeometry y="52" width="160" height="26" as="geometry" />
        </mxCell>
        <mxCell id="zkfFHV4jXpPFQw0GAbJ--20" value="State" style="text;align=left;verticalAlign=top;spacingLeft=4;spacingRight=4;overflow=hidden;rotatable=0;points=[[0,0.5],[1,0.5]];portConstraint=eastwest;rounded=0;shadow=0;html=0;" parent="zkfFHV4jXpPFQw0GAbJ--17" vertex="1">
          <mxGeometry y="78" width="160" height="26" as="geometry" />
        </mxCell>
        <mxCell id="zkfFHV4jXpPFQw0GAbJ--21" value="Postal Code" style="text;align=left;verticalAlign=top;spacingLeft=4;spacingRight=4;overflow=hidden;rotatable=0;points=[[0,0.5],[1,0.5]];portConstraint=eastwest;rounded=0;shadow=0;html=0;" parent="zkfFHV4jXpPFQw0GAbJ--17" vertex="1">
          <mxGeometry y="104" width="160" height="26" as="geometry" />
        </mxCell>
        <mxCell id="zkfFHV4jXpPFQw0GAbJ--22" value="Country" style="text;align=left;verticalAlign=top;spacingLeft=4;spacingRight=4;overflow=hidden;rotatable=0;points=[[0,0.5],[1,0.5]];portConstraint=eastwest;rounded=0;shadow=0;html=0;" parent="zkfFHV4jXpPFQw0GAbJ--17" vertex="1">
          <mxGeometry y="130" width="160" height="26" as="geometry" />
        </mxCell>
        <mxCell id="zkfFHV4jXpPFQw0GAbJ--23" value="" style="line;html=1;strokeWidth=1;align=left;verticalAlign=middle;spacingTop=-1;spacingLeft=3;spacingRight=3;rotatable=0;labelPosition=right;points=[];portConstraint=eastwest;" parent="zkfFHV4jXpPFQw0GAbJ--17" vertex="1">
          <mxGeometry y="156" width="160" height="8" as="geometry" />
        </mxCell>
        <mxCell id="zkfFHV4jXpPFQw0GAbJ--24" value="Validate" style="text;align=left;verticalAlign=top;spacingLeft=4;spacingRight=4;overflow=hidden;rotatable=0;points=[[0,0.5],[1,0.5]];portConstraint=eastwest;" parent="zkfFHV4jXpPFQw0GAbJ--17" vertex="1">
          <mxGeometry y="164" width="160" height="26" as="geometry" />
        </mxCell>
        <mxCell id="zkfFHV4jXpPFQw0GAbJ--25" value="Output As Label" style="text;align=left;verticalAlign=top;spacingLeft=4;spacingRight=4;overflow=hidden;rotatable=0;points=[[0,0.5],[1,0.5]];portConstraint=eastwest;" parent="zkfFHV4jXpPFQw0GAbJ--17" vertex="1">
          <mxGeometry y="190" width="160" height="26" as="geometry" />
        </mxCell>
        <mxCell id="zkfFHV4jXpPFQw0GAbJ--26" value="" style="endArrow=open;shadow=0;strokeWidth=1;rounded=0;endFill=1;edgeStyle=elbowEdgeStyle;elbow=vertical;" parent="WIyWlLk6GJQsqaUBKTNV-1" source="zkfFHV4jXpPFQw0GAbJ--0" target="zkfFHV4jXpPFQw0GAbJ--17" edge="1">
          <mxGeometry x="0.5" y="41" relative="1" as="geometry">
            <mxPoint x="380" y="192" as="sourcePoint" />
            <mxPoint x="540" y="192" as="targetPoint" />
            <mxPoint x="-40" y="32" as="offset" />
          </mxGeometry>
        </mxCell>
        <mxCell id="zkfFHV4jXpPFQw0GAbJ--27" value="0..1" style="resizable=0;align=left;verticalAlign=bottom;labelBackgroundColor=none;fontSize=12;" parent="zkfFHV4jXpPFQw0GAbJ--26" connectable="0" vertex="1">
          <mxGeometry x="-1" relative="1" as="geometry">
            <mxPoint y="4" as="offset" />
          </mxGeometry>
        </mxCell>
        <mxCell id="zkfFHV4jXpPFQw0GAbJ--28" value="1" style="resizable=0;align=right;verticalAlign=bottom;labelBackgroundColor=none;fontSize=12;" parent="zkfFHV4jXpPFQw0GAbJ--26" connectable="0" vertex="1">
          <mxGeometry x="1" relative="1" as="geometry">
            <mxPoint x="-7" y="4" as="offset" />
          </mxGeometry>
        </mxCell>
        <mxCell id="zkfFHV4jXpPFQw0GAbJ--29" value="lives at" style="text;html=1;resizable=0;points=[];;align=center;verticalAlign=middle;labelBackgroundColor=none;rounded=0;shadow=0;strokeWidth=1;fontSize=12;" parent="zkfFHV4jXpPFQw0GAbJ--26" vertex="1" connectable="0">
          <mxGeometry x="0.5" y="49" relative="1" as="geometry">
            <mxPoint x="-26" y="40" as="offset" />
          </mxGeometry>
        </mxCell>
        <mxCell id="cHpn67sG7nii0dPdHd2--14" value="Transferencia" style="swimlane;fontStyle=0;align=center;verticalAlign=top;childLayout=stackLayout;horizontal=1;startSize=26;horizontalStack=0;resizeParent=1;resizeLast=0;collapsible=1;marginBottom=0;rounded=0;shadow=0;strokeWidth=1;" parent="WIyWlLk6GJQsqaUBKTNV-1" vertex="1">
          <mxGeometry x="190" y="730" width="170" height="162" as="geometry">
            <mxRectangle x="340" y="380" width="170" height="26" as="alternateBounds" />
          </mxGeometry>
        </mxCell>
        <mxCell id="cHpn67sG7nii0dPdHd2--15" value="-id_transferencia: Long" style="text;align=left;verticalAlign=top;spacingLeft=4;spacingRight=4;overflow=hidden;rotatable=0;points=[[0,0.5],[1,0.5]];portConstraint=eastwest;" parent="cHpn67sG7nii0dPdHd2--14" vertex="1">
          <mxGeometry y="26" width="170" height="26" as="geometry" />
        </mxCell>
        <mxCell id="cHpn67sG7nii0dPdHd2--17" value="-unCliente: Cliente" style="text;align=left;verticalAlign=top;spacingLeft=4;spacingRight=4;overflow=hidden;rotatable=0;points=[[0,0.5],[1,0.5]];portConstraint=eastwest;" parent="cHpn67sG7nii0dPdHd2--14" vertex="1">
          <mxGeometry y="52" width="170" height="26" as="geometry" />
        </mxCell>
        <mxCell id="cHpn67sG7nii0dPdHd2--22" value="-cbu_cliente: Long" style="text;align=left;verticalAlign=top;spacingLeft=4;spacingRight=4;overflow=hidden;rotatable=0;points=[[0,0.5],[1,0.5]];portConstraint=eastwest;" parent="cHpn67sG7nii0dPdHd2--14" vertex="1">
          <mxGeometry y="78" width="170" height="26" as="geometry" />
        </mxCell>
        <mxCell id="cHpn67sG7nii0dPdHd2--18" value="&lt;table&gt;&lt;tbody&gt;&lt;tr&gt;&lt;td&gt;&lt;br&gt;&lt;/td&gt;&lt;td&gt;&lt;br&gt;&lt;/td&gt;&lt;td&gt;&lt;br&gt;&lt;/td&gt;&lt;td&gt;&lt;br&gt;&lt;/td&gt;&lt;td&gt;&lt;br&gt;&lt;/td&gt;&lt;/tr&gt;&lt;tr&gt;&lt;td&gt;&lt;br&gt;&lt;/td&gt;&lt;td&gt;&lt;br&gt;&lt;/td&gt;&lt;td&gt;&lt;br&gt;&lt;/td&gt;&lt;td&gt;&lt;br&gt;&lt;/td&gt;&lt;td&gt;&lt;br&gt;&lt;/td&gt;&lt;/tr&gt;&lt;/tbody&gt;&lt;/table&gt;" style="line;html=1;strokeWidth=1;align=left;verticalAlign=middle;spacingTop=-1;spacingLeft=3;spacingRight=3;rotatable=0;labelPosition=right;points=[];portConstraint=eastwest;" parent="cHpn67sG7nii0dPdHd2--14" vertex="1">
          <mxGeometry y="104" width="170" height="6" as="geometry" />
        </mxCell>
        <mxCell id="cHpn67sG7nii0dPdHd2--20" value="+&amp;nbsp;recibeTransferencia()" style="text;strokeColor=none;fillColor=none;align=left;verticalAlign=top;spacingLeft=4;spacingRight=4;overflow=hidden;rotatable=0;points=[[0,0.5],[1,0.5]];portConstraint=eastwest;whiteSpace=wrap;html=1;" parent="cHpn67sG7nii0dPdHd2--14" vertex="1">
          <mxGeometry y="110" width="170" height="26" as="geometry" />
        </mxCell>
        <mxCell id="cHpn67sG7nii0dPdHd2--21" style="edgeStyle=orthogonalEdgeStyle;rounded=0;orthogonalLoop=1;jettySize=auto;html=1;exitX=1;exitY=0.5;exitDx=0;exitDy=0;entryX=-0.008;entryY=0.097;entryDx=0;entryDy=0;entryPerimeter=0;endArrow=open;endFill=0;" parent="WIyWlLk6GJQsqaUBKTNV-1" source="zkfFHV4jXpPFQw0GAbJ--8" target="cHpn67sG7nii0dPdHd2--9" edge="1">
          <mxGeometry relative="1" as="geometry" />
        </mxCell>
        <mxCell id="cHpn67sG7nii0dPdHd2--26" style="edgeStyle=orthogonalEdgeStyle;rounded=0;orthogonalLoop=1;jettySize=auto;html=1;exitX=0.5;exitY=0;exitDx=0;exitDy=0;endArrow=diamondThin;endFill=1;entryX=0.552;entryY=1.024;entryDx=0;entryDy=0;entryPerimeter=0;" parent="WIyWlLk6GJQsqaUBKTNV-1" source="zkfFHV4jXpPFQw0GAbJ--6" target="cHpn67sG7nii0dPdHd2--2" edge="1">
          <mxGeometry relative="1" as="geometry">
            <mxPoint x="230" y="380" as="targetPoint" />
            <Array as="points">
              <mxPoint x="240" y="422" />
              <mxPoint x="240" y="390" />
              <mxPoint x="249" y="390" />
            </Array>
          </mxGeometry>
        </mxCell>
        <mxCell id="Y-RljND5M3sKUDQWpeOn-0" value="1:1" style="edgeLabel;html=1;align=center;verticalAlign=middle;resizable=0;points=[];" vertex="1" connectable="0" parent="cHpn67sG7nii0dPdHd2--26">
          <mxGeometry x="-0.4068" y="-1" relative="1" as="geometry">
            <mxPoint x="9" as="offset" />
          </mxGeometry>
        </mxCell>
        <mxCell id="Y-RljND5M3sKUDQWpeOn-3" value="" style="shape=image;verticalLabelPosition=bottom;labelBackgroundColor=default;verticalAlign=top;aspect=fixed;imageAspect=0;image=data:image/jpeg,/9j/4AAQSkZJRgABAQAAAQABAAD/2wCEAAYGBgYHBgcICAcKCwoLCg8ODAwODxYQERAREBYiFRkVFRkVIh4kHhweJB42KiYmKjY+NDI0PkxERExfWl98fKcBBgYGBgcGBwgIBwoLCgsKDw4MDA4PFhAREBEQFiIVGRUVGRUiHiQeHB4kHjYqJiYqNj40MjQ+TERETF9aX3x8p//CABEIBLEGQAMBIgACEQEDEQH/xAAvAAEBAAMBAQAAAAAAAAAAAAAAAQIDBAUGAQEBAQEAAAAAAAAAAAAAAAAAAQID/9oADAMBAAIQAxAAAALWWAACiUAAFAUgALKIoSiUIolAABKJQAAiiKJQlACUJQAAAlwhsaxZURlTBtpqyzhKEVUWBYRQAEBQAFAqkoCgUoAFEUSZDDHaXTN5Oe7sTBlBljibrz03NQ2tWRnFIIAQWpEqYmbAZsIbGobWobZqG6aRuaBvc46HMOlyjqcsOpyw63JDscQ7XFDucI7pwjunEN+7h2nTcNUdCjFRFgAFABGJaigAsCiUACiUCwAFEoiiKEoAAAAAAAAiiKJQlCWYmTWNkwFlEWmLZTXdgwyqFZEZU1tkNbKElEFEFYwzmMNk1jY1Q3NEOhzDqcg7HGO1xK7nBTucA9B56vQecPRnnj0HnjvcA7pxQ7pxjrnKOqco6ZzjdjrhsuobccIW4jNgMpAEJaYzMYMxjNg1tlNTaNN2jU3U0N40N9Oe70aG8aLvGhvGluGhvGhvGm7aam0YMxh6PDgc+evYejMsYSiCggCKIsIKFIoAAKABQBKBSAKEABZDJhDY1Ym9zw6XLDrccOxxjscQ7XCO5wjucQ7NWgm5rLtuqmeKkuVMbnTBuyOd1bDjvbmcOfftjg3ehuODZ3jincPN0+vqPJx9LQcM6sLOZuxNOO6GqbIa2cMJliTHKGqbC6m1WptqaW6rodFOZ1K5b1U5HXTkdg43YOO9dON105HWOR1w5nSjndA528aW4abthrbcTFmMWQxZIiiKJKJQAASiLAAAAABKIsCwAAACGrbrrkstepjlMpKIABKIsAMaUAUSgANQnAO+cNTsnJDsx5h0Ocb5pG6aqZsKVMiMqa2wuttGpupodA53TTRd9Oe9A5r0U58tw03cNN2jW2U1tgxtCwZXCmVwGd1jZdQ3XRY35c1OvLip1zmG3XjBAQoCTRmbQAAiatxLo3gKc/QUFSlFlSlAsqpRjfO6a6ZzbY2gSiYZ+YeldG8A058O86eXr4js5+jSTdyYHRu074gAAAEogAAAEoiiLAAAAAACKJQhSYbMDiVXqRcpKMbYJRFgBFGJalABZRLBy9XIc+d2mDqHM6Rz3eNF3jTdo13MYXIY2iUCiAKIoiiKAIoiiKIAAAAsKAAAAoELYikAAqLADh7eHvEugy2aOgmOXGcXs+b3nm+p43rGwJ5/ocHeUCyiyiy20FABw93Dtro4sOo3iBzmGOjbW7o4+yBrOSb9B38PdwHfzdXGcXqa9J3JYiiFIAACKIsAAAAJQSiKIAsAAAAAGOWJxqs9DPDOWSyAEsCwSiLCCllJQAAnH2cZhv5+k2AFAAALFIoiklFSkAABUoAAAAAAJDJhDY1Ym9z4nU5R1Oem8AoAAAAAAlEWHB3+d6I4OvlO2hOHLoNWru4jT1buM71J5/f5/Wu5y9BlZRYS2W2goFlPP7/P9CmvZjHP1ef3GXF1cp1ZUed3NB08nVwHZjnict25G7l3YjPXvOLsx0x0gAQAAAEAsAAAAAAABAsLFIoiiKJMoccLO/Zr2SxZEAAlEWUEY2WgBQADHi7eIw6uXqNgAQwwNznpvadi5WCsaVjibGrFN7nh0uWHW5NZ3uQvXOUdU56bprpljcC476c86qcjrHLekc93jTdo13MYshhy9vIdkmQlAAAAAAAGHH3w8m+ried2Z4mWEho7ucdE0U2cvRkmttLyafSpxZdlMc5QC3GlstLyQ7HIHRz2pMhsy15Rz7N2RzuoczpHPOgarsGFyRFgAAIAAAAASgikAWAAAAAAAAAAACWHEqzu28/RLJUQCVUAlEWRBQoAKQGPF28Rj1c3WUDVt1pp6dPQsBqw6RyuonK6hzXfV03aNembSbqHD3cR2mBmYmTVsKxyHF1cR6DTtKlAABSAKEocnVyHVlKJQAACAoAAAAAAIlLFEUQICgKACyiy0spUoBQRRAAACAACVEAAIWAAAAABFAEAspAAAAAAAgAKABxzPBOrq5OtZLISiCiABLCAUAFCAw4u3iHZydYKTR0chu24ZiUAAAgDRv5i9HPmu1p3Dj7NSbeXq0rOZsHXzdJ5/Rp3Gzi9PkNnJ2cpt6+PrBSKJQAABHH18i9gAAAAAAQFAAAKIsAAAABCsYZtY2JRYLYLYq2CpSpQBLAAACLABLCwgACAAAAAAAASiLAAEBQAAAAAAAObXt1pv7OLtWEgCACoBKMQUAoABr4+vlJ2cvUAOTr5ToywzAAAAAANLcMcgAAkyAEoAAAUAAAAEoTk6+U6wCkAKRRGvSdTkHW5IdjiHa4R3OEdzhp2Y82ZsxmRjjtyOadlOF3DhvaOO9Y5HWPP9Dj6jIFAsostLBQLAAAABABAgAABKAgBYAAAAACURRFEAAAAAABYAGjXs1Wb+3i7JYsiLBKIKSwAgBQAADTzdPOZdHP0ADn6Oc254ZFTA2NMN7nidLlh1uMdjiL2uIdrhh3vPh6LzR6TzoelPOHovPp3uHI65yw6pzU3Y6dR1481N7nHS44d94dh2ZcuZu07NZ2AAqBQlDmzDNmMLkIoAAAAAABEpYogAOTo0dBkCpQCpSilgoAAAAIAIASwAAAQCYmbVDc54dLkh2OMdjjHY4x2OOHa4h2zkp1ObI3tNNrXDa0jc0w3ufE6nPvMpYLKaNO/TZs7/P8AQlkshKIKQEoQiClBYLKIsNGnbrR0adygjk6+RebHvzPMvq08m+qPMy9EcOfWOWdkOS9Q5r0U0ZbBgzGNtMWQxZDFkIoiiKJQAjKEZQAFJydnEdoAJQAA0ZaugyAAAATA2OeHS5h0uUdTmzNzAZtOJ0ObE65yw68efI19WiHU5Ydjjh2uIdt4adrip2Y82VbphkRnTDJibcvO9EgAgAADm1zrOWdlOF3Dido5MumGi7hruYxtAAAAAEmQ1zaNE6Ic7oGhvGm7aa7mMeXs5TqABq07tSX0PO9FZLIAgEqoIgJSgFlAEsOaUjbr2rFI4+vkXrUJRDA2Y5aTPPRvAEuobeTrAICgMMwAAAAoAABIpQAHH2cZ2KIoiiLAo4uzj7CykiiUWcfZyGee4Y2iKIuoynD6Jpb4as8hKAADHk1noXj7AABYKBYKBYKiuLt0ZmxUQAAAHH2cfWAAE5Dpz4tpvef3Dmuo39HleqCFNJuAMDMErAzmvYAACFoAOfo1Gy6toCa9e3WYel53oLJUQEWACVUJAUsoAAlhzZYZo2a9igOPs4zsACTFyr2c0G/ZhmYZY5F1bcDn6+LrMmvMx5mBu6dew87o5Yepi5x0+d0nVKAABSAAAAWBxdvGdoAAAQDl36ti7AAgDj6+M7QoADzvR8876wM2jMzeZ2G/kwyJ28G86FHldPLTt38XWZOLpNjyvRNjzes33HA2nnnoYcOw7br4T0mORjo6uGu4QgAAAcnXydQABjw+hiOLszOPr15nDvz2nE7dR5u7o3HB055HHq9DI5m3I0Y79Zi2U4+yaDr2c/SOLt4Tp5d3OehcciUGndpLt17SBMdO7SO7h7VqyIACLBKICFoAUlBjlicuzDcYZ45ADk6+Q26usc/QJjo6S8G3qAGGYAefn2jn30AAa5tGOXJmad+nsMgAAFEUARQABhz7cToAUJRFiAc+3TvXOWAIBoa+lc4AADDMcGXaPJ6uweL6ueR5O30By8Psjn6JTi2dMODq2jy+zopxZ9I8ns6ocPP6cNXP6QcvWNHneyri7SHB38B6EUEAAAOPq14m8AACUJRAAAAAAEoQVKAMchzbswAAwzHP08nWSiY6OjnMurl6jOWSpRAJYJRBQAoAAxywNG3VuMMpQVJydfIdalgAAAADXsAAEoFIQs0dJLKAAKAAAAAApzbOfsKAACcXVyJ1c3XwLn283SmQAAOLt4u1QAIBZCpiZuTWd7zx6Dz4ei8vE9aeRie08vI9KefD0Xlaz2XlU9R5cPVeSPWeWPUvk09SeZkek4czq5sMTr3ed6RAAAATg9Dyj0NOIxm3I1YdVOKd1PPvo082epDy8fWHjvYHjz2R472B5N9UeU9UeW9QeVfUHnZd44MfRp5M9YeXfUHl304ea9KHJ28XaATn6NCXp0bzZLJUogBAKQgKVCgAYZ4Gjdp3prymSyhOTs4zradR2ObpObY8s9jHj2G3b5+063n9xy9nBtNu3g2nU4N50TLEqZDh7hx9nBuNPf5Pom28PQbbp2lYZhMiUIAAUlDh7uHuAQUBXJ1jDV0Dl3atpmpIADhzm1dDs1HNj1ZHBj6OZ5j1aeU9UeS9YeTn6Y86+hDgy7RxuwcjrHJs3jROgc7oGjLZTDILKAAFgoODv4O8AAAAcXbwnaAYmTVtNO3z/QLLAAAAAAAAaTcw2EATUbcubpEoAA4O3l6TMI5+jSZbdew2ylgIISiAgFiqAUQLrzwNW7XtTVkKA4u3iO2UY5BOXrhy7Nw0XcOXfmODd0jmy3jzejfmXRvEoNezQaejLYef36tx5HqTYcd6aeX6GWZ4/s+d2G2UQApKAHF28XcRSSgoAsUnNtwyNiiLADXhu5l6pRCk17eM6zUc/b53ogCatB2XlyN7n5j0dWjcaejztx3tW0ObpNDHabDEya6ZXk2m5rGwACynD28nSZgAAAcPbxnTq36TfzbsTXt15Hm+t5vab5jxndq2aDR16MyZcPWbNfN1G7BynocO7QOjzus24aqavR1aDvYZnBt5tp1beHM6cvE9M6Hm7zreb6Ro2atpnZRp3ak2ZTMzlksBACACWClALKANezUTZhtTUsUBx9nGdgAAIsAADDMGJmAAAajbePrKAACcnYOHuCghQAADi7uLtBUlUlAUkyhpxyG1RFEBjz9Gg28Xow4evMrzvR1HHM8jV3NJnhN5eLvHPy+kObj9UcLuHPp7hw9wc3RRo5PShyc/o4nl9+PWePt9AedPR8w9cAAHH18XcUAACWDj7OM7AAAJYCkWAFQKAAAAEspKEwzpz76NGewcu3Z45t9TRvNK4HSC6d2tMtmMN0slSwiwCoshLBSllAAGrbpMtmOaaVigOPs4zsYwzY5BOY6pjrN18zsN3Lu5R3cPQbuHs4zvQU1G0pjwd/nnoXWOXu8rqOx53YbXN0FadwY5gAABRFHD3cMO++N7CZFJULdeJuaIa+nk76xUSZSIDHm6+M65RFgCjQblEAAatoAAAAAlEWBYWBzZ7xFEWBRwd3D3FABAAOPs4zsAAcvUJRF889BAMTOXzD05RCksFihydRThO553oFAABzau4WWGvXs1nVKRjniZY7MDdjljLFglEJQAkUUoAFE07tJvypOeUsUTj7OQ3auuHP0Bo5vQ5zj2dugx5/SHLh2016esedenYc+HdDLXmMc4GGfOcvo47Di355nndPQNGHUPK7Mtx5Hs+b6QAAAoAcfmetx2cvTz+qYu6nDl2jlz6KabuGvLIYzKEmQxmUMeTs5Tpl8+O9xdo4e3yzu5ujA6b43evVOfoMM9HQeb6PCO6aeU7r5uJ6zzuw2vJ9MzAAABFCKJYUAHB3cPcVAAAA4+zkOrg9Aa8d2B5nayNGWvoJ5voCrynpatms2+b6fOb3m9Zo247DT1cfUY7/C6Df2cvWZeV6vAb9ejM9DDzes5PR83ed18v1BRAXThu0HWCyxNuG3EuOWKpYBEAlgALQCygE0b9J3YdGhOUKBjy9XMdcsABznQlBrNgAAABQQoAAAAObT3jXsBQUIoAWVNFlMOuWrZkS2i2mNzGDOmqbYamdNUyGHNtGayIsJKXG2Jz7NhdG8MMwmOQ14b6cuW8c/QHjenlsAAAAAAAAAODu4uwyAl1mc16TZny8h7PJ18Z2AAMKZAAHOdAJQHKdTz+s2g1bKDHIa9g07Mhw59g13McG/oAolhjz9PMdgRMob5ngSWLAQCEAQAtAKADVtkepx+n5tcSwAw0btR0JynXeTpJ5vqcJ07J5x6XHnqO9w9Zm8/uMmrE3kKuJkAnnnosNZvYjOIUACygCgAsoCaVh0Uq5BcpmM8szFuzNLpzOTHp1HNh16TRN2s4d+eg2zKGKwky8mPUcnStl4jtl5DrYUrRvCYGxYatvkdB3scgAcp1Go2sMwQsolAADjwz6TkneODH0R5+3rhxc/obC8fZxnYnMdWN1nk4+tkYNnmHfOXE9Hyd2w27N3hHt6+PvM/E9zyj0vN9Pzj0rzc56Lk5x6fjdJe/wAzI9Fwd5YFSiwUAhObdgdKkKOjHbgaplisEQAEAhSygFAKTPX0R7Pke141cKwgNWvfzHWCKJhmHB3jmw7B5fbtpxafTxOTj9qHJzenpOnVs1m0Dg7uM6uHoyNWHfwHTq6ec2469B6Tm889pzdIBQEosqCmljsN1lrKzIyzw2Gzfj1GWQAqUYc/XE87T3cZhxdvGbuPtxODsyhNG+R52Ppl83LvhzcPrjk5/TwPN9PHYasshQcWHdTl4/W4jbx+nzm7k7sTi383ccmPHtPXY5AAAAHF18nYUEABKF4+vkOvVuhE8w9Vw5p16+XjX17o0HVtoadPIendXKdvnbA7ubaceXXqNHboDs88dfndW01btnEd/PqwPQnndB1ZatB2uXE7AmmWHTZRUO6bRwTLFYIlgShCksiihQACdfJ1R7Xi+14lcksIBxdvEdoEogAAAAAAKgoLFJZQBKGvYMeDeM94AFAIsospy9PH3VcsaZZY5GzZr2HR28nWAoAAGrm6+dOPg9Dz66ccsYmOWIxykadvn9i5nGnW8v1Vky4TqnBuO0AwMikUQABhmNW0SgMTIAAHH1c3QZgAAkovF2eadvFspu2csNmtDbhiOvjotxG2a6bNOQ368KbMVNd2U87f104NvUPN39g1cvfTg2dY49+0cuvu0mrTsyO9yk2tHQdGUpZlD1Mrtl8WZ4ElhFEAlgllUAFSgGPTzdEe74HueBWuWEBOPt4jtTjO1y9RFgAAAABKAABRKACwWAsFSgFAAUgpxd3B3lstZXGmzZqyOvs87qOpjkAoAhr0Z8yavP7/AD669WyR5+fXAQ87qbI4t9yOTLdoXp4tvUeR1d2s5s9HYaJhmb+TLI7NfDtOvPl5T0svO1l7sNZ2vK6jred6BeTbDPZz9BLzZl470nJ2cm46wAARQ4+zjOwAAAgAAAAAAAAsFACACq0byaOiUFNevbzncC2Znr7cNi+Lq6eaMZRBUAlglACwUAGG7TtPa8H2PGEsEsHF3cJ2ygCLAAUiiKIoiiUAACiKIogBSKAKlARQFOTp1Zm642srjkZZa8zdnz5Wd3T5nRL2ucdDnh0a+fAujLVU5Orlhu0bCzkp1QiMBklBgZPO9Ba07gACXDMxZDRy+iOa9AxZDz+joh4/sKacOgeZs7xxXr4ybdfSY8/dwHeAAUgJy9Gk6SFcHeDnOgxKsDGlURYAALOc6FCWBYUCwKxMgiyiwZef6HnnpAyyxyPZ2ady+bxehwRgsIBLKAggKUAANe3VtPS8n1fJAEpJx9nIdYUACKSFUAQqUAAFAAAAKEgKFikAAoFlNONHQKtlLljTLLCm26rZuusu26obMZgZ67hF4ezSat/P0mi7RMckebh1dBzcXrcx1ed36F27PP6zi3XA68fK6Dvy8beavS49503xvZMcufoHlehwHocfZwHpa+ToN7i3m/l2+ceq5szcsAHD3cR3SiLBQSjTiyNvn+jDw/R0ekPM9PkN3h+5wm68XomXl9uJv19niHp7tPkHv6+HSetlz5G3w+mnZv5uI9LPX5h0M9p0OfA36eniO/zcuc9hz5pu4u3zTv5ezz19PzPU8VPaspllhmer0cvUvD5/fwRjLCASiCosgKoAANe3TtPQ8zu4SAAw8/0eA6KhldQ3NA3Y4ZGOG/M43dTgd44XcOF3Dhd1OB3jgy7Ict3jQ3jROinLekcrrHJeocu7ZDGZYm5pG+8MPQcFTZv8/wBMqC2UtxtZXEZsaZXAZsRlJCyBhkPPzy3nM6ZHNl0DldWJpzYm28uJ2TiL2uKm7XBtxmRizp5/XupyZ9NOTm9Qee9CHm4etTxXtDx9npw8Xq7cS3DE2TDIvL0cR6tlAAAObbz9YUYZAABpw6RKDRvGGO0aMOocPTtHH05U18neOTZvHBj6NOPj9enF0504NHrDhy7BeLtHDr9HmOvwff8ABPfY5Jcsael3eZ6Jw8HdwyyWEABAJZQoAsAGnbq2HTydHOAAa9V2GZDKANJua9Z0JQAxJlLzLsTnO5QAAAqFgUAAAACwVKVCcHocHeAVKVBkiskFuNKgqAgIOTr4+uDGGQAIAAFAASwsQpSKIAAAAAAAB5np+aekAAADj7OPrK08h27PC7joy2eMey06zqcHca8+Peb3NuMzUbWncAaObdpOzZKHn+gDiO0A809Nx7jcCgBL5XqecenYMkp1d/m9xo4uzjlgIKEAIBZQAADRs1bU26dmtQBDm6NHQYeb6vMbdgcd3aTb53pjl3Zww2Yjnzz6Rx9mJOXeN4AACiWUJQAAAAEBVAE4e/g7wBYKQoKCoKgqCwAOLs5Os8zbvxOgHPhz7138vT5p63Nn5p7Fx5zqeN3HXxdnjnsXzPTOLo4/QOLu8/0AQAAAAAAAAed6PjnsAAAA5Orl6yY5w8305TT5/rCcHoDxvUbD5729PSeNu6ug4drUbNzI8z1+eHX5redV+d7Tf16szDk5+k9HHg0nseX6nlnpcPo+WeoACpR53o+celZUWU29/ndxq5ujnXFZEAllAQFSgAAho3aN6XDPBSCyw0b9G8AAOeHS1bQAAAACsckFWKJQSgAAAAABQAA4u3j7CpUAAWUAAWACoLA5Ovm3GQUEmrcMWUW8XYNOzIee9ATTuoIc2zcOffRLAAAAAAAAA8f2fCPcAAQVKcvTp3kBQAARYAAAAALBhmpFGvHcJMg5eoauP0QAKSg870fPPQsqVKZ9vD2GGjdpXERBQEWCWCygBYJYc27TuMsbABKObo5eonnelpMtgcHXo1F6NG035cOZtz5tR6OPHxHt6dfMelp2chtw7OI7qAAAAAACwFgsoAABx9vH2EUAgAoAAAAABzbOftWY4eaeu1bTl5tuo9Lk7PLPSvD3Br2DGaDqSgxMmnYVxdxHP0AAAApAAAAPG9nhO4AEUSynN0ceg9R5dPTeYPTeYPTeZT0XnU9B52R3uCnc5czewzAAFlAAAAAAF0w3XRDo8/frOzLVsKlL2cXYmOrZrXEEABAJYLKAVAlxObfo3ksoABydWjoIuJSkAABYDl6hMc6OXpGmbqZJQAAAAAAUAAAAA4+3RvCUABAFgqChQQADi7eLtVo3iLDi5vWHPo74ce3ePH6e+HLr7+c4NvbkcHbpp5vpdFNO/wA/sObq5OwoAAAAAAAHD3cB3XHIASiUAAAABBZTzfR830hjkNerpHmujYczvHDj6A8zK+gcWXVDmnUOWdg4p6A8+944p3Dhy7Kcl6ho3UACDs4M06sNeaoQllAQCUSgABcM8Dl38+8WUWUA5unl6h53o8J07dW0mOWg2ZUMMxzb7RKNG/XsMcdmBydvJ2nD38XaAAACkAKSgAAAABp3c/QVBQAAgKsoAACLBydfJ2LPO9LSNlE5umGraHD13Iwx2hr2QmQa7r1nTlwdhht4+059/B6BAAAAAAAAOLt4zsAAAAAAAAlEoeX6fm+kAAcPVy9RsAB5/ocXUbAAASgAAAsFAABgEy3adq2AikEQUIKAFSjDPWcm7RsNmeGYABy9XL1DHLgO+TIgCUAALAUlQoBQAACoAAKAABZSLADl6uTrBQABQAAAAWVAOXq4e4eX6mhZulGGWs2S4i6tZ0tWwrk0HpOPrK5OkyMDi6tPUa93negVBUFQVKAAAAOXq4jo245AAAAAAABKAeZ6XmemACnn9fF3mQANGO/jO9KAAAAAEoAAsAphYTPZp3LZYJYAQCWFABZRMNms488MzZnhmUAHN083SPN9LAtsAObpU1aOyF07RzdKmHP1wUObdz7DV28PcAAAAAKAAAABRCnJ1cvUAVKAUAABSAoAHHq9EcN7YcGXZgacrrN2XJDsceR1Tk1noOAd7z8ztcg65yjHs58zl9DVib3NidV5IdjjHW4h3Y8kOrHRmZYbNpxzvHFt6AAAAAAAAAAB5fp+Z6hFEsp5no+d6QAA870fOPSgWBYAACwVKCFAABjjlgmzbp3LlLBKICASgACga9ms4s8MzbnhmVKAefuy2nLOynE7RxO2nC7hwu4cN7RxOynC7hwu6HHesczoGhuGnHopzOoct6YabshiolgzurE3tA3zTTPG5mvLLA19mjeALBbBQAAFhUoAAQWAlhCBAKCkWDHIa8shjjsGmbxobxqyzACUSglABYAAAAAAAAAAAAeX6nl+oQhbjTzPT8z0wQUHF28xt2c3SAAAAAFgBQAAY69mpNm/RvXKWCUQCUSUSgBUF17NZxZ69htzxzAAAEBQlACVCpSUAAFlAAAAAALAWUAAAWUASwAArEZsRklAALKJQASiASiTKEUQBBQJNZucuJ2OMdjjHXhozLMqYM4QhkwplKMWQxUMteJ03kxO5549CcFO5ww73nj0Hnj0HBD0Hnj0Hn075xDrco0enxdZQFHmel5vpkKRQ17NRz9vF2gAAAACwAKAAGOrbpTZ0c3SuUsCABLBLIooAC689ZxbNeZvyxzAEoAlABLCgAEKAAcx03jyOpyjqclOrDRkMd+ZyOscjsHI6hyuscjrHI6xyTsHG7Bx3sHHescrqHI6xy3pHM6hyOscjrHJOwcTthyTtHE7hw5deBpyuJlMIZx0HM6RyuqHK6hytWo7NnAPSebkd84qdWOnIyikUYzaNU3U0to1NsMLlCUCCyiKMZsyObDvyPNelTzHpDzXpQ8+98ON1w5rvhqysGWvE6svPxPSeZSen5/okWADTu0Gvr5eoFIsAAABSKJZQACad2hM+nl6VzlgIAJYJQAKSyjXs1HFnr2HRZkSgAAAAAgUAAADl28p6DDMAAAAAqCxQAAABZSWCpQABYKAAAACoLAAWACAAAjDxTs9LxB7bGlgAVKQACyiWAAAAAAAAAgKQAAAAAAAAACUSg07ocXd5vpEoRRKEUSgAAAABOfp5TZ08vSbJRAQAgAAAoNW3UcOeGZ05Y0oAACwAASgAAAU5tfZ5Rt9HXsEsFlAABC3XDbJSgAAAAAKAAAKAcB3vMyPRecPSnnD0nmj0XnD0XnD0XnD0XnD0HnQ9N5o9KecPR5tWZwd2npOhy5HQmRFAEUAAARQlEWAAAAAAAAEoJRFEUJRFEWAAAAE5OzyzX6/kj1wAJQAAAAAAA5erkTZ08vSu2WCWACWEqRRSgijVt1HBnhmdVlBTzNuPonn6vUHC7hwO8cF7hw5deBpzsMmENkwpMd1OfX35HBPQHBPQHnvQHn3vHBPQHn5dw4r2Dz3oDhnoDz3oDj6cuc6QALBSFQUAFA4u3hN+/XsFgqCoKgqAAAQoEow17xy49Y5ceweZPUHmT1B5mXo4nFl0Q1ZXE2Z8uB6DzR6TzR6Tzcj0HIOpw7DqY5kAATlOt58PRvnU78eHI6pozLjspox7KcTuHA7xwO8cF7hw3tHE7Rx5dGJryYmyaNJp9LgHqvK3nc4adjiHa5Mjpc+Rua8jIApAS+f3mXH2cZn0aN5ulkJYBSAlAoAA1bdRwZ69h1pRUOLu4e8gBCgA4NHrcZq9BxHc4Nh1tWRm59pju8n0zMxMiFAMTJBQAAAVKOHu849EAAAAFSgFA4O/hOvPXsAAGnd5B6e3yfRNgAABBQAYTzz0wAAEoAAAAAAxyGluGGO0eZ6fl+oJRAeb6XneiAAAAAAAAAAACFABKhYpFCUQEx2Q1Y76cs6xxTuHC7hxTuHnberiO/j7OQy36N5vlkCUAgAALKShNW7Seft1bTqqjHLA5+vn6AAAABzdInH2jHzfUHl4+pDi6LmcG/bzlwz1HXw9mk6ObfrLsms27uboOft8b1jMAIsqgPO9HiO1hmAAACgCwVKOPs5y7+TrAAL5vpecd3nd/Aenr4vOPosLwnJ38HUei8v0DJ5faMpvPGd2ZvuOg6QQoSgAAAAAAABKeX6nmemAJR53fpwOoAAAAAABj5J7DxvXMgAAAAAASoFgABYBYVKACF87u4j0OTr5DLdp3HQQAgEsEoCCWqBo3aTg26dx10GjfyHFnuGvLXDfdFNzWNl0aj0MvJxPay8KnvPCHvPBp7rxcj2Xk5Hp3zKelo5aeg4Mjtcuw3MchKACUWUihy9XMZ7ufoAAAAKgoFguOQ8/wBDzfSAAHk+nicPo5U8f1NPCer53fwm/l79p4vo7szk4vTyOTvg4eyZnN4v0fKYduGYAAAAAAsAACWA1HF6fD2lQWA870fNPSAAAAAAB5+j0vAO70OD1QDk6OTzz3nm9ptcnWEoASkAAAAKQpFEoJYczX0G7l6uUbtO46scoQEAlglAAFBNG/nOHdp3nWBxdvAd9BBDnxOq8+9RqNrk6yKAJhsHO6Kc+PUOOdo4MPSHj6vdHz993E8R7mR4mfsjw9fvw8C+7DxL7dPI2erTzMfV0GPTzdIAAAKSgAsF5OvWeV6HmdJ146shjnTXNsNdyGNQyYDOYQ2TCGcwhsa8jZdWJ0XkxO++bD1svHh7M8YexPHHsPHHtZeIPdeHke08jI9V5WB7E8bWe6+ep9BzeTken1cfYAAODv0mzLk6wgoAABCoMPP9PlOH1MtJ5m7j7Tt5fQ4jqm7gNvVo3nl58vSei1eYexfI9YAAAAAFBCgA4ejCHVy9XKNuncdeOWMBUBAALBQAOfo5ji3adx1ywvB38J3yjh6sx52js1m/p5NJ6PE7Dzt27iPQy5Oc7s/MHoYc1OrdycB6+zycjv3eL1nfjz8x6E0w63NtNnF18J6Ccx1OPcbnL1CwWBeffoJ08/QAAAALKAAVKeb6Xm+kAAAGGYIWatpQQAAAAAAAAAAAAAhUDVthy8vq8hOvTuFQqUA870fL7jbcMigMcDa1DYwzKBKJQ1Y7wAxyCUcfYGvx/cHB3AAAAAAABQAY8Ho+YenzdHOY7dWw7ZYQEIWAAsFAoTm6eU5N2jedQHB38J3VAAYmTHIAsAcp1A05bKY8vYNOzIas8hzc3pDn19g8vr6Rjy9g5uP1Rw79vCa/U5OsAAvN08xlv07gAAolAAACpTzPT8z0x53ojzfRU5engpq9TwPbM5j55h63iw9zDV4577h5z1sOHI7uXRxHvXnxOo5Dr870fLPUAYZkoAAAEpFgAgOXq5jPdo3gACh5Ojs9A+efRD5/H6Gnzl+ih89Pox83PpIfP7fYxPOy7ocV7IcuW+GrLKFuvE2ufE63Diek8vE9XHyoes8kexn4Y+gz+dH0TwMz3Hi09l5GZ6jzcj0Zw07nJkdPmdvCenzdHOTPXmd8sICSiAAAoFgcnXyHJv0bzqoY8m/UdeGUMbo3nn9/F2HB28Y9J5vebOTq8o9DlzzN2zi5j1po0m68XQdjm6Q1w2g4u3zfSBzHSxwNrHWbgAAKDm6ecy3aN4AsoAAAAKSynmb9PYaHQOfPR0GzLm1F3aIbrp6TRyexTg5/V1mzy/WHLz+kOXbtGny/aE07w8b2cDT0c3UfN+jnkafT870Tg9Dw/UOgAgUQAEoObp0GPTz7xZSAA870vN9EsAUigAAQAAAAWCwCiLBKMJsGluGm7RrbBrx3Dnx6hxYegPLx9YeRPYHja/e4Tp1bNZhnhmehLiAQCWCWFsFAKTj7OI5enm6TqBoxZG6gABFGrR2DU2wxZDXxekOXV3jRdw8b2ZTVlmAPJy9QaOfvGng9Ucnm+15h6G7HIAAWUaN+gnRzdIKSgAAAAAKed6Pm+kTm6YeH6PH6ZuBJz7DPn09xwXs1nNfRHnvQhwT0MTz8sfSPLynpnm30R5z0R5r0oec9EeffQHl6vR2nA9KHn5d2s07Jgb8uLE9B5w9F51PQ0c+B09PmdxtQAAed6PneiMMuQ7HD3GMx1nVreedHZhmDWbJz9JCFcXaAACkoRy5m8AAACUAAAAAODv8AOO3Vu0mGWFPTlhARYJRALKALA4u3iOXp5uk6gc2eGZuIVydBm5YdOXj950zmxMt/J2lkFspjfMzPRY5EYbBKABznQlEug5+zKgAACwXTt1GHTzdIAsoAAAAAsp5vpeb6RAYbIKAgAiioLwdw150YZ6tpzdOjeJQlgAAsFgAAAALAA1bdZo6+PrBSLBZTzfR870QADW2Dh4PexLr285uuOR4Hpb+I348nrnldPRzjZlxHq3h8896YZmjepx7uTuMlgauE9NOU63L1AAAAAADzfS887tO3UacsaepLCAQAIACgAnF28RzdXL1HSDnqHRKNG6jmz3Djy6oebl6A4ejbTyMvVxOXm9HI5s91PN9Pk2k36dp5vbz4noc+rkPY8vZDq6NHMdHlejzHZ08uZvcO83uLtDTsMmncNezWaurl6gAAACpQABYPO9HzvRAAAAAAACiKIAAABLAAAAAAAAABhnicvXxdwAgAeb6XneiGviPReePQvmD0nnD0nmj0nn073FkdTTmZpTGZjknZSA07g5Ob1B5nV0jR53sDHj7ocG7oxL5Hr+ceoxyAAAAHB3+edmGeBzkPYxsIBLBKIBQFICcPdwnP1cvUdINGGfOduPPTDXvGjPZqN2zDA3TVTO4Q3Z8uJ3PPHoPPHoOHadDDMsomrcOZ0ieb6Y4naNHme0OLk9iHmPU0HHv6sjl1dHGelho3Gvq5ugAoAAAKAADzvR870QAAAAABQUEoksAAAIogCwAAAAAAAQOD0PP9AAiwsYnD6HB3g5zX2ed6RKAACWGvDeObHrHDO8cLuHBe4cOXZiadk1HU5Idjjp1uUdTkHW5BjzdlOi81OhoyNrCmSUAed6PmHoa9uo58biezLCAiwSwsBQAAnB3+eaOvk7DolJouG1dhxHa4e4OTpMgAhpzXMBNZtBhp6YnFh6JfPnojz56MOLZv1mWzl1ne86noPOHouCnc49h0NFNzXmXVt0mPRo3gACgAAsoAB53o+d6IAAAAABbBQAQEWAAABBYAAAAAAEUQp5/oef6BAANW3lMezRvGGY8/0A5+lDz+reMNHVzm3LDMxy4dx0McgAAAABLBQAAAAAmOYwZiUAHl+p5x6GrKHJEr2YsSAIARZCy0BQY+f6HnGns4+03g5Ojn6DPn6IeT6/N0nmbOraeV156jT18m8y5e3zD2cPP5zq5Pc84w3d3mnpTRmbLy06LjibE1G4hQAATHMasOgc06hx49w4MPS0F3adwAoAAAAVBUp5vpeb6QAAAAASlSiwWAIAAAICygCAAAAQAFCWHB6Hn+gRYCF4u3zzs2Y5AFSiUEoABAAAAAAAAAAAAAFgAAAA4e7jN1w2HFKr1rLEAIAQRRQFBj53o+aau3i7TeDk36szcAABYAJydg4p3Bxdoed6Ix5+oeJ1d8PL2eloJxdWBucO4voeZpPZcWB6Dz6d7nHQBOaHW8/wBBHP0c5nt1bVAoAAAAABDg9HzvRCUAAJRLBZQBYLAAAAECwWACoAAAIAUgEsOLv8/0BKIsHnej5x6FlAKlAAACUgAAAEoAAAAAAAAAABABVnN1ajRv4+04DGvYywziAEAEUAsCgx830vMNfdwd5uBpw38x1gAqCgiiAAAAESpQDW2FlCef6JOLZ0l5eD2YcPXMjzfT16TV6GvWae/TuHN08xt2atoBQAACFSgCUed6Pm+kAVBQEFikoAAAEoAAQWAAAAWAACUAShFh5/o8vUEpFDzvR809FRKAAAAACWAAAAAAABKAAAAAAWKQAAp5Xpeb6R5+OWNett0bogBAAQoAKDHy/T8s1+h53pG0Dj7OI7QKhQARRFgKkCgASgAAACAoACUSgA5+jQZbdG8qCkKQqCkKlAAPN9LzfRKgoAAABQlBCpQlABCwAAAAAAAAAAGOWs09XH2EoAPO9HzT0oAFlAAAAEWAAAAAFQUCUAARYFgAABYFQUh5PqeZ6RwY5Y16fRz9ESUSUQCAsoAsGPler5Rh6PnekbAPN9LkOnLz8T0nm07seXI34TIwm2mm7RrysMrqxOm8cO6+fD0XnD0XnD0XnD0Xn5na5dhuY5AAAAADXshz9PJ1gFgAAVBUolgNZxejw95AAKAAAAApAAWAAAAAAAAAAIKBBdO7Qa+vl6gAQvnej5x6AAFAAAACLAsAAFCUAAAAABCoAAFACKIo8n0vN9M8+WV6PTzdEJYAQEBQChBj5Pq+ST0vM9QzABUoAQVBUBYiwtSkACAAAsxzGjDqHDj6A4J6A896A4HfDiy6sTVmwN2XJgZdvk9x0AAAAssKlBC6tmg09vL1AAoAAAAAAAAAAAAlAAAhQARRFgA07tJh1cvUAJQ830vNPRAAAsAAFgWAWCwVKEFIVKAAAAARYASgsFAglSr5Xp+X6h50sr0Ork64xWAEAIUCwVBh5PreOPU8v1TIAABQQAAAACkCAAAAoAEsoAAAAABx9mncAAAAAAAMchyavRHm30Yefe/E58ssSMxjljibboh15cGJ6Lzaei87M7nLsNzHIAAAAAAlCUAAAJQc/Ryl6efoACC+b6XnHoAAAAAAAAAAWABYFlAAAAAABCwAFlEsKDyfU8z1DzZlhXf18fbGIBABLBUKBYMPG9nxi+r5PrlAABYEUEFspFgAWAAAAAAAIAACgAAAAAAAAAAAALAAABUoAAAAxyGnX1Dhx9Aee9Aee9Aefe8ee9Aee9Aee7xw59Y48uuHA9AcE9CHA9AefPRHnYenDzenR3GyWADh7uE7nnD0XnD0XnD0XnU9BwZHa5cze15lUQAApFEURRFhUoSgAACUQAoCJQgeX6nmemvnYZ667u7z/QiIAEsBCkLAWU1+N7PjGXreV6xq156dZzujOs8tORmwhsa6XLVkZ2bJcG5Gmb4a2zks68pc6AAAALAAAAAAAAAAAAAAAAAAsAAFgsBZQAAAAAogBSLAAAACWUAAIFgWCZQUgAAAAABjjsGnDpHHh3jz3oDzno082+iPOehTznojznow8++hDgd44L2jkvTDRdkMcpibboxOu8MPQefD0XnD0XnD0Xn5Hc4ho9PzPTPP1bdNnZ6Pm+lLJYAJYJYUACwavH9fxzb6vleqaNO3TvOWWrOzOYw24QZWYFuNM5hvlxyWMZjlU09PLZ32XnsAAAAsFhAUUgCwAAAAFIUgAABCoKlAAAABQAUgAAAAAFgsAAAAACWUAAJSLABZRKIAAAAAAAAAABQAAlAAAAAAAAEAAxmcXG5EwyReDTv0WdXp+X6kQLFgICCygApo8f1/IN3qeZ6Zow3TU1TaswmymrLOGM2QwZjXcxr2Bx4drU4t+3I3WXloUixRQgspIpUogQVQIAolCLCwCwKIAAAAAAAABZUKWUEolAACKAEoiiAAAAAIKAACKACCoAAAAAAAAAAABSUAAAAAAAAABSASiBKlVLDg0dHPZv8AU8r1oEUsIsEsFlAAOfyPW8muv0fO3ydTycj1XmRfUeXkek82novOJ6Lz6ve4R3OKnY5B1OYnS56dDRV3NQ2MBsYDNiMkFAlEZDFkMWUSKIpcWRMbRFLAAJQlEUQpDFM7qVtmsbJrpncbGa5GLIYshgzhiyGLIuLIYshiyGMzhjMsQBKAEolAAAACFIAAAAAAQAoAAAFAAAAsARKJRQAAABCwAAQCoXi5evkrb6/kezElgIWAlEBQAcfm+l5x07NcNdwysssCiWBULYMkoEVKpQoZWVJaqFC0xZU1tmRpu/M5XVic7phz5b8zmddOK9lOV105J2Q5XVTlvXkcN7KcjtRxXqyOW9dOPLpyObk9fyK8TGXpC7TTN+oxllZd/m+rm9d044dF08517ObMyuHAvqXk2G3LhHe4cjsvlZJ6mXm9EvU0DZPKzs9Jy5y72im5qG1rpmxpUoURRFgAlEBFhUoAAQCkoFEURQKRRFEoAAgCUsUQBIWIVIZMRkwpkxGTEZXEcnL18dbfa8T24kAQssEsKgoEuJhw9+B5b0oefe7Sc7oHO3jS2wwZwxqFuAzaxtaYb2gb7zDpc1Ohzjoy5h1OUdc5h1OYdN5adN5h0uenRly06nNToaKb8+ap03mp0Z8uZ1XlzOi82R0NFN2ejI6c+XI69nFmeh897fLb8Zj7nDucOUWZ5ahkxhl7PielHpadUxduONOrThTHX1wx6uYdDTmaLuGvbBUpliwPF0bdXSb+3i78axmaTVcxrmwa5vq8927Dlu6ppu3EwuQi4raouMNl1Q3tEN2fMOq8Y7b59O++ePRecj0svLh6t8kes8oeq8ynpTzx6F8+ne4MjtcY7HJTpc9Ohz1N81DbNYzmMWoEQrEVIZXEZMaZXGnPx9vDZl7vge5GcFIAJKBQAACgsUlCyiWUAAAAASiTKmubYaZvHO6BzOkcrrHDeynDO4cE9CHBPRHmz1IeXPVHkz1x472B4z2R4r2h4j2x4l9keLl648m+pDgy7Ic2e2Fz1yN2GEMMdkrS2w0zdK0Y9A0ToxjS2iGJsmECQ2Z6IdLmhtxwtZbdFOuctTjw75Wvr0JehzjfNI3NVTOYpcktXPCGyYUyuFMpBcsIZsaWBUCwIEBkxFuMMmIqBMoM8KZsYbGGQUmDMYM6a5thqbYa2dXXNo1TaNLcTTOgc96Bz3oGi7sjQ3w1XPAw5OrkW+34fsxtYDNjDJiKkNlgqUAAqUqUAAWCgAAAAAsCoAAAAJbAABKFgAAAAsBYKgqCoKAAAAQoAAAAAAAEokyGE2DTN40ToHNOocs6xxO0cM7x589Eebj6Y8ueqPJnrjx57I8We2PEnuQ8R7UPGvrQ8q+lDzp6I856A4HdDivXDldENF3Q1M4YriW4Q2XTK3ueHU5R1XjHZeMdblh1OUdV5B1OWnRNA3tA3zSNt0jddI3tFNzUNt006McBOXfqMfX8zvjcwpkxhkxGUxHSsCglAFBYKlAAFlCCglQqUAAAAAAAAAAAAIKQqCgAAAALCoKgqCkFgqCoKgqUIKgFJYKgoCUAEKgpCgAIAFgAAWAAAAACUEsFlBBQAAAlCKMcdg1TcNE6ByuocmPbDhnfDz8PSh5mHqYHmY+nhXmT0sTzZ6OJwTuHBe0cTshy3ppzOqnJekZ7tWUbLqpmwhsmAzYDvBQRQAsoABUoAAABYAACwVKAAAAAAAAJYLBSFgVBSFAAAAAAAAAAAAAAAAAABUAFgAAWAAAAAAAAIVKSykUAJQlgsFQVKEogWKSgBLKCFBKCAxQYsRjITG4DG4kiCAAARVEVBbiMmIyYjJhSsR6tgWCoKgoFgqUAqCoKgoAAAAAAAALApCwAAAAAAAKgqUEKlABCoKlICoKAQoAAACCgIKAAAAAAAABAAAAAAAAWCpQQsAAACoAAAKBLAAABLiMbiY43EmNwGLEYoIhSVQAJQAEJYLAWAAHqUAAAKlAFgqUAAAqBYKgsCkKQoCUAAAAAAAJQBAoAAAAAAAAAAAAAAFgAAAAAAAAAsBYKgsAAQssKlACUAAAAAEKAAAAAAAAAAACS4kxuJjjcSYXEmNxJLKAIKgWCwFiAoAAIAA9SgAAoAAAUEoIGUAACwAAAKCUIBQQKAACUJQgLAUJQAAAlAACUEBQAAAlACAUAAFCAAAsCwJQAlACUJQQAFABAoAEACgAQKABAsCglAAADEGvEMIGGBWMIxFShABFFIAAAACBQIR//xAAC/9oADAMBAAIAAwAAACHgAxCAz2EgxxDBiDCwwxywwzDCCUWCwg0mmGoLLcvUWXwy8kD0WOft2U3HF1znFFEnGln/ALeH3L3fDbbrbrJF1xpEAdx1nj/3/NMDAwEkwkcwkEc4Qw4QEMEEMMMMw4ggp9cgl1BmqDjva4oEQYw8yWSQK+AscBhVRxNBFNlJt9rLR9N5ttRx8uWjXK2+accQbua8OKy3MYwM8wAQEc48wc4gIEMMEww4kAf2OumWS4M+xBSBGtpTbjPTm0pOS044AMo4Q06a+AkEdN6Sy++rFQ0sMIEAQ008sMKcQaa+Oa2ukEwsMIyL3Xr/AE6++5hjpnqhuppPOEABCAINCujIcMnACPPKWZTNFikXR6khGjksrAM4Kfc/vrgkvrCAEMNPIDAAAMIOMKG252pjsuJHKFPpgFPMMBLPLIDIMMMAMMMPHPPNAADPMBIhvgNKOAELCCPdQa+/FFvtNPrhPrI8dVSsuqAAMNDDBCIEMPNPPHDBDJYFglhktzCJPPPivPHHPGMMYEQQRGBCAAAACABBAMPOAACOIAEJEABCJIMeBKh/BFqrTimsqjNSZRZkgmJAAHNLLODAAABNGMMMMGZJ/wDpKQqgBgADKYBnn3yAgR0EUUhQiBBRjwQwxzzxBAAAAAAADDTAzCAHSTih66C7biWI7JBwiLY6obyhAACBjzTzxywgBAAAAATERIpD12IDgTiwJLy2DwAFFgAzABQQQRQTzzzjzBAghQABHxywxwQwVDDC3zyBarjhj4LLzwgTwhK74Z7zQgADADyjzzzxgAk0wwQcgJIQyhTyASDz6bjChAAAEFUBR1hRxiSwzjCAAAEgxDQzDT3zzzzDTwxwAQwxS6aQRggBTigDSjR6oL77y4AAABDTz3zzwxBzzzz8wYq6ixjwzgAgq4BQgAAwRhSBTzyxzzzzwAAAACDjyjzjDTTjzzyghgiDywyAzZKqiRSzzjADyoa6oKIbxiQgAABDDDzzyghzxzw2yLJIxSkngzzzZYABRThNPv7jDTjTyQhDzxKpZqRjzwyCBzhRgQzSwwAFDDzzRxjZ5CzDyAADy4Jb4oJ7zghyQwgQBDjDQBTTRSjmhZKhzhrzCxDR9a3gijRwwQxixSjDDAwwCwzRQziQwywAzCwyxzzzDzjCwRRThAR6oZgyEwDz74IJ4rZITxyxyxAAACCThBABAAB9x665D76BygDzfrEjBDgCAASADwAADyzzAAQ3gAwzDDDTAxHGBjDDDjgSyzwxyAAyTKZK4yTL76oIb64Ewp6JSSAACBzygyABCx3cxrraZAbSgSxgugASCXzwCBSRABwzTpAADjzzzyzAwgg0Fwwk1nwDSqQDywTBpBTBKga5bZAJ76oKbzQZDq4B2XXAhSRRCiDTjD1NyL4rJKpkDiATpQwjz0jQiADCSziSSTyzzDADAATzzBDX2hS32Rzwyzia6oICQwjyaobJBb5ob7IJ7ywxBDzzjDjDgxgABDzzyCFdtZq554ghgAAxLRknDzwgQDzzzjjiAzzyAAQAxzhgAQzv6sEEEgADyzDb64J4RDbrDDCLoppL76oIJ5o65bSzx02wzxyyjxCTzACP95p46gpyRRzh/CCDQAZTDjQDTDga7KyQhCBzzjAZ3kxzBbP/APeCuY4AiiEscMs8QIMQEQuWe+2yCG8IIUU88c8848848goQAM89Rf4o+SO/MU4cIzgIUQgUscMMsEYAcAwgs8OQ84gcSz1nOzLznPmQ4gkkIUk44Y08wMMoMc8q2wwACOQIqEUg4IwUs8EMksAMEIAoDfCq+O+ThcoEMT0oEIAA088c8Acc4kAA8QwA4AMeib7jLXfz7P3HYQmaocgQwwAQkwMy7888YAAAU4oAAUo08MgAAAAogI0M0YgMTnuS2o2Gxo08s708UgEMcsocoIswcUkUwI4AAUwymDbjvHhJXLzb3Isw880oAAAAQ00cQw0woAA88soAAQ0M8AQ4sYMIIM088EERjzW2Ss8GVgcwobQwQ04AgMsQs0MM0Q8EE8iA8cieJZZ18AocYBpTHDLKEYMkccUIAAAwYUAAkM8wQQYw8dY0gkswQYI4k4w0lMwIDTUUKuOr5UoA8dIAgUsMIEsg884EAc888ocgkwWrfNJwGmqyqadvnq1AAgsIMMkIAgAAAAAA8AUcakoEMAAAAgEEAwIk8AQEYUQH3jIAMeiK5UgETc0oUoMcQ88UY8wAI48c88og0CqfXlkGyGa2Wi28l3G0sM000wA8sEAEQgAAkAAwMowo+kkowUE4sAEc0cIMAs43j/kjvKqcp8UYL0g40Aw8MEkckgIMAmiOy+AMiKr7L8WauBAQlGW+p/CGMkQ8A8c8s8+IAAAA4A88gIk4ta4EAQIQwEgMcQ40YvvH3B0quaYWA4A8jWo8UAQ84U8w00MQQoAQQio0wDrrRsyGrAAAAlQaVTqvQ0WAEww888cYkIgQAAAAQYgMEwQcIgUQMYEEIAAQiLbvCKmWyqWUV8cczYg80IIwEMIAEg88wgQkQgIEAEzbT1eWyJAAAmceNFLjigukoo042s80Y88MMsAAwMIAAE8888sccEMAB14XL7fHywL648UYVsUc5cAUw8oks4wwwwsMMQwwMYwUIXj77N4KdiFJS4qGxLj9F0ooIggAAgk4888YkIE48kMUAA00w088swU0UskdrHDWfK5i6UIrUkU84ssRt8sAx4AEIA84AEEMB9E5N9Dr/VxiuNQ00mKtZrLPEgo48ckIOAgwAw08oQ0gQ40mszVI+OAocAQ80wU5FaTqiKJD+SIiQE88AsAA8w4AEY40Mc4Ao4gQkw00cECLjP7JGaOi2qQ1P/Dhpc4AIsMM8UQOYckMkoAAAcwc8UMAQggA8Yc44YAEQuST2hTC+CuE4Aks88AAw4YwAIA5oUwE88kcAA8U8sYNL/fPVQo0o8tnn/D9twAAUc4w8880AgQEoIAEAMAso000AAIMesc888IYAVZDTBWq4Eo8oU88/oAE8o04oEE4sgA88woIQQ8898y/rTvHzTH/AP340/8A8qZIQhCyAgTzyxwAgBDmAAADDQCCBGFxyThgoCzCwTzxiiHu8ib5Sygnzyy/IxTTzywChwBzwnjCBAABTzzyBDxYsP8ArTzn/PfD+5h0MgAoEwws888cMAMAlAAMIQ8AAA0owgAAk4wgQQw84go5bDgq4IkUoU0oiAAQ8YUsEsMcc4ggAQIAkUs0oAU8AwD/AOww488w6utPhNAEABDONPOPOPLHAOQAMKKAADCOcQFMNPCAAABPOLIODGO6KPIPEafDLIoDAMOOKMLHLGDKAABLLCHOABDDPICAMdbzwAQXRENCFKBBLXVIEPPPPPOPBDKAEMAAAABKFfHBXFCJCFNLPGEAMPF5DlKPEIPPEHPKAOMCOILKPNOCIAPPOLOIDPPLPNDENHfKAPPbcJONEKIFAJKMEPPPPKCMMOdCAAAAAAEINPDPaAPAEAOEMPLAEMDzGGKuBIPCBOAAAABGKCPHNOJAGFPPDNPEMPKNPFGBHIBDPPKQSQOBNOLNMBFAPONPOANPDEKBAAAAAACAFPOPbAISAAAAAOEPLOK2gACPFAfUIMNAAAANLKBDONIBENJBBPIAAPPMOHPGNAPPMQAEIBLIJSXHLAPCTRQReUeYTTUPLDAIAAABEMKMLALXHHPPLCBAMPH1FECPEFXQFNHCDIOPCAEICMBGEGGANHAPBPCIHHLLLANPNCAADHAALOCBDPDPHPDEJGFNPPPPPPAEIAAEKNIOZIJYHPPPPNPAENK9kEKEENfTAHMAGAHIIAJCIAAKABAHPPHKFMMKAFPOPBOPPEIAEPGFOCDAHBAAILHEPFPOPESUcPDNUXRZVYMAGMBBDHDNLLPIBEL0HDCFHlfPDBOAHCMKFAABABAIAAFIHEDMCDHPIMAMNMNPDFHANBLKLBLBKTTAOJEODPJIPVbbUSTVVXeaeUbeJHKHONPPPOMKANDRnBLFEXeaREkNPKAKAHAABHPBGANPPDGAAPPKLCABLAPOPPDHPDKPPLJCRHPCPPKFLCAHKJFMBMPBLPPDGAAAEIELIMLMIAAAAENDmILBKVfIVMrEMBNCIEAAHOHENKAEMLHABPPPPMAAHAHOPFjONOAPBGIIdMMAMAAAMENOLLDAABDIFMMEMNPLPDKLvPPKFJABFPDwnNCFL1YWZMmOGPHLALDADNEFEJJUILPEMMFPLBDAPAPNLDDDDPKBEMEEIcUBOHbURRROePDCRZebZVbcNLIMBFOOiCPMOPNOPPFMvlqHMUQQQCiJGABAAJIBJMIABABDAFPPCAPPPPPCFAOHPPLIPPLBIAACAACAAHPPDLGLJUPFfPPPPDPKAAADAAJGMEPNOIIEEAGOHgKDCUaINN8SPHLHBGIELPPEKAEJOPPaAEHPPPOABCFGMPFIpuBiAPEaAOCADPPPPPCGMYEJOMNPPPHOOABKAAAAJNPPHNCABAbELACFOJ2AGOYPFODBGCkllljLEAMMBOOKMBOPPLPDFLANLPOGLnPHMLHIaAAEPPPLOAFLLTHCaAAEMMMM2dFDGAACPPPPOOMIFKIOECKFMFHRLIuNICRbPJMCPKGFDDCABLDkgIABPPOIFLAJNOFOJOFAEWVcXQWSUdSYVdaTYQMKQDAEABDHGO/EOGHLPPPMPOBAAOHCFiKPCLRPADlHEFJJACCLNDEKBMPJNOPLHGKFNPPKMPCCEMNPNEIPMIAAAAAAMMMABBBEVJKABZABDOCEIIEAAIMPPAELPPOAAKCOIALGALUIDChEJPPOMHPPOKNLHLLMDKNPPEKNHMIAHPCOECPArBlPCRZRIQCIAAACNIHPVfPIF4+18+z7sou6qnBU13R/NOPFBJNACCOLKFXbENILGBBEHBFDEAABCMNABNOPIACHKADPPOKODLLHDIFPOEIQFQUWRQBMPCIEJKONJHOMAABPPPPJHMNCIJGAHJBLDIFOBCKFPLfeFIAHIAAMENDMAIKAABCMCkFPKBPOIENANPOKODkOCOIBHIKYYdfYKFNaQfYcTTPPDGMHRQAELELPOIMPDAAEAAAANPHBCKJECKYbEFgGAEDBFGFKECOEAACEEAEPLHJPKAAFPPKAPDADLNDDLOAEFPALHPOPPLKDLeNKNVPPNbZI984xVEBNPOPDACAPEKNIqKDCOFcPMIgFANDLHHEGIPKJKFDHJDCENKMMMNPCANLFOMNMPMNMMDEAAFPPPOCFPPAEGQHPNXeaMFABMNLOTPPHLHAPAAEGKLDPjKFOKISLGAAPEHJLLLBACAHEMEMIIFNgKrJPAAAPANPFKALCMBJLGHOAAOPNPPLPMIADKQNHHaMYAIBPLHLFDJFPcGNMPDBPLLPFpLNNDNffFNmSNNNPDePPAFcEFLACBBCDOKNPPIANKAFBAAIAAHBPKKJKAADHPPCJAAIGAfMLdfHBMJMEdABHMJHJOHJLDHHCEPGCGHBANufABErJOJJPAMMJKFJIDBAAAIGACCHPIAANPDGOIAAAAGCJHJPLCHKAHPPIDPMECZBJSFCACAAPPOMJKAAABAANNHPPPOEENLBIKgfALFjHLPPLPDLCHOOMGHIDDCBACWePAAAAPPLACAACFKELHPOKBNLPDPKCOOPKCEMPLPCAAACPPICEAAAABPPMMPPfeMHFFKBPGFXAIAiGPPDAMPPPLBSQQIMUBLJPAFHPAAABCnMPPDADGIABALCADHPvttvqEAIJKCMBEIAAAAAFHPLDLLHFHPPPKOGPPOAFDLBLBAdBDmhEPJAAMNOfPAIAAGAQAAEJINHDBBDBCIABTEMPPOCBCCABHPPPDOPAOgAFKYAB3PEAAAANPPPPPDAEAANNLDHHDBJPKEGPGKfbMnvEDLPAHDPHPOABPKCgDIADALPPCPPDCFPGPvoEPPPKPPHP/fLAAAAABojBIQhArPIAAAANNPPIIBADOABDNNIAMMLDJFKKLAcDDmiPCADDDNbCPIYQQLCEEMFNMFGPPKPFCBCH/OgAMPvPPPPriNkighggMtvvFYEFuNPLPPHHNLCDBCBEPPAMLLJAHSHHCtALBTbTJkpPPMCMPPPOPQQQSPAKEIEIGMvKFAAMtlNEphvJONmutvMPnvjijoogqgohoADE/vvsEPPPOMLPLKAAABAABHPKFAONEvLPPJULEmgIFHNDKNPNPGIBBCAQSQAEIADAECIAAPPIMMPCAlPPLDHPjrrivvpklsgmu1vLOMMuvfOMPLOMMMNCCAJAEPOAUXfPDDKFLBXfLqo+qgriPINBfHOPDNPLDGHHGDPPLOCDDvPNutLHqnuvPPMPONPNMAqggjrrrhrDHPvLNDHDOIGMNJDOAPIEDBDCCDFBfnDFFAWDKgjpw15y+g6cXvKNPNLfOPNPLPPOOCAFBDMMskvuhmPPPPPPLnvOBkoqggitvqkvPvvvvvOKPPIAAIAABBDCAMTTdIfMeyNBBKVOCnmPfMAKKGSAF+ZODEcEPeAPMINnNMPDLDDjghnq8rnLChuAksvgogoDAAhsgDDtOEMuMMMAEJOIAAAAGJJNLGHMOSFKf5NNFOdOJB+zsuq6huiswxhtBBBBHIMJTTIxwDDHGMOt+dTd2ww9/wD44IJZYJIJKQIIADizzzgkEX0AAwSAQzzS12ATzziRBDFUzzpzwxD2AiraEXG1WEnP5Ia/HEE0nnnGkmVE1mH1PvtllvN905stmDRRD2qqd7r477jDDQgACQggAziRCRwjDSQwUlDDgzSQAggSQRJDwRQ0CXhY4LJYI56oZK4pa455KoZo776dftsMfvsNRaGHeNr+seWlEUl2ngmk1CS0mFzCgDTygzxaaYYJaIoYLI9+8bDyySTjCG9AyDjmHmxxjRCgCSwgxwgTyywCr7obb56a67qqrZhScMS4zxbpaIbbbignOyATF7gRwBSzywgBjwAwixTjQz2lHGVhAytO2ElEWxYwTjCxhzxgjDywAAABDxQzxzzzTizSzzjDxywwzzDAQASAAAAAAABBgDgxADgKJ77r74IK65rpqJ6I467TxDyQSjygQxq4BgTxRQLgTDjTAjSCwiDCgwCQiDDTDzzzywwABwwxDzyzzQwwwSwwwwgwziwwAiAQwQAAzyzzyzzjAAyBSgSABACCBDQC5appYSjEmBTQgxsnRyv0DCCgTwjDDDxzzSwiAAQBCAABSxRwwQDCjDDzzBTzzzjzDDBTQzhzjxzhwAABCAQijCBBSwwghxiCCgQCxhwgjaKpLbowMOMMMv8Alts80s4cMMMgwAQw08w0cEc8c884oUMKEIAEcI8MAEAAAAMAMQgAAAAAAAc4088+88sIEc884EQc8AU884UA4s+KelBJRBDWv3/Diy88IQuYwwwMsMcEUAIAwwwQAAYgcQwwQ080wwoQU880ow08888888csIQgkUMAYw8QkwkgAgwAQw8Q8w4soqeTxBMNtdv8AOPY4wwggAAQXAPPHIIHPPIAAIIHggIIInnIIAHIPHAIPIAHAIPHIIHAAPIHAIAIYIAHPIPfYXXPAQAAAHHAPHQAIvovI4QfQgAYfYQfQQ//EAAL/2gAMAwEAAgADAAAAEHxx/wCFUwYOc0VcMeGEUFHF0n102gi2EUACkwNOOa7hRDVEIR1TqDN+3rbM/MIcbYe83lGNN6sfkU3lFHmxD6/Y56OtLLWNLJYaz0ptOlVCkcGha81D3H0kEk13mGHnW2mSjV0zTR8MiRpsEF1UkUNG26sltltO4rYJKo44ATGQzJgMNe932mAGuuCw3nW3MP3xf80OesZuP+e1EnkhRo6JnWEc88MmP+48ZWQhxjSRpRFDIHKc2eEklWtpzvjvSY888vvHFMF1cfORjest+NwpuduPfsNGUUlHHcE3fc+NOMONsONOIJvNOdNv+8HAwTzkWGyhJLr58/GFWnuG+gOpCjzgAUWfZ4B5UtEjNVoAAcMFgEp5L89EVGnva5+McF3EwAy2UgTw7KJPevsuqY57C8oobamnCDVHxAAAAHHAFmUk3UV3R3AR/eq2U1hhihr73dMGfrKi/s3KI+gabrKKPNl+MPOfPOtGRDE2UkW3mmQvGuc/e8oOqAyxDIxiigBrLORV23iThzwx2MAAX38xxgAwUV3kEA7DhM+7V7ogcBIHt5dP+HnMbLChe8U9v8N+dNMbTwAETQhDGEH3Hb6/PGOv/EC7234Mvv6Kh4fvveZZwpzwwGkBzwixBARzzz21CBsJJjzNKpqrRpjh/wBY3d5C/V7HzXlb3vjPrb+GjJhQ1sMgANpV1ZL3ZIwXD7SL78UCXSeyjjY620ciu8wW5FBFJ+yS6OQU8tiuWyi6wJcwifKeyo6wqnVBw+CSFJ1zzDHNLLmf/wCgvafaRRZfNccMOI4xy7TRbRx34faqqpikALn/AH3aBWLO/dNcXzCIIIlpK4rI4of7a4bbYLKIII4Y4woST4tNc9cvFV1tYL61NH+/rZvbrUxCHCyBwBSNo+d+Hll3f/8AnqqOiGMUy6muuKSy26v/APXAHrmuvmgmnOsuspuvslqrkh2oonpiAAkCe7/5yYbFp21oogfx2tvvrmuMBHBXdMFDHLZh528VVNO8x39rPKhphqbQRAirjlknrou/3WecZ4jvggtuhoxysimtji0svjq/imKgPT83qIAErxwho+fisrm85vrlupJOIIPBNAJiwxeVW75xXlp8H3o1rt7572mj2088wku5jphlurisIvgnutmujjogggnknux9ioO+xTzg2vKh/wAPN3mFd6JKJKocCDBRw010kzSl7dPtEu++c20WODNrhj5KoY4Yr7o76dtZc5oPY5I7KLL5LpPOJp5LaYKY4gLLN77O8UuOc23NsNfu+Bn6fWXyJrLzyhTDjgAzniH2ru38sE8kUlHa97zhpe7bLZ5qJece4j476IIIIa6vLbbP/bLdOcr4qzYbapfNUOppiLiub80M/wDHtJCLlrB93im6bHQsyUtMQIoddqHvDHTn4H5hTwKwmSJUbWO++qOuO+iCWKyyCyCK+eyejbiWfvmOe6WGYI8w73+7/wASeX5S+2x/z/tqk4mkskNfcQCPKIBNCEPIIdES40x0/QUTXVxlv/4rAtuvgrlrDkplnvojusooikjuvjXIXzwxhgqhsqDUSFIlsPZ397Xd+86w1og3RYbTV/8Adr51U0H1k0F3kwh3HfOMdl+Ue+55fqjL4JCK5apJapoDwQaLuu+oZqby98LJ5xE00zyg/NNkFf8ALTjSiqeSS/1rfxJMPFzy3jW8omQxVdprRgoUNxUJ6d5VnL/qlB7eab+2eTjn/wDislippkiwx3ovcgmpgmMb4QPSw1yTGupjkliqvu47ynhjpkogoHTz+oGI2ld1cJx8y017bTMKPccfRjPe3+5y5rDaSQTQkttritvvfXs7hrrhzwmr4uhotIEYZy1/zw6y/VvsKNsnn36oslq98fLmt79+4163/wBNUnTwyEEEAijzz/u88VJzZscNWvuikU1F2KpJ7ore++u7LZrpYIMLIIL6/Li7P+88eSwO9/8At2OyuKKW+OeKa22eDy2yCyiuWrWOCZ1t8Wy+sckCAwOKMIATgkHn7ltr8xkxINSyWjma7DXbfvfP3HaOKOoCei0k1nFUhXTH3Upv3xRUqW6uzPC2KCCSaWCPbO6LvvzZL6Dnkmf7nX8CfTfyzi229IZlL7XOwpRN9H2q/X62+6SeCX6Gfj2uKeeyiyovf9A3JdNfxtKODOnmuCSj/D72uaGCCGuP2CbvdLV51/qCAwVbeD+agyTqqeKVRpht5fv34t95OU+WWGCaG6aOuXyWaCW6CKKeiECH/wDP6BgxR8+vM6Z+Dspvttgtgmrihkogjj2z9cz7GvSlp95/75Cw5AnnonphpbccWvp5zeNQefagBsg8qriwomy3sqiNJXBB8wCB0231XpTfPOexnQA+qOkslgGD166+Tvvjns6LPMTRom5H25/rx705y8luuntdZrrZb78zXwedUXeHKiv34tqgzuvjp2qgtkpVz8hQUwY+QoPPPPBlJVl2meljIjmstsqqpntnrk7qgXm5x02sj67yx4Q+4yowp0MURoZiy+1x7QPabWlfQvq7psotvuvhvghjKkp60lvscRyHZk9fPPDZMPgS1UKiY55w8vHxgnggq80uvvossZx/oAAGrqupgpz+iS04Ui5pGwaXcQDSdQCl3hmlukmy0tvosjpkoignisqYe8yGyjSnvgfEten+6/8AZpKZbKarINL64ON/77o5PuoYPXmDb7qJJbo4bKPmfVMp7fc+2Eq3GlkWxDusp4pPoZbrILpbL74ctLft909/HxUIVBRRrqK0/OV7aqKJbppFb7Jfra59HSJO/e39DrvXkMv/AO+OCeiTn2v7b2b6Lbx3dBBJVIcyeaq+K+m6SuK+yqCKuWquSycxvPig9Uk1N47sH/ZvXauWCj/ay2rhPP6TPqKOvny/DqC9tnPvLGKq6K2eW4oGrbAXrrzRxFNxyC++i2WKe++LeS2KC2me2WCq+2Kv1D7XAHL73rIuHrt/7OiCWa6y+SCKieu+X2+z/HjnDu7r311zlfCKy6OmGb71Kez7tN9pJpFpd+mmC2COGiiOGmWCeyqeuOau/Os9bDDHXjKOOSzXftYEQWOGK3zG6iSi+meuKTiCXzH3TDG2DPn3/d7njT/O+OaLBgAzP1R9IB99pEO+HSOW2Wi+mCfSyiWeqqCSOiOK0J3jr3Xr3PTZ8vfWCeya23zrvDCiy+y/2qDPLL/DDD33BVN1LTzTjPfGq2C3Nk0n9BxJB9154aW6A26Cf2K2PC2ieu2+KqO++qiGKyVJ5X/ftN9g02sCq6CWOO63bH37LTi/G6CyvfLPHr2K3jNJLrHj19CSq+YI+sC95RJsoBNtA6Q6+iYkOecOq6aE+6STmCei6i22iKePftdy3/jKK2aCH7fqKvnr/vvKDHD7zfLznL3/AP561k07l8x69w107+8pjHJbmxTaWZVfVclOH5jgnFirkkp51/gj22y58ggkjszhip3qhgrz0luuipyxk8y42+8s+19yx0o9y9w4/c24ww8wl5S85/57/wDS5OZ4WY3Fe03UEmGaEBYZZDjXwoZ+8fuoIIb64M9eOba/rqabrY56s9dpZ5b9sUn2E00lWkkmsvG1fut+0scNsd8Vv5vN4sMMMBEzTCDpVxVXW2nQxH1a1RxRDYDjZJob/wDnLb77fjW+e+y7PbqWOG+zCCu+SPZI0bLddFA0sgEgUQgUIvFRxtPf/jT7xrVdbCTePuctJEQEUxW1pR95B0Bh/hIwmLT66iCKCHzLnfPHLL7+i2WHveOGCa+2KWuOS2j9h51JhxhBRRfvXNFNdJJFB/vf9vnDlJ4FheTjDDCS2+EoK98FRVB5pUBV7RUgAMOiG+IuSzK+7/jX/brKOOqDX6SeSG++SmCe+22nNOfRR/CZxh3VvdV1cIc/LzG+qSOcFNrrTvTzjyJxu8g6u9mhp1d/Id9Nz40wgkUUQoOyqeGy/nzDj/H3Df8A89zsr76trhvgoqui+1rh5sozlj80zVxzxgBGLuursnhshCms1wyz61znvusqtgN6JbWVfIEKASOfPKPFPHArgr08pty04hm09wk67ygkhtghgljnoogsx2s4t3+yvjyw09voVWaTTe3/AP8ALD3j/PnaiPrjxgzlJA88s2ohdRhAgt8RVNVQQo3ZUOuiSOHfr/vXneSrDXf/AMwsploikmBtohv9m/RYuccw8zz78wRBEUcfbXY929/2zzy3x9x7TzeRaVfeKPBbIVcRQrIGEfZaUcYI45e154w8n26m78zwzhrvrhjlggkkrjjjhqltpj+34puWY5kCNPLRMbcfMKPPNHMPWY60aWy5Yw/fDNFCfHAiE71WTOQALddYcfffb6593gN/h45z564/irku/uvjrhgohtuovrkjokwdYQSAdJcQcVRYUO3zg+UVYcwx/fTdTw5isWfZTbOQYbZtvwRWcFIceZJMWTHKetntn0ts833whgs6gpghgkujrnrpjsgkMJrZ4z0uQ+SV8wXbQQYSTm06xzy6YQYwy/eRTzxgJ53FGZSAIJM17QbVXSnYTXlSMzx410YbafR9+6hgqjlqskhgokkvqrroklqqlPhrhzcTuXTTU8U4xe99YBwfFd67TQXVFoe9YTyyvv7fCCMohcTc0QXUebaEeWbDMFRaMM/946xisq72w+5bY8/+khmoiron/wANOst/8eqBhxHyEx5RpKppooxU3AE/eNMc589h/wBqXxswxDdkYFAMph7fxRpBMZdsR00AKuwMLq7/AI/vqmivjjkhnnv6iutqjtmnrjiuvkkurXfcff8A/wDPdPznKOSXlbH2nHzDnDD3fv3mqCai8tRQgUQUB57J911pklBRs48k40mOAkev26i2OauyaqW+eWKyymOiSKuu2ec3JfLOqKfWTrjTnDL3fPuO3yiEAYkQUsVBJQlZTOYI+gDf3xZNFzfghRVR0AlpPkYK4cfXKyLYb++ymO+6KGWieuiq+SCG6qOaPu/bLjfX9sb6CW6aDHzLnjZlrHbjTzz3bDvzDbrbwmOcomOyI5hVT9T910NVEQ5H/AcgQEsGGui++iS2bnuMuqOqHLaiqK+CWyby1umfFD2jL+u+GWTr3SSS+aKgF9fXLPqCLDXbnTP/AD97e/jkktuvmqzz8deWfRHHZ3YBNKOHWomqvgukhvvgggrnrjmsussqgtqo0jgvn17z+79+16/x34988594zu943ix77kk/AJCBh0z894w8rtKgrnRqbNHIYRFfazaLECItjvsnromqx15ummptgpqjlusvnjrvxnurojj9/wD+/wDvf3/rG2qjDvPSjf8A4tor8x5z8zw6vx7++0x1/tppFFKteCBVfcMSY0joFFpyltir8xtgovskvrkPhdrvgktksivuxrktjm55wZz/APvP/fMNMN9+tPYONO5HKNNcf8+ONsfdMI/sdu7p4hLIo7DjR0kHSkMjFQzIIZMYM+rdJJLMYprLrYJ4pL6Ld+p7bO757rqKZNP/AHX/AGz2ww92/wDPturu+aoN+edNdqP/APjPbnrGiaSiCSkkfK8ZJo9rEVpL1Jze2ynjbX/nequKOe++eSOGSa+iKeKWOKveeiGCvarTH7TzfLDfrDbP/wA14sz2v7y0yww/6xz21/8APPP74xapYIC/bDTEXH9z3UcTLd7L645au+uJ6KqbevLIq7uO74Ib79PveMpOI5buOdOMdOde/wDPrXj/AG0/x85y0zywywy97390962z8w0rjtD/APKIK3WUUFmBFkeXZsTw4LJ74Z68ufK5/wD/AI35tqilhust3Y218xgzmo78+297z34QedYV30468z8104w9/wBsNesNvNNe++NOYMYZL7rqd0y33m2j0FH3rvyQILLav6aqYJYaPbK7LIop44JY+ctvfbed/K/PtcvvMd/vuPMcP4XvPsa8+z/8MNf+Pe/8/wD/ADxwzwvt2svnjhpxY0daTeVPQcQDtku0q+rmmssuglnFsnvsvk9pnm8zy17+9fY5104+/wDtfjrNN/8Afz7thLTe9PB7/jLDDCnXn/jnTPzPzGuq6iKiyHjXRh59MZNJ10iKCKGO3ua+7f8A/kpr336uxz98+ll1yx3+D+Qojnb/AP8APxB3J9x93BTx1d/qfSpvbzvb/bf3mLHnLTvDD6WjzOCfeLwopBZoxAPphaG+yGe2+++3/wD/APYr6qp656bytav/APd46uAR13bHx595vHpht9NhrndFNpZbzPk9pBPvzzznPH7m7DK36uuCCOueSXk0RVpVkplxZye6C6OK++26me662LT3meue+y++2eWKT3uu+2KQ67COWudl5x1d915SoQhwF3LTDNNKHDTP/rzyyXL/ABmssvmg82xrCjBCBVDK12Fc+pNWwkx4xojgslokthoopsggkx88tCjhRCglKIBAggk/+5yyz+KBASrLDRU+ggDm64vz+4yk/wC8utIt/f8APzzbKm/o35QdUlv1MFSkQAwKl4/02umuiHCaKWOaW+a6++q+zSMIkQycyuOKS7XtdjH5tPsdqI09pRvZxRBBT/XjTjCC2+vK6y26DzzGHmBNggstS/73ew0ZbjTrk2jlfm6KTySf6CuCi0O2qCCeqQ0sSiPWgSmMIyNc9J5DxCKy040CONbnvJH/ACx+52+orn/vpmmjnsssrwjmX2IqtqicXM28CPMVNBBJeSBOlphgltil4wnafrikkuuOzSUd0wQdbTEMMMNrvzXazDDr+3z4x5ihsgz0/wCdrILZvOZoLIZY6oOMYDCUZorZ/EvK01depbUsaIY8knWOeGXW3kRzhyAQLyS92rvsXqK4l0QBCErQu8t7Lg6J4afvPN/fv+Ou/fJMfqoYsNLYoZK4oob65yb6ZYMSE6uyBppgIbqa9i4qeM76Kbbbz7KPfcLJa4K0hyOO3nsqzKuEUUlOOjst/QTcvuJUUUnkSgHu9/8ATyCYUMwJRRUq2r3yei5zCZzxyeW/XfbSiKab22+qG+may8M8V0o48AA0thZDZz/beIQmKWm6a+cUNV2s8lWkY4gQA4w4800BlbPBH2CnLPP3CuaxdDzfThivNFlHvph/rDXzXC+26uWaKuKG+yyfLizm/wA3rjjjhhq+4kvv6vvsrmprpsojosEPQVXdVecaSTUbSZe987ETfLBuoogshONhtiivAo8+398/T752ljoglpikiijos8svsv8AM/bscP8AyG3OuPHrG+PbOP7uey6euPXGzPvPbLDzDPjz7z3e6yvDuOer+gckSHNtIYpZdJ9kinfwGH+eiy/CGOmSCjfu6WyyuOezDXvHbXuzWW+6yifiSizXTvPOq6DyS3TTnr7j7jXHLrzTzT/vLJdLvK6Wmy/fXL1TXPbDduOOe6IICqfP7mfyKeOWG6iW62+beGa2/r+3X+OwCO6GK6/Pi2iiTjPifiKS7zy+ayam/Lfd2yjSqSLzXKuqGCSiC2jz3zN/HMAAQRiHu2izBNCXb/sLPP8Aw5z3x5jmshiji+++kurjjrq16z714sgo2x568sgs48126xz/ANtMvMucOf8AHSfffH/jvLm7rP3DFHGgABAgYC1VIaeKjf8A4wvn4/3n3ww434344owXXw/4YHvovw344/4/43w4/wB/2N6KP8N998OP79/+MP8ACCcA/wD/AIN+N954J/6OOH0H2ICBx8EB1wLz1z7/xAAyEQACAQEHAwIEBQUBAAAAAAAAEQECEiAwMUBQYAMQIRNRIkFS8AQyQmFxU2NwgZGh/9oACAECAQE/ANjY9YhCvoQhSIUikUikUikQhCEIRMbcxjuoQpEIUlmSyWSwWCwWCwWILEFmCzAoLMCi54PF5jGMYxjGMY4HAxjMxadCEIQpEIQhCEIQhCuSyx+5YgSuMY4GMYy1BaLUFotFotlotFoZaLUjkY5HI51EYyEKBQKDxfYxjGMYxjGMYx31JEaNK5EMnsvHaBXHsMdmOR7NJOFVndnPvBBOpnEgnSLQzj1Z9pI7T5I7MjVTniQTjvTPRPu9bOeJBVsK3WCc8Skni0FWeJBOlXAYyKs8SCdH44HTkV4kE8AYx6SCrFndmPt8tbBVfd6d3WK7jxoJxZ3ZkT2jW0lWW/LBm/40tJOWCtvd57LBOW1rbVhwTtCwluME4ca1cjjfZ5hGwvVsY8JaCcOcpFr5uMjf6sidfVdjaHp52CYuxgvWLHW2TAhC3b5z/O1vaVoF8U7S96eHBOwPeJw42F92PYmPRTszxHuU57S97nkk78tmnfHpZ7PQQTxGdFBO6rDQhbFPEZ0UE8SXZ48E8UWC70E8KY9RBO/PDWqgnLc3uEE8Ofedg8CgUXEIWud1j1E7e+CMfMZ4AxjGPv4PGAhCELeGPux6R7FHJIJ4G9ggnkcE8jgnkcE8jgnkcE8bnPAgnjc5zgQT3XGJzvognjUE54EE8bqzwIKtvfd9mO69ggqzvogk6VFNVLT8npUfSel0/pPRo+k9Kj2PSo9iqimP0yOj6Z/6Pp/TP/SmiiqJlTC0rvrVLQLCjIqz7K9BJ0Pyf7Ju1P2ZNP8AaPTn+kdOnxV8K4hGRVngQSUV0xSpZ6tB61H3B6tH3B6vT+4PV6f3B6tDPUpceSPxcfOv/wAK/wAT06onzxCMirApJzLMlmSzJZkUikUikU6pCEK8tujIqwKcj5jGPux4SvIQhCFd6VM1dSmCzHsKn2g+H9hHViLEyiKYJpgQuyELsj0a1EwKY2ikqwGOLr0jGMdxnSrinqRMkdbpz+qC1A4LR1p+AtFoY49r9P5I/grz7K+oPB4FAoFBZgswWSyWSyWSyWZFIpFIpFIpFOFTkVax3n3Y7iEQ/ctT7yW6vqkt1e8jGMYxjGMZ68pImpjGMfZ4T7sYx4auqBR2q4CxjGMYxjGMfZ6arizGORjGMYxjGMfD1/kJ8D+fAv/EACgRAAIBAwQCAgICAwAAAAAAAAARASAwUBAhQGASQQJRAzEicDJSYv/aAAgBAwEBPwDLuh6uw7bHWxjxTusejGOtjxjuMerHoxj0YxjGMYx6bDGOLatsejtvAutWFqhCFQqUIVSpd71i1YeAnSe5R1XbGRdiw+nwl1N8GLk6LNPmRcmwhG5vn1dkjhvVjuPnIXKdiL8XnwXw2PgzwY6ex6una5GcdDwM6SRm0KRCEIWiFa2vvTYZOkkfviLn7asdLwa0nWP31RCsIVUXPeGY63iZIuR+4y753rWLnvo21G2iqmqLnvHvR5P3gEI3ofNdlCFxYwERQuDtzVU7kfvARTOKeVimbqycYCJGMeW9RejMRZipX/UWp5K57125cC0jp6wMYlZCLcVrqUdjkjLvDumSM89FhIy6xscxdIjskdkjmPC7a7YCMusbGTVtC57qjNsde4pzrziqY9PViaI7S9UIQhC6X65DHI9GMY9GMdvY2NjbTY212NtVAhCFoqEK4x1K36/ppcVj0Y69jYUCEIQhCEKRSLiLpzGMfNfR464rEcN9JY+RsbG11j02tzj1XF71QrL4c5aL3rjPp3q4+JPJnpTzE3H2nY2NuozhF0CdIw7zc9FdEC0QuPNuT5fKYk85+zyk8/l9nnJ5yRM/Z/L7P5fZPymFn2MdDGbVIRNuT8n+VUL7H/0eUf7nyneN31uYZ4SeHyPD5Hj8jw+R4SeMon8M/R8fxfKFt1meO77y6wDGPR0z+h0RRERMCqcYqK1WrCFohCvzGwqI0Wjmv3Q7z1Qs8xmwviL4igUaIQhCEIR4iF3balCsLRf0q8Eu0q6tFm1yWO8+BFyORGQiz//EAEoQAAEDAQQFCQYEBAUEAQMFAAEAAgMRBBITFBAhMVFSICIyM0BBU2FxIzBCgZGhNFBiciRDY4IFFWCx8ERUcMGSJaLRZIOQsuH/2gAIAQEAAT8C/wBDXwrx7gqOV0LUtaulU/KKK6rpVCvkub5rX3OVXq+eFYgV5u/82KI1of6TvhXj3Bc9Xd5WoKqo5XFT8voroVwK4qOWvcubwqjd6oe569pvCvP4VibwsRu9VHLqqqoV4b0XhX271iM3rFZvWKzesVm9YrN6xWb1jM3rGZvWOzesdix2LHYsdqzDVmGrMN3LMDcswNyzPksx5LMfpWYO5Zg7lmHblmHblju3LHesZ6xpFiyLFkWJJvWJJvV9+9Xn71z96jjlkNAURHF0zUpkt5+r/RlQr4V53cFR29XRvXNCqdy5yu+auj8qqFeG9Xm71fbvV9u9YjN6xWb1is3rGYsdix2LHasw1ZgblmPJY/6VjeSxfJYrljPWM5GQ7gqlX371iP3rEfvV9+9Xnb1edvVXb1U71r7FRU5VFRUVFRUVFRUV1XSriueaLKKnmmFkVmc6uspzi4qLpD/Q9VfCvO7gueVc81daqtCqqOKuBUHuKKioqcqqqrwV4K+FfCvhYgWIFi+SxfJYvksU7ljO3LGduWM7csV6xXrFesR6xHq/JvV9+9Xn71edvVXb1V29a9617+30VFdKulXHblcduWG7csN25Ybtyw3blhu3LDduWG7csJyw3LDcsNywnLDcsNyw3LDcsJywisI71hnesM71hnesM71hHesI8SwvNYXmsLzWF5rCG8rD8ysMeawh5rCCwmqRoA0R9Mf6DqEZWq+4r1euZvV5gRkCxFUb1Vqvt3LEG5Ynkr/kr53K8dyq7cufuV16Eb0IXJtmKFkWTCyjVk2p1kCNmCy4WXCwAsALBCwWrBasELCasMLDCuDcrnkrvkqeSIRVPf0VFRXTuV07ldduVx25Ybtyw3blhuWE5YTlhFYJWCd6wfNYPmsHzWCFghYLVhNWE1YbVhs3K43crjdyut3K6NyoNyoFT8ok2aG9IfllQqhXm71iN3rFZvWMzesZix2LMNWYG5ZjyWYO5Zh25Y71ivWK9Yj1iP3q+/erz96q7eudvVCrquK4riuK4FcCuBXArgVzyVzyVzyVzyVzyVxXEGFCMoRFCE70GU7+TqREW9HA4wi6z8QRkg4kZYd6xoVjRLHZuWM3hWMOFY36VinhWK7csR6vPXO3rXvV3zVzzVzzVxXAsMLDCuNVxquNV1u5XW7ldG5XRuVBuVO0OIG38wk2aB2vFZvWMzesdizDVmGrMjcsz5LMHcsw7csw9Y71jvWM/esV+9Yjt6vu3q8d6qfcnkDl6lqWpVCqFeG5XvJXvJV8leO5XzuV925X3blfcsR6xHrEkWLIsWTesWTesaTiWPLxLHl4yseXjKx5eMrHk4z9Vjv4ysZ/GViu4ii870Ty6prg7Z20OB9y5wbtQNRyJJBGmm8AdDHuMp0Woey+as5rE3Q6ZoNNv5bJ0dI2DtMrrrUew0VFQ7lcduVx25YblhOWE5CIrB81g+awQsJqwmrDasNquBXG7ldCujcroVAqdoqqqvubS6jPVQsusHLxm37mh8wa8NPIkmuSNbv7BC1zydawTxlUmZ5qOQP5JNFM4vqe4Kz9U3kWl1X03KymsdNx0M1Wk6LR1LlA4Nhqd6Mj5TRqjhDfX8tf0dLegO0znUqIMJWE5YJWCd6wFgeawQsELBasFiwmrDZuVxu5XW7ldCoPzqfnSsbyI5L9dL3XWkqpvh3nXRaT7UpusDTLrtTR6dgsfx/LQSAoudOXDZybQ/YwKVl2CnmrN1Q5ETb8jyrMbsrm6D+K0Wrq/mhXm12KNrWjV+XO6J0x9W3tBU3doi7/APRMfOtJOmd12Mqztoz102l2xgVpZdZGmGsbT5J5vEu81CaxM9NP/WfP/wBdgsm16kmINAEXPdt2KIx0oORNKY+5NxHOvAIxSlpqVZHc0t0yG6xx8lZhzK71NzJw7Q3nWn56LZ0G+qbGHwNB3JrnQuuu2flztmmLq29oKm2jRFsP+iCrH0nnTaTeeGoCg0E0Ci9pKXq1NrF6FMlpZvPYrn8M4+ash9l6HSPxh7BZesf6aXRtcsR0bqP2b9NpdUtYE1t1oGhwMMte5NcHCo0Wt3NA3qIUjaPJTR32+aZMWNLT8lZm6y7Ra+rHqrOfZNUjA8UKY90Trjtir+WHZoKh6sdoKl6QRUWz8pqFebvWI3esVm9Y0e9Y7FmGLMjcsx+lZjyQtDUZgHtHcey2Q3ZHNOiSRrAoGl8l86bTJ8AULLjAiKihWV17dSMYwyzyVlN1zmnTJzLVeT5mN70LQNyaQ4VHvbN1zvTSXAd6lfikNamC61oT3BralQNLnGQ6XNDhQoROY4XTq0S8+Ybgr7d6xWb050R2oSMGxYgUovsooA5rKHQ9geNabE5pFHavyw7NMHQ7QVJ00VF0e21CvN3q+3esVm9Y0e9Y8e9ZhqzH6VjP4VfmPwqk6wpeJZc8Syw3rLsWXYsCPcsGPcsJm5XG7ldG5XW7lcbuVpF3DPn2N5oxx8kJJzropL169doVjS70y4TV7kJot6xY+JSTANqFC286+8q8N6vDer7d6xo+JSmMmodrQtDKbVmY1LJE8JtzcSsT+mmzOb8Ca68K+8ZGROTRPLqc1e3KwCek5NEbNixWb1M4PI52pCZoFAFjO7mK9MfhVJisOTjWD+pYDVgs3LDZuVxu5UG78yOmHo9ocn9NFR9EckvaO9Y7Viu4CsR/AhMzeg5p71UKoVQqhXm71iN3rFZvWOzeswxZgbljnhWLJwq9PuQllLqd6pOrk+9YUvEsB3Esv+pZcb1l2LAYsFm5ARX7lNauN3Kg3dgtfQb6pvRHp2MCiorjdyMMe5ZePcstGsqxZVu9ZYcSyo4llmLLxrBj3LCZwrCZwrDZwq63d7tzp6mgX8QqWhXbRvVyfiWHNxrBk41lzxlZdu9YEe5YbNyujd+e9+izdE9oKd0yimdEciYVjcoWMc2tEGgd2nBjPcsu3uKy/wCpZf8AUsv+pZf9Sy43rLsWAzcsJm5XGbk6Ro1NCjcTtbpj/Ev+fum/ij2K19Eeqb0R6f62O06LNsd2hyPTKKbsHIk6DvRWboe+keSbjVHEG+vIh69/z0c695aC4BCVhNKo7E1wcKjQXtBpVMeBO8lCYE00Aj38/OkY3/W7+kdFm+LtDl8RRQ2DkWg+zUIpG33sz7rVBHQVO08mDrHnRG9xleO5SzBnqg9p1uUbbz71NSOxRmTW1qhlJJa7anxMftUDA57gU8tibWic9521UDHA1Pv2860ny/1vJ0tFm6R9O0OXeUeTadjfVN6I9Pe2lhczV3KKZhaNetGZg702ZpNNLI7tdDYrryU+rJ6uFQsWPuamYjnA7AjsVmBEh9EGOE97u0NjLZ69xU0eIyiaZ2Cl2qaJXEV1e/s2t0h/Jajer7d6xGcQWIziVf8AR0nS0Wfp/LtDkOVatjfVN6I9PfOhYe5CBgV1u7lEVVxu7tFk2P7RVXhvWIziWPHxLMR71mY1mmblmtzVmJO5ixLQfhVLSVhT8ayz+NZX9SyjeJZVm9ZVu9ODoC11dX+jpNuiHre0O701d45Np6HzTOg30/L7L8fr7uSS4s03cs0OFZoblmhuWa/Ssy7hWYfwrGlOxqv2jcq2lUtKw7Qe9ZeQ7XrK73LKsWWjWXi3LBj4Vhs4Vdbu91bOrHqm9Een+jZdEfXDtD9hTUNreTaOrUfQb6dpqqjerw3q8N6vN3q+3esRm9YrN6xo96zEe9ZlizTFm27lmxuWb8lmhuWabuWaYszGsePesaPejMzerL8fu7TW5UdyDI3AGm1XG7lcbuWGzhCut3Kg3Kg7Pa+rHqo+gz0/0bL3aI+sb2h+wpuxN6Q5Np6CZ0G+mi8FiM3rGj3rMR71mY1mWLNMWabuWaG5ZvyWa8lm/JZryWb/AErNHcs07cs0/cszIseVYsyvT+a9v5q5P5rCmWBKsu9ZZ+9ZU8Syp4llTvWV81lfNGzFYR3K55FXBwlXW8JVweauK45YTz3IWZ6FlO9CyjesuxWcUlkHu5uqf6KDqWdttZ5rfVMHNb6fk9Qr7OILGj4gsxFxLMxb1mo/NZpu4rNDhKzJ4FjS+GsS0eGr9p4FftPAsS0cCxZ/DWNN4azEnhrNO4Fmv0lZpm4rMx+azMW9ZiLiWNHxBYsfEFjR8QWPFxLHj4ljxcSzEW9ZmNZpm4ptoaSNRVeTLoZ02+vaJOiU3Yh0hybVsb6q/Jsqrz96o4rDduWE/csF+5YD9yFmesqd6yo3rKt3rKDesq3esq3essxZZiwI9ywmcKw2bgrjdyujcqDsFFQKg3K6NyoOUz8U/wBPd2jqnKHqmenbL7d6tdC1qDhv93UK+ziCxo+JY8fEsxGszGsxGsaPeg4Hv94+0MaaLNt4Ss0e5hWPN4av2nhX8UsO0n4ll5O+RZUd7istH5rLRblgRcKwY+ELDZwhXG8IVBu93QK63cFhs4QsKPhCy8XCstFuWWjWWi3LLxbll4tywItywIuFYUfCFcZwhXG7lOKSR02k8mXYNA6TfXtEnRKGxDpjkz63sCMDSaoRMHcro3flv/V+7tZ9n80zot9Pc1CMrB3rMN81jnuYViy8CxZfDWO/gWYPAVmRuKx496xGcQWIziCxo+JZiNZlu4rHedkZV60H4aK5aD8SyxPSeULNGjZWLKs3lZbc8qlpb31WLOP5azEnhrMv8NZiXujV+0n4VdtJ71hTn41l398iyv6llWLLxrAj3LBj4VhM4Vgx8KMEe5TMw3MofeADNPFFcZwj8on62E+fJk2aO8dol6KHRTen8uS/r2+4caCqa4OFRySo5A+tPyE/ih7u2dBvr7g7CmX5QTeprWXHeUIYx3K6B3co3e+iw2H4QsvHuWXi3LBj4VcZwqg5ZIHY7bsYUDUA+7/6w/t9w57W7Tp2p7rrSVZHlzXVPenSkTtZ3EdrtI9lXdrQ2ciTYrtO0FS7Au5N6XJP4kcoP513RP1blZ+rHJl6t3orJ0D6+4D2kkdpGu1e7tnQb+5DZ7iyfG3cfcSyCNtUyJ85vO2ICgA92+13Xvbd2JkUk3OedSg5ssjK6h2K0trEfLWouqZ6e7Z+Lk9OUSAKlPtXcwVUcDnG9IpJ2M1d69vN5BMbcaArW7mBu8qzjDmewqST29/uB01GiUyVbdHID2lxb3jkPddaT5KKQPYD72fqX+ih6pnpyJOivhaiu7sxUvdobtPJ/wCp5Qc12zRaTzFEPZt9NDnBusoGuiXq3eisnQPryHvDQr0rtmoKzvc6tdDn4c7io7QHGh0OcGjWsy3cmkOFR2SDXPIfd2sey+aZ0G+nuIfxE3uH+1tV3uC2ct9qZR1Nqs9oF3nu115BaM7Q8SktAHNZrKs8ZY03tpPvZJAwVKBqAeRIKxv9CrIaxeh92z8XJ+3lOaHChTawP1jVvTXBwqFLZ3XrzVHae5wpoJxbSB3NU0N/WNqMF2B2/asRwsoPyTtQBxNalvGCN/eCo3PlnG4KGRzpJAe5SSSSSXGL2kLiKqCR98semOraX6laLQWG6FZ5pHPo5OtJbI4UqiwWgB1aKCOsjud0U+0MYaKOVkmzTJeiffGw7Ux7ZGak1xgfdd0e5beTP1L1D1TPTkP6KHRRQ6I9OzFSd2hnfyR+J5L+iVZNjk55fJcCnZzBRR9BvpoeWfEgKDVof0Heish1OV4DvWIzegQRUK1NdVppqV58nNaKBRsDBTQ5t60EeamZck1Jhqxp8lah7Ovmi5mXG9WTq/n2SyfGfd2nqXfJRdWz0HLOpWXWXu9x1drJdsOh7gxpcVHNeivkUWI25frqRtb72pYvsMSidbBqoFOyIwukA7lBCx0N5yiki1MadM4JtTgNv/8AijxmbI020kH2jaJzwG3u5ZwV6OpP50TqH4VmZKAblFJfjvKSZ8r7kexQRvYDedVEgDWmTRvNAdDppY3m8oXTPeCmyl8jonhOc2JnkjaZdoGpMdeaHb9Nk1OkZ7t3NtY/U3lloI1pjGs2aHxNemi60BMiawuI79IhaGXO5NssYO9SMvsLVDDh1TYw1ziO9MiDHOdvTmNdtCfF7RrwhFSUv8lLA2TX3plluuBvJsHtnPPyUETmXq71BEWXqqWzPLyW96ggMdSdMkzpDcjHzUUYhZrPqpHmchrBq3pjbrQOTaOpeourZ6DkO6KGhnQb6dmKk2jQ3v5LPxDlJGXbHUWXdxoQUPSOh/RPorMKNKuSseSE1sp2nS5jXbeRgTMJulCzuPSchZ2IADZycNt+93qSIPom6hREAihU0DGsJCswpH2N5ox3orIOYfX3dp6l3yUXVs9OXaDSJyswpEPP3EkbHihCuzw9HW1OdjwuAHOHcr8jmNjDVLCctdHdrTcPVVpTxWEho+HUhD7F7iNfcteTHqjG7KhrdtEI5dtDqVnlMjde0aHRuzTX01KSVwNGsJWDNKeedSfEHRXE5k90R3e9QVMZYRSgoorNdD73eo4S2J7a7VG90BcCxR2m84At2q1uN9je5PIEgwu5RWgucAWq1Bxnp6UQFNSZE7MOdTUrSwvi1INlfRuvUrOZGuw3DT0LZ6/+/d2samP3FA1AP5A1rW7ApYDI7pc3cmsawUA5UgrG70VmNYW8h2w6KKPq29mcndMaG9/ryYuvf2l2IyW8BULMNTyZiANiaKADsc/VOVm6oe7tXVfNR9Bvpy7YeY0eaaKNA8ve3W7tIAGrSAB7ogFUG5SRtkFCo4WR7AqBU9xa9T43f81e7nF6J/orMaws/KbJ0CNzuQdiC7iourHZnL+YNDe/15MPXSdqLWnuQAGzslqPsvmohSNnpyzsVlcXPkKjkvXtVKK0T05rVNeyzK7apnRb6cu17Y/n+TVCvN3hXhvV9u8LEZxBWktfEaEGis7qxN90dhVkla1hDjTWjNHxhG1RjZrWb8gs3r7lnG8Kzp4FnH8IWZn3BY9o3q9a3Klr81S1fqX8T+pVn/Ur0+9yvTb3K9Nvcqy73Ks36l7Y8auWjc5XJ+ErDn4CsOfhKuWjcVdn4Srs3C5CO0bihFad/wB1gWjj+6wLRx/dGO0oi0frXtv1r2/6l/EcLvur0+5yxJ9xWPKhM/iKs9b7tfIOmLodmcv5o0N2cmHrpPe4jb93v92XAbVmG17NbNjPVN2D05crXOYQFZebNI1X23rverQwYzad6tfVf3JnRb6cu17Y/c1CvN3rFj4gn2tgNNqzo4Fnf0LO/oWd/Qjbf0o2yTcFm5vJZmbeseXiKba5AKUWcfwLNSnYxG0Tj4VmZT3rFk41mpd4Wal3hZqXeszLvWYl3rGn3lYlo81etJ3r2/EVhWg71lpllJELGe9yyjd6yo4T9Vl39zT9VZXPrdG/X7uGG+XjcVk2b1k2b1lIllotywIuFYMXCFhR8Kw2cIV1u7t91p7gm8y0kb+XD0Pn2ZyHWremdEcmP8Q/k2h7mUIWIygNdugkDamyscaA8h/4lmgTNvXeSSBt5FpjfW8NYVnfG4Xaa9FpJxWDslr6UY9zhuFoDhsKuNvXqa1LDfLTXYrX1XzUfQb6cu1nnRrNs3FG1nuYs27gWbdwLNS7kZZj8VFr8Rf/ALhWG4/Esu9Zc7nLB/Q5YR7oisJ/hIQu8JYB8L7rL/0/usueAfVZb9A+qy/6QsudzVljvCy361lW8RTbOxvmsvFwrLRcKy0XCstFuWXi4Vgx8Kw2cIVB7tnMtjhv93B1848+XLM2ICqGvtBNECCKj3ErgLQE015UOw+vZnJvWFHvTOiOS38SVK97djarMO4ELQN2iZt6NwUYLzdVmkIdcKn1uaxOAEzLqnlLTRqzL7qY68wFTXjMLu1QTFxLXbVadT20UTHDnuKltBrRqs5eRztDmhwoUBQU5FoiunEZ80JXOivAa05z5JBq1qPEpzlmHNJDgopL4Ra/EBB1aGuadh0VHvLR10XvLV1J9Qo+gz05drYSL24KKOO6110awixp7kYG9xIWXG9YEe5YEXChGwfCFQfklo5toid7uL8VNyH0umpoFEwMbqNdFu+BDZ2KaQxtrSqY8PaHDkBzTsKtBpC9WXqW+4kio90h2UTDVoPKh+L17M5R9YUdjk3YOT/1Wmg3aYoLj61WD7a8FLCJKHvUcAYa96MQxLymjAZzR3qMcxvonCTGJAUURDrztqkiLpGnuVorhGijkjDehrUb5HOGrVolMgpdCGzTiM4lLLf5rVCy4yik/FN+WjXJL6oMDW0Cspdzqq1E0aB3osMUjdamrhuog/W09/vJvxMXy95aupPyUfVs9By5RWN4/SVZzWBnKdI1rw09+mySOeZK+vu5ZMNl6iFsjPcVHI19bvJtPUvVnrgsru9/beiz1Q2D3UX4qVPkawVcm2mI/EtqtfUlWTqGqV9xhcpXySNaXDV3Jmto9ORLKIhrTLWa88akyRjxUFOtUY81mI7gcjMwXde1WqS6z1TTRgJPcmzxuNAdEb2l75K0ptRtnCxQzCTu1ptpjJNdVFaGCVt5rtigMo6G9GRg1Fw0EVCZZnslBrqVsPsfmoeqZ6aLzT38q0mkRUfQb6cj/wDKG0KPpP7M5Q9Mp3Qdyv8Aquw4bOEcs2eOqaxrdg0OiBeH6BEwGoGgNA2KlU5jXbRotTGClBrqoq4ba7vdy/iY/l7y0dS9QdUz05Z2KydSPXlCa9aLl3Z36HSM1i8FYPj+XInkw46qyg65CdZVqkLGCm0rEuwNc7cscYOJRRWqR0jRvKzjKHUapkzJWE7tqskYe91RqonWhkeqNqhlxGV0HGxxQ83Raz7EqIUjYP0jQXAbSjIwbXBPcGsLtyFrjuV+yimbLsT5GM6RUcjZBzTy7b1bf3JnQb6e6i/FSotDhQo2aI9yYwMbQKZl+NwVmaWx0O9TxmSMgKrgwMfGdShdVvRpRSPDGlxWc/Qmm80FSQX5Gu7k+AvkqdiZBdc7hIT7PK0mgqmWf2JadpTLPJfAI1BTwufdopYr7A2qybr3S1KCN7K12JtndSQFZebhKsrHtJq1ZdzpjUalFG5plb5KzxljTXvUtmdeq3vUbbrACu5MdaHSaq7VbuixZpjQABVTOLrPeAQOtt061PLhx+Z2KzzPxAHHarWSIxTerPO68GHXotI9iVHrY305G/1Q2hDrH9mcoNrk/qzyh+JP5C6tDTasd+y5rTYnyOvP95L+Ji+XvJ+pf6KzdSzlnYVZOpCkvhhujWv4tyEE3e9MBDQCa6IRW1PPqppXPfhsRhhaw1fzqKw7ZPkr7OIIzxD4ghamFwAqnsa9pBWTI2PT4L0IYTrHehZZjQOdqCnhvQhre5RRTh2oU81li6dzndGqjs7mSO4CCFDDhh2vajYmk6nKGCaN453N0OgJmEgdonjxI6BCS0RUvN1IWtm4q2k4gb3UTmMa3pVd5KJpdZrp7woYgZ7ju5Q821uH7laNVp53R1KyyATH9XLtvQb6pvRHp7qP8XJ6e6oN3ZpIxI2hTLPGzuqqJtnja68FJE2QCqfCcVjh3KW5cN/YrKAZzTZon6l6s/Ut5B2lDuTemfTsxUHepuqPKZ+If72+29drr0hwrSvuJJWsQtQrrb2aX8TF8veWjqXqDqWct3Rd6Ky9Q3lMiDHOO9OsZvEtcm2NvxGqaxjOiKJ1ljca60LJEN6bGxuxvYbjK1uhSxMkGtNscYNdujCZfv01rDZfv01qRsZHPAUYD7SLo1V5dt6LENg9038Y70/JXENFSppjK7y7lBFhs8+/RP1T/RWXqW8jvKCZ0/l2Z3erP3qbq/nyoetk95G92O5tdSl/Es+WmH8S/wCfLcaNJUDcVxc5XW7tFmccWQEomnY7RqmiOge6tZ5gG8pjaMaPLlnYVZOpHr+RzwySHU7VuUMIjHny7d0WfNDYPdH8YPTsFRXstqY9zAG71Z7NdN52mbqn+isnUjkfEdDes7M7vVm2FT9BvqOVZ+nIi5o2lYjOIIOae/S60gHZVMeHtqFNKIwsSUUdXanzNYAo5A8VUX4l/wA0ddpRbWTpbE5wbtUGudxRNEHA7DokYXU100uFQQm4lnJq2oUczH7FK+42qjxC8uYpr+BzttUy0lrWiiMrQwOKivl969VpTiAKlMmY80B0BzTsPvLZ8BVpn+EfNRTOjd5bk1wc0Eci8N6xY+ILHi4lmYt6zMS66du4e5smyQfq9w+YMka09/fy5JWR3b3f2y3dFiGwe6f+LZ6cl1pF660V5Nlke6R9TyC5oNK6JyRa2/L3NomdG5m7TJbKGjRVNtjq89qBBFR7ubqn+isvUjkfEfTR8Y7M7YVZh7MqfYz15JVm2vUkTX7VlWbymwNaajRaL2EaKN0eC7erPJcrVWs1w1HAdRcVN1xvbFC9o5oCbVtoOrvWGL95MYcdxTnB81HHUFB12rYrXW6PVWWt4nu0SBxbqTK3dem+zeE6mMMNO6JVjGpxU4rE9WeCusq0N9iQrOKRBWu9cFN6ey7hEbaK0X8LV80x92Rh95beg392mCR7DzfosW0nYxUtbvJZeU7ZELIO9xWUj80LNFuWBFwrBj4Qgxrdg9zY+g4/q5UtoN65HtUGLQ4itw1RnzQNQNJ1BRyNkGrRb9sfzQ0EhoqSmSMfsNUXAEa+z27Yxd3upPxUXojsRntHhqMuLAXChU5IifTcrPJd2Mq5WibDaN5Vnmke6hVpnLKNbtKja5kbi51TSqikewm6haBhX1FaA91KU0SQtfr0WjVaW/LQCCnWh7nOawbFZ5S8Gu0Ka0OvXGKO9cF7ajaYgaV0W7YxR9W300UuWvyr/urQ0GF1VYicM+R0Pe1gq4qO0Fkh515qjka8VCrypuqf6KydUPU8j4j6LuR6bezO2FQdUrT/AC+SVZfj5WWjqsNm5WiJz7tE3oj0RaDtCDQNg5DoGONU1jW7NAAHJIqFlmJkTG7BoaxrdnKkMdWBw26AMafyHvLWPZfNSQENa8bKaLNBdF47exWTqj+4ohGzTcaZBO349Dq3TTbRQSCEuvNNVHO17qCqtjC6MeRV6UFuvWrTI5mHTi1rHrKGt1jRA6Mh1xtNei3NqGO3LODhKjtDH6titZLpWxpgw7QwNPqrUXZj6UTXyxSta81BUzi2JxCxJA0SX+/Yo3h7A7f2O2/y/n7uX8TFyJG3mOG8KzMLI6Ea1NCJR6JtmmHx0UtnbJSu3emWa78fcorPcv171HBRr2u2FYEsT7zdabUtFRRSYtW3dE8AlHmstP3u+6hhw661NZb7rzTQqCHDGvanwytkLmKNr8KjjrTmuaaFRySwjZUFWlrnxtNPkm9EaLY3W16mtGI0NaE69DZxTbXWnSzdLEHomOZPHR21CIZi73VVp9k0BmoFWdrr4NeVJ1b/AEVk6v58j4/khsTxzh2Z2xQj2TVa+lH8+SdisvxfkNpjLmgjaFfllF2nqooxG33lp6lyg1wtQsrA+vdu7EdhVlHsvmeUQDtCDQNg0Ms7WuqTVSxiRtCooGx+uhrGsrQabjeEIwxkg3dimgEtDWhUNmEZrWpU0GIWmtCFNEXuY4dyNKFSti+Bys7bsLB2O2/y/cTTYQGrao5GyNqNEn4qP07O+KN+shU5EkTZBrTIY2bAnNDhQrJCvSWUaNjisNt+/wB6cxr20IRsW5yhhMdauryX9B3oVY+rPryPjb80Nif/AO+ylOUQ5jVbetZ+3ku2FWXou9eVPIWAEb+RiC/c7/yW0dS5Wfqm+4oqKiorpVFTQaaZzSJ/ooRSJnp2fCjrW6OyW7oN9U3oj05GJHxhY0XGEbXCO8lG1QOFCCmSiKWrOjoP4xvpyXPa3aVUb+U+0NbKGcqS1Rs1bSs7+hRyskGo8morSvYHdE+isfQPryPjYgn9lKI2KJvNard+Ib+zkv6DvRWXq/npqNDyWtJoppsS7qUUrXjUqqtUNdr9B+S2jqXqzdUOWNa7kGK6sM0r5JrXbWouGqrAnUrX7IgIhUVFbOp+ab0R6e6qK00Ege5bMxxIB1js1s6seqFrIAGGVmZj0YVW2nuosO1u2vQsO96yLeMoWSEd1VLFZ2NqWqzQX3XiObo/6w+nIe4MaXFOvyXpCue5vkFZq4LVLaGx6tpUM7ZNWwqS0COQNI+aa9rxzSpoi2W6XVUUDmGt/wCSfaI2GhKa9rxVpqopS8uBbSiNaGioRML4+LWrjaUuiilbgTtLeS3VbT6nRZpHOlkqffO6J9FY+gfXkfEz1QUnQ+XZTsQGsKNvNYrd+I/sHJl6t3orN1fzRF4ELLfrKFmHe4oCgpotDRiR6lRrdgTsSapGxWZjmtNVGaTSuKzfkg8Fl5NLpnnXQIahtUtcMkKGYOYKnXoBB0Nc11acgSTyE3VHeuC9tVoe5jLw3pjg5odvV4A0roJA7DP1L1ZuqGkcimtU3oDmq5qBWHqCaymxOjRiKMXNqruxFuoIhPYHtLSoK3Lp2tNOVO44xDyQFZns1tD6+RRc0bSq1U5paYNFpo6F106xrTHX2NdvCLgNqFpiJpe0ONGk7go34jA7TgHHuOOs96pNZ9fSamPa9oI5OI4Wu5XUW6JX4cZcmOvsa7ePeW3qx6pnRb6cuSJsgFe5AUGhn4uT0TnBoJKFriO9A1FQpozJGW1UUQbFcOtYTLl2mpRxiMUBXQtPtN6svOnLqalbK4w9E0GG007laW+2YjWhovj52/WrH1h3UTZGPrQ7NFsFJgfJV1J5zE4u7AprQ2LVtKbbHAm+1Y5dBfGpWZzzLtU3WvPmrHf18Ks3XvKkthrRn1UEsz3+XvJuqf6KydV8zyPiZ+5AKQcz5dlKiHOCaNTVbfxB/aOTN1b/AEVm6r58p0bXEE92jLytJuO1KKEtNS5Pgd7Sneo3RDpM1qRwMBI3KCDUHqZzsRwJTL+Xf9ldcBVSOdlmlRktewg6GMaCS3v5Ba+zvLm62lRva9tQrUx4Nb3NKs8cjaG9q3K2ai096gkMjdYTrs+oHW0qSVsd2vesxFWl739o6l6s3Ut5IQogBRN13UBSupU5BarutyfHrCe0hFUQ1Wl43trolzN/mbFS1nvQrQaJmkt1NBKis8mKHkUUzHiYuuXh3KLHjaSGatytFTJZyrWH4XN360G4jhcbRWWoDoz8JVp6/nHUpMJwDY2696GoD0UrwxtSE0ADVs02kXXRy7ijaZHamRqBjoonl3rRc97MRz9WtQOcYAe/Wo5iLO7nc4nUoySxpO2itfNkik3IWw/EzUp6Ps7qbqqO0MZZ2V27vRC2GoqzV7u29Bvqm9Ee6i/ETaMCI/AEBQIkDbyHxRv6TU1jWCjRREA7Qnwhzw6qoN2h8ET9oTI2R9EIMa2tBRSSsj2qaQzOF1pWHNIaSPp5KONsYoApGTNlLg2qhsznVMiyL69IUUULYxq+qygrVzqoAAUCbCGvLq7VJC6J9btWplrjA6JCM8bQCdVUHAivcnWqIGlaoGoqnODRUprg4VB5U/UvVk6kfPkd7P3BAJ45q7uyFWce0Gi29e70HJeKtPorIeaR5+7LGnaAqClFsRY120aCAUWNLbvco7M1hrojjw60Ok1ojmlZ43MBr3qeMvAohsT43yT0I1INo2gVniLal21WtlWNI7ijA1sN47VZrwh1p73k1qVZXl0evu95aepKgHsmcgBBBM2GiY1vuHNCcwUKPcinfiWft985jX7QmxMbsHKIB26cky9tNNyaA0ABZWIOr9tD23mkIWSU6nP1K4LlzyopIZGbRqUIirV7z6IEOFR7q29Fnqm7B7qDrp/XS40aSBXyVpkkkHVkAKE2l7WuvNopJbloYK6iNitczmc0avNYkkeyRCUiz4jhrom2x2q8zUdNqmLaNadafaXuY0d/eVDJehvO+azMzrxaBQJ8zjGx11u2hT577WsYNqFyN8YdrfvU1obF5lNnY5pI7hrUT2UfLUj1WcaTQNKfabkpa4alK7HbeY4i6NYVlY7p3zTcs6zhKle+6wsFQdqw49t0K1xm9fpUd6uxusu0gBWJrNZ71LI+OY3XV8kHyNiLpR8k2RmFf2BNtjC6lCFNaBHqpUqz2rEddLdNo6l6svUt5B/9oBPC7uyFWTp6LX17/lyrL0nj8gewPbQoUAop3N6DB361Z48Nnn7y1n2Y/cmdBvpyW9+hmo/JNHuXsRbXVTWNH/V/28oqKUSsvD3D3hjbxUbxI28OwGGLgCAAFB7q29BvqmdBvp7qDrp/VTPcxlWtqsa2HXc+ygMxriD0UrL8bm+SsdcOh7irZGeY8dym9pZq07qqysYYgS0VUkYkYWlNsWvW/UnWmW8Q2LYmzWgnXFqTYTjGRx9FlWgvO8KCItY5ru9ZLX09SwWYdxQwtjqSRVPa0yNdfGpTCJ4PPbe9VDhxh1ZGa0cthll8IeydVrmlPMT3scXjZrCgfG2+HHUVDJHHe9pUdykbCX1bJq9FI+B0QYJKU8k20whoF/7J7w4n22r5q9EISwPqrPJAxg3r+Gxb99Ons7m0LkTZjFcxNSu2Xm+02K0yQvj3lWItEhqe5X2cQV9vEFO5phfrVl6hvId0SgE8auylWQ+00WnrpPXlWfrZPyGaOZx5rtW5RWcMNTrPvbX/ACwhyQUNoHco6V+nun9EpxLCD5Io/jP+buXY9UkzfNSPLKc2uieaVj6NYrNKWE6tROm2upGBvKkd/BxDerD1R/dyHPa0VJ9y97WCrjTllwG08u2dUP3KPq2enur72TS3WV1rFtZ/lq9a+ELHtA/krHtPgrFtfhfZYls8NX7Zwqtt3L+N/wCUV2271h2zjWFa/EWFa/EWBafFWWm8ZZR/fKVkxxrJM3lZOPzWUi81lYdyy0O5ZeHhWXh4Vl4eFZeLhWBFwLAi4VgRcKwYuFYEXCsCLhWBFwrAi4Vl4uFXbNfuU1q0YAZRu1QWRro6urrWSj3lZJm8qSyNawkOKsnUj58h3RKYNQThqR7I5WTrNEp9pJ+48qz9bJ+X2nrIuW1av/tTXVHuXKXoimxEakfxY9NEj7jb1KrOHujTJ5HuAwtNk66ZYvt8OncrXi6nNJuqE3oRzqqwdB/qnWvWQ1hNFFIJGXgrZV8jGDcmB0zo2dzVY6tdKxPtgB5raqeZwhZIzepp+gG7XBPffkELh8/NPkbCwV+Szkm25qQcDsUz7jNuvuUZcWAuGvQ5zW7TTRa5HGrC3YdRUEjXsGvWBr5VtbWD0KhNYmH9OiuiaTDZepVZ1/fGpLQ2WKmxys5rCz3Vn62f1/JJLPHIalNssLfh5EvVP9FZOq+Z5Hcoug300SCjnep7I5WQ+0HqmlPPOd+48qz9bJozR2FmtRyyOPQ1fllr1PiPuBsTK6kw1HLJUhKeTsXcrXqw5B3HltiDZHuB29yuNvXqa1LEZPioo42xtoFBEYg4eakslXlzHUqrOyWJ7mkc3erjb9+mtUCwm4hfvFCsnJepXm706IGHD8lZrO6/eeNigZWeR57irQK2iIHYrVG9xYGt1KBjmWkD6q3Dqz5lWmYxgAbSmR2lz6m8PNW4c5nojjsa2S/8lNz7MT5AqzMaI8TvoVj2h9XDUAhK42Uv7woMd9HYmqusIioIUMZjbQmutWrqHqy9QzRO1vNeXUoVJM1kd/fsTbU8uF5moq0j2D/RRwsdZa0161Yz7Onn7qy7ZT+r8pkaXxuaO8KxP5hG48mLq2ft0WgUkd2RysvWph1u5cHXSaKD8ttYrGDuKYasafLlBFNcKBB9NiDuTeCNT3qRyJRVrNITqVndejHl2SgOigrWmtOa1woQp4RK3zGxCG1M2O+6wS+MCXapIL0bWA7FQUp3INAbdA1I2HXqfqTiyCIbky9i1iadETnlvOFDVWlrnRat6a+1UDWs2eSrbNytQJgbXb3qSO/ZmU7gCop2PuNe3nK19SVA2kLB5KyanSN91Y+qP7vyqy9fLyYepj9NFqHPR7G5WXrCmnpctmq1O/L7R1L1B1MfpyxoBV8AoPWJ5p0oRf5p2rvV80VRU6Kq19Q5WbqWpzg0VKNti3FNtkR3jSyRkgq0rEaHXa60SBt0vcGNJOxY08xpHqCFaCu1QzNlaSN/KL2BwaTrOzsRAIoQnWeX4ZNSisl14c51aKWPEbdqhqUH4mT3MhpG/wDaVZOobodrBorJM9xcxxrp9oZKteC3vGi+2tLwru0ve1gq5Agio91DaGyEjYeVUcq82t2uv3Fm/Ey/P/fk2Y+xZotfSR7G7arL1hXFy3Clpb+X2jqX+isvUt9zVVVVUUV5XtSvKqcaqui3dUP3KydQE5oc0goWaEfCsGLgGh/Qf6FWR7GRPJPeo709ov8AcFbep+aE8zA11dWi2kl8bN6YxsbQ0aLFtmWqZzJWO2bUSBtKZLG8811UHNdsOi0PkxReFLp1KKVsjajSXNbtNNMk0sz7sexRB4YA41KfI5lsArqdTVojkD607uRFNellYe46vcR6rW/5+5n6p/orN1LNDzbbxoFhyY9wmjio7O9rgTKdFk1WiQeqmfcic7yRvanealtVwADW6ijbaCQ576eSnFYX+iZaJWi61QGUj2gU9qEZoNZVnmxW7NYRcBtOh8rI+kU1wcKjQdmpOxWSXjqKs8jnsq4a9EkjYxU6LW55eyMd6bY3NIN/TN1T/wBqsZrCNDT/ABx5FrlLaNbtKYCGAE66KzzPxHxv0WY0tTx68gKydQ356LXtCPYztVk6xHov9P8A1yzrtI/L7R1L1Zupb7sOVVVVVaqvInbeicrIfZfPlPskTnV2eiaxrBRoTmhwIKkszTE1o7tiYCGAE9ytMOK3V0hsWJbBqLPsoTJd541qGExul3HYrE26JPVSl0krg51KbKqzRsa7XI2vkmvfEHxjpEqyXmzOadyto58atTjHFzd6gvGUGvz0TiJ11rz6ICinrgyU4VZJYY2uvHWUyWN/Rcusttdx/wBlO94tUYHkppmQitNZUFqdJJdLU+0RMJBOtRTMlHNRjvWp4BprTp2xANcbzqKGYS11Upyn6rW33Np6h6g6mP00uFbcPXSIHNnvjYVMwyROaE+zvELBSpFdis11s3P/AOFG0wj4q+ikkxYH3AdqscOq+Rr7tF1rpX4j7pqo42QxmmvvUj3PN8qzWiR0ga5TVktDgXAeqhuMYG3wp5cJlforNPK6ahO1Ws3pWNVomwmjVrKzUzXc4gp4EkTh5JlomoGNVoic9jX/ABhWeYSt8xtU1pZHq71DahIbtKFHWCFY6tvsO9Wid9/DYmB7bSy/tU07YqVFVDM2UatE34yOvlotHs7QyQd+iM0tX9/ICsR9j/dotnS+SPYyrJ0048yX0KPJe4NaSU2ZuMXFZmLiWYi4ljxcYWNHxBYsfEFix8QWNFxBZiLiWai81m28JWad3MWLaDsYv4orCtJ+JZaXxFlX8aysniLKyeIsvN4iw7UPiVbWO5Y842sWbPAs4OErOM3FZyPzWcj3FZyPcVnGbis4zhKzjOErOt4Ss43hKzjeErOt4Ss63hKzrOEoWhhbVY8e9ZiHiQc12wouA2lVG/kWs+y9SoxSNo8veV9w4XmkbwoZmRtLXbarOM4XLOM4XLNx7ihagdjCsZ/guWZ3xPWbi76hZmHiWNFxhAg7DypLPHIaka02zwsIO5ewvXqtqr1nv37wqny2dwo5wT5rO9paXalh2XxShaYQAKlST2Z9LwOpZyLcVnY9zkXWQmt1yZLZWGoa6qZNZ2vc4XtafLGZmyc7UrRIJbtGnUonSRuqGp958hcWFQvwpC66aLGjx8TWpiHSucDqKsssTa11FY8XGFjRcYWPDxhZiHjWYh4wpJGGZrgfc2vqHKMUjYPIabjb16mvlPgifrI1oWSEIADZpks8UhqRrTWANu9ywY7ly7qWAzEDxqoprKyQ12FMsLQQS6qkiZJS93IQFtovjoosaSHU1qWJsjaFCwN73FQ2YxuPP1UUMAiqnvtgNAz6KzxTCW+4UVos2LrBoUbJO3WPsrLFI0lzu9Ybb9/vVphffxGbUHTvkZVmseStUDn3XNVkhcypd36LVC51Ht2hQzTE0cz5q2yNdRo7lHW42u5E0lJ/VybCfZu/dotnSHp2QqybSn9CX5o8l2wqzRMe114d6y0XCsrEspH5rKR+ayjN5WUZvKykfmstFuWBFwrDZwhUHvKBXGcIWFHwhYMXAFgxcAWDFwBYUXAFhR8AWFHwhYcfCFhx8IWHHwhYcfCFhx8IWFHwBYUfCFgRcAWWh4Vl2DZUJ8F/a4rJ/rWVlGx6wbRx/dYVo4vupGvxI2uPZm3RPI0jbzgrrdwV1u4K63hHILGnaFgxcARs8XCjZI+6oWWeNkxWBaPFWBaPFWBP4qy0nilZTfIVk495WUh81loeFZeHgWBFwBYUfAFhs4QrreEK6NwV1u5XRuCut3K63cFdG5UGmgVxvCFgxcAWXh4VlodyNkhKFkh3FZaHhTrNDdPN7lCxhkjvDU5vubb1Pz/KWWVjX3q10S9a/wDcU3oj05FjOp/7kCrZ0h6dkKsuwpx9m7lSGjCfJWYUi9ewE0FVFLiA6litxLnf2134wfLs1p1Pgd33qflcXSsw3F/ubZ0Wfu5AkYXFoOsaJpcJtaVUcrZBVvJmkEbL1E1wc0Ed/uZp2xUqDrRtw7mKN+IwO7HK0Zyh2GiHIsp6z1QOtWra3sjthVm2J/V/TlWnqnKIUjb6aKjkOnjadqkfcZeWZjo07+TeFaV1q+2tK69Fqddj9VZ23Ygp9VoiPbSBnOzWrpQD9eh7gxpce5McHtDh39iJA2ns0A/i3+Vfc2vZH+/RNLhMrSqz+6P7rEkxr4FCVE61lwvN1d+hsgincW6xVQzCUHUpbU2N12lSnW4V5rUDUAq2SMw7tRWqs3UM9FLaBG9raVWIy9drr0Nmic66Ha1JM1jgD38i1RX49W0KxNaYzUCtVs0TPdFaGurzTphmc+eQV1ci0SPfKI2FTmWOJpadm1QS4sYPuLTqtMZ9OTZtsnyQOtWju7I7YVZ+in9X8xyrV1fzQ2BPddaTRSTX3sNNijffbWmi1vLaAd6js7Bt1lT9U70UMReVaHuBbG1Wdr2tN4qebDpqUMuI2qtepzCNqhgpRztui2jmN9Uw1Y30Uuu0xjtv/W9ml12qEaLRaatfGWEKyzsLWx9+mecReZUGOTfe7VuUweYzcOtQWoXPaHWg4OAI2J9riaabU1wc0Ed/JkteHJdu6bNK+R81dgOpSxNlZdKsz3Nc6F+0bOy2f8XL8/8Af3Nq/lfvGigI1oMY3Y0BWkUtLHemickQv9FZrO6+HObzdFui1B4HqoHWdut4JKa8PjvNW9QOrCz0THDGvP3prjNaA4BWyRxeIx81FZ2RUc4605wlnMTm6u5WnqHJs077rWuKbWgrt0WLpyKo36Lc3mNPmozVjT5KS0RxmhOtWIjFeiQNqbIx3RcDosnOnc4p7bzHDyVhPTHuLX10fJs/Tf6BAqbu7I7YVB0VJsb68q0dEfu0vhJlY7TLE2Qa02zEEc/YpGX2FqijDG0UsLZNqiiw+9Tw4lNesKGHD71JBfe11dLmhwoVHDhk61he2v8AbW/iz2Z/4yL9p0TtrE/0VnY3DYborTTaOZaGyOFWrOw/qTpRgGQblZ7Pi6zsUjLlne1vCoIo39KSnkmBrWgN2BWuR0cerbVZm0U2qyzmUEHaETQE7lLK6d+z0CZHa2kf/nRYyGvmB21QIKOu3j0/9dlje5toqO91Pv7m19GP945BAO0crBi8NuiWxhxq00UbAxoaE+xRONakKONkYo0K0WYvdfadabY3k+0csD2weCp4zJGW1orPZ8KtdZT83eNylEYLW/pPQhMUL7vSpoa+1sFLp+iex8sFCOcoWubE0HbRNLWSnFaSmmzvlaW1aVbb9QfhVlDjKKfPRZvZzlp0WXVO4evuLb1kfJh6137dE3d69jKf0Soegpfg9eVN8P7vzCP8U7s1p5skD/1U+vKIBGsLAh4ArraUpqQAaKAaH2KMmoJChhETSAU5jXtLXbFkG8ZWSLSDHJTRHBHG4lo0y2VkhvbCoomxCgTYaTPkrt7LBrtLfU+5tY9l/cO0CNgNboryHxRv6TQU2CJpqGIgFAAbBons+JrGpyF5kfONSArG03nP9xbemz05MfW/2oKbu9exlSdFR9WpPg5U22P93KtEhjaKb1HaA7URQp8rWOaD3+8Dgdh7ZF+Jk7NaxWB3kmOvMad4/KodU7PX3No6o/L8rtu1nJZ1g9EFP3eo7Gdik6KZXDCdtHKl6cfroJoKp05MoLVG5zhzm00Ww62BMLHgEKbnWlgRPthzvki4Dboq7FpXUjI0Ou116LwrSujHi4kCHDUVaH3IyrMykXqrKTekZXZ2uL8TL2a1GkLvNQ9TH6aGua4VB02qR8cYu71HJaw29S8E01AKs0znuka7aFUckEHYe2BhbLAD/wA1+5tWuFwQ2flVu+D5pvRHIb1jfmhsU+z6djdsUmxM6ITukPTlT9OL10mFt5rhptMTnXXN7kHzHUGUTIpBK1ztfmsM45cpYpXvO7uTBMxwB1hNYRaSVaI3GceagvMbLXuXPFH171HPic273KzMa9zqhMY1goFatckbFsCsvWyntcX4iXs1s/lt3nRM57W1Y2qizALmM9aKHFu+026Ld1bfVRSWmjAI9Xpog1WqY/uTf4tteiWnRix3rt4V0F7A4NJ1lQxiEmr+kdSqNevS40BKhlErbwTiGtJPcrPeldjOP7RobaPbOjcKHu8+x2nVaLO7z9zaLMZXXmu1q5bm7D91et47j9Fj2wfy/ss1afD+yzdo8MLN2jwws1aPCH0WZtXhj6LHtfh/ZY9r8P7LHtPhLNzDbGs3L4Szp8NZ1vAULZD5oWiE/GEJGHY4dkxovEasxBxhZiHxAszBxrNwcatBbJGC3XrUVcNvpyB02Jqm6PY3KXuTeiEen8uVaPg9ffiyMDq1+SDQNgTY2tJIG3RaIi6j27QnvIirTWrNHdZr2ntcWq0y9mm51piG7S6M4zZBuo7TbmksadxTIbS9oN7V6qBkrQb7q7k2F4nl1anNOv1VjaWteCPiVobI5lGFPhkhuO2qK1PMjWuG1YLsxfOzuVu1Ybu+qjvQysc/4lappWTChoP91Z7S8yc9+pTPuROcoTONbKqck2Vx77qs9MCP9ui2s9mHja0pjrzGneOxW7UIjucgaivZDV1s179N1u4IwxH4AjZYT8KnszGNq2qZZnFoIkosC1DZKv40bihJau9iNptHhrOTV6IWckG2NC2s72lZ2Pc5Z2Pc5Z1nCVnW8JWdHAVnP6azcnhrMT90axbUf5avWzcE+K0SijiELCzvcVkovNZOHzWUh4VloeBAACgHJrzmeqaVIeb8uxuUvcm7AvjPKn+H10ucG7T2EkNFSmuDhUIEHYe1U/iD+zs0POtEr93vaDdotEOK2neFhh0YbIKosY4ULQVJZI3jULpUMcl1zJaEdya1rRQDUiARRXLRAfZ85m5Ruc5gLm0Ktj9QibtcmC61o3DsVt1mEbymtutAHd2Rn453z5Vq1MHqoOqbybRqtUWi43hCuM4QsNnCFhs4QrjOEK6NwVOwO7vVMenu5nY3KXuQ2BfE7lTdOMeem1yNNG7io5GOAAPdpqN6e66K0QNRXQ6RrdqrMdbS0hNvU5w0E0CFoiPxaHENBJUcrJNhVpcXPbGExgY2gUWq1yAdq/nn9nZrPqknb+rSLW8OfeYfTcopBI2tNNolfHdutrVQPe9lXtodDraGuIuHUVG6+wOpRPJAqG1WIb4bhn10B9XllDqTnXe46HSRtNC4BYjOIfVXm7xobM1z3NHdoDIRNt5/Y7bsjduf2WH8a/58q29FnqourZ6cm26nRO7RJsTQndFDZ2Jyl2hbkO/15UvXRabVGKtdTvTYmN1hukwMLr3ucGPgGg602NjTzQpG3Z2yd2iAe2kd2o/ih+zszNdsk/bpw/a367RrHLuitaD3ElnjkNTWqycPmjYI+5xTubGadzVYQ3Cr3116LQA20wvG0nX2O3dSP3dlbqtx5Vu6LPVRdUz05NubWIHcVEaxtPl2d+xNR2IbB2Jyk6YVU3v9eU/8RHpJHf2OnapTS0w+lOzQdbMfPTapjjNGy4VFaGSmgrpvsDrt4V3aQ5p2GvvH2eSJ1+E/JQyPe3nMoVhNMuIdvY7Z1Dvkoeqj/aOyN/HH58q3dFnqouqZ6cm0isD1ZDWBvZ39FBHYm9EenYnKTrBoZs+fKf8AiI9Ns6LfVN6I9Pyy1dKH93ZmgxWmnwv0mEGa/wCWxBrW7ABpMbC4OI1jQdepRxMjrdClhc91RKWqNpa2hde89E+ZvDDOqivW7d/sojar/PGrRBO6RxGHTS83WuduCsplcHPcduxGpaablDJKybCkNa7Ox2l7XtutPemi60DcOyRfjX/PlW/4Ezot9OS8XmOHkrCeY4efZ39FBHYm9Bvp2Jyk60aGbOVJ10emeIB4p3pooANJUcFx1bx0SXw03NqjnlJo6PRLiU5ijdPXnN0PaS0gGibFMP5ukynHbGPmpG3mEKxPJa4Hu7VLrtMI7NaY5XFrmdyv23hQntPfCsy/vgcs83vjchbYjxIWmA/GseLjarwPePenWCCoYpIZKbWFdxUbJJZRK/VTZ7zEYPiH1WPD4jVmYONG2xdwJWbkPQhKrbn9wastK7pyplmjbr1nstm/FSfPlW7pM9ENg5UXs7W9u/s7+iUF3JnQb6dicpOtCCj2fPlSOGNG3S5jXUr2GaBxcHs2qHF1l/0VmBbJIO1SfiYvTtZjj4B9EYIT8ARskG5ZKLzWU3SuWXmGycq7ah8YKe21O+KnosC1+N91dtw+IFYtrbtiqs6R0ois7Fucs5D5/RZyL9X0Wch8/os3DvP0Wag41jw+IFjReI36rMQeIFm4OL7LOQ+f0WbZ3Ncs0/uhKxbSf5S/jDwhYdrP81ZabvnKyh75XLJM4islF5rKQcKy8I+AIMYPhHaYNVsePXlW3rWenLtXMmjf2d/RKC7kzoN7E5SdYgo9nz5T3htpqe4LNxeazjOErN/oKzMh2RFYtp8JX7XwBVte4L+M8l/GeSrbNwV+1+GFi2nwljz+CsxL4JWZk8IrNP8ACKzTvCKzZ8NZz9CzreErOR7is5F5rOReazcPms3D5rNxeazke5yzrOFyzrOFyzse4rORfqWbh81moeJZmHiWZh4lmYeNZiHjCx4uMLFi42/VYsfG36rFj4wsaLjb9Vjw+I1ZmDjWbh3lZyHzQtMJ+JXg61Moa838nuMPwhYUfA36K40bGhXGcIWFHwBYEXAFl4eBZaHgWWh4FgxcAVxg+Efkuy3/APN3KtfXx8u3D2Q9VEaxsPl2Z/RKGhnQHYnJ/WIKPo8rB9o5ztaw2cIVBu7FQblcbuCuM4QsOPgCwo+ALBi4AsKPgCw2cAVxnCFcbwhXGcIWHHwD6LCj4AsCLgCy8PAsvDwLLQ8Ky0PCspDuWTi81k4vNZOLzWTi81k4fNZWHcsCHgCwIT8AWVh3JlnYx14bf9LM51ud5V5Vr69nLtQrA5WQ1gb2Z/RKG1dyZ0B2Jyf1qCj6P+pTLEPjb9VmIPEas1B4gWag8QLMweIFmIPEaseHxG/VY8PiN+qx4fEb9Vjw+I36rMQeIFmYPECzMHiBZmDxAszB4gWYg8RqxovEb9VfZxDsdRvV9nEPqsSPjb9VZyM3J8+VbOtZy5uqf6Kw9WfXszuiUF3JnQHYnJ/WIJnRH53qV5u8K83iCvN4grw3hV7ZeaNrgjaIB/MCNsg3k/JZuvRheVjWk9GD6r+NPAFg2k7Z/osnxSvKyUHn9VlIOBZeHwwsCLgCwIuALAh4AstBwBZWDgWVg4FloOALAh8NqwIfDasCLgCwIeALLw8AWWg4FlIOFZODcVkYfNZGPiKyO6UrKS905WBah/PWHbfFCpbuIfZfx/l9lW37gr1v3BVt+4L+P8vsqW/iH2WFbT/NWXtXjrKTeOVkneM5ZH+q5ZFnE5ZCLe5ZGH9SyMHmm2YMmvNOrdyrZ1rPTlzdU/0Vh6s+vZndE6Y+gOxOTutOhvRH5CZGDa4LMw71mm9zHFY0x2RK9auEKlr3hXLV4gWFP4ywJPGcsu/xnLAk8ZywJfGKwZ/GKwrR4ywrR4ywrR4qwrT4qw7T4qwrV4qwrT4ywZ/GKwJfGKy7/GcsufFcssONyyke8rKQ7llIeFZSHhWUh4VlIdyycO5ZOPeVlBxuWWPiuWXl8dywbT4yw7Z4q/jRwlX7ZwNWNafBWZm74FnD3wlZ6Pva5Z2HzWcg4lmYPECx4fEaszB4gWag8QLNQcSzUX6vosyO6OQ/JY0vdAVftPhN+q/iz4YWFaTtn+yy7++d6ykfe55+aFls4/lrAhH8tqo0blebxBX2cQ+qxY+Nv1WPD4jfqs1B4gWbs/Gs5Z+L7LOWfi+yzkHF9lnYPP6LPQeaz0H6lnof1LPQfqWeg/Us7B5/RZ2Defos5BvP0Wcg4vss5BxfZZuDiWbg41m4ONZuDi+yzcHEs5BxfZZyDi+yzkG8/RZ2H9SNvj4HLP8A9P7rPO8NZ2TwlnZPCWdk8NZ5/hrPu8P7rP8A9P7rPt4Cs+zgcs9HwuWei3OWdh/Us5BvP0Wbg4/sszBxhCaHxGoOadjhyLV17OXaeof6KxdT8+zHYUNi7lH0B2J21O6w6G9Edpme8Pa1vehDN0r+tYsg6UZWZ/puWNKdkSvWo9wCuWg7ZFlq9J5KFmiHchGwfCFT8k17+TQIxxn4AsvB4YWUg4Fk4OH7rJQbj9U2ywtNQ1UG7l2i0yCTDj2q5b37XU+aytq8X7lZKfvl/wB1kHd8q/y8eIfov8vZxlf5fHxuWQh3uWRg8/qsnZ+H7rJ2fgWUs/AspZ+BZWDwwsrZ/DCytn8MLLQeGFloPDCy8HhhZaDwwstB4YWVg4FlLPwLKQcCydn4Vk4OH7rJwcP3WUg4VlIOBZSDgWVg4FlYOBYEPhhYcfAPoqDdy7o3K4zhCuM4G/RYUfA36LBi8Nv0WXh8MLKwcCykHD91k4fP6rIxb3I2Dc/7LJzDY9YVsGxx+q/jfP7IQzPcC/l2rqHqx9SOzHYUNmiLoDsTtqPWHQ3ojtMvXQ/6BAp/iB9K/b8/nFYX+isJ9mR59mOwobNEXQ7E7av5jtDeiO0SSsjpe71JNG58ZB2JkjH7D+fSl7WEtbUoz2hzqXz/ALLAtd+uuu+qzFoa66H1+6aTdFRr/PTrBCsO147MdMXQ+fYjtX8xy3obB6dotUd+I+WtQMhdEHXR5qzCs73N6P5/aLOJWfq7ijaJsPCPS2KzWUR6z0v9vz0mgJKz0H6lZpo2SOqdRTXNcKg17MNEPRPr2Ir43Lehs7SRIxzom7HFRRiNl33d4b1iR8Y+qxYuNv1VRv7TPPaI3dEXe4oSWx4qBqVLfv8A9lhW0/zPustavG+5WUn8X/dZSfxf91lbT433Ky9r8X7lYFs8X7lYFs8X7lZe1+L9ysvavG+5WXtXjfcrLWrxvuVlrV433KwLX4v3Kw7bx/dfx4/4Fi24fB9lmbUNsP2KzkvfEs+O9iFvi3OWds+8/ROdY3yiQyFZuz8azln4vsha7OfjTXNdsIP53a7M1ovsHqFl7OY7+IaKwg4pI2U7RB0T69iO1fG5d3Je/EmADtSyh8RZR/iJrLRG40bVfxh8l/G+SvWzcsa1D+WsxP4Szbu+IrOt4Cs7HuKzcXmsxDxLHi4wsaLjCx4uMLMQ8azUO9ZyLzWdZwlG0tdT2NVmZu6JYtrP8v7KttPcrlsPxLAtPifdZafxVlZvFWUk8VZR/irJu8VZH9ayLeMrIxbyslFvcjYeF6bYjTW9ZWQbJijmoqGt9ZmfwVmLR4P2QnluOJi2Jjr7A7sVv6j+5Wb8PH6dloNyw4+Bv0Rs8HhtRsdn4FkrPw/dZOz8CNhg8/qnWDgkWXtnifdfx7fP6LHto2x/ZZ2YdKJf5g3vj+6z8fC5Z6Hc5Z2Defos3Z+NY8PiNWJGfjb9e0FzeILEj42/VY8PiNWag41nIN5+iz0W5yzrOByzm6FyzUvgFZi0eAse1eCsa1+EFjWvwVj2rwVmLR4CzM3gFZp/gOWb/ouWcZwOWdi3OWcg3n6LMwcax4eMLFj42/VXo3il4FPscmJRvR3qONsbaDsdRsrp70FBsd69iO1DpO5W22Dy91qRbH3gLBi4AsvDwLKw8KysO5ZWHcstDwrAh4AsKPgCut3DszhVpCsvQp3g9it/Ut/codUMf7R+QlrT3BYMXht+iy8HhhZWDwwsnZ+H7o2GHe5ZBvGVkXDoyLBtjdj/ALq9bm/DVZq0DbD9is87vjQt7e9hQtkPmja4u6pWdHAha4z3FMe14qOVUKVlqvcyTUsK2+IsG2eL91l7V433KykvfMVkd8hWQj4islD5rKQcKy8PAFgxcAVxvCPfXW7lhx8AWBFwBZaHhTrHCRuR/wAPHifZZKZvRkWFbR8R+qpbajpK5bONVtg3FYtq8ILMTd8Kze+IrOR8Llm4fNZqHiWYh4wsaLjb9VfZxBVG/lSMwZb4TSCKjR3pv/pQbHdiKHSPKg51okd7pzbZU85TMtAbz3akyK00HPQ2DlxzMfWm/s9Sy207njsVv6tn7lF1bP2jlvtELDQv1pksb+i6vv2vY/our2YsYdrQjZ4T8AQghHwBXGcIRgiPwBWM0lez/mrlOGFbGU+L/wB/lF0blhs4QsCLgCy0PCspDuWTi81ko95WTHGVlX90pWBaPGKuWsfGCr1sHcCpZJSwh0XzVjfVpG7QdqaoPi7Ee9N2ldyGkqxbHn3ds6seqGwKSV0c2vZRQSyvk8k+1saabUJo6NNdqD2E0DtaktDGOu7SpHUjcfJWezGQXiaJgLWgE10BzSSK7OUHNJpX31o5tqhd6dit/Vs/couqj/aOXDCwzua7XrKtEBgIkj2f7KGQSxh3197K67E8/pX+HNPtD6drZqt59TyrVqtMB9P9/wA0eKtcPJWPa4aDtKCg+LsTk3v0DS/on0Vj6v5+7tDasHrolhdJO3VzUGgCgClikY511tQVLE5tnZXbeVx0OG9Tc2VsrforRrgd6KzTlrQy7XWrTaLnNbtVkfI69U1CmeI7QHN+abP7IvcKUTrVK47aeQUsjmQV+KihtUl9gfsKtkrhdY3vUFnEWuvOVolDbrSOkhdij26gs6y9S6fd27bEexW4ew9HBWY1gZy4fxT/ANzk9oe0tPerCS2R7P8AmrQ2WJxoHiuiR4jYXHuVZp77ydTVYpHPjN7uOlzmtFSaJr2uFWmqtE+CG6q1RLpYas1EhTZwMIkrdVmmljFGx3hXtbfx59TyreOax24ppq0HePzSzdc7QdpQUG13Ynd6byZerd6KzdS3sBaHChVxt0NpqT7OxzqqRt6Nw8lZxSIalPHI2XFYKpk0x1COis8TzNVw2K2A4GreopbM1rTd51FKzMRtLdXqnQPMTNXOYpYTMxjtjqJsFoqKyfdWuNzrhArRTMxIy1PgmZRzlG8SNvD3VuHsm/uUZrGz9o7DahWCT0ViPsPmeXZ9dof/AHf7qWURsLj8lYW1e5//ADWrdKdUY+aJAu0aQ4bUw1Y0+S/xA8xg80X1jZDH8/MovFkia3a461m7RcxCwXaqORsjLzV/iF6+3dRWaJjGVaSaqQQveGP6W0aLd1B9QrKKWeNOcGipOpNtcDjS92mDnWyQ/u5VpbegerG6sDfLV79zg1pcdgTp5530jqAr1qsxBcdR86pjw9ocO/8AIZHXWOPkrGNbnaHdIoKDa7sTkzk2g0icm2iRgoCs7LuCzz+ELPfoWebwLPM4Ss83hKzzeErPM4Ss7HuKFrh3rMw8axouMK+ziCqFX3WXhr0B7hrWtGoU91bOpPqFB1Mfp2F4qxw8irAea8efLa/BkddN9x7llZ5XXpXUTGNY0NGxT8221dsq1Pw6VdRMe14q01C/xDpRKyMaImmmtf4iDVjqaqJ9pL4xG1tArLEY4qHadatLoCDG92tWQOebt9wA16kxpdbZHHuGrRb+raN7k0Ua0bgrUxz4SB6oXefXb3Kwuc6HX3HV2iw63SO5W0UViN10sfv/APEHG4wbyrB03+itkwfRje5WdhZCxp0yWrDmDCNW9Mex4q017Z3q1mkJ9VZB7LQ7pFBQdI9id3piHItnV/NNsYIBvI2LcUbJIspLuWTk8lkX7wsid6yJ3o2F/cQjY5tyMMo+Aq6d2i67cVck3FXZdzlekHeVjS8ZWZm41m5t/wBkLbJ5LPP4Qs87hCzx4Qs8eBZ08Czv6FnW8BQtkXmhaIj8YV9h+Icqo38u19Q75Ky9QzsVg6T+U9t9pbVRQxxdEfPTaLOJhucFkrQdRcKKKNsbA0L/ABAH2ZUApC1EA7UI427GAaHwRSGrmpkbIxRoppexr+kNMtkikdeOo+SYxrGho2dnmNIpPRWEeyJ3nlv9nbge53/v38zWmN1RsCDXEEgahtViZE7nfEO7kW9gMV7vCgnfDWg1Ff5h/T+6ikxGB1KJ85bOGXdWio39otvRb6qz9Uz00O6Z0QdM+nYnd6Ym93ItnwDz7EYoztYFlYOBZWHhWVh4VlIfNZKPeVkmbysi3iRsJ7nI2SYIxyt+ErnKq+S1oPl3lYlo3uRfN3uK16Naq/iKxJeNyEs3G5CW08R+ixbV/wACkmmcwtc1WTqG/PsM1qEbrt2pVnmEb3Ejaha4T3rNQcazcPmjbWcJWeHAs7+j7rPfo+6z36Pus8OD7rPDgWebwFZ6Phcs7FwuWej4XLPR8Llno+FyzzOArPDwys9/TWe/prPjwys/HwuWeh/Us7D+r6LOwbz9Fm7PxrMweIFjw+I36rEj42/VYkfG36rFi8Rv1WPD4jVmIPECzEHiBZiHxGrFi8Rv1V9nEPeWs+werH1Dfny7e3mMduKY68xrt499N1Un7SrBSko9E9jrNOHN2dyZKx7ag+qfIZ5dbwB57FZJHNlw61arUKwPVgoWPad6wIfDb9FM65E4hWWR0kVXba6LYCyRrw7ahbxq5iBr2a2jmNPmoOpZ6aHdM6IOn8uxP2FMTNo5Fo1zRDkw4pL7+xWvqHKzGsLNMppG7XrorLNeZRztfYrrT3LBi4AhHGPhCoN2mgV1vCFhs4B9FhR8AWFHwBXGcIVBu02jqXqydQ359hlZfYQNR3psDnSXK60LE7iWS/Usm3iWTj3lZKLzWSi81kot7lko97lkWcTlkW8blkR4hWR/qFZE+Isk7xFkneIsi7xFkX+Isi/xFkpPEWUm41lrTxhYNq4mrBtO5n0WDP4TFgy+A1YUngLDd4BVz+g5Xf6Lld/puV3+m5XT4blcd4ZWG/w3LCk8MrAl8MrAl8MrLzcBWWn4SspOspaOP7rK2nj+6ytq/wCFZa07j9UYZx3OXPHeQsWTxD9UJ5vEP1TrRK5t1x1KxvaYrveOXaG3oJB5KxOvQDy1e/is+HIXB2rcnNa4UITLKxhcRXWKK4GvLZKhWbAZKKFxJ704VaR5KxxvYX1bTRbnGjWb1BHhxgaLRJjS0b6BRWLvkPyUjhFH6bE1stpcecrKSycsrUdktQrCfJWQ1i9NDumdEPWfLsT+iUxM2t9eQ/Xa2aX2vnENYmEuYCRRWc0nlHqnzSyNfw7lZOobptUF6r72wKzRtuYhGxZtt3WNdUJG3b3cgQ4ajVSShjmg96bIx2xybPE510O1qefDoKayoZXPqHNorza0qmytL3N7wqpk0bzQHS57WjnGic8Bl5RyCRtRyIpXutMja80e8tPUvVl6hvYm6rcfU/l5hiO1gTrFAe6inszIo7wJ2qyRBrL/ABDlkVFFYNWKzz7FJDHJ0mplniYaga+QWtJBpr0EVBChsjY3Xq10SMvsc1fxMYLA06/JWSzlnOft7I4XmkeSsR1vbof09EPW9if0XeiYmbW8jbbNNBojic20PNNSdYzeN12orAkbDda/XVCW1tFDHVMzTzr5oTheaRvUMWG0ivehZ/4ihbzVaYnuDbvd3JjLTHrA+StOIcO8KGiZHJHI3zUFIZC1w9CrbqMbkDLHE9zjXcrrjzidvmrT02UO1qmxY4WtPeoHhjwSrTNIJAxm5RT1hLnd21RsdaHX39Hcp3XIeZTcjO2OJmrWRsUFoxajvUrL7KXqJgIaATUqzfiJkTdBKZao3OopLWGPu0rvUkwbFf8AorPaMSoI18u09S5WbqGdidqto9R7hz2speO00HIMzBII66/yW29R8wrN1Efp7iNzY7ZLU0GtY8PiNQkjOx4+vIvsG1wWNF4jfqsaHxG/VY0XiN+qxY+Nv1VQdn5RHzLWR5nQ/p6IetHYpOg5N2Jm1vIh12mQ9hwI796mtSRNkpeRaCKdyyUddpRgjdd1bEWgihCbDE06mhFjCa01ptmo2QF3SQs045t/Um2dojuHWp7NfDbvcKJtikGutCrkrobrjrTRRoBUtlvOvMdQqKOXnNeatosnKHU1U3oWPU+rtZ71gjBEZVk5toc315dq6lys/UM9OxT6rWz+3SbVaGnnQI2/hj1oawFasO4L5I52qi7la5o3Oho7Y7XyHc7/ABD5/wCw0uexvScByGyRv6LgUCDsKtVoMNy6NZQ2cmyPL553V7NbOoPqFZ+oZ6e4kjv2t7d6dZJx8CwpfDd9FdkHwuV6f9aIkPc5XX8JV08BVP0FU/SV8tAkeNjyhaZx/MKFum3NWfk4WrPycLVn38AWfdwBf5h/T+6/zAeH91n4+Fyz0P6lnYf1LPQ7nLPQ7nLPQ/qWdh81nIN/2Wbg4vss5D5rOw/qWei3OWdh/Us5BvP0QtEB+MLEj42/X383NtQPpof09EXWjsUvQcm7FH0m8iydOQ8pxoCdya4PaHDv5cM5fK9vcOyuNATSqdapHc1jCCrNBh853SPLtfUn5KDqY/TsVr/ERnyHIpo/xAExs1d6tpc2ztA9CpRGIYbp105yDmtY2rgNSD2u2OCtE8uPhsNFESLXWTbrr9EbXMSXX6eSxqWfEcPh2LrBI979fd5qyvIspO2lULZOKPIBZVW9zsNlNhVlFnAqw1dTWrBzsY7KqZs7C0Sdx1FQTGVpJZRZuC/dvfPRC+cyOD2at+j/AA7bL8tN9t67eFd3Y7X1DlZuoZ7j/r/+bvd3W8IWFFwN+iy8PhtWWg4AsrBwLKQcCykHCsnBuWSh81kYfNZCLe5ZBnGV/l/61kHcYWRl3hZSbcstNwLAm4CsOTgcrrtx5dUJpR8bvqszPxlZufiWcn3/AGWem8kLc/c1Z88AWf8A0fdZ5vAVno+FyFsh81moeJZiHjCtha4sIKbraPRSdPRF1rewlS9BybsUfSbpcaAqxdBx89DnhranYmyMdscFI4MaXbk3Mzc69QL4Ne7WoLS2OOlDtUUrZBUcia0iM3QKlYnsr5FNSsI5r3bymyNc5wHdyLRJSJ9DrVnJMLK8uzTPe+QHu7Da+pPyUHUx+nYrcaSRnyWes+8/RZ+DzWfg81noPNC2Wc/F9kJYnbHtT2NkYWnYULBGDUuJU0DJqV1UUNlZG69Uq0WYS+TlHZ5OdiEHVQHvTRNZyQYwfkrQ4vsd67TZqVks8crHF1dRTWNa26BqWRlvXa8yqtDJnNDWUp3qCxyMlDnOGpQ2fCkkI6JUsTZWXSsP2OGD8NKrJT7KD1Q1AITAzGOh0RvNkme1w1FNtcDvip6o6gfRF1TerrU1rkY2Aj4m1KP+Ic7Uzm6HW4Yga1uqu339q6hysvUM9x/1/b6DcrjD8IWFHwBYEXAFgRcAWBFwBYMXAFhR8IWFHwBYUfAFgRcAWVh4Fk4NyyMW8o2Bvc9GwO4wsjLvCyU3ksnP5LK2jhT45WUvBQ9Uz0UnT0Rda3sU3VlN2KLpDTMfZP8ARWTqvnoc0OBBTbJG11dae280t3pj5oeYWVHcnAuYfMIMdCK3KuP2TWSMhlf3lWeQ1jaD6rEZxBV1JjmMnkc/fqUsl+zkgbVELlnHpVQyHBc921C1Sl9fsp5sJtaKO13ngU2q2RAG8PiKgZLH03c2ibao3Puj66JWucwgGiia5rAHOqdNh6Uul1qiaSKprw8VClmZF0imua9oIOpY8VaX/dWrqHfJWbqGenYrYKyRrLweG36LCi8Nv0WDD4bforZhxMbSNlSdyFnhc0VibsRsMB7iFkadCYhYVtbsmqsW2N6UVULc3Y9hCZaIXbHjS9oe0tOwqGFsTaD3j2MeKObVZODh0OsDC+tTTcrTZzIGXe7Un2L2jKAXe9d1E+yzMcdWoa6+is82NHep7609S9WXqG+4Z+Od+Z27os9VB1TPRS9LRH1rexT9WU3YoumNNo6lysvUj3FKpkMbK3QsnF5qOMR7Kp0MbjUt1pzGubRBgDLvchG0Mu9yyb2u5rgrTEXsG8I2c3Yro2bVNFiAKZhfE5oTBIxwrHrGiUSXOYdaZeuC/t0+1s0j+bUFDNTeQ+ighwwedWqlsZc+8121QxYbKKSKWWZ9RqGxWMODHAgjWpmSRuNe8qz1wGenubT1LlZeoZ2K1dfH8tNotGDd5taqa0YxjqKUKz0NaCp5JAO0J9jgd8NPRZORvVzFUt7fiDljW0bYlm5xtgKzrvAcs9/Rcs9/Rcs8fAcs+a0wdazkv/blC2zO6MKzFs8H7LGt3hK/b+AL/wCoHcPosO3n+aFl7X4/3Ky1r8f/AHWXtnj/AO6wLZ4yw7d4oVP8Q4mp5twa69dp37FAbUxvMZUVWZtY2wfZZ146UBX+YM72FZ+Hc5C22c/EszAf5gWLEfjb9VebvHKtHUvVl6lvuI/xz/noJprTJGP6LgdL7103dqjLy0Xm0OiV+HG5ysd/DLnHpH8pt3wKHq2eil6WhnWt9ewlT9WU3YounptXUuVn6ln5C57WCpKeX2qS63YE1oa0N3e5tHUv9FZOob8+xWj8VH/b/vpc1rhRwqE6CPOCMDmpkMTOiwaYbK2J5cHEqYTXfZEVVy3HbIAhWgUj7jC6hKitMUpoK15Tjda47grDFerM7WSdWiz+xtUkXcdY95PBjBvOpRMYGNDR3aaDcjFEfgb9FloPDCNis/D90bBFxOX+Xt8QrIuGyYrLWobJ1h28fGv48bvssS3eGFJJarjr0QooH2i5RsYIUZkPTaBy2fjn/PS6xR1qwlh8llJa67Q7RM4tieRuVkc90ILipJY4+kVa52SRNDD3pjbrGjcNMt+464das0+KzX0ht0k0BKscskgfePf7q29R81ZeoZ6dmtu1noo+g30U20aGda317CVaOrKCh6Wm1dSVB1LOW17XCrTXkS2qOM02lNcHtDh38m8K7ffnYsrI8+0kTGNYKNHup+pf6KydQPn2Kb8Yz+3kYbMS/Tne5oN3Ie+2MeaMDm9yic5zKuZdO5OFWkb0xgY0NGwaDHW1B/Cztc3VP9FY+pHr7hn453z5UrL8bm71CzDja3crZG8mN7RW73KaSJ7gWsunvGgzQg0LxVNcHCoNUTQElRNkkeQw0rtTpDZogHG+7uUFrxHXSKFWhlpvF8bqinRVje9tQI61OvyUjL816J4vt2hSzzxvPM5idbIW076oGo5ELpiXCRvz0W7qPmoOpj/b2a29NvomdEeim2jQ3rGevYSrR1aCh6Wm1dS5WfqWac5D5pkjXioTZjjPY75KKZz8T7KC04fdqTrQwR3xrUNoxCWkUKtc2G2g2lWezBvOftWoBNcHCoRc0bTptrLrmuB2psNqHxptaCu3Q57GkAnby55sK7q2nkOtMLTS8gQ4VHu5+pk/arJ1I+fYn/jW+o7IJWmQs11GiBrwHl+0ur2uXq3+isXU/P3Ef41/z9zQbtD7NA514t1pkbIxRoR1qGBkVbverXG/Fv3b7dyieWn2cGv6pl64L23vUUIjc8g7VFC9tpe87FanUgerDC11Xu7jqVptWHzW7US4Ufjc7yUTi+Nrj3jRt0f4geYwJgo0Dy0zSiJtSFnn16HNQIIBU1oMUrQRzaJlrheabPX39u+BR9W30U3doHTb6jsJVo6CCh6Wm1dS5WfqWacvDWtwIADYFPZxJr2FRQiNtFHZGNa4O11WXuteGu2/ZZWZpvh9XK0RSuw301jaELaO9hCq2aJ1O9CV7GYWwgq03sVl7varLeAcKoTz3r/dVWluJECPVPlLYGnvoFDanB1JDq0Swh7mmuxHegZrQ+rTRoRma2RsfedElpYx13agahW0yVoRze5QStcxorrA0WquA+iZcu0DauKsrHMj17/dzdTJ+0qydSPn2I/jh6/+vzF/Qd6KxdUf3e4h/GyfPsjmtc0hyjjbGKNRskZe4nXXuTbDCD3nR5KGERVoTr0WuB0rBd2hX7fsurLWl/TkUEGFXnVqrRFix070YrU4NYWUATG3WtG4K3MrGHbisCN1lBpru1qrG4mHX3GifW46m2ihnkxW6ydfvLb8Ci6tnopu7R3j17CditHQ+aHcoel8tNo6l6s3Ut93QbtFBuT2NeOcEyJjOiE5gc0hMZcaGpzQ4awpbK11SNqga9rKOTmHEa68nNvNIUUM8ZAqKVVqBZKyUKyhxJkPerl6eQOdTWprQ6JzWM7grS+/FH5qOFkeumuimkcwiRslWk7FanVsxO+iwmthjeHXXUVmmMjDe7u9Mnje6gKtEhilYe7cmzscwv3KC0PlkPN5ujGaJcNB7XVodixhjYdNM3VSftKsnUj1PYh+O+Z/2/MXdF3orD0H/u9xZtdplOiRxYwkNqs87wCs87wHLPP8ArOy+As5aPA+xWbtPgfYrOT+B/us7N4Czz++ArPjviK/zCLhcs/B+pZyDi+yFpgP8wLFj42/VVG/sJAIoUGNDboGpRxiNtAr7b9yuuitzQ1zHt1FMNWtPl7u3fAourb6KbRu7CditPR+aCh6R9NNo6l/orO5oibrCvt4gsSPjb9U62gEgNqs8fDWePAhbhwIWuE7wsxDxhY8PGFmIeMLMw8azMPGseHjCD2HY4e8fDG81IU0AcCQ0XkyEYTA4bNBsT60v81Zd+CWXu/UsrW7ed3J0QwXMbq1JsMwOppqFPC+YRnv7wnQy1e0BRvtAaGNjp8kLZKDRzRq2q1VDmSN7wrLCWC8e8KCbFLqtoQjbPbU+AIEEVCm6mT9pVk6gfPsUeu2u/u/MTsKsW2X3Fi2ynkWa0Plc+rdQ9zQbkYojtY36LLQeGFlLPwLJQef1WQj7nuWTcOjMVgWnunVy3D+YCr1uHwgrHtI2wLOkdKFwQt0PmELVAfjQljPxhVHurTG++2Vm0K5NaJBeFAh7u29Jnoo+g30U2zsZ2K09EeqCg2n002jqX+ijs7JImErJR7yslF5rJw+aycPmslF5p1i4XfVZaI7WrJxeayUXmsnD5/VZOHd91k4fNZKLeVkm8ZWUkGyVYVrGyRXra3uqs1MOlEhbWd7ShaoT8SEjDseOwvs8T3XiNaLWkUpq0RwhkjnA7U6xPvmlLpVka9ge1w79Sn6mT9qsvUN7FZ/xUn93+/5lY+nLy39B3orB0H+umW0RMq1x10Vgc0McK673ZS1p7gjBCf5YWUg4fusmzicsqe6VywJu6Yq5aR/MCpa+Jq/i/0q9auALEtPhrGn8JY8vglZh/hFZg+EVmBwlZhnmsdixmb1iM3q8N6rybb1g9E3YFNs0Fd3YDsVp6LdEHfptPUvVn6lnYyxh2tCNlhPwo2Jnc4rJvHRkWFaxsk+6rbgse1DbF9lnXd8aFuj72lC1w70J4T8YVQe/wB9P1MnorL1DOxWXr5PQ/7/AJlZOsl5c5pDJ6KxD2PqdMkbHijmgqyQMpeLdd7VoeJ8UFrubu0PdbInk9NqgmxW9EghPcGNLj3JtsgPxUTXsd0XA6BJGdjx9ff197dbuVxvCFhs3BXRuVBybb1g/am7ApujoKGwdgOxWn4dEHfptXUlRdUz00OtbavbrBVknvAh7tFokfGWuGxBwNNfdyRMDIWUWIy/crr3aap0rA4NJ2+6oFhsPwhGzQn4AjY4vNGxDueVlpxslVLa3vqsa2DbH9lm5RtiWeHfGs9HwlC2Q+azUHEsxDxhY8PGFix8YV4b9Fo6l/orN1DOxWTr5PT/AN/mVj6cvLthpAVZhSBnu3WaB2u4EyNkfRC2o2COupxCy4wrl4pjbrQK1/I7cOgVEfZt9FN0dBTei307A7YrV8Oiz9+m19V81H1bPTRNDG8EkKywNkrWurRb39FnzVlgOp7vkrY9+KGdyszZGtN5SzSSS4cakc5kBNdYCszr8YeelvUXOtrju0X2VpeFU+xOJJEikhc2RrS6pKyto4x9VHBMHCsnYaBYcfCFgRcAWWh4FlIeFZOHzWSj3lZJvGVlZB0XqXHDCDs71ZuoZ6disfWv9PzKxdKTl27qm/uUWqJn7fzO3dFnqrP1LPRTdHSzoN9OwO2K0/Dos+x2m2dX81H0G+mhwqCFZY3Ma4Ed+h8EbyC4a9E8DZR571DFM1wq7mhUfBM9wbUFPxJLP0de5RNw4gFFNhucabVPai6NobqrtUYJuhrdeiXXbI/lotMl2ZtNoCglMgNRrUsjY21KitTZHXaUKtErog0gd6a4OAIT5Y2UvOpobPE510O7FaeoeoOpj9OxWLpv9B+YnYVYv5nLt/RZ6pvRHp+Z23q2+qsnUt+al6OmPq2eg7A7YrVtbog2O02zqvmourZ6e7cLwIQsbK6yrRZ6hpj2tQtMnfFr0PH8Uw6HWRzpqk82qa0NFAFaonSM5u0K9IHse5lKK1PxIAW7L2tQukhunuKtTfbMedbSp9Vmdd3KzYHNr0q6lLamRmm0qSk0PNKs1pFwNdtr7uoOw8i1dQ5Q9TH+3sJ2FWHbJ6N/MXdF3orD8fLt+yP5ofmdrFYT5FWPqz6qTo6YuqZ6dgdsVp6TdEGw6bV1LlB1LOykAjWmxsaKAKgKnidJSjtSlZcsrm17lZIWYYeRrqrVG4Sl3cU5r22UYdTXaoYsOF0jm6xsTH2qXY4/VWfMXqPrRW1xaY/mrPPI6Sju9TWujrkYqVG6YwkuHOVnfI4OvjWDptUxjZq2lWeC5GdfOdtVle9sj4nnTauod8lD1Uf7R2E7CrDtk+X5i7ou9FYfj+XLt/8AL+aGz8zmFYn+isR6YUnR0FQ9Sz07A5WnpNQUHROmcexf6Kyn2I7TKy+wt3qJlxgbyH2LXWN1FEy1NcKnmq0QYt3XsUcJEz3H5JhfZ5HVYn2gus7nN1GtFC4uiYTton2uQSHyOxNcHNBCtXXwE7ND9VtYdNr6h3yUPVR/tHYTsKsO2T0H5idhVh/mfLl/4hsj+aGwfmll1T08ipOjoKs/UM7A7YrT0wgoOgdLhqKsfVH1/IqAp8TXsu7ExlxgbuT4InmpaoYHxP6XMUsTZG0KhhMdefVGKswkrsGm19Q5Q9VH+0disPSf6D8xOwqzwmO958u3/wAv59vrt7MzVa/7in9HQVZuoZ2B2xWnrB6IKDociyfzP3fllq6h6g6mP07FYum/9v5i7U13orNI+Rpvcu265Ih+av1Wr+9O6Ogqy9S359gdsVo6z5IKHocizktnmZ8/yy09Q9WbqWdisXWP9PzGXqn/ALVYuqPry7RrtUfy/NZvxX9wR6Ogqy9SOwOVo61BQ9DkQyMzEji7ag9h+ILVoqN6xI+MLHi8QLMwcazcO8rOxeazsW5yz0W5yzsW4rOQ+azUHEsxDxrGi4wsSPjCvN4gqjtMwrE/9qsnUN7FYunIfL8xn6l/orH1Pz5budbR5fmsn4r+4LuOgqydT8+wOU/WoKLoch1jiO8LIjueVkXeJ9lkn+Ish/U+yyLeMrIx8Tlk4fNZSDhWWg4AsvDwBZeHgCy8PAFloeALKwcCycO4/VZKLeVkWcRWRHGVkj4iycvdKsvafEWFbOP7qlt3q9bR3f7LHtY/l/ZZubviWe3xoW6PcULXDvKE8J+MK+0/EPenYVY+q+fYZTSJ5/SrCOY8+f5jaOperH1Pz5cOu1yH1/Nf+q/vR2FFFWTqvn2Bym60oKLoDt9EY2H4QjZoT8ARscO4rJN7nFZN/dIsC0jZKqW0d6v20fCsa1D+Ws1N3xLOHvjWdbwFZ2PzQtUO9ZiHjCxY+MKoPeFZdT5m+fYZhWJ/orEea8ef5jaOpf6Kx9T8+XZevk+f5r/1f96OxO2lFWPqz69gcpeucgougPyqgV1u5YUfCEbPFwrKQ7lko95WS3PWHIyW412tWd0hvB42dgktEbHXXblBlxUsdt/MbR1L/RWPqfny7J10n5q78V/ejsKdtOix9B3r2B6l612iPoD8xmFLRC7fq7C5jH9JoKdYoTsqFknDoyqluZ33lmLUNsP2WdeNsSz7e9iFsh3lZqDiWbg3rOQbys3BxLMwcazEPiBY0XiNQew/EPr+R2nqHqy9SOXBzbU8ev5q78V/ejsTukdFj6L/AF7A9SdY5BM6A/MZY79zydXs90HaEbPCfgCykHAstBwBZeHwwjZYOBZODcfqslD+pZGLe5ZBnGVknjoyrAtbdkn3V+3N+Gqzcw6USFvj72lC2QHvQnhP8wIPYfiHa7X1B9VZupby5ubaWn0/NWa7V/cdD+kdFi+PsD1J1jkE3oj/AEsY2Ha0FZaDwwjY4Nx+qyMfE5ZHdIVlJRsmWBavGWHbfEVLdxK9bx3VWNbB/JWan8D/AHWck8ErOu8JZ4+Es9/TKz39MrO/oTbSXfyyjan+EsyaVMazr/BWbl8FZm0eAsxafB+xWPavB+yx7X4X2WYtXg/ZZubviWePfGpLUJGFt1QWkRsukIWthLRQ6+VaqYjfT81s2ubRJ0josXx/LsD0/pu9U3am9Ef60uNPcFZmNvvaQDRYUYPQHKtY1h1Fm5eALNT8AWbn4B9Fm5uALOS+GFnJfDCzknhhZ13hrPf0/us6zhKFsh81mYONY0XG1Xmn4h+TFWXrflol6Z0WLpP9OwPTum71Tdqb0Qnuo0lCRxGxYjuFX3V6CxHcCxDTorEPAVingKMlD0SsTV0SsT9JWJq6JWL+krF1VoVijVqKxW+axm+axxXYUJWkrEaU2v8AqCgBJp2C63csKPgCy8PAFlIdyyUfEVkRxrJu7nrL2gbJPusK18f3V228S/jf+UVbb/yivW3d9lftu77LEtnD9li2vg+yxrX4f2WYtPh/ZZm0eF9lmpvCWbl8JZx/hrOnw/us6OA/VZ1nCVnY9zlnIf1LNw7z9FmoOJZmHjCxofEb9ViR8bfqrzeIKo3+7g1T/XRL0zosXTd6dgej0j6pu1DYFJepqKDtVCjhcRQuH4iiGV6ZVG8ZQu0PPKBbxlCniFavEQLQesVRq9omkNJq9X2nv0UCoqBFNrX5hD/wLqVBuV1u4K4zhCwo+ELBi4AsvDwLLQ8KykXmsnHvKyTeIrJDiWS/WskeNZSTukWDahsf91/GDesS1ju+yzUw2tCzp4FnP0fdZvV0VmjwqPr6+eibp6LH1h9OwPXeU3aF3KXoIVA5p+qaHd9Fz9wRvV2Be03Bc+h5oXtOEL2nAFzqdAItOrmBc7gC5xOtgXOr0Ffl4UHv4EZHcCxX8CxHd7CmnWP3BD/wxdG5XGcIVxnCFcbuCutGwaJulosnW/LsEmhnSGibobKrVwrmbiuYR3rmCh1q8w79qusI70bmypXM6OtC4O9yGHxHWjcHNqULtdTysVtKrGj3rEbSqzDEJgdlPqsQeibqP9wQ/wDD0/S0WTrewSbDoj6Q0SbNtFe5p1oVp0gvacQXP73Bc/iC9pTpBVdTuXP8l7T9KN/9K51dd1DEr3Ih9dQCpJwtThqFAsBvH9k6HcQUxjteruQ6Q/eEO/k0/wDDM/S0WbrgrwPv5dh0RdMaHNDhrWG3chE0dywmblgs3IxMPcsJm5YLEImjYsFiwm7FgsQiaCjEDTamxBprVOjqa3isH9SENPiKwT4hQiA7++qHf/4etG0aLN1zewTdFyCh6TezUVO10VOx6lzVzdy1cqn+pbTtGiDrW+q1e/n6LtEHSCtLiGiixX8SEsm9Yr95WLLxFY0vEVjS8RWPLxLHl4lmJd6zMqzMqzUnks0/cFmnbgs27hCzZ4Qs1+lZv9KzQ4VmhwrNDhWZbwrMM3FZhnmsePzWNGsaPesWPesSPiWIziV9nErzOJXm8QV5u8Ko3hat45NFTtV4K8N6vjer7d6vDesRnEFeG/SPf0/0vae7RD1rPXsFo6LtFn6atG0LUqaNaodFOTRXVdVFdV1XVdV1XVcVxYauK4riuK6rhV0q6VcKuOVwq6VdVCqHeudvXO3oXt5VX7yr0m9X5N6vyb1fdvV929X3LFcsUrFKxPJXyr/kr/kr3kr43K+1VaqDero3qjeJCMH4gss87Hs+qtkUkEN6+NtNRRldvWI7esV/EViv4isR3EVfdvV5VQed5VlkkeaXtixCDRYrtyxjuRmptCbab3wrF8k+1MYdYKbaWO2LGaDRYzaIWmLesePesaPiWKziWKziWIziCvt3q8FXQT/pKc1A0RdY317BaOg5AKz6nKc1f7rXp1rWta1qpVSryvKqDlfV5XleVVVVVVVAqqDlVB4RdUKvmq+YV70X0Q+S5vkuZuCozcFdZwq4zcsOPcsKPcsFiwI1gRoQRrLxrLR7ysqziWVbxLKDiWTHGsn+tZM8QWTfvCyMm8LJy+SFkl3hf4vG9mECd6orhWE5NsdodsjJTrFa27bPJ9EYZW9KN49RRXVdVFYG81x81JeEhpTYsRh1HmrnU5tHKQPpztp1BFtA7yaAmyM9FMwPYoubIAUOcZT8gpWEhoCyxa5vorlaHXr1LD//ALpkRr6KmrbteU5uzy1Kl0OqmjmhXVdUsrmSuFU227KtTbVGd6x4/NY8e8rGj3rGj4ljR8SxY+JYjOIK+ziCvN3hVG8f6GtGiPpt9ffkrmnuU0t11AFf8lfWIFiLEWIr6vhXwr4V9qvNV5qvNVWq81Xmq81VYqsXNXNWreqN3rVvXzXzXzXzGjWucta1rWte5fJfJfVVVVVXlfV4KrVq3qqqr6vq8g9yvIE+aqfNVdvP/PkrzliO3rFO9Yv6h/z5oSHiQkO9CRyvu/5VX3/8qmuce5f47W9D6FHRVByxXbyjPIRQvdT1V8q+rysJ9j81Jr2UVzV0W/RYQ4Gox/oQY27RSR+pQipsvJ8RdQm8o4iAOdq00WFNxoxy6+co43fFRXG7kWNO0K4N2m1de9BR9IK4rhVwq6riuq6qK6rqoVQrWqv3lXpOIrEk4isWXiKxZd6xpd6x5VmJPJZh+4LMu3BZk8IWZ/SsyOFZgcJTbRxBZhm4rMR+ax4vNY0W9YsXEsSLiWJHxhX4+IK+ziCvN4gtW/kUVPyS0bNDTzgh74hXUYQ5ZZm5ZViyzdyyr/JZWTyWVk3BZWThCysnCFln8Cy0nB91lpOBZd/AVl3+GVgO4HLBdwOWE7hcsI8LvosPyd9Fh/u+iuev0V3zV39Sp+pU/UFQ8QXO3hc7eueueueqv3K8/cr79yvv3LEduWKVilYxWMVjLH81jrGWMsYb1jDf9ljDyWKPJYo8lit3BYrNyxGbleYqx/8ACqs/4Vzf+Fc3zWr9Sr5uQPm9f3OX9xX96/uC/uah+5ijvb2K3WHNBnOALU7/AAS1d1w/NTf4da4hV0Wr1BVFdV0qh3LVpsklGU806aizJ3LMeSzHkVj+RWYG4q+jIAsdm9Y7N6xW71eV5XleCvK8qqqOtWjrnobUzpBXlVXgq8ioXNWreuYqN00VFdV3RqV1XQrquq6FdV1XVcVxXFdV1XVdV1XVRU0a1V29Xn7yr7+IrEk4isWXiKxpeJY8vEsxLvWYk8lmX+SzL9wWaduCzR4Vmv0LNDgWZbwlZlm4rMx7isxH5rHjWPFvWNHvWJHxK+ziCvN3hXhvCqN/vJ+joG0JpVfySioFdG5XG8IWHHwBYMXAFgQ+GFloeALKw8CysPAspDwrKRef1WUj3u+qyjOJ/wBUbLuc76rKf1HLKf1CsofE+yybvE+yyjuMfRZR/E36LKSfoWUk/QsrJwtWVl4G/VZaXgH1WWl8P7rLyeGfqsCTwysGTw3LCfwOWG7hf9Fhnhf9Fd/d9FTzP0X9y/uVf1qv6grx41ffxrEkHx/dY8/H91mbRxn6rNWrjd9ULbauIof4jaV/mU3CPov8yfwD6J1uY7pWeM/2o2iD/tYv/isaz/8AaRf/ABWJZ/8AtY1iWX/tWfdVsn/bt+pRyfgf/cVdsXhH/wCSw7Jwv/8AksOzb5PqsKz8T1hQ+K9YUY/nO+iuN/7g/RXR/wBx/wDarv8A+ob/APFFp8Zn3Vx/iMQY/ewqjtzfqqv8vqqv3fdVfuXPr0V7Tc5Ev3OTZXbCCsRX1NrkcmtNUxnOGtBqoUWlXSqFa1RUVFRUNFTTTkUVNFeR8uRqWrk6uRTkUQCuhXVdCuq4riuhXFcVxYauK4riuq6VdKulXSrqpydaqd6qd6vO3q87er7liOWKVjKR15ldI2DTX/QtFQK6NyuN4QsNnCFhR8AWDFwBYEPAFloeALLQ8KysO5ZSLz+qysfn9VlI+J31WUbxOWUHG5ZT9ZWUPiFZR3ifZZR/GPosrLxt+iys3Ez6LKy/oWVl3NWWl4WrLS8A+qy8vh/dYEnhn6rBf4blhP8ADcsN3A9XDwu+iu+Tvoqev0VPNf3L+9f3ha+ILncS5+9e0XtF7TcufuVX7leduV87liFYixFiLFWKsVYyxljeixViBYgV8K+3cr7VearzVUb1Ub1XzWretW9fMaKKhWtUcucqOWv3GrkVVSqqpVVVVVVVV5NVVV0VVVUKoVQuauauaqNV1qusWGxYbFht3rBG9YHmnsus0sdzW+nJrpr+V0/N6KgV1u4LDZwhYMfAFgQ8AWXh4AstDwBZWHhWVh3LKRef1WUZxO+qyg43LKf1HLKf1CsofE+yyjuP7LKP4h9FlZN7VlZf0LLS8LVl5eAfVZeTw/usCTw/usF/hlYTvDcsM8D/AKK55O+ip6/RUG9auJauJf3BU8wqHeqFUcqOVCta1rWqlXirzlfKvuWI5YhWIsRYgV8K+PJX2+SvtV9qvNVWqrVVqqFeG9XvNVHEvnpqqq8q8iqqryvKqqqqqqq6Kqp3q8gSi4pziW6Y+g305FVX/wABUV0blcbwhYbOELBj4AsCHgCy0PAsrDwrKQ7ispF5/VZSPe76rKN43LK/1Csq7xPssq/xPssrJxj6LKycTVlZf0rLS/pWWl4R9Vl5eD7rAl8P7rAk8MrBf4blhO4HLDPC76K4dzvorvr9FTzVP1Kn6lTzC171zlzlzlV6vPV9yvlYixFiLFWKsVYqxFiLECvhXwrwV4KoVVXRXQHKqNUGOWG7co9TAFVV5Ff/AA7qVBuVxnCFhs4QsKPgCwIuALLw8AWVh4FlIeFZSLz+qyce931WTbxuWSHGVkv1rJfr+yybuIfRZR+9qyr/ACWWk3BZd+5YL+FYTtywzuKunzVCqKi1rWucquVXq+9X3LEcsVyiNW8iqqq/+Lz7iioFdarrdyuN3K43RRUCuhXG7kNSqqquiqqqqqr/AOKj2evIror/APweH/yMf/JZ/wBHD/RXf789pPuD23//xAAsEAACAQIEBAYDAQEBAAAAAAAAAREhMRBBUWEgcZGhMECBsfDxUNHhwWBw/9oACAEBAAE/IV+Xjxm0NOZP/qS3cEF2SuRVZC1BQI/DQNWM75DkimZjUgkmbzIckzVYWfQTgmvyqSoxaa8T/wCLkacycYfNI3jFpFdkSC1MSrL8fDTAYSyZDmTmkOVxoshAUZhHeRFXEJuQmzFjJJJAhqbxshGKm3NqbE2Jszb8PWW/gc455ss2mbw35vSHD6vYGyNsbKxzcNzgge/J1BVBQG7boIgSE3wv8THnmrMfPJhlvA1mZoImsIYnmEohZYQQQQQR4MeUklFNSVqStTeNkbQ2Btza43b5zTnG2zYZvhoYhzwugJRyxn9BWpQSs2G3Y9ab83JvDcE6j1xzGqvGMIIIIRBBBByHIRsQQQQ9CWhLQmTJkyeOpEQm1wtQJZF5shDi2d+NfiI880HqySjGckbnIzYE8kcoLOErLjS4Ey0Rg4JWpDUibhvm7webQ01YEg+ChLa4F93GLeG6N8bgnWwIepD1IIIIIIIIIIIIIII8KCCCGSJ6GwbTN4bw3BvuLSbbJtm2bZs4XJOQco3EbqNkbbj1JDzSGshrwCIb43RzTmFEDRRzR/icvINxx0JQ1q5kqmQhF/8AAjPIVgJEnnBrOc8hxAniCWCE3IaHhvUfmLAmCWGZMXrm6OccHBM15GzhGghgtkTY5CCCOKCCMKYchyMnozccWgCWnwN7i4AEBuG6zmYeybeM2yNobI2BsIgRtjBH4SdzvR4R+GkoTgbxFkNkQZRi3hlss3mPdgbCw9038Ut2bo5huk9RYiGIIloC0BIEoRokSbQTaYLYmsXHmNNczir1I/2C37jQjQx6g9Jm7N8PXYsejNhDZoS4aiJ4COojqzefAtsC0MIsYlsiOhC0PTyyWWhC8jHnlLuNVGXFHk21A8ZjZZtM3GLdobCOWbuCkL1ZuDdG4S8HwRgkUjgS/BCFBTBIkINpm4IazmkysSzsBLyRyDkm8jcRtunD0US/3i/ti/vhf3T7kf8AYHs2C3hTgcFIglvOyUMleAvlhCGrPgWKcxKWzWCGmimmEjPRGSzNU6YQBVt5WPMruK6O24cvIPgchrUZtti8aBIWwlozSxjbeJaoqCLdN4WAbBt4DbwWybRDQhEIheUnEkN+BLrOg3o6vjhWVcM3jPgoJSHfx2RnHUjsDqJiLtGrrhQjY3zaEPPre/BSmTHQkHWf3h7X3J+QpEM4RW3X8avDvh2o+CPCjwmR5laLZhbqwnMIN432c82Dbwm2NobJsCS0/Hz4ZcsG4UiuW8VaOhqZ+jCbboNL1Sx5IaeEuF2ZdgIG2xXmQ+Fjd27itdCTv3wIf2quox7n/mDQvP8AzB4jqglB2ii5fxyhmQdh4D8hZhJISrf8S21T+saYu6EW+bF71lyM6Jo5ZR2rCQ7e2MT5AW2yG8L9VhDgMZE5M1jzHrlzByU568GiPeCxdnD/AGJykxqu/sIYOlJqemOxNNeVjzF3Bo7AeL8pYywH52V/GWMq2HvjA+X+kQtFgpjdkK31kVrcFMU0SnqL0u16UJI6i/3HvH7eQal8VITyIWhlkPVENWawmVOHU0LQZLCHbxMZhBr3tg0passIpqg+VgktMnLjoNoekExI7fjL3Ar4KeTtxC/z/E7g1ZDZmzNiPXOebojqI5uM6nqifKNTQ1QLusGht1GzHtXHchWd2IYijVTTJhCzga+vdYtG1m0+qgQ1D12SEhlPBXBQrd741twHoFEx7XJD0GuzTFkRQcVxUlDRtghyjBZ0iSEoJ+TJdFuRiiG8IYhY4O34y5yweC8H5W0tYPc83QlG8PSD05s8bHlyNcmJrHJCXOCS5lu4s1hbxzcIlHZm3NsbQ24qArMT5JyjKQqhJCtWZxQhuVQMUUJEJ2Qc2psXqyhsjZDXlGjIUPhDTVBzCrk5VmIrliclCKCKUKTr8SxtLrzEaEj20KpNbZzGnKZVGQntwiW4ZCBqkia4lm5Xq2xLCLDlNsQvAc/ibGO+CpNDmvklxkNwnBNpXLko8mWaQazDUTBlkTEN43jaD0Y15Rie4b00nJ7GYsyiXMkMplu5uY3xzDbxwpLyiXkIXjoGt+zyWQtISGjyGzKMZcNzDdZpsbw3As5sWhhdsbI2AlZCFoQuNYQKjJOlG6jZmyJRLc6gLOZiQEvKQ2Qj847uYzuR+AsH4/XcOZC0kUWqzLEhGDJecIlrJ6znEdRvhbmK8WUdwWybUTRGC9TwlXL/AM8lZmlOz/tljnDLTB+YG4TpcDxzgkevxs9uYj4Hxt8EpKrBcGZ5BoZ6C3gSwkjptYFdExtK4xZ/+DzTLw/MPdwdhwQNvQ9AeLz924RhiT818HsdEiCFUVhbeg2ZBLISonP5yK6oHkpUy6DoQHeQ1KgcaSeXj1H/ALclQx/M4u8ZBWXA5F6bxZClWkSbgiqsKLdVcZrzfCs9GSjsnY57yGsgEciaFmHmGB2RXO5RDhzKEB4FYY0kXj+pfwko2xsyEEzIJHZ+Av8AiKhw/L5i5juuJO3eM3l1bGRCVFFOJFykSLKRhC8o7HcLzENRpyDXkHoiMvXZvB60lHJQNVBPfuJbub3Nwbw03F4nKommpX/H9EdmPwH5GJdfhWgdo/HOzLfDEInEm6Nwb03ZLLg34n/knyZLqZx+ohC1os5s23gY8gl5BIyELwryOj/jb0IfoDwfFXGPFNnFr/NHbvMSiGuE2RsjaGzNibMelGgc822bgYYYbvBaDEzMRE4pl1TuvDWHOERdEm36G36YAlZTaGwQvLKXsvt+UnxX4S4J/KUeHw+6jtBKIMxruo1ZcDuHPNhm8N+QMTAxxl2JsDYwps2TiHMgm1EG/gVm4l54dLORodX4MEbIbZSSZMRjJmytcpe58Ps/EztP9xz80hK1ECtn4aSDMar9Qaf3DA9R0H9DD3lFNZyezk1hsDYYP40zd9yG7EF3EueFa+ofAsBOX3x9sbE2xtBq/k330wlOQSyFsGLC1EUGgz8F+VD7INKq0G7Obo3RuTdieGhZyCzhvsHvDfG+xaIkFJyYMtGbM2FhUjw4IWhDQ2kbQ2RtIhcNCNfDNBrCPNpQ03UZnNmxtJwsStfBlEWaGr9hssFvvocw330E6xsyPxGuttaDAkuiWwnt2kvlHQzESa53FnoRlqOogIaP9R9IbYheFsI+qH/GG8pA/sG2+puOp8rPheFWhEn9R9SJDovQS1LioihQ/YPzGWkThPWY84GJFkII8aCPOWXdf54cCrVRIVs8GDMyqPJTEuKahu5qBqqE/QJ4Nf7BryD12PKfhJk0GbVGYQnqxnN4VNWhlUOaGq5uSQcjE2Uz3eJ9wjm4tRi02Ia0Rsh6IaCp9V+JOiOkn1AklZfh6OQcNoR7qGPyrtg2BOErXy8BLmshb4ZoTYn0H+B7f/PD+XsLjeGaItSUQLM3glWScMIZAd8DbhCXkErIbS47oxNNcEeMnqmbyLw18W3gMkkKcG0riaSVYU3yQmZGvcf0MPNyMl3SDSjWnBZ5jZ/Sg7ry9h3hFBe5cPteKR4PBukJHr8Lw3cLV8ApDqr+Zqdl/nh/M2Kk5cbUprVDQn3/AIeBLF8kMj2shWSyjw1VhYnuNJqyCNazV38lJweWbfDr4lOiEIzDU7DzWWhHxaC0uRApcpKXSa9CdEshNNSTuNDSbVbYI1JZ4SsF+eouDWZSOolcMrXBNOq4qANPJ8JM7VCwVnLy1h7poe14cvzLhZMSlrBKdTmQYBLkCETTo8O9cPTJjXkEZeYzwhDUW1Q3bCSMNbugSWUflG9Q9/Dm5VHlm3wPde/gK5P0XEkiSXHD2dLSpmUHSOQmmk05TxcZVH/iTtI5DKzZ+LucEqHRrggBQq1F/vh0clxPdpk0p2sJ8yhS7rMCM8E5SaPkxBTvhaEbve9CBnWkhHVz5J2JynODwlyTyRY8ag1U0nUbRtpn2iUR+NFfkQlrm2XVJopfE6CNvCjRFEyllmS022rwIHO2RGCurm1GZtR0aGO9uE0iatgse0O38F4W6c2iwrfs8taX4bvTw3fmWEiawofsy5Jowldi6SzKuUwSUWMUhWYLKNxSd0O6G1J0SQCzzDjBO6WG65201KJ4zSS0ZCMUmO20+TOzEl8rw++93gKaDehNvm/74FKUlh8xNNSi2QkSEYpHtzI7ZS0J0K0resCbr1mVUDRp8xM3KmjS2N/FEBJbmsEObuJPdhmH3G8TNMSVnzCFWa+hVxyZiMqLLQem0LUuB4XvTZElXE10gXziXHoTx0SiHLSYhdknFpzJ+1PDb0LxxZJQkaWJeC5pquovSFBfYwNSmnmOtTYm1eYSAhapbuzn9Rdjn8MbWGr8hCF3g0N01NSETOj0IYBp19RE81A/eNXTkRvQ0kwKtRTF8lTRhwjrVik1O4QryUcPbL3Mv8lwXholajsV8sPytuDgv5+Goo9sgLMciHJgja9w2SsyPsp5jNUlipULCSSSwalQJGoPPBJDUWwkLBJY5aJ1NUKkK7IckSmSbTkRu78nM95W9fD/ADNzsvHzdTqdVvA9FIntCdHDU2Ez6l9xFKraRFUmr1M1igPUakvRI061X/EjmQDjuL0qdcjBHVeuEeVP1BPsa5EA4hGriIj0GMvuWYzpsSEsnCEx2apx0KzJiHIshMrh0mVIWV1ZGsbELUkCESKEhB/MafMblcnKLuMi0EtiI6Y3NP8ALw3JW5qWWanz8ShPC0IrZKQS4oDq5yhK4E6QpmR0M7Ty1mFiovBMq9fzKtuMFnppiarhKzLybxyRY3m/AmcXr5Ds/HzD7Tb5F4SSTsQsK0xnlg0nQQQVMbAkvCuCTEuyIhryY2mtqxIyGjabSp4CfNukTTSa8KFc3Q5Kp08SSSSSSUSSSSSiSSUSSThJJKJJwpwNSoJpvMXBc5DW8wWwdT/RbzOBnuvfzV0QsjykENUIls78bJM3kawqjKzyFU6ubIpMwHZePvfwqTePujbDR+4a/wB5LGOnToTfRR08JZVqmIitbIjfqmfA3yV6ioTQPKYeT3EtibLI9D4EKwb6IYfkY0l11sa8+/Cn9+fbs+/ZudbErXuEz+vDoHzVd/U+MxiyjZB8jEVu8I6v1FLruKfsLSu/AIP7EX9SnVPoNzPSRO2pOr5vgsYroi5b5sfBHki9rC3wM917+LAk6vDVy0FOoca4SpifKNSCQvZxQMDifYTYU+zMz1QLqTK36sWnkOy8fcv/ADwJHqEWQaL9Yb0T3Ies6nyk+UnykZl3mSJ6nQTfyNlwQ6m7FojKAtlovQeWorTLqL+JgmwxnmD50ao1/tFnfUyW/uJt2sA71jRmeggbyTyCLLopS8NLxluDdC3BLKVkwrbkYRZehCWXFBTy7vHCQShfpwMRqNLeWNgZ8QU+rwoNYJ0ckgmnVC2WL+HBS3WMG9aRNcC2WgTTUrFup0NCiRLlrhCT38pVzAqeA1a1BdyCL4MJXynY/bjg2pZTzMAfCxnlso1qU537lcu+a2+puMgzPQ5sf+pEKBV+ohpYfJAn/U+AzZvQnn2CzjdTXmG/gLFJEOUSLdAgyWELwdhT718On4FeFPBwI3LyGgnr5hCNt0QtMlPwG5pchTwZ48/K3CYD2HDT88hqqY3Y9d0UaEbNQTEZlQy2Y6mIbE9kiRMvXKKlVdm4aINYFR0ZiyqG0Nwt5DUaXZlhGAWpLLgbYoye5XNWjQ8HDIiVqdi98hL3EQcyWhuLllWMTnE+JUrl7+J8hqdl44ZdKxdQSxNDU/1MLNdnyMiyli6BBZL8JzTE+j8O224NHirIw1HWcL+Vljl5JbW9UtUPgmIHB6SgSPX9/AUhTUjcUqzU8GfqRVGT5ZcLIX3yx2XCvj0whG2waTUDXVFkN1kpkaSNISQ5DVfKIIzuCJQlFmR+vCXtGHktORgiOFq0izGlHGWDopGpWDKe5vi7wZ2EubG0Afi8i8lVUdq0MadekRqNqVfE+Rv4i9f3Ffwqce7wekY6cV2azBkq80nrwzlxKmSrBfECdmtfhaI9Bme0vxy1tyHl2q8LsyZkKRnk50E0kp0O7Q0+p7iXWQpKqpIaXs4J7U3ZGQrKkDTRK5Zp5CKS4bjkV9skMlMtlsc1ox3sRNMmtSwyvUa3YtdiZClatFSEmjWgqhJVyG0A+Yqk4piUImsHcjhqosJ2jE5CR+vFzHCEhe3gzfMICQrkPytx8PM7BiVFwr49PI15BJLiqEPHif0NYRep4MnBKRpciArRgvdSYb2h4fzt/EWeWvcaeX46m5HdOJEpamlmpgnJNDzLuXgT0azCH6vRLbW3FNUtq+bZErbI3GUiIIQpdoR21IrUShjJmT3D9q7si4w5hrBEZU3WEW+0sbhXKEtx/CD5jV2SRyejmNQudjV0xbMGw2Oxfj+Bsdo8LsH7kUZRpXkIk0IcluQchyLhV0XNijsPjmtCnMkYhaClm6lMWpU1JsdCqim9LCUZlLuygSUJ2ZFq7yJONTIa0qXIahDHYJuGautA1RpiHrA0OOkUc083cVM825IatJ06Galht2Sm6DmaWkNwzvQnrMrlkS9Zkz0EtkS8KYbWxA9z/wBlYTyAgyNaye16zNofTCbZaGl7eB3B5BI5SH5W5l78uU8X83L8Dk2ihGpOEizoJQvD+Jv4p+69+B49od2x2ExjUXYbu9SVgWeG0z98E99myM7IrmdsGq/ULySu2lxIhOjJGWVJbDDDTKoxLvTSFhz9REpXElmIv/GMStUH1sS0KAIOtb4QEbSsHvvTKEySpQciUNkvai9StZ+ViFrNF+jeClchYCibSB4GreRsKN0VC58fy9jsXhUfFl4NHcSsnluhZmvGrINRFCPjnLYVGVjUWlCfTDhwJQnGHaDz6vvwd2Tq+ZjSV+VvYtDRzl78VfijUjVMsW3WrTwLpfQjExLXwY8OMPlb+JTyhYVtx98O8fvxKm5mUl037itWi2Mh9oSXiRYZeRSoJNYEpLaz0Jkb2CsJLpVzKX1JKoCzYw4lmuS4+9Z23hUbj/5+FaHQlcoTkCkyq8Wdw/fga7Yti+H5YtFndOFlbufiNPZh8rclDJPjG1Ck0XMmUNTInkd+zEVNiqvJdDe+DJ244III/lEbEIiOJZVsx/Sb8Gg0SZ4q13x9yO08Kjc/x5CwmunlUMTmGwNclj3c7h+/B/gJW5lrkx4T5OwL1heFmX2/+jWEI+wGkJW8G0qspZgqEgauwnrZrDgd3kMaeuCJHt/ghbVWQRSw8FZyISWxXQeC2DwFbBLzNQMukcy566Ml4yLdxzPqRLoJgSeUFGJMVjSQ1MhIvwaMsPWkt+IkPnECnqxPE5zB+cp4yNN0IP3DXkNx0N59BuitThBGMY06R/AVO+OayRKnnO4Z23hfK58Kcy85cKHe1fvwJTIm7LBqp5+DjxKVxRGCn8+YotFaoWmSnjTwO7neP34I6L3EqLn/AKhSue8HxR43aFZ3/QtL4pw2HfkO0rrhi25ysFk+vkJTZWmS60PIgtsxhUhKiJwI1k5DhN1uzfhu4lOrEW04GiFMLXudBljVLhNmYNCeGQor8Xmkrs15amb0PVRDoyLHoUwrNHPjkVoj1EGQmk+Y8DV5egQklVU+Ilf4oOW8I5VI0j6GswWzaFqhP+hIyiOri0RwRhAxOebB8FKJ1FGumjN4phbmqT64smN5KRob2vh2f+CxYRwJakhHDQRDRN28v3LFZ4XyOZNNClxRDLpH0bNvCDCaGFUvc7joy0th5qqBnzFoO2SOQYqJtqoxMqzDW5OsmWDlM2ms1hW3YyoLA0xSZVNt6IWpFM7qM8Oyp7NRNNShOszO6cGq1AnRkUpjSns4JkBCFbMb+VJeiSYnhZ38+I14F8u4kF6g/KPDJHWUx3ftw2M9zhdaF1D5CREKKGWwrSXdIWsZahEJuYxntQ8xbQNJ0aEFFHChieZzzUTUuiZSwnwWWC17KbDaSESJfy8STlUqluk7CVSGTXbbhWEYQQQQQQNYOxa6FImtjcPUgnTW1xisu40CArtyPUoGMlmick1kIUO0SggjVIbHCTbGLqODUiuafqI5gqmdpES26sRL1k+s3JKroNHwfSS9skLZ6qEKsnk/f8N8PrwMX3YUy5MWVMOxlNimwjmcFAczlmpKOZTGTjCGRB2DTbYdxMiqElRjNYXDC2ZO4obhM1TdyYlF0OfKWKss55olp7p15jCqGmJldQpELel81RYTssIVr/oYxK3FX0NWIS9Aa9hYh2FBr9KJp+cgSXSM3IuFJRvHr5+BWcwg6gPhfjuxfwC324Vwt5/wKkZaNAkBDFfN8C8D2HuXHR+5DfCISIIIIIIIIHMLGKdsQS1dxWcfNFjEOqZVEqw/85MryrqwtCl4NJqGj6QgAlpUFuDmSHoBA4NYVVeojIdmqidXOXbQYwvHvXydvMxW45jXIknzWmFS9P28u0UtkEkkuBES2syu1NWM6pTHbPGkExNao3pCkcJyIHPXM6DLhX42XAKPY9gnZ/heuT3GPydjLPU7f7iU93D2RfcS94E5SeK5Mn8L7X3Pfe+KEsIEjVAtg7MOwOymGCaI0zIwknJ1IZ8SQRxvxtTvKJV3ew0t2cDV+0dR98tnIIaITdDExt7p6GRXsf44bfopJwjXiYpOufMnhZOTRkhV1eOZOOcs+FOZElXXkElO4+ftij3H7CC58h+UsJHzHZ/cWEfFeF+oLgoStTewSWUKwtKqhlzJSsxorsSJKY0nwpjKwfmF4HbHu8ULBCMJNXXHNT6l0IW1VIRTmp8sXCtehXQz9BMbShN2EDqwUcyEG1WhHFPBQSUuywgJfg1rpD8ss0zaJJIzN3ZpfQWyEuf6G/oQpq9AU1fmZ6TqTdRlPI6LXBV2v88FkxIZNpKX8Jzrp8pHaW9fcd0PRJWD0CneakPzS/8ABGkHFeYvtToLl+2RTIDALjekUInWaQe5L6YgyJv20MuBnEzBVF095rr4zJN0Yu/mmDU4QRKeq9xLgx+IvAJueQej7HzN+Gnmj3wtpmoE5ZoEfK2EDhViUbQhsunYQrXyFZIkdFMwgWKJOTkKBOxXHVrDSkiUyDcFkc4VQmL4twmOx6JjPB3iVopEuySNYyJu2EJLifI9od+8EJWMEJXKaa59STU+gTB1mz0E6Qv/AILVTECEdSm6ZfcN/wCkEZQXMaVTejI82n+wMRbkZA7qp/TibXDaNCtvRcRbRcxIiacok/p1pg8ItqoehGGQxXLJHuUw37GLQKJxTc9H7hXzXWgwOUyeBoGyRb4UzmCkEVPE+PsJ0nGjJ1SIQkoSywr2P0GFUVxtVpzQhDKMUCDbRClXSVyxbQeXGpmo7iUTN5kkcKn1EajlgWEbk0vRk7NY9zckOB5JIHcaYOFmlXDddH0IqTcKCApvbFALZEFFyGyhbdl/WoqNSPOPObf7C+kfuTqFCzFfVz08DLgbqxYXgPbH+Xv5a7CQoNpLCj4E6w95xKUq1CMhq1TuV/mRnfWl6yIlNEsGsqbzcyTsKLIlpN/4E4g1DHpNaSVYDdVthzvnAqTNLQSvrGd5MsZ4KCQ7ewaXA0yW2kK4NWGU00mnRk+L2R7z3wQhYMjMruYifZFEWAJNOCaKmczExc6uw2enVCVXIlXY5N+ig0KjtlNKBNVRdBEkcuKsZM1556EACpzA+zPFXBnddCsiiq6yMXNBaDkn0w6yZ/ffJUwRUFcaYVpu6RFVxTD9RPSxkxi28DGjlb3Llldqgk/DsVrOg9NUXqg/yWRetJIjUL6ExUdSEb2OL0qMHIgJJG/iH2K8K/Gk001RjugQhJQlYuBLggYHuRwoQ8DixLcmmn0G6JRxg5mvqqCyIdR0y5XgWKbrYtHkJGr3eh9tRMlzRxI0p5Vs65jsCRu53Cks1C0iEshd2osSOk1JsIq5RDzXBKTuK6upSVccgtSZoy3CPKT4uwO793B8rfAttmZOXlLSbBqeL4IHu8QxlLRkFNBJJCHya2xJJQkJGmk0xpdWWKlN6YJqjTdnirNDh5FxUZ01jR8xIRaIc2kuewl6YpQi9DDlL+hWLOxmKkxyJVqFdpbR4j9Ve5Byvfge7F9BYSfMaGLpIo3GXgME9Syy1FdLyEaMtrkgY+NpO+FCEm3FWKoWx3TWDU3XAhhE1uJJUSIToXSISVCVhUm7zowQ7zRAoQ9RIisVQeGVbRmQuvlO3hr2a8L4m7xe8WWTMhrZpqRYuWtCRnovVYhpZL4QsxSk9fcXNkEjnJY3utWStaSxmPS6qTlyP0iCG91ApKYTuSKjYIhYYJNNmSH/AGYmZJKDdUEtZy4G05qkXGPVKjQdriSNSAhGY6BSKr1gh1gKgWZBfqNTQ8uyFvWc1WSo5aj9iISzIrMg3Rj+NCSUBxNMaOQvc9x74otXIVX6lL1fuZOXl78LYfA6oo/AKGdBEkskLprVlDXYhU7qvxKDqgsJ2+2CEIQJImh5ZxF/BQ5c3IMwOKw7Dq/EaE3sRQarDT4E01R4ug62kJtnx2k1DGwSkQlZeGtXIeCj5u4yzM2JkHgr3hG81BC6mpRmHv8A8FmklpAiEramBwUTmQJXTIUfmmizFiXVl7jSo9Alk5mSUWkj7hn0L8dOo9n13HbFkehvfSkaCTCJYVc5sYlIk3MzNcCXnlauUykQO0cx0QxgQTZNqFpQRUOVKFeRn+PQObo3NmiVHGegmtU3MxGY9U3JkYspSUkUc1LlKuB0jIYqFlmh90faEQK6a7lXq++CFhKj9Tvn7+Vy4xp+Ow+Bncv38lPj5pfQTj8Ure8yyMELCCabj1TEMJrCeFlXWC42Yi19Sw9VAY+FtCs9HBNUyt1jLCtMomYkWDd5fJ4vVP8AkQTK+1DU9/suCkkhQ0n4FHBMcauUJb8a9EPLNvgoT/UnIKvQWe4zXvJLdrNt1G26Gz6G1XoisSZex8bNl1Nr1PjbJbt1ZJcdTWbAt8fMzedcTdqbE2ZtjYmxNqbE2JszYmzGl2RBadc8mKFdkx/qNgpO792CEJ0STkEr8xavm/KZCzzWEzyfD3L9/wAciz+X4EITGVnqK1qao1zIJ6+DTO9Oo0zpRsZUX3xQZISwyQ2XepOAlm5thoe69yUrNciq1JFWNS+jw1LuJ8ugm+HInchrRkO5adx85Dx0RD5ZiM2T9qEfoHVyWcWkzuNhugfUVOlFK7DSooTWBqh1rFctNJK4klmzIVDKqwhI5auMHsPV1EJFUGHCmmqEk9B/4VaumEE0m1hI1UxBB+0mJVE4yPREdPCrd83/AAkEXOqHU1PeosV6st/CuKIlhV6Egifykfk8h0ISU2RI3X3OFndv3HMOBpqUEmeZ52SUST4nUuCFghMRlb+g8I0TfZiZrccA/FoyEk5yhv0om9xBgxxw6SbFtVEkZWkVWTOuYeRpzNF0AqmVwxTzHLGJEhtpKXcSK62FTGDwnJzQjSMqeoxcudWZ/cLuT4FXRksaqfTBKtIOe66CSxidwxtnNQd9arpKR1B35QV4u45IajvsjLlMZ6Z3Bm8igdb0Z2a9zt374T6fvUULl1JECueBDlEi01B8iR9D+Ek8s/E3RKBI7cs8EZHbsPVY/J3EoYU3fmx8DPe++DZdfjdtE3mXBCEZsYyRmpFJJ0a2HI28kq90Jp1WEkm4iA2s9IGNu20aExAz2mENlXoH5NwJScWwy9REkKTUyJymLgpUy+MySkq3VCXCsuZe1ZEC9A0Cp0tDQjGm7OclhCm18GKmMPaWXBwLRtJHwxVp7Ua1y9UD1r0i9B7RDo8pGp6tI3mr9R+YeC3Cb2L3VuKfwC4EhStXs8UJXH6fCpe3lFwz63sQNjJcuKiaz+/x69KR5xKExCGE6D1WkltXLIW4UpPVUUCWUs7p/TIEEqHrckicXN9hojLhjrVtMHIjX2jqPPrD++EsxR0aM4fqLB0Q8SIcMaV1lkLZZJb4tjhCnsWZSmsrzEANRBriWpVl4bSd0QuJ+lJ5E9y6E27FWRYkJnMqyIkSVkUJ5+/gzAE6j98EaTQ2qMmNFVTjFTByMPdwrjISFItMlPwXRN7CcJoyfFUuuBVWCc8MLriWD08aBCPSwsPbyo9wTTk/w05cUy5fkG9374p4IkQnwWkv6jkhOmUJrXQdDWuBiSxjUk+s6M7l+4rOUzKb51H/ADyElCFbUr0ugvunlzohWmlOnpZCX6KO2zeiTs4E5Sepkxq9W4MsnuIerlR+5EOpQj2F8oS3GBIZChtbrlg5WXqFJuKhophGRytONVy2U9WQunMkZcR82Cesm0NPgbGfAlA1/rwnSOXgyiFTSIEhJIq51qPyoy164SySOxjEV1QQKWraHyEo86Toj09qKk5S6Gs96Sxl9Ai37KJduDKjJQqbTgqThERsp54SlmihT5vbyJGEjjBRniYE00mhwMfsLPWmnbFmodRyE2sIpc5wWCN5jIoSpjjiWrCN5I98ZwNPO92HYYH5OufMxep4zQNF48krUlE+dfpCRwqYhYJiYxWeCWZMnKpMmjJJIbtK9BD9biu7K6CiokI7lO41OK6tyVQ1BshZRVCiVOoanFLsIikAag9C6Cb8zhZQQXOppJtRbjoeUEobtK3QyXLX1JZTMaZGhdy2eWFHZthCJKyNwSKALtMhq0huLEOgoFgse6WXgWVqJCCT0KLdlAwOVHVMZLmTTGOUVQJos2TiWQs49vBaOSvcWORxZAyTssZmqpPqPASbsV3RK64ztrScSP7IHPWZPkITXa7BKNQXUjheyT1HeSrptsNolNdIKGg4TsoV+fXMTmG7ComkfoKQ3X+jY8gSdoHlT/CaCackXuxaksRSiZoaJtCRu0kpaTORVr6jqTL5SL3p5tXK2ZvPcjLGeQ2uSi6ZJWizBppd7MRDvd3eKIZlZzYNTgPyV7L3zM+Z5Fz4bKSF7M7C+szZ4B98fdH2Q1E1h7z0HlA3B/OHpdDMR9SW/c8WPgkit3MyM/X9m8H8uzW7xZuE+z0n0p9L4Lzb9TP8NFbY2Ynmb+BRKnyLEITrJwQQ0EcqvgLCScEk4zjvuIZxCPRDy2ehtnoP+WXVjglA3Vh6C/0SF9FidYLMPimi3IlrVpUsbWfdyh9cckmBepICbZj2HkJ5ElFiozKlD6k+mQ7Q50LDxcShPLFhPlqKNLD91XK4oyNaZFNY3ZaF0AmoFYFUVUDbDZIj9aeZ9ufZjV+82+HLdtKJfqTPgNHp+5tB7WMLQzu+J76sqDizfNiVJEltj6gRUEdVQoEu4nZkVeJEK2hU3fHcYOYiCiU5CjWVxtFaWZ0NvQVblLlA/KmhAijVt3HFCMmkj5AOZ3JCWT3IOJtPNUZq1oIWRVqGNJbXSuO6Rt6B0nLShoRqQ4Uw9HuKb/oguGbVFRdyRM2k/wBEzGCwoO/2xd+TvZeDdAXPhRNT0KgEB/aNh9Ri3sWZuhL1eokZRJ/UJFkvEkyQ3foPr+CID6k+lPpz6s+rPqz6s+rPoT6clBs/oT0s7ZiUVgNcuw/oWOKF3BLKpJLFTwJJJJJJJwngYirO9fdEX6hs/UfWEJY2JfpgDOUZu5TwVeS/Vnxtmu/Vk1yi7kWaK0Oo+RmwwSP9J9OfWH0xseh9MbHofVGyNhY7A236A2foGzKfKxJZr1Esz1PnbE2quWbLqrcbpihJLwLC1UShJfh2Sw1VE8hMSF/CR+ixRH8tibBn5PORTflmet/sfDsEIx6p8gpjZCnlCGXV+dvd8FOM4SSTxNG2dJ/ir0G3qj8G34KlLvLCMd0mCbnNacLU7OqoWgknwVMxsM/PmxcNE5eQeCH0uPsIJJcHacI0u5j8llgLvMbrfu4mgIDswgaTd7cEEf8AskITApI+TQlRPBCsGwyNswlVqghOtWL6D7+deWdF7eWhhFkxJLJiT5JfKFz8t1DXq/B7Vgup1QNYqSHytyRn+bkkO1S6MlGqGwmTVyt1F8iCqrOSPM1I46OhlCR8VSvAd9ihjpmBtIhPYRu93BW9SiTRqoSSQklhNRRpi6tG3o+BpRQ4pqSoZVwaw2a34ZwUHw3MXA1P5uUjK3zsfksjti5zGo4j2pSrZF5UZDKZ0i6wq54Jno1C1MkEbaauxrESrmaAxropSIpoausKDma1Rgxt0KmFoOSI87f0f540+Bysm8JuGb8mVDJV1xTJRLZC3aKhTkWUnlRZ6pjq5azKmNthiVElcKmu8K7/AEJpw1bCQlJDQ3wynozeqe3lW8FElYZsEkp5HbuRL1m+14MFX/2P24zzEkrJIQ3SU45CA7GmqlOOZkzvIptbehFtomb9CLxDT5JDE6U5mzvB6ITCa3ZyhYgbUQPpR8uZNoqNpVdsxrdnBtsJtLDqbvISwPQioHVqgglkkO4gNGNwmLnBJv1ZMubHW0+NQUv5e4uBoWFg94fkssN/qW2324llezFTEoUSKFlhA71ZjGbVFeIkQk9RGsysyqrckOELAhG6m7mVhZYv6qMU0newqjaU877/ANvLfOb4Kpq2icUvOK4q7IvYpW6DJhWhqJkLTdkSXRoK+qrYyAiwhJbw0ZFIdurSEi72ot5ZJfoUFSqZzkZMuNKjMeFGptJYGnyLHlV5VqMurwVLtOChoHFp4bjlmpyEklCUDPW3VRJZcRAWqSKJHuL6SzLkTajnWWUQyLr0EouSV5k3PRFKTSdP9HNKOf6J3S1wpb3F2bpMigVBONygEgYcI7blcw2ijFWY5LuPFHCuGpUDW/NPXD0t2PwLDb/RcDRvf6E7YB+SseAu8mfBy4rV2eaXlvd+W5Bk4jEkNaMrf5mRskZEcSWmDXKclYdkcuXIoCWHNSLkSwtuNJpp2aqXQnbGtzzIzHmVy5bZJkoUWnlYIO1P38GZNvMEFr1RwgCOkms7iBppNaMXwpLZYJZPgzK7OEsaanReB8bcXB7z3GsOD8RcVjLhT6f2X+ritNnE+L2GakBINv8AEVyhk+bq2k/LeiT7jtHX+JVxm38z4Ma+vuF+ChK3gdkK3B30ahQB+Tn7hui9zt3xPRwqc1kT+wlEak1kYQvWmRJa/RyHBMlRcVF7RgpsNFhFepYlCsidBuE2NSTjUniGiZJ1dEX7eKMSTU832z9/LemiFaQ9OELTWLwpbhIkTP8AX2KHNSk4dyPGWnKw0NJtKbcM7A4vHnFGQ3D8Fe1ae5Y5eXr5NHVsGlu3B23swPd93lC3zPZHzd+JodihQlDxiRLyibo6OZYCnqpkabBWHV0HzThpwxCrIoIRKia6icHd7CqZkympoQ9WR/kXEkhLIq3H++brfp+/LNKHSgT5GbDLBpzKFp5maqqmHydhebolopg+gJN3GUqaDGjw7VMEFUiiEup2nITmiSVdYpfzRT0IaRWGiyEjb9BJqiWslYKcFn5Ohyh38FYQUIhipWtcj9z+SMzXdNr1H0TPomfeCW3WGy6xfbnzJjchM+pBcrNfqLPSMXac1g1ch6+TbSlsa79TG92vRnxJj3oC43hwe+9hqF30H5Kws5hex7HteJav4uE8hpNNPMrwaFiUQVHdgyJz7XURuxk3mxQNZflmg9z98ZGq7eWKKKUyfUUF1klhS3m6DSQINcJ6uRT6c1ylFG7pcZNCPaW0T3aq51FmdDQZeUq+YkGJSa0EQVNZwqlIsvckebixFKGRte4iQ6O+GQazk2hH18kwIhCWanyiQWovYsIG6/SLh0TRnqSglOY/8zP6Qj+YJunHIyC9GyOFfSGZb7oeVGfTH03ArtPJupNbvJ7PcVsnRkn6hITKchZVBv8AWJX9CT/Qk5O5Hgltw0cuIgVPyaw9475ex7K4q/TxRTEvIvDISFd8ol4HDh+aST7PfyyzGaF7cdOJtabSVZ4Q6NJlJGiiCU8xZWFZMiqshr/RXrDUFuNoGBlKahok0mndBtQIc645StjZUXTySbu/4IsJIXp5SvmcRhexxbeSwSTy9yE7o+kPr0fTn059SUadAhovHaRTOtFGzcd0GXkrS/DV7fg1iR1qIVDbWJ24SXcfIWtLPB2k8TmNgXd6BPZ4KY3ZD79MLJSuINLLMzqokVbSNMHMrzS7X38tXt1L0eDs4M9ooCF2VYh4pcyehcgOWFacxXGsnlkyrxmw00i9SjBNWkmciMnJVKlb4Sh2jZ9OK0d7Ct/neQ1I4OuFm5fk6NMeVq5nFfqBY5Xh5QYnRcafkE7xSZc5MscvJZCo/wBy7irLGGK3Ux0kE4xn6ZfBHA1KElysBEjTsx+aU2OhMmDW1q15qS3fa/LVDSHtjFR5HUeuMk46paxXwMv5FGU7dRkH0JasR6IkVvbBbFCTt5O40QTlJrPyljzb9uLuh2viCd2l8v7+L7Pyn3LkVcV22KsSXk0iy81Jsm3V5ZJ5fjQp1PMZITSmHi0DIe2BtJNt2FMrTZzhJJJJJJJJJIy0TuZi5TjmNbM0UJZIknyPde4dub5LylfP9nE9Hcdp4fSMnKErzUexcb8R7MTtyLnNxdti9kZ3RixNPxJ85k7+WJcrkc8ZZhpxbLPU7AignBT12ngiRsqNQ0I0im9S3dWVhPfbVgjdqr+pDq9A6kWuY/wcwxqGirimtM8KOXH0J06ejSBULQ2yTN9YeSbSuxRUbC9DF08pXzOLcuzEhWzh33Y32vL7hnPcO0eSvR7AX+F/m+Ja+L8lW5KiTCxSU0UfBpg7pJCKzerwjVqm5qPqlpa4SYWo3mrnjTAKnxKuM6mdPNJsCb8sy3XG4krP6IQz+UoaxtLoC5JPQyQuaZLbrCsncmV8RFYDUP1GFd3oxuGRMKwu2FqOFcThXY7rpho/YNWX0linsUe5mR39hOUU6GqO41VQtfK1venv4no7jsOLbM49/MZqsY7B5K89gf4LvNxajXxeslreRc1Ckr9KHvXyfNd2800ndDV2+jBprOvUeU16FFof6gL5t7C5JJ0D5GMr0g7e5F+hWW9f2LPR6G+W3gF9sE3+GJ/7T6YNX2D+2wKS76El/wCv8FbKucjeR0B36L5yJP2Sa6Nd4tUpWZ+rFYe8WZfp5mrs/wC+K1+KmS4qX+R5gXYO08lcWfQ/wXebiXbINGr0NIdrsEpLCQJf4EauwjV2EGZ0IszDbjufMZBfGDN/1FrfqahovZ6T40b3Qb3QP64/5h8RYJ9ObHQLW6DddGfOmfOmfEnhX259UPpB9+fRBo/YNWTuPXPQTc09Bt+rG9ITT5t4zhOM8DvH+iPpgkoQ9Bsv0Rv/AE4dtu58zYtAJf6xWi/Tw4808vN+/E7Re/HO3T3m/i+XDVZkdj5K8/zP8HuPiStIkdhJ/WR5CFp5CEbY+mPrz6k+tPoz60h/SfQH0h9WfQif9YxNsbQ+Ns+Zs3HU+Nm9h/zs+BiXnfqJRMk9SuTZWg8k/gY/K17V2UxnCTsV7kri5dhnJEry4uYOx8ldgf4/5Qgjwo4m0rtFwV6Br/cfEZ8R4Z91h76sfRj6cfZ8K7mpn7hNt0AmWb6olZNePXFrydRq/SPqgpG1Dp6jJ4KOX/pHEk835h5cZvJ24umYXiq/lZ1H2R94feH2xDVecdsPUuHXkStyg/QEGheY3xeX+Qg/cDUT8wk5BJH6c+nH/LwrYYRBfXH0B9OfR4c9KNn9sf8AaH9seUskgx/sGUbqyKzPnIjzRKB9Wj6NHykVhNlDNKvX+Et26s1euzV7xDNmPJv9R8LI6YGeH5G5lxNHPi+X4Rk8G/I3YRZna/gbGPUaNfJD/hB+9ktkkmX0NZXoia7cSBX1vODM/P8AWJ2uSw9NfqGt1DU6hvBcCS+4NFPqQWX6mmv1ILdQis5BZH0/RudAiziPJ3I7nVkVj6iyX0Ft/QTf5Yn/AEH3wwfiMe99GaUsAif3bglsjmIzuqzIK5Ge+5UJ+8jJHrIrDoCsUnY+4Pqw036QayNP9D5Ez4WNz1G+6jfL4UfAjZ6D4EfAuChc33UbvqPnTPiTPiTPnY3/AEZuuo3XVhx/WMgzoPSWmvVm07m07mx7mz6s1FCXMvtj4iPno+vRtdAiHxMS/wBhu3ULgOT4O0XvxtAku3eX3tEqR77yKxGsztfMvUqEn0Zn1yJFnH1MibSHLCbVBZgSLJfg3LsyOEbMkXRvoSfpH9tm66sGK9QtXJsOOAvRLkV4dL2J7mks9WNM6GuD6NHxELMf6oWiW86j4Gz5GzY9XxIAuf1OI5t+rPgbPmbPhbN11G76j52z4mz4mz52xaMS/wBIkW6ISrJxRsaqdD6tH1gf84Tgbf0j0PVm86h6ZPI7R/RGQ+rRn186iMka0XfH7D3O+flu2LBqe6H5M6zO3H5ha2/592wTvoPX8KnzUF+YJdN5emoFmPTzfkxkszsV5i+lRNRTS6Fg3+e0wWijO24jUU0cvPLlcxzbDLYmSlb/AIbPw44I8Bd2Q0cv40Ur4Fj5CYi9zeSvHuCHaPMUBegNVNbmQhYomPz7tCUPoZSFqVWbWgjS5+VPwccC8su2kpKn6DjjRQgCTVcTnLx3Zlws/CSX4N57wrC1yXDTBPyMSh537AnJ6vV+FKGm6L1Iv0j6oJilI+RK8w5NVYL1cs0l/pNo9RtBkuDW7x8rEFvBDpStrSnR2NHrMaj6jMz+dMIUbs9TWPRmZV0EUUgNQ4h3Q9D0ZveoyCucoSTyxz+EXlmk001KYpwECgKM1nGxVxFp8OvhOzFf1FgT8jeF3GJ1Cy5CeDcIdWQ0lsPW9Dck3WScicpdB8KEOV9DMdpFftZCDU6ggk3PoE7Cn3GCNGQas79B/RHki9aorST/AKWZQNAXQzkfX9E9+8T/ANM+Vs+OT55G+/YQ19BZ/QPho+Uj+wjKt7VP7shE0Kaq5vujJ7N1FCppOiFoldeSscvlrnyDdd3oGv1DP9s3fUfG2N5IGpzFz/aEj2VkZ76hmRnIndCzAL6QX8AWiBM/lif+wVp0Amnby6d0epH+oNH7Bp/ljVmB5IaTCbuPnImt3jT9xsujPrjZHxybvuavWZq9YnmOss1UeggCd/LEz95L+oNpFO6kkVV15BRX5OvQnTDIzcy7yeXjumKzFhlg0kEvhT4TTZESfVob/wBY35O58TZv+pv+rEv+2JRJf6RKsr08tu0mhq3uk/JPQ2+zFg/CPwN2dzQ33B9WS/0GzOvUNWR6jy+mi+7MGufnUV+3pT9sMEf7YMiuTGtPoJL2Ap6tHMyb6Er6cUkqVI0zTstB8bFn98WcCT9oi7r0F9GJWb+oka/USySbdMSbI9CEvEgbLr0G6/RG03ox6STbUyTeoyT1aMi4qCbqd8iGyvoaIo7u5EV0mrEWcj0N/oPjTE0k0idbro0E4ohjhuRLsNYO7mXPmO98lezvRWFwcjT4LGoFjahI55WkZsFGpNKblxV8aFmiIV8umU7iPJfI2PjNOOELZf2LL7M/HWNqg4ceVguD9D/GqFt94b1D6aEDUE6KB77Tu3FozCV0fh4Q23Qb/wBQ2/oGwvUdT4mPIHSOP9sgt1HiotByzhkNjXVfC4JX0P8AMfFTgXHeO7wWrGxsSdY14drtO2Rn89CJS/Rkihz1QMU1UqRpUaZFEnsGxLsZIDInAlngkiTcuJgRW1dSOEpZS/iP8RfyXzdh63yjjTm0Sb6DRGkfV+hI87N/F27Y2jR6+bpOvtz+GgO3lN3GQ0cm8VeX+kfkcw1QrcDuwsO9fDuiqSrImGgqsVkEtBIa7iWiA1EntInJ5mpGKViRBxbkSi/uGa+r6D6VqPUrwuKSYYUFtBM7sdWOaUpku4d5XMmVdB7OJ4ewkJtDdialA3fw1jmUJyk9vIyS+Chyio6ca1DsmJA0b160YSndE4WZkHQapvZbITrS4k8YE01ZFimwtqs1pJa15Tkc2hZktDZWfuJyk4jbzVfy6cT4+gLV5D6+Kpz/AA/YP3x9x2i8mXvmJUIxaG7xY3J8g6rlO5OxJLIRnlUgjVbCJuLrIi7ghml/RA8sXNzqNNCyNjUUkmg/NiYE1pWiNC2DFbCSe4YNpBs1DdhCgmk9ZE3wmZmn+CY6+x5Hk6XSpJyK43k7sHYcmrGvMlfcJtu6n9RNISqb/oYyu1ZHq2IUNzUiIq7CSjGloL1p9iH0/mKi4qckezhBsJJKFkN6xRzaerkZ4yXZYLzUeYRym27xxRzRT0PUzxz8YQcvQX+skYeQ4GWnUn8BNTYVif02Hcjw0dn5JrmYWXPg5zUdRfUhbC/giCWvuN51xJvtsCX143nXNCbkE794nW6gtREPCuAtxNJqGpIApNvCSdoHnlfI7zK7Hp4+vHQZJSSyqQXIsxAMIUmZPQShxWbIfQqTzF9Wcy87mrwUlteKLtwK10ktBPpXKkwzdcNmIocYRvmbG3IuhXVaahrBRSdHXJCHmhyeXbhN6IX0LvXiakbNQOaZOelH46CtqnoU16R9x9WpqvcuIJV9cV1zpTzkKabedcwIiFXq28XcN0x+RtwMnPgaF5R6Lkf2zRJ+pseovuCC2Zs8Ilcj5Mu5w3ch6M+uF/DIP0M0j6sSP2iVnErKxmU/piL/AGxsOp8LF82LPFm8fQsXqUFadcTTz4G0szbdSVxfC3Oxfv5JqOy7cS2jKc1cSRU1XxXHOQf7FAju89jJTz1ZEWrNkZ592IIRNaMeS62WFeF62I40xTKpDlYw4eZK4hGE8vPt/cg+BXH8U5Pfx4nnI1zSGXKHJI8bOc5lvg2kqvBMjVSnmUQO5IgVtyyLsykkEDiE6eYemEjGFYU/IMtwvc4HlaxShJbYvCUr8UIhacELQv59Bs/pkf8ATPmbG7JPU+Oj56HkP0MmmXzyZfE+hKXOTAmljI9dnzmN/wClj1shiWVkH7BIt1GZIsk4JeUlcGHnDRmMn7vIxu25RDGjU6LdmZVzR8CY15t6GT7ZueuOUS3o3/U1OsfAR8hHxEfCR8pHyUafUOf1Jfc1OoLNV0Nnowz7YL6jE8Ez9Y+qH1wav0j77G5Tf3CfbohMt1yVqvD7V7nce7jdBvHPM24H4yNq+ECswpmwvY+zQfrRUZohkzpKhF1I2tuaI/op6EBE1BwxIc9gPv5KhdQjKcGEP8QSZNu5EImnRlriadn5TlL3DzyeNRdDH47Pclp3K4H+Ld8DGyodBfQa9xrzeUdMadhLBD3WFN35J3Cv0Gz9ZZOmR5OhC0w2ET/oJf0j6U+hEr9ZHZMe2Xudx7vIsZExUDAixmfQzai+KFnthe51m71n3h99wM2wDcG9N+bs3OKyXZSCxb56Iev+gea/0Q834ep8rZ9yT/phY8FKP6J4uk4otaT6oWs16ml3h6vrHqNlmbl3xu/65oSLdUJ274c5bC0m768frA6VIRrYfiwXcqige5yGSyfU9SyqpTUZTQZMoSN6mRIdYq4QpuZrPd83g9aJSoan+YDe0qJCDhduv6EkmSumfgp+Hz2TI1amsO2Fc98PyDO1Zadk4KRyxYnRtOKkog1YbLU/wxoN3JPQe498GyPKWTyJlht6LkRI2ShAys43E8Umxm6b6EnE4HOUFxJZROCyra41Kyp6SVcg0SmaDbPeM2Sm47XqJoKKo4MzgppHiey9z3vv5L1zvKfEck+NTGF5BpO5/nssb8jHto4KoqK6g+JDNSgaTMk/XkrHN5PM9fc68DSrCzwU8s00N8r5SrYKolVSdRQtyurvUl72y08GI8PfdkRco8LorjdjHxT4ffCw7pcC6K/zHMhYOLUmvMRillMkc8fwmU3x+iDd4J0BAxrKZDFOVNiWWnIIdqHe4aXKNPUQbX8sVFpkVaS9iz3UaEFKuVWIJk8Few9orn/go5vSNxrEOozbk92zoNMJWpDVzlJRCpChRjFZ9ShaKvUp+OYtpZKWJ1am05kdPC4iysx1ElElrzXH7b3O1fv5L5FdR4FunWMZG0qqn4W94MsYTM3OT7guB9Aq2xdg/VH0g+oH1gTbdIK4J8vxG22j/cLvIR2D8l2jwu+4H9c/XjwnhWPUciNEs5GF1UogSZUNCvNsiwaeRIEmILrCzESIuwp5PWxxunLY+j5R6CqnkItzndaD3yWlcm5ncRgmRVaihTq0C1WLQTnMwr7iTVWkifLj75e/k69Tl3xe1Q2n3J4TdjY0iIlWHR9GSukUQc5XEMtqbtJwZQLRcSEqWrjFtJS3BOJorwyXgcOsMRohtz2JNJUOKrhdhtEvXz+qTNxke8GZnycjXfqBWyvRmTPeXJ/oz6tn07J/fgmt5Raosp9S3+pX3ELs9D4zPlM+az7pkyWawWf2haPQjb6D6hHy0bHQj40bnqN91G/0HyI+kRtdAmZQ/wBSoJlmegTTs/G9fth7eD90fkGdlwqZXu/94kvLJJbsQnig0sh+VYkZkrLMme5A9H+g4+78m2j4KeCEzCwgpmr+hRATa6A+FTaBZmMS4yGVZyciKIWxvJbkkwTSHIypV1cxEf6GbfodWZYckShiBFJzV/wc9S1+g0Lhl6SSwObPn1HrIv0Y17rJTCPdlhhc4mlGk2lXya9de52v++B/jjQQUIWg336A3XI2/owp6A+Bsf3mb3qbPUP7Iwnli9HaPL6A8gWvK/Uac40frGu/SY0XV6YzjPMkrNlg6gShSv5QtL0CRr9DN94WZ1BIS/uHxkNafQTf5YmEss6NUY8nVD2TM94PwXgsZwsO24XSLRSJzWB2fCEfOGmsklmq+Q01B5BLdjlHIb8i6Fjy6ETb0NFU3CZKbuBLqoKOUjqeXHEyu+mp18inX93k9Q6+JGjOHxo+NG/0meVzYvy9SuiEaTNrFcG1jQlo5wI05gs/2RFms6SaXFDWc5L0ZWw8s25lTFDR5CBARRBQwuvcrIlJESxkWY54WWtBw5s6E02jA5bN6hIF4SRHOaV8ngxG7b9mf5IgdtpS0zQ5k9cyRR0KQ9I0VVm4mmk9hOYUn+njp2fc957+Aqtsv889CHpj+AH/ABT6M+uPrD6k+vPqT60bf1jbkG7P1Y2W6pmAyXQGmx/Gz4GRf0hhLSyGnkS0Z+SDtjX3eMXMix62CK5TuIiuhylIt9ZIEUlTqQhlR5u4pXZW6DFSlfGOvUJUFX/YSOSclw1NApuSgpa8+oVVyjddYK4KJC1VG3RCXMVQJ7nNRFmY2SIM1fRhKnvMipGeDsVv5e+EkkDacOEKr5QiTvWSuThmGudJmPC7z3eTJS7WX+iR+sfUj6kc2bLZDZUbSYWZauQf7Jv8L0Ha3P8A0yry/wAJ8jMxWjp74Is2lR2ncuW34kISbjbmjSXhBSndTHNe0hDyJ3UIq2QMKvlkVEa8HLTXjey9z3Pv4FXr+35PuB2Us4dyPyDs8S+8xeOSJHPfDGLRGnWRjQyVm5X1EzTVakFrDA6oK2UoH5VVN9xTECaMj6vcErlB+ojkxDH4Vap6Dsl2DQdakeWtcVTMpeQ1+egGTGa4aElKWmXLLmWxvPSH9CFuUyJNaXMmMzW/BL2/c9x7+Ss/io8Ls9QfA7qK3KdE22NHIyzj51JF1d0Eig2f8ItOi/0ya/T9M/sx8r+EsI6Hw9DO2ya+w426Pr+jObqyS3eJMvT+k+V0JKZ1Hr+kTk3PURf0PjbI/n/hFn9DLIw24e43y1P7AZYdf0abF/MRmBc0Ky9sVp0gmWd68XbHfP38KkI2cJXOxZjl3TNhha2r4LY5KnMmbXVXkM8HReGnt4jUXmJHKlryVZFjPaFgtcni3Y9xel+BcUkhcRHylilWSPCbuPd5KpPxVi1qMyZOYoS1O0llG+eMmmUQxxYE89BM0P0/QqIblxV6lirkrkp0hZri31H0ICsrJ+40nfxZ4pCUha9TFsuhdOkG82My9Q3ZA8vomSnof0TMgr9f2J5TCC7/AJzHlJMqv4xZZZdZET2CHPgw0mmmpTVUOoQEz/U/Ysi88qSdk5cPYSpxzYngzX6Ck+QsUekRoOdDIxbWJscMyVBKmPBdp40CNTufLHp7hIRsxXY/Dz4rGdwi1Fnk8fa+52nE6IU4DgunnJZFslOGyhPjylFysyLYT4i8Lv53Pu8lV8F+DlNE+ClOYTrwT2J2LITmAJd2Rp+or+hhodD6tvzayfungdrxI7cNDNWBWC1QwdIScpD0j0SQRJqhFoJSx15GnIoP8eIMq7KasxKYEH9h/DUSCYCcphrOaZ7cxc6bgyyEIas1OLmHF8iEBFtWDdkWOQ8so+xYhuh9x8U8E8VjLnNFqPZx9p7nYYNpKROXtgmaUjKDkJpKQ9WnNnUSbpwluLhfGo/XoWJUvWHkNvOyQivlOzLSrmJpqVglqJvDIKF6iQmmFXgkGnZxw3rUDE00nrhKRME3tUWGSnn4ffDv/d5L5jTyilqJWlMIcZ/Irebq509z5HK8wnWMGqpXabRSOVxEjTVGi61WZfuFZqdBpbk9KzAvuYhuBp7aCzaph6yy1pmnUg5NBBM+fegpbJ3RNMLdizIaJwTVSaeEe4bNhkWEpkpjrCQ61LV6i2WalC8E7syubZ2s8dKvzHnky4Mf42Y/DXDae+WoTtHh7P3O0xbJ5BDEC0RAo4cyLHLd2QATCmMlFrMOJEgoTNdAtnmZWmiNFLHOyKzWhI9HmTArWSmRC9aaLy4oFJVSFzKtDZvITTUoamEuoySbWQ1SZQaaWq+F2mzjIQhqzqZ/LTYVmiyuWDLIiheHPackQm9yjTxId15JX+Rfvw3Vey8Cr4b+UWlKeRDaENfadJkn9JugkkoyGk02s0Q1xNNcPSE6klxeiRfwc22Zz7A1iuJSjUyKiXM2FER4q9pkPKlpNRGnLYOf2BW9kTTfif7nbcBk9MPjjGOK4WhaLuLtD3fv4FcW66MSSVFA3tNpOpDpET/UH5VGKlG41IYpof0fYSbTi3IbVhFGhDPNNdRUINW4r+Yp0H6vJzKUK9WZQVO5P1nnoRS5Rso3u0CkAOIUnzGTdeG2vJb1KosmVxDHP0wcwVXZkUW5VgaEZq2flsYq/IhXzg1D4px5nUXvg8M6yR814B8Fmk3c3gbkN30G46MX7g/0aZ9RZqugmfwJ+ZeosnqU9xNs70CfZX6+RYkSndFICEQTzcTNT1xRsVcl5bZm7iPw7vWdjLVg/wDA/HReLIycMQomp1pO59oNV+gKXE7zc+Rm16mZ7i+PmITC+zIg+ZM2XcTP3lxPJ+E1NyxVjZStCUl+6r1HZkCiRcpPIUnR3FXxRVHIjvU0Ck0xguki6hOdF41SKZN8TIwzDB6TDOitgppsXsyJ8xDYpMlOzwh3Pu8l6R/H5GrkMtN1xzmV75f7iyLBWmvBbLoXRegbf1wN2j1Y3ZLyDyD0Fbshu+sjsPi5H8aNc8sCDl0X7AWbriZZp+Empm4iePXtELYRJJLLw3oCjki0ZjdjJY18W9hli4UiaBOHbmfai+2bXUbXUPVX1IPYDWUKe1B7X1N3rFoBu+oej1DyE+o8sWS1p6mcXoZ/GNGTXc09zRcz6+R6BKkkpq9GFlIsVrkDyKSLuB7338lW/b8k2fL3fG0M3iVcbZ4tgfFU9nlbo70Lp0YG7MvUaKPUisCP9o11zNwJTJsN2ZDc6oahoHWPaCfmJpTMom5CGvCw6VbYLLEKzl5C+d4LIWvJi3QE6Hk76OaMqrlQfse5pE158amhnoa09RB9ZkiN51zRYOvArZHyfjd9Pce//A4vH5ufHMt/cjnqv/MWPQEjD0ao9sNHrOBULlKfoS55kTJzISsH+nIW9AeDCGXpDx4E+HCJMh9YfRENkNjhVyBpdtgaFh2XkLxbzGh7eLdn3FjkcEWUlMNj6mZTg7i+GijErKOGlU13gVg0zihqVXFnhSXQ7hvof4QN2h6mSx/ftGSTpNSfGgv7NCzxeoswWtPoJ38sWHGm/tE2yvFvee/ku4/knxc+PmNpER2nrwU43kptqewuaWpGkjTsx2XehVt9Zkc3aCu/Fjy1bnIkbtxJQdk8i+6LIsxv2ztOFcklfMQu6UWEkkkskVFcxWt7BisoULWRLW5Iykp1fIrc3u4xVUJQ9VO1MJvTEjKdXNSj8EPQi/cGYlKaq8+QgbrpDdfpjb+seiH9oegnqPJPS6BPn3UR4bdVX8mVTfmv5F2fI9j/ALxvQ1CwdnHK/GJU3DyK7gxuj9vIXC/1maPYY2eU7PhuIiBVgpYGeCVNEsKneRNx60B5l/rvoJculLL32JAWmGrGDvgmCPecEdSTQ6K1qVoZBOUzDGqNDGBIlRM0KiTwbSq35D2nuL5Guxe/kbtmZ3LjfrhYTs/J3nzQaeZ7i/ywk+K08ie7Fc9tj7IaeV8NLTNFWY1oMXErKLd/YKWkW9lgy1CU5lDJC3mJgbtUZZRYUztgoDTsIhWkpHTDUt5Gdvpib09BCPtmq5rUlq7C5Yz4CeaQ2rpO3B7H3O0eR7L8kjuvsWc6xz4HFYvyfIAx6Gjl/HsY+B+Ie8Fc9vis+l7jzyPKtySUxzTSkaENSIkQsyLyI/0NymSPQa9PXEjWZ1QyrNWRkpO2UCNk0LscKcfoT3lJTY24c7mYRwhbNWYUYxPTobNZKq0GVG1VN4957vJI7Znb/kfdfbiVcLQscvycW+IK/JZfxdrH49p2RcL1sZubJuY/M1fgVemCE74NJpp2O2BikW81ZNHN/cT0oMHTer/wlTUouBKiF6KAOyo0RWY/9E01KciQ2a/zHuPcfEaeR7b8l3tmXfDPwC7D8m0mo1OiBcwsOxH5C7cuO8xkVqi00/BXcJMcbWwpFkgbk23mOsSbI6C3ox7JkixK1ECWPsPfySHZ/kuJKtmVE5o462vnyk0h08t211LmN+57j4XhXwoLj3MXYtXT8Y9p7nafJdu9/wAi8jRn2Hi0w4XH8Jm/yvZu+E8Pde4eNfFreB7+LGAs3wI4I8TLzCTyRp5fCvF+Pv8AkWhu4Sp8046T818vHnrg3R4X6zHwPjXBaexg93FtJSQyJWSWZ/qJ6sGu6L1Gq/VQ0/tGrJ0Y153oPR6T5SPhI+lFqdAvqi0/cTzm/aT/ALDcXmYHuGnmPhXiN0kr2ju/IvL8A8C97x0LZ2X4l+JUJ2R3ZYWubws+CmFqL/JFxb54tDdtegP9SHlBrp0E2YLO6As1glZN6iR/bxr/AKPE2+Bsejeof9kf05o9IeU/Qg/oR272QhH/AEjdRmJ/GhF+hol/QZuvuN5HoWQlZM9ReIsq1Q1S04a8TbpjmmPRfke3/wBLHNx/MM/yrr8sxAufPBf5+J4U8C1Ye7z6gg8i5P8AQ/wqgxkeo8tkA/1DN56GYl6IznaQXe5FdFngs1KN516CaCbbqitnepyb/vyMT3i9ep9fP18n1jn46n/Ffytgu8juCwY78e1Hyci78U6Eg35eg2X6QzlGzQPIQNc3oLKRm8SJ2ClEvyFfddBJQt3SxNO35FrHNx+49/yvs/c7A7odvA+hHgrkV/8Ag+aJI5gj2Uv9ly9P5oZGDr7n9UM1rqhZgvUZyPQ+VMiz9D6ATM/Ri0J9qL+4WZ/o8Wnlnj0Pc798dU5w/wB/Gx4FXpFzkd6ZD0Ng/IH65cjtfyNZTteXOyHzRdvTp7HxNiRha3+jY9I9RvdR90h5Ceg/1iBZr9Rmegn7C/Vmhyy9ZMwLmizeyWZ/qJp5+a7QP3/fj5tbf5+VpuYOzO5HYa3kPwpwrwO5L0dv/wAt3vkNn+NBjK5MPKV0Kf8AEK6+5HbvZHlfr/CPJ2FcL0GcR+n9ILt0Hymb/ubjqfMyP9hLr6lkgEM3Uq2EaDdyWz9z5E8GfOw/tiC/cIP0sh/aT2qc5Ji3VxBFSnC4mSQLz2XlWXOzY8XcT8BxwrF3wsHZ/wDS0IRCI8OFoNJp9IciYzqJI0lq1OJt8UQaHcPqGfZD6pnwGfAZ8xkV16iTNgs42Lx9BMy+qYmW6wrRnr+GsfI9+ZYDIboB+G+FWCwdgOUXJIf7RzIkb0VXPlhCmKmTch3HcHXTpDhLOsRli03qCLUIpTF0GwFRBAKiczul1KDTc/8AQJYIm7vXjyIS4YwhDddeg236I2g2Zl6jyEjyW6EY/wByIbOYs3VFObHzgfIh8qHzJjkfCxsOo1exmt7j5XgSKfPQvpj5FhDedGJv9hEPrhPbqG2JWvhUq5OGGx8DwYyOL/GDWDsitiXMUnlcqrQ2gEVKp3EIMqE0yGFlBZOa3YlTdgdCdli8JNBWogiYmoSEI2CGhsCKGScntmb/AMEggbY+qPqB/wAcb/0D0A/vGz1DycFN70PlBDZOhDY6szj1kZ7dGZhz+omhZidSIQq95sOpNpDO+uF4yGC/Hj2H3jvhWciEm26CsQpMS4nTJWijJWh61IrNNJpciER2C1R9AmOhhDSstqUUrehA60jszCgjFViVOHMsDH8Ghm88q/8AdNt06E36BfwD6YT0pTwvmRe5x+PY+Rm+ZXgUVXrERq9ug6qm66IqgkRgOmcSmnUSStRprqZHdJPBoUrVTPMlQOaTBSCfE6HybSLIb0E6hoUBZufCxPgy/BV/6/LFMLU8mPx+0Fd4dlKtxJ3IQUt5sZ4pzkmxCgeQRyElWHPMVLq7gTg5YoUErkjRFFpKYpi2QctGoy5liahI5C7rbh5ofQe9wM3fh4/7FlrB45bFYV4ZLkcUYP0xMUWQhJRTFiGdgTCWHFAvUY0mSNaSmqjnEkUkMmCRWIWcchpF3MrDUwtExR6sEuOpX8zBH/Ob3ZSKYVz8XtMCY0EEEEEEEYxjBBBBBCIYIII8aPBjBzEPUjhjxSosydbqchTgjBBBBBBBBGMccf8AIKnCHg00OaOyJJ4Y4K4tDdIRWUiIqbo1HhYM7dHzI+dG6uhyuh8CPrBYcCE5R8ZPlZ8TFqupvhOLZwbfZuumFmGyNobTDPsj7Yn+glarCCMSCCCCCCCCPINwbiNt1NkbHqbbqfZo0E6kifAggjCCMIIIIIwQQQQP/h58U7QNThHit0BD0DJpYyg0ycBDJFSok9CNuEUIcPoJdSqsipuc6OfDMgw3h63jmm0ycZi3jfEJmOaNhietE3OVisPt9dCHQ20bSJB6QsNjqNwVLM5xKNj3Np3xDYSS2U5gZzm4ILdQ+/Y3xPUN4NnhRsjkxsZmkISi0mzaK0GK3F6ic2ImRUpzFBc9gRqGTGlGxiNZZK0gn2Qv0EX7BOyCZmiBK1EE+YnytPKPCSScJJ4pwyEQtcG6LF8LjwY7QhVcFATIYkyGVKlRtkvBsJsqTqObBOo3MKRImNWgtiwoOixLQWwgNDeJ1HzlXMjuIq7E3CWnDVhtasLSpgLggJPyGzxIem+pzClmbo3GTluBA+dDmHKFgx1P9Tf6xD9oiWQ502jDvLqJ9l3R2PIPbw79iMa3VvuPWerB0+6DQhlCjcFNIyJv9AtJyL1Ch1YEW7ltGMCSkyphmySWgLMSTe0DnpIO3aCczUKQbySVs0BM3mlb1gTSUQ3PrYQp3eMDCiNl7Fp6hYz8iPqDe9D5kbYWlPtj7M+yPsCVqsI8B+BPFBBBBHnZwkkkkkkknHLg3QDZMkeJAPMkMaqkNXkEuhsESJEjw0nLwlhcKsbZUwEE62RrfBDoVGkaWgSBKM0Rkg5iaqdzlI04FZFQm9BOkSM8/uLcJCr8/R8/iJn8f4Q1R81E2vf+i3d/6T1fz1GL+4m1fc1Hd+jd7v0IBFm/nofBBtu37J/QIVnb9mjGq9xfP+BaXx6CKq9/0NX/ADYzJJDVYb/3CK4TJs1hNsHfSS+4hzSXsUM/ZEqUrR6ssa9xLpCuZcutNR7UFnCE09SIqQiEQgYbAojmaF6gSQhyNqSyWIGkdwvYlKKd8kzaGUpJHKPYIuYoYxGtiyOufdn3uELXnyI3l0PgXBNktnqfCz74imR8sfe90Hzo+dC0uCfZH24v6hOgQQRiQQQRhBGMcMDWL4JxkkkkkkkkkTLOEXNKlV+BXikJ6j6uAegOLUbB2sN/Yn2RtuuFfKz74+9Qzvqz6vAUxS+w5usc3oz4VOWTD7Aj+ojS6kfLw8rwXxIf0cJvDZZsM5hzj1ksBbyOvY+BGyG70YejYL+kbHqbLqLb6igy6BfFBP4QT1dSJ1iGXdPoGS/5Ml/yFMfoKf5IXySJz/gsCfGn0PVMVv6L3GJ6Ga9gxlM7R1HoivNoI3ELBTZWD7I6lGzqJo/fBL64v4glanAFBIT8on0S4YEDeIkMMSEqjdQagbqnIRwIEovqU1EMuMI29RyUKaDiLI5BroS0OQaSdhJ2RHuESGBAgR1Ia4khGZMkSwyKnOzfdT7oX90+7wreHyI2HQi/g2wsKLY9T4SfAz7zBlgE330PgR8aNoSB9tg2wJWpJJOEkkkkk4WY/UJFsVWxZOM+LScI44TIRGEIhEIgbRsh/wAw+pG39ZN+k+nNnhvibNnqYgItKrEfoJ/yRvOg2GO+tzoZs9w/7rwAynwIfTD7dHwUfT48RPTqHwseroyfmTkkyS7J1Nt1FbAlZ8CEgiYZn2Fmg1DdyBBh/wCQbkJv/W0P4L/SbK5ftJUWZWuTmkj42J/0f0fbo0eghWCPRimIwoZ6j+UQp3PV/oQv6oSnJtvom26BuT/2NKzTkXd0uYRSOZvBc3Ija3GkEOBBgioqCkdB6Qkl0cotpKrUki4EyaZQhHMQz14CqzOYnkTyKWgsPQ9CVpiQtRLUoOMFNSmpQgQsxpSUEUtWFoDTTCiRInOIERKQOcmSJkWRtmwbRLQkQyGQVJ1G6N9iJuCDZORYOmoriy56YSngknCSX5+fEnhakrjHhwQ0NpGy6D/gH159afXk36xsJn+Vs2epjwPtsGhkf0SxBrI7wN/uPis+8xQH0w++WA/UEYp/1HzkQ19GQvqyFoI+wj+45XUj7Tm74Gw+cHyo+dYbYZPcnuT1Ym1ZzMnqJkT26FeXQQ0RtI2TaEbZFvj3DeG+ICT5ZQPVEnminkR8vAjQbByFdMZGSihGJPc5jcE6FrEiZPYlhloS9PcfLF4UCdmS34M8kkeg5EbKNk2iU3WabDcWbmKcFcoWwmShJOCZJ/GGjdSeJXl/kIEuSNbpDb+s+lPoxz4jPe9Wcj6sFfbkQ+VHyobfAr60eh3D/pvGSPWj79GuLMNkSP3G46MjSI0CF/Q+Jmw649tGyRwld99TdZvM52DP4j4ofCDl4L4JNlGybJ85wOYbzNyQLYrCmko80dCWxMl8Y5E4StMX4viwIENiGCWS1wibUaVxHMcJJJHNJPASSTxZebt4aWGckYRVvUfl4/JxhCIaI2R9AfTkv6Sa/RHoj4GP+hiRNj9cLoP0Gy6cB/WG4/U2u/BWwD1nQfYrCfrR4eg/kw/kmQ0HIJf2OV1OZdSTOlmwzaZsG0T04cgQIkTcN/B30biN5ENSJO7Jak7kGY1YrJpQNKxOGbLJYkkk4JJ/N5eFXwKecnxs/Jrx4IRAnyEn6Bv/AFD/AJpP+vDpcg9l6seWsAn3gxWmvohsDKMhnf8AYHo+p8jHr8E2ug5xLUlqRqOcnB845uOpA+dkkk78Akkn8DP/ACU+XheRrjHG1ixzg3gYxjwcDSIG0jaRrJhknIggbQtMYIqksKwJ8UD/ABtCfM0/CT56MZH4CxrwTwMeBsbGMY2T4D4JwTJEJJgnBIxPjV8quKP+Rn8FOM4evBOMjY2MbGxsbGzPwb+BJPHl4E/iJ8FfmaDxnir4U+TrxQKhLxoSNjwY2NjZPHl+InjnztfDnin8TPlq+JGPph645+BIxjJWuBjYx+Jn/wArPjL8HPBT8DPGxjHgbGN4N4ThTBfi14U+Yrxz4M+BTzFfHnCnCsVwzwp418axPgMYxjG1gY8GZYV48+PLwcuFCwVx8WeOfArYPgz4csVcdhGnGrDwMWGWKsaGZqZ8OWCzwXCsM+DTgQ8VwLhfhvBmmDxyFczwQ7GWLTgzwWCELhZ4ZMeDweQrDMxmQxDuxXeDsZMWNmDHYeYxjwPHUWZksNDLhfAzPB5YZGaxeH//xAApEAEAAgEDAwMFAQEBAQAAAAABABEhEDFBUWFxIIGRobHB0fAw4fFA/9oACAEBAAE/EKaO5KlMp0BgMIDZrTe8TmEqpm9LqVg04hemY8RPmF1DbQlYhiBvKwT7ynSmZ0d5UZsSp41bhiEqFzZomNKlMqBGbyrN4eIMCA3Z1s9opyeYq4R0IbxZxhEfL7zfMCKVYRxpTKhMa0+jee0plTOjoTLDxCcaBOdM1AxUyaVAlbxiNAtcMeKXdp5I/wDDLnDZsxwqMdr+ZWY3czNlfyILgRZhIOdHaVrTVTrqbMBthKxc4Z1gMxvAgYm06TEKzMaXAnIQTmbzgnEb0M6YnSpWiXPmHMbm0CNTEaqu28sqpe+YGdLwXKAF8SphKF30ySpjaDRzWtTM2NKhUDN6U6VeZUbvStElTZ2m5A0LqO8ovQvpAgMrM3YzeVmUwhdypUe2ricTaVE0roTMqVvOkqUSiASpedKlabGlGmJV6IDLOvuxM0fy4nIkCswbZIvcMOxg7qw7EBKiSiVpWO2laViY1qJoTn1ELm0JTYaEKTUmSp0la1pU9piypW2IoZhQcR0RGw95TotKTGOYGyHifvOftEpGCu/AdI2zlARRiGXbLj1M8iJOkaNwmGkTLtiVQ2Bbesp3+WUftgF3DDHm0IeknbxAlgoN77Rv3YjozTFjJR3qjjxDDvlCLf8AqKbH5iHGdCXQk8MLP0Rs2PiCXt8R6b4gv/MbZs3Utd0bfyS7MlHW83glsHOSoS6FChiXxcd6nSOdAIE4jVwlab3K9FSkgDpwxlS8TeE5mNKgStKm8rENK0KzKrQhVVLXKIVc5lRhPxpWlSpTAhfWbZlIyuZWbla1ioem4FkEK4bdCckrqzjvhHnjzBxBORVDftELaSUl58w4kriGyHDTjF6KImlSpWNHQ6PoohoXUGc6bwqFSy6glwS5St4daX0J2064iDs0RCT/AN6J7wrgjwj0kSl63wjAyGyTC6tF4DoxTsI8ZPedGYvxG6wK2+CbbK7nG6CoLb/LL/2x5vmmGDZujbynvKYZFwiqUSiUlERppcJJnhK9J4zsUwg70O2X6S/SXaBex2YLM+0elPFLHJBdoyqy45iFRBsqGRhOUcxYESi84lcZZy4hqRKAlUsq+JUZW2JWdASVlmZtK2nMpvpKm85hK6zmG8p0DSoW7QCVZpVQvMrtMynpKdtpWlG8t0lSqh3jUq4BKz6EYkqV2leiqgTOJcajNiEpZU2gN2G2s6EUZfeOE+KQSW2G4z5YbAEu3WYFoJcFLFtkoMSi4mlQFiwbtLMvUTRQRrliHM7adlHqxCEzZN+HqR7zK+GPWsFB6HLtnoyDtjwCXcCdtHpEsnd0w3KdZxjXy/8Aah/1orf3JT5Tu53ke6eTr1lYmBgZVJUuUj2Q7JZZWdpW+GVG5mN1K0pip5svfM7TLthlvKPE4PKyRKWWtIjqYdXHLnCFujkkl7Cdp8w6CeOAELiXDVvojYlZAkHS/EOi+J23xP4kbMr4luX8QxrWlelJ5W95/wClBf2R6vyn8mAMt3dlCxezzYRKY3oneZSU9CVK0DtEjvUqVG5TNoEJTvKzejDQgSk2hjebyslyoXMZlRqcRIEqbwQCcw309ohCnSiMCMqbQAsKTeBnTGLZZdxTeL1R68vCSCaap0j7so+wir7hlUUIdjOhB4TlXBGFOgp5ocKnRm/aUQCqP+Zlep9J1+VeLR4UYTf7whxEgGxBXknJSF5hFhAojcmW2WNjliN5Y0c6MQZQjd/bE9voiTaMM5IUEXvaL6RipT2leJVckrFqaDlcpco2lRReBnkm6V0iyVnKd7O5lvOHFGTjMmxPBDrmjdQQfMdbPVU7ud0mDePJO6hKQ49sCJBfrnSl0/gmYk9EgIqUXHcVDlpxpjecujrxNvSvpxejK0SY6zYlFw0pSHMxBhBlME7ZRIjqZsTrmtAhMTMssqJm5Uar0FacSowL0rrEhd1N57aE3N5iYhMXLxFK3lJfZKnJKKbI58SLPzRGaq4A3MTnuI8UG3EkbEPSRfaFu0LukXxGKbcXlvOXJcLf3QuZ+aCmXFd1BHeeUB1h1Wdxg4ToZTzoOmVosb3R9FrTxRE8EdTUNqFwUTFfSI2Qw/HZm38WfqNBP54ExK7i/swphPaNuH9o7p8MoYkviO3+YjJFVcMsMw7oR+U3c423c60MdaWHXYd2HRnX0KdPOiwPhKc0hiqGXbAuEovZAJVM5lajM6VtoSpTpROXRsIMpg4Nm7EII7yiOmZWhGVpUrMJcqBEac3HOrmHpp9PHorR0ola4n1ENqVdtIFlo2I7aIG0wwq9VKadbld4ypvPJoQDQnMo0rGYRLioHc3KP+Im7r7R4UnQkxkbn1RqwPmPHJaf9CNG34lkPIRX7Irv8k/9iLbuWcsz1nlKuUSiNJyYidRDsSszpLAWXDaBblgHWdyDqhU3l03hlywr5nQMBcNCF/5E7fgh10DznQjbKQrrQSeIl68hH4Z/5cJDmD8Q4/pIcL+CFkCKg/6/DftIk/Pi2/yYzf5UEynllktikeyY1Jk0BKbUupbpeiy4XKhoaEHQ9BqYYaGjtKgLW9Qv3PQ+gcMFqLEIYY51aytto9N2jRn1+iNQiFP/AJEVZuxe6KAwVZZSQZIuntK0a0xpV6MrBOd/TWh039FaGlXKgGlRlevJQsBs7zJuolMA5iMTECoYHeA1GWkY5I7akwysaEpUrqytEC4TrEdIOlTNwuZqN9JmFkczJCVC3DN3DF64Tl6slvPQnQwfglm6QG43uLSsBuqdZQ6yA6yviA6eVGED4ztocBgTddMdIlXE7UomNN5RKZUr1EYYzO8uXUFBVLdY8mgt6Vvo60C5IIXCegrRiqZUDpbKhfO2+i9SIjcrPlWpjbQvQYO2g6BrsfEsXJSh3uVcZlsAHHMVV1TAI0Ss6IFoC2DkQHuRrXCPq076NGcocoezmYidPfXBtEHdD9EqXg3UdUgp57ppiOjoys641u5WfQTtCbRzKldda0r0VrU2NeNOdBZ1DUMQr2wXzEpjKOsVK4qIYZskQjUb0aYXjQESZNajZCKl0RgdYMCpelbJcbEH4IcwguZ6kHM4XlzOpB1HzAZA4w4JFT9qHCZVxitooHaBKiE40DSoEqVAC5Vyo6nWV6e2jLv0XqeipULlRly4SxFi+iz0NO4S/dgACXAROAgFCmvVWbI+8v1tFutpY5IvYQexO6q+S9V038tqMIQdCoZ0BoaE9plPZ/LQywBvCEqy+8qMarR4rrw6Sj9iqVe19+M7xwQk7/SzgAJXeXeXvqT5knj2+7ELybHgFywSJYu+utTEqXMLHQ9DWWErMP8ABmLjpvK0JTKjoSjSp3rX20s8EYeyK/DmCVczcJWXMzV3GZVUqowNMTbQS50uF4iaAXKxpYU2nvAVqQlXBambuZ0LlSiVrRKhGtK0dKga1pWJUzKuZ141Na0AJicypVQl6k40r0XBly5foStWM5HMftFOjsVY/vLV3WpjdMfwIJRu733hKu7r7SoWFz52lWch7itSz7viONK1IQq4QWEKrVyNsdK6vxcQao1bKmm2QIaWnkd2CN6ESNAXfEDkLNUm0VeXeoS/et40O8Oz2QeXEu+SvsYlCKT8MEQ2JZEY7C+wSYESr+YhzbochmeinwwUiIyj0VHQ8TrL0v0sqo2aEbXCb1KhnTmZ29DCGWBVuhU4len6OG/vMDMwuN2lGdDVsNKJjmUO02mZWY+JULue8uVmpgdMOsV+VMKzBk6pE03ZU8a1vcrWpUp2nOtX6N5URrTiZqXaqx6qhd6OvMfWej20JWm2rrkrRvS9M6qm6DBfb1+q9Xy9+6AD2A+NEzoLWDTns/EdTuXscMXexHyItkz7Mv2ldf7Y6soE9O0JxC9CZ9tAJySojyhdaFjIMuHtgSW843AAHDtNomQKj7sEK4xESyADVfkeISFElwC3Nr4hKjIL8sOsN2E81paNJ4oXqzidtCfIyz9H8lQUPD0ZuJvMm1Y6V3lVN9K2jKtlHmMYaErRs1vR1azrWnM7TMdLxDbTzptEm7oFM6TZmxjHzJORGNXVRBZVN45qNBDaJtL4qHdjG6IENKwyob7TGlTM3JepbxoGaM6VC6dMw0uX6GYvSjWiVq6NaMqY9Xt6LDdiG5mAS94jv88Qu5obyDKG0PC8eKJxuUVhgSLHHS3Wuz6caYvXf0s2lB6hIDymv3YMElhggjYtTzox8++DARM/lZf4cDqMa9QmBhJi4Xx1lI1cO1iYAK7BFjvCXlF6CoVCq0PQNwlm+R+BCXD0QjO3cdWKRaYsVbAfLAA3WelEIGqDB4r0jzs6ihZ2oyypUB8ZkQXWswWkGwE2z4JfBdgO5OMsvDGZ7+jyRiszF0lTM5nn0EZc5j6eZj0Orr7+gvRqG+lTe7hUdKmSfWoqOlYnRYIESXDxCpTxGe85iSpUSoSvieJTUIBKuGF06k4Zl4yYMPzWj6Lla9ZtCXK1rUzmXptpzMEvqInzEuMBv8kHv8kTKkhwiHKB2L2iMNnO50B7TkyM9iG4k5CnKY7fygEcAgEgNvhnD9KL7v7abhKMQ9mAcnOnMNK1zOfRnW5iDHawPEL32WcwjS9+safmKiM46MHjDYmy/LLuTChjAK5Bd2GgZvfyzcIUbXiobpzACyBbXM7nwhI48kwMOxVQCxyBbh4IThKbOhoJBOsISyGlnWNGjU7IAIrm2FnIxIt9rmWC88puPzyjNtYOY2yFGJm3Z3whvpDIq8QfewK3uU6kgNhMCvhgW3xQDjSpxKJUxpRt6GXLIzi4aViGlO9zOnXRnSNaFT2lSqJcYhMYlFaNdJWNO+laVOo4lleYlwDAQlneNiEeZwTzpxANohfiO2JmMcVc6wjq5hvDeEcwIEzMzalTaGhtoAmUoQjRfsS7fQXNKF0OYYNme8OoTPlI9HKOMf8ApwO+iAHqg9r+0eFYrvYvzx2lfaMEUuycokcRJOZ9cItnGcjw5l+8D5fMrkeJhcGx8MEx8ED2JRrivViMzcZUsTp9wxPUvt60THpqpWiR20TVBQliUwPWCY9DAs/DN1kp0+8eIHvFIobOVXUTlWA3cHu2B8YHAGIe3wzYD9oHsJdwQAKNT0N+ZSnRU7wbggm0LIZy5c4RxEg280Zc6fLHSpGwXtA8BMeupURmzq50yaYqJrzEiQ1e3oZfoqd5e+tko06zecSjTMqdYZm5LhmUwxHIwV5U2R2LxIq43MZnSMx0xLGNTKHiLpOJyz2qVUy7RgPGubjUdo6qZyN+EFeGVmVnTmAfQlnUqWmyTwSnEo5jCoL6S/ehPZEUyjMTleB3tAYD2ED3Px0MmN6Ya3JQYhUubpoHouVKqMd3p9g0NKx6K0JToegi878GB6QHwa1aNwrnTaVrtoE4lTtL1dKxK19okrStK9FStL9NwlnScwq4S4Z0CXWnMdtM1o73rernS6ntpXo5jM650305iV6bdNvTVMxc59HGpm52rWphneVr4m8rfdDgnzRElJRGdXMslSu0N431mdo0ES0YLm4QcaZgTfjSjS1kdt0YPqlB9k3iSpe5Xr1cwaWXOJv/AIKEPJaaUsG63YBejswW/fQK61cHM2hdmEHHI4xCZ2Cs2qlfk0cnDhh5QZZs5oaxBbRLFB0qVKrXGmZ0hDVUPW33ahxp7w050cOu+lGuNNiV6N708zjTP+HOnOhpwTOo6EJhrW9U0ueJxHXac657RNaZWJRcxPEYejnEuJg12jOY+m4w86PPoxNsaW+jzGGcGtTGgEJ7kG0vX1B0Ld6VHQMTMCZ0Y76AsJm4PWUQ3ZnS47Y5zcpuPMqF2ajKbe8gRdbfMdMYhK9VaWFdKAIryejYxu7P1hl8TAPDGGY2Jf8AF9cEPfMhAQdkSIoFOKcF2fG5Lxcasg33nXs1KaBwDlgNIAOxGXoAaUfRXqrTDpXhC17FQ0JWjpt6E0vV9HWcat+vj0cSvQTOhCFQhCXCbrp0Y4ZvN9XaMxKNMy4f4Y0d4aXpjTeY9Ff44l632099c6DGdZmUa4uEPE2LQnn/ACjvNox3Yhcu99pXMdU6TbGg5gMqbz2hL9Cy54m47oYFF2J21aqKh6fY0Jv6G/UYvWgdIBIgTGScBXtKUDYLohBNtfRD7i48ssqKroqO4jCkF666xhm9Mc0BB82MElFbfkqWVFG3NflLgghXqTbTlJdEStC62hMTcnD6iZdVou5knP3K6Ojvent6Lz/oW6ceivTeikS3Ylv8kQ3+WO8+SYI+WbWPovQnvO50uD6GBpUx1jtoVGMqbehxGOlehjtpmMdM+gd5meSYnMY8SpXoxENK0Iy86o3GqlaMrECDKVYEKPqpkxIsrMuJ8QSVtGExEQlsOdb2xpWY1ANG6nKw2veZh1dCEIM3SHf8mI6e0HSvXUTUVu4R+7vmKIu2Na1pUCoh0SZIHtABjQBUC+srSudKJXpomdK2hzpWu94m6k7ejGjWtQqH+Ny7lnWI5RN2+eb78sBvB3VoDk9o8K+0LdMZTh/snP8ApQ3sQflRhec5Ih7za8FjknqPxACWJY+YPoIJoTaCwlRlWenmZdKnEdMa41qMqMfQUzrGVL041NLZUxpxN9eZfoZUyejYluiVcXQhx8Q3q+Z7tpGMqNTtMN1psucQIzm5UqYqBBuAzzp2rFyo6F2hsXvLPC0zrc/Qx2n9VHaHozK06XO+nFeisejclZ9NaVK768ziVC/QalkJi9PpoK8edNa9bMdmqiE3imcs8eJq7zF9nMEuN9GcBx0l7TrROAo3Q+VnVEFu4BunvAur3hsp7N8c2Q/aHTJipUrG2ppUD/LhlemwfGhC9CbStDS4TnSo+u4z2jGU1K7zmJ3g3CMdE0zozMSKJHQ9Hj0EuE3lQ9bCVHWmOlTDxxXCV6s+mhKuYTiPSZiEGXCUS5k+ipttKud5Ue2jMUOjB9cF9azS9Npl6CEwq47+kHXHqxqJLneI9NK+E/8AUj/3ohR9YiZ+ePP88p/fAEurYjyvaIbLHhlwnCE6qHJJO5xDce0VmWMGWZRim7m9BvF2ly7a9BuIb8MMdY7OsB2+NFd5gdvgmGB9iHH8E7CdonEoeIlVMf71rd4H2Y7br9tGYhtr0nvM7ww3oOl5hpzqxZtKjHXi9GOj6Cd9a16XoGlMuow40Btel67XOdK1a02QJvAnf0BcXRcO6GLYF51/EelxrTrAJ3lK7SotzZiy+0XBOJzLiNzmGjnRJh4mHL3mXm06ytEBOpRgfSWbeO6JLGn76NIwjyie0pbReGSW0O7maei/mf1Y9H1R4zF3EHhg8Z+It/whtvghs2Hdscl+bOQ/OK6/MOX64NwPeJi8U28YcksR2oVa2Qm68Hni8Z+04n3kNpKupTfitGblM3i4A3YuvGpRC8R0o9BGC75f3a2lOKu/RdytEr0V6Q9DrZpURnL9CYN2L6eg0IeIac6XDtBa14f9GJiZjoxlnWKU3K9ajvATYB5EYz7QgbwfZgP3IHYcPGnsRO4nOvvLv1lzhB7M/wDHf3P/AD39wBuvwyuCvf4Icr6qGwXvOHPCQbcPYi+iDqflB+Hww20D/lojMyT/AIzP/IZ+iqJ5F8KPC3sRAoAFDdlCNL6Ss3Bc2TiZTLK+YlfoPmUu9EldIBLahK31Es0rEN2FM4neUSkgXMXEMzF+05Zj5tMVc66NS8xZhGNHaYNidRZb+tg36YNLnpN0onEUq5ZhhbyhOB3gSQ7pmzCbFH/woHb4yU/pIBsU24IkWgR6yr0pmam8qZgXKu5O0nZTqfFH/mTofBAdvigGxK7TiVp55fYYapcqUkqdtfJgD3SeGL859BowIat6Gh6NpXoqcxiRlCIYfvC6dlXchezhq4O4DMenEu5YTvR3xe83QPMJfviRsiXN4Uyb/GCcXlTHieYvXjGPq8ytOJipXZ6kGzKeIv1oMf0ZZxU904J9kV8fi/qGZ85aWR7i8sBzeVB7H3WAkbL4cB2+BKtg9iHQqUZJRMRmNE2lEQXaLXfvEX394RW/w5untlRVx92dR+UFmoIAeXyn81D/ANrD7e8s2SYDb4sCNs2QXHnAhzihIMdK7TLyMyU/pe8BVR9D0mzbHvMkpq4/EalQZzO7OM6XdzfTfeLRHUfip8culTGnnSv3qIhQW0IRg+XMxYJSU6Su05NKz6edWUSkpKJUD0VKqVokolED/Vj8VkJ7RneVA1qJMlbT4FnY8/g1rWitFImbBLG4bLxpHCRLLpyrdPzoHTEfh6b5d3Jnxvebh8SbpIWzeBn4OTaK8x2Zd5xt7Qyo26HmYi4S8ExYg5rsMYzvHbb4uVftTzHlnLD5Ztg9v7huh7idFR+1EOX+0Pu8FyeWD6/dgNtP0bz2Kvhi/k1+yTbUb30uY020Y88NQnLTKMlnhBqAOhKlGnMwa7a7xrS5vDnQ2i+itPaJB0ZcWbk4lMF0doYpuW42/wAkgYnEwm0LhvzzfL58/ng2lLl7xnDK05qbjobseZswdGb1CbkJUZv3Hl3SCr+hLrdF95s1WlOleOD7oa861Nj4tmxS61obGALYgB2m+ZWjeuI+hxUNb0rQn21q5Upm85ga1oFo4H3Q1CtLqHOlafUIBR49O+nc0fiI9U+guMzH6w8twqge0qYmOkqdiVdxbRdTeB7ToTwsC6/ebQk2wfaA7F7QJ7ekuzPLUJI2POnOlOko1u9TBL7amqoOD+QYRGxPyabab+myMNt0F/CVoulmqm7ZbVwqhIIqoN4JUVsm0wOXp54jMtzekVdMnvgv4i4049Qw1xCErjVpvQ86ZrSsQj/Y2TDzYQnvEgOlbXasIXkbLhIG/pUeIjcQ0amZtK6zmNSyA3Hsz2jpjTEyReY9Ys4sXUwR7MD4/wA4w2malR2XQgiegFiTmCvMYI7PlmbcqlaHnRDJB3X2GlZjK0qNQy7tpTqPoDEolRqGnPoZmJrRpWjs1+0F68SvTUGc4+5RiTkSvRXOhMch8xydX37vtKhpTrRHedY5liMz/AJm01Wd2pcYasNaJZEt43ix5bP0Q6bUvjVfp2hoa3qQuQYPszx8fBUrvpUzrvLlJGWQ8H8aN+hIEN1llcuLFEauq7OWuyMfmY20l74/6izqHdnCbAdickuHFwudhjxRAIREslLg1J2F3ilmYPGzvlgZgmyQgg4FzeEr+lQFq6gqoU3Nk3lxlgZ0EUBZFAV2CGiCPJrWqEvNfljOV/5x8sqE++QrObr5shob7RCvUR0SXpztKZVRC5VE3cyidJsQDTEOc3LzobM35sE0UF2r7T6LUkdmOe0EEZUqULtj7PAZtlgxyST2KfnOhFUtUt7bDOYbkcD+16Fz+DrHBnUYFtgkO0QZZazySyHKXCysR1UIJz2q5beKx0ola1KPRWSGuGVKNHbMbpf36LhE0uVG9cl1vzZO5y/JHStMw04my6daVE0ILTPT4FwdQAoKwGtMNKgg0KsFLEKybwTYFiZuMrEu0Xk8yuDvwbiMgTH5jomJZHQfQOWXZAZtNMS6sJJyasaZavNTll9gf+p76mm+jLmKgwOV+0xTpWlwvMHxK9l4TJKIbovI5kvMQ2z5NoSARMMoTK399/MasBbbWQX0SkO7YikwReQGJgRo3Ft1Za0eRzkYGbj29COONU1sWksmUENXWFXpLBdlnc8lxDqm87y8cqBM0glHwQe6jFB1GgpIyTSVaqLgQsLpJiTVHguNGNQN1HC93IpLiHPMoj9pCxADyC9xjVKt9GOSKLE0d2aUckq39P3IKwf+cdK7wQXyodKLGVhvUvsRHMcaVKlRlxEvMWVoXehOmJVMTRMZgTdm17sraW6UGlRoJn2SGonqTDLL0aBxIN13SEF7ClpsTtjbJTVXgjANexSQIqBitO7IfSeLrCLI8sTmSoJRUhKS92gGGxvupxGQgXFN2mJvJHlUdNll8MAWyZ6lMGVgw1r0buppUzemdCtMW6EJflH3ZxKhGM66Vr/U6Z/e6aVWlXzKlQV9gr7Q9Nv3VUdGcakt9pJ9trACCOyRTN156EOwpbmw5JbkciPkW8IuLq7YfmS9mgbtJfBCy0nxayBuit7VQNQ3B6LzMysQZb2priwNXJy2sHFHjE46hE5vaoUkLazmbUofsWTapsotfMxzWQ9HdLYi1Dg9y8Er1qNi25gxAMqKAI42hBYgs8acJLs7zuOsRidDThkhtkCYqYBZYzG4DSDvN8PM5fWHuVOmjenOi601BY7fNNWVEZzGRU4SU/1jnmEqJrY7kMaoVntLoFc3wdJcPbQR8MQ+SW+7cFsobDZEhi6R6JN6jKOhLJ7Qh4qL6qrp4lMihG9nEFmsD12SvjdR5abjwpFQF29UUuZGsg9Ys6VdXocwjLHYdxFJTkLSLEQ01NgTiNFsQILUI/3lYaCotbIQmyWcJg0zCWxl/oRi2yTaMetR34IyPb8IbflmQhSMxKyVGO5o633lbkTO8Mul4l2VcGUdpuXCib8yGpca5thp+z7a1HaVX0H7Rhs3BoTcDBHQVboEE0L5wHlrXYtxOouIFBRoaXWshA4KNBZZEpnACqRm0Y2Wr3lRgR6QDgrSyAV0UuSlsHg1EEAKkZTg4L5Y6nd2VpbcSMwzY05lRK9NaE7QqfEo/oAQ19td/R9b9mCv58atxhnR1jkh91Q+vT849z08wmRqrtyeJYNvsHNR73UI8QKwoU3i78YTnrECpyhgwastwdS6iV0O3AyYaqDLwUv6PLLbEsWoKlVUM9iOC2gEyhb0qaEp3YxjQm6/RAiCbeiKLjHxuC9lsyfqU3EwkuUnMXRDnbkcXSPnWC3FBHsOC3LmQLB4taV8RfuDTdRlYq8bk2EJRtr3DC9AADgJQ6t1qRDs5dalVhCkwQuo1WOOdMzxv5PnU50zOZvomm2zvhzFNsYezqwWe8X1cegtqIen3hjUXSpedEIJuRwRW2uWIyAFDrDoObq+ZzpVS5cuvYv0n8sUx1uLiACN41/Sn5Jn7GMYzxpWY7BehdbaVHUhvM1MSpxNybMqjKXzwwL8krXYwKdBMahWxHaFTjQhvLxLlSpUJgl6lQhzCpDpKviyRmQbKzYQAEXELdGcaV6DStbnF6ef1+WpbuqmxK9NQFqRrecaVd44K/tx6TSoW93whcH8Ya+YmpoxYgF3a3gCoVoAgK5pegCgRwjBYQbAYnNSiWgYttFSo+ghpmU3vhcYHwQEKW6bDCRYxZVlsQsI9QzEgHYoWaEM7yjeoUZ0IxZt96EYCxBJfo51t0On5jzlPFD81aH+DRLJTrKSkpKaFDEASsp10KZzKQaIJWVuWPMp1gNZSWS1zLLxUx1l7wGeyV8xbnSHW750ynxcbxPJj2iH3/uxjHRiaXoGekZ2uY6ytEmc6jKbm1iGh4jlWPnS6QGXUWNpl2GBid5UwOjobSsRnSXL0Js+gu7lxJ7Q3lXEM/yQKhDtK/229FMJuifmH3S+6VMaGrpUBViIXEp5YyFqC+Yz7F+O0zLS19lIaP8AmtOJUo1F2f1Wt68ammdWOimlzEuMvW5iXHWyXpcsla3Ihufdie/xILt85NyLyJuwe2N1QVC1ulvNtn6ZTH15gtcL5Jb9B2MIQMfhWXAk7FHyxK0ne8fB6lDNo/yhOEy/da2fTSX5ZbsfYwm6/YJy2ex8miA3U/eOl87OT80MAtgWZkcsTy15YedvdhuH1Icf1ocR+8/jB7MWR9iX78k1947Z/F9pY5MjY0Fd/FeJYXiRDMS2OIi3bObr3SEah7/9EwxVnclSjylyDUo08z6CGvYgMU4I7Lp9yCMzGUgSr30b4jkiURK1rQbYmpNpMieIoz2Cbjqv302Z0ubGCvPrVpzKcysx13iMX/BslS499Km0DOm7GJwiY67artCnaVBC3YmJv6KIaVN9CdYaVoXM3PPU/BO2wfBGEJU4mDBYpgr8orDsvOOGzcX2JV5X0N0QsHH2WZf240YRlOlK3+30GXLlkpBbgiC0/fTmFWnQqcCCkKT3bp4f7wna+bYp2PEPTPAn0VjUoFr1LnJ+pB1W/dld+tCqcXuxEd7viEUfTR2Ppkf+LFdiexFXC+CG0b2IKYadYof8pTZ+RCd3+eZ/3oawfecMPBAjKvYlzXdgQaAsqUuyswbCTouGtTS69JlLgmDA9d2deZzzJdj95zF8ukTwfFAomy+KGyHwIAwAjokoqUSkqKLYHaUSjStCIa1WvXTDMEQlEJRskOTzAQhIVAbcvRa3xCWRKaNP/WZjwiMcOjGM7S2LL3NN5hdCXxpsTcCU3EyTMVOTp+CIkLe0/eV3m7KiYipdfQbi30NVjkIEtgIgiWJH9QlBPQbXpUqocFwTiWa1iL2uKwJZNoFxJQIIKQRLHSrjVqOTvBSlLV0cjK2xCUCg9y6kK0q9eujM+guViGj74/UkFDQNMwIml6a+5xZTcCiLmYQGWfA3L26LMvR4vQIXTj6hD6IBFOdOqwozLjU92OCf2WYgW9pc5vhUV0J9o355UXVa+BY7jxJw/AqX9h5TqsTRT1KRG/0YV8Xwh0rz/wAwoP5fE2qPy/1DjP5S1+mm3d9iQm4ineFI7IytTxif2WfyYHLu2Ej+LCGwI7EQ6YlGwTExCtL13ldpX8fUa5mIbaOjLh94/V6FqAljowoqDs3YI+wE95cdWM9teNN4zGnMdKJvDQ7wrwCq7AQPIrEyM2mXXvMaW5tQUlGRPOjcSA/V95Rb4Y8f9waGDL30TF67Gq4lVoZ4gXxDEp66Zjc+xLOwP2gp8YKmauF5nJpYfU+9pYopl6Sree998wQPWIAzd8jJOHy1exzLRtro8EBV3Ze0AvOz6jOPpZiyhODwsappNSNTxlPfeUsL62XW4wy9otdRlwQpaLES0Gu6JouGUplmyQea2NaxD+ShHB6I5W2n9yMZGjwNkuORIptWQqXYtFkrbhIrSoujRuDobEqcDpiMzemWMNMQ2nvT6/TNE7R1qYzB/r4legvQKa2/KJNcvylzBQi22e1j4YX8UTqJ8qCvuXKSv7JiUvBKDbUr0kxel6ujqoCsu/UeohoThKfgP0dM+rjWx1ifqR0JzCItqr7y4laJsz0mI3tEaYdqTb0csd5TKJUMS8aiLUqVpxH3KqI6mH4lRuYqLi2I03UuF7n5NRe9F8qO+mJV1pxKh4Db7cEqgweZdG8s3lrA+t95wh2zUAJcBPiMZxMS++mSV8ze7NHMe5cLhMEEdM6bO2nbnuFhfCuMfHneGj1ipeIwzsxZts8SgjpOESU8Up1Q9Rcvs8yqtaEjBrcss2w3MxtUxNiGkSp2EONbHJtUQzc+srDpMeGUKVqrrpeZQaltSPgE5K4hp+wq1FCnRhEIosWnzBFCYLFJbmG6rZlUsSjXn4SNSotkgapKS3ZmGc1o3q6d98kJf5pUq/tkuLuHeNEdbm8p0qEzD+5wmfWGJUqXr0b7IrclapCMsHge9S6PD+SpWhvqqDicOrROIqFeBltKVHTLB6GAVCWbmtaVHDcdDvMY/LeNwsUl6miOVNfuRhCb3pelXo6F6unOhUved1gPcjscL6H0N6XfN+5CzUoULn2lCLO2DAFFiNkP9/MSwtiYHi6UHVZeUBBv1lJN2n0jqdDZHuwNQuEG4JxsywldYKXfs/dRdMsUWrvN9ABRtTLbDGVVEGL1VXHEzjheSr8XALEjuGu6G4NgFu0Sj1vE3vDGpcoXBTl91ZG/EaV8LbFzqMkRiIAjYzI6wWblx++w2pTpUor5J8CzDm324gLWiXB3QDoOItaNs8rfMztx9nWpVTtynkpfeco3WSVEuV3hGO8WVMR6TeBptKJUcarLxCL9F+ybvr9ipQPQIyyb7Rn2IweimME9B3hjaIQ8QOsreB1A+JhArVhEESrGJQK26HE2XOrzNlhoSz3rRmoTiMqizUqqmmyyDgVsWABXBM1VlckdPYJ0ZUxpdYg5qpjUX2/zQSVNoaAVKiRJTKla7nwGWbsfGIczErVhBvVGp9BjelzGiBvoIpcsIWJdQi7qfze+mJUQGzB92CrhaXwMPlgToDLHJ+m1Swi74tjrvUJtmRbDHUNQ943JAnugLga7KnYViNs56RcDfcsXk0Ig0ZzBUu4P9vzB6J9jTM8t1RCa5wiWEuxcxVfaG9TJPL3VQCFO25ZfEtQcJ6RhvPof3T+P0lulstnM6+gB/NhGwV4YPXvJJvPirb3mZlUns3BDySmMkFyzlJduHSbfZhdCC1dAgwrgyW5Yar+UEgBUFJBP0wvNNy1g5dwINRWdXMuDagzRGfm45txBhjF9C7xGZUxD0eZ9uDOJXHe13HcrGL9Ye+fo0ljtoGLFjAejdKxxLhnrdm3AQHuZbc8MrhV1OgQtDjS02mPyUaoaJo3a4I6rTdtLiQ9Z2YZl6BM2CQ3gGmVeKp8HWIgD/sMKh+LXTuJL8gAR2LmfhqFcxmN1i/rUqblfpDQMw+2/qELBvH4lMlSMZcWOI3iO+lESmLPeUzkxOYRMQ8Q0wkL7GBdOv5qZqUac5jkmfYPtFS3yeipRH0ulnoo3vR0qj1nfUU0LM9rioIfiYqBtBAEJzHTMzCNyjQ1/TdqVKlSq0rWoXJ1Sz4fv6VKmTdBcYkVP3v0hruPKTlVEyWx9oyIPexJYqXu6LV2Jhh6Lpu6b+xD1lyuFbJsO9944gUaREAfZDbKLt0G1y8t0txOSXgo9hEYKzk5zZBRGLco7EzzuqQCQ1IJYxHu0xAnqwN5dj3IybWW7YIwD7MuoQ0ISWPZogCivDo0wEX7KSuFzZwY3JV3gKC94vbJDYVUsuppKSw7ss4EZei5SlzWOd2dr2vYNn2hjoH3AyTHlETYtYRqvQwio+qg0Jx9iXL9WdMT1f31O0t9F1EBAI7jNgD2PXzpubSsaYuY0rq6PWbzO8qKGwZY8vM2G4zOHuWKjCik4SXkg4LZA5tXCfaYValxR0zFn874qINE+y2iEFj/cx7PAPhEYZYEGDsfkgFXD+IBd3YnKL21TvGJG4xu5mri3OLnTQuURMa9o4+/wWOv1BAjN41HaZ7oM4lZrStC5l0JiVMVvCqBWRjEqApSW8obS5eNGcTMDL3xESjjFiCcwRMOnGuYsbQ0tl0aVKlytNmmKf3PT2hArQhKlSpUR3JPlCeer8qyvQmn9fpMv5cpmGlS6jpkrni26mTGmm7IXEfTYl5YUuual41SoOLYpY8rPmrDPpzpmZHU9KDioCA4gXEbXavDBMebKqgCgBCahNwvQ02hGgd9AlNUSDbX29C/j4IcPbptjRjqXLiq/wF6sxnLpfrIyzS43qao61boaXLlNpWpVQgaiaiDa/HtBIL8qZ5P/AFyjeG2hBdX7WJXn+4sfd9zRcWNwXPSO+m/MbuM7R6QDQhL08aO0/JBfkL+GF/k5mzoXmM2T3oPrOIsxMVrXXS5m41Ut6bB4jpDpb5QsrFzYxJvDTW7ihQzioS0tnhWdmxEVENijEasRO7hS80QakHViARscmvGteh9dRfysSoCsBFCSswJUCVAhqGO3PHaGZN49jRTAxpWidSL6SztPStK/ya9L/t30ozoLXXrBxfyw9JDSTvxfU2GIWmmahu6fjS5WvMSHo3XRIMWLLZqDK0uY1r0c6mnjS9Ez0sSDzV79PVmxOaqEYeUchcKIBEvwuUFOT95cwVYQbxmXE2I4CL6fEUUgRgkoXTEd9Ej+NmX6GIV8wd47wKNMBmXeIMJOLal9n0EG9JBNDVKCNggcptFbwtI7iRYS7aRFNRT2QmUALIPFEaDBadGG6Zh8JRNoUscmAhZIDH3iQQHLLkQOadLAhXiFDbaBbMTY2de8cMvZs1yS9KSZxMz5yoISiMuwVxsMoD6GXVRpt4iPNPzcOQsYOHpjhlLQZWeP7gvxFyWCQm4IsxTCpRDUnWBoEYN2T9mGV6hXQ6QUpXM4T9wso7GBpQ5m3ryx3HwpvDeLY8fyIhtFh5TUehllRUYqJGKzUrJKcPNUdE0vOg+AccBuiVomtXCJLRhe1Wutf5OlaY0zDWtQ0/r9CfQYaXqw1sd38dHJN47XD4FR7u04uFM4l3mV0WgXZ6NOdN0+Y5dGHbHs4SG2jo6cwzLnlrc3BiQTnSymFHa9gg4a9UT2YRwQidJcYW50zGGrKZH/AM5/X6tAwwuZeShWv+ECM/wMdVRqVc8xw07LGY6wKZ0nMzqxMRuPP3RL+669oG8cfoteZxMFMm6/kxZKhQOk6HyEfTSy3TMiymnymMNgHdvaoIrQKHWUGIK075qXOAJdIDhEGH0RL0eWB2yEfC3i1Lbs8wuZXTLHnFdalHhrxCq16OKCJhrToO1hZbO7ooFsZZU6KQbEaPRlxK2AaanglHVAjApcw8NzeoOx1lmJpANgYw+pFtY4YOVrOxlyBvBwiUxR+G62MqU1K02PQlXinyomKqwYBuL7xZknulDdEexDffys3UDlr7zlb50MheLxGlA4sNFSpWhJa5UFl68/bBGIzLKjEjnndJLz0JUaUG1aPWpUfZT3phHfxi47zibIyLwSyUuglJpkHH5YwPsQI4E91giRe3CiBhorSvaXHqwT0utXrnR9Fa5H1niPYluty4uM63MG6wTdQnYt6ReNRqpLQfdzW9N3S8QUzl246EXTbS21N1jtDJWqqEPju3BiU3UW8C6h5gZl4GHKYpYyzpeVjpS74s3CBRUPUx34ZiMtsZ0biUG8i3coY2VoZrcZRSy00tXoEeqHYwrnbpQoQ2gibwl4pV3P2dKHBYnYYhqFkjhuZFhDwQdBws0KL9pW48c35IyOA0jhGJQKm5rWJxBiBxz/AJvXKYdIS6HX8c+Pf4Yw1P8A2Oh3Z5l1ejo4I9GJGBnTu6cwNasmx8THwQ8fLAV3H40MdPomZ27IjqXzACxY7kceQuxxG1bNmoQJWidmYWgH2KgZhepc+igRIQvrpiP0q3R3ZRDOrC6SO4ykEO0dArS9ahTLOfnMj5jLEEEwlMFsBbMQAoCogiMAACgiWVUJg4XW6I1QAysAnE3rj9tLgeki6BMs837ks5bHlu/tMkMiwseFjoZUIEqBlQgNRh0HQJNy4K6BfQgXlWizi4csa23kqA1tdQwHSLvQD7piXySuGQOMylVaimMRSSkg6JUpOyLuDAVKOGwOhxEkEq36kezgK+IwitB1xh0tsFM4xr7TGGVbNicmdFGltCsviSkbFANmCuyzj3lCU2LvJUMXfnzVwAhV22WupMA9iuiYT1v+m7o/RBoJvo5ZRKxtpxL02tcfmKJRKlZ1EX1gSlXdWM93ne3l11ytlFIw3r5IvLaIoQVmJSy2Okctwx3MbxIEKvq9yWrENt0yxFKXQgah/wCWYBjT1El4s50BUAE3VsypXd1sBMPBtCsnmDpx8rSFcUCS4gYNvpLznICxWcGUX00u6Aw9crGVIFHrXoRdEZDi81BIOwRZ94ufhyGmzkj9kopcscmLV7l6XHJw2RyMQ7a7uhrc/bjJdPq0xnMqYF1L4bli8P2Yw5WBoauNRuFwZ0zLvTrKfRWNKIw32hpV0m06pKQrdb97IK77+0xgjqaTszd9mj21CWR76bvpNQlO0e0qVK9PTStSJ+QQN6Yym4COWAMyz1mcegnoIaG/M/gQgBYkj5Ezio2dDDFQJUCCJDCHoRhhg1HbiGbviJGo4b8EZP5lRI7xJm5c+neM+lIBAAtBEhFirvxF7SkBuJAbGvfGkRLEpIMCznRABEyM/wDNRLABMMniP4BoBdkXYwiqggQazNXYN1Mdh1ehbEJkWA6jMIPcmB5gZ0Ep5MXo+g0rV9PtKm4nmfGjW+iaMdtlRbqoYtm3IujEqL+AwtH126n+N6CzDnaAgAYDRJ7R8e6hpIsWz3mFfHSR9xX3WYV1QW6YtkAl9cVCAL9O5BWkcU/Uaa4K4FQvQjLP7soPnfYmOYrA1mFYayEXI7vulOskG6YaO8N3JMR135JUdOZuaMsjmCz6KHHxnEcfclHRL8pGopOYx071Q+RHCaY2mZcQUsRE3KnewuEqcnsz0jH0cesh6C9D0UGtMIQY7y4W6ExPo/sQV/HdCVBoUQhDiCRCqXPhxMKK2iirNyz3lwosS3DLbzGtc2Xj6iROQpzibbQAJ1c7RQxL2JxraHnCHQ8X3yipuiRIkzqLE6+u4TfR0ud8N3XOjUK9FbRl6XmXL9adufzHehPpK0uOIi+MAIIdsYruH7Yqe9y2KR2gUv7EEQkxP820rWjzu1y/NG1sMuwjrmWd1b4jsgHaZmZxpe4yJ7J1WGit1l2UPWbuB5NWopYRoDYHJoJo6Bo6mgaO870B9JZHo/sgRrGivifly49pQW7vrcMaiTGib1ONGIRIzZw6dJaQ05lEycoPUzB9aHwfzH6B90MqEblSdPsQ0vfFAqy8ukoQrb30cU7qQaFso5uVqoVhUDUA5WBRJ1Jj2yEEXEdpYVfoZ/xIeomYQivpFakHwPuRX5fvlQ2qGAvMBW2DtiUmFQi+kY2DL0HA06heSAWlhdKRAyW6s7ZqdwIT8w45AoXel1Gybw2Ktu0xmdwDYuUrlSEzRt4jknJLIdP+Za20i7JLS6WJliRIxBzLxZK0SaRLZlCMARgoFtZZ7So63pvA+YQ4+Llx9LHJL1rQmfRcSU3vKBZwqvDGcreXV0TZ+SgR2Xth91iJXikww+E42e5AZI7AlEU6p+Kj6y7ElQxmFwPoXwQI/MPsIQ30YilLHhUdoXsJurUjootKopb2RL53CvHlj4Alrbs6kTBnui+0DmUijlRPV0O9lUv8EbspmbA7gv3SqQL269I/eTfZuUuSrz61iFs/UIOJqwMVVESJW13NMDdusZ7wbhGmgPuXEUnBuRcFUxLd7lzHWXFh6uLixmbIfYgvq19BAigprxAgzJ/7JhfxgQr9l+DRyqcaO28sZcdHRGHWpuhKszArQh+ZS0qG80lNhfRFfj95GN6EVn+qhDzgxSDWNy4MohYtSEGkFC76VKG5RvkhvWraI9faVWZESHPaKZQWvhCXJOzAXciHtLh46ykqEPLSArlJitqfEbD3WXSpAtbLCmm9Nx2ZWjTodHW5dBZS+2hX5lUAMRSzYQejNh0adOpGuBQXfRYHZRbuxu9HbU04hoQ0JUJX2v3J/I6wIMyzIGGEDHG1YHaAIxhuwpgkOz3kthUZwKkLrcRkW7BvarqKhVKSNYu6qLi7AIjicoTceA8JBlp7c2P5japourtWckMAUsHJTyQrDbNTcqwlgJ4epAJs9+j1ILQfYB9IkTOrH0/RG/Biiw2yV1KuUBb8IIVZNkYvGt/PCgWzGILC6UMdRUd3eIAgWq1CporQhD5iwK5cB1ojnchT1GtEac1hBmG8KWbabSitvxXY6l7aTdIjpiHEzPAu9DzdWjqrUMVUqdLhcvSpWlY1s0eHn8VCMW329WWaMIOlKmoOYFA2CGSVd1/uJVyO1vGh3P8ATcHQgI9RhvmFu2GGLUrHCsaVMuurrGQZ9m4sWbrKNikFaA7RfBCS1U91scsa99m4nRxPaGK143vWJcTIUTlOsG6u19nEIG6JzKMPzSph4FlcBGsase02sAGIYPHmFgANBRHo3CFtJgxUrVqkqpLlY0WRtwpz9kcVg/GgLfK3b8EAXO1gQ8akIHpcxjxHzL11b61MwOIUD1gcH/VgNefsSxB/KjsRJeZe840ZxN7iaMvQc1MaZqbMMzf0/Snf7Kplg2/PA3HW6gk7HYI8TYjq2jOREIosSmUiE7H3lnlCVe99ZVwoORZYQ02ovDLpioFVV4qFJZA8MUcn5Iznh9Vt4oSGLtll9dwvrxHXIguU7MXlIs13xGwdMSt5dHVzI1haR3XRjGAavs9Kgr7rz3gD5WPhm4c6kxszcoZZhGZ1WCz7xGwXtdNfMDghYmyQHXQ0JWJ11IQnO8VeB9yCvN96HBBUFypS57TrDJY9KZhPkmYKJRHYHZlaHXCxGszDUi4DxLAos59FR3GyzcY1sCduYIN3TNwGQ9rZZWEoVgu3D0uJTVXY94JhQhl1Pz7lJaKEKGnneXwaAKpB1GUgwxMG+6oLH9n2CBfHDNBW2OkDhv8AN5AjJy+2ipLNdQd4zbM0qhTvcaddI8QUk5uilcy11gYtxyrQPVCoyQ4I6QV+iwd86mlwj6jHQ32Vxv5auNPyhC6EeDsCX0kBd+GEihtd3YrB5pLzl05SPvuve4RETk/cZ2wP5kL6oZG6qpZgze26hSD6K9FSps+v4zED+iMdSO2hWhvoWvrDRIZHmfbBZBzgoGKIKImC1qGZi5iWB82Vj8kzIC0JvVl2Lp6kXNJBsw3eFZZdMY6z/NaPRW3OV8rGQ2dG8Rb1qBaxQ2Vta/ENQoIUwOyYJjl57mPBRONF58wOG1S5ckNV992x+Indd63Y4kZJVXClgoETQsOkuZcEaFR0amA54iooUoLb3CCbRB4qJLQcpsl1tAllYYkWih8wAmyZboRlQ+5+cy/kzlQgZmBnYirvxfxL8W4QynZEiN6HWEUuIKxlOjziF63mcEDExDbQQgQMRK3AfSbtOdO8gfJLOmt8mm8dGe+lWa38nVBllhuUoxBhgGwQ+s2UzDQACgmPuCJCxrpAW9OXESxvaPZhjg0ID3A2TZhOzbWAiRxFNPhDSt3o8kGq2CbGBeHcQE1H7plZNVGgK1h0E4GNHS4sIrMwlOG1ShE46d3eqslJK0PQQdPaVd8YqnVPyWEIbVEQFu7KYbG4A7ta+qF1Mqt0sWAf9ZQYwqzF/wCCl0pTZfUrEcwEsbGl210YJyTAL4lgHfz0SEvTaY7bxVPQ3gVrQhmVEiRjDwA02WXTKgDYIGowW1lqHRJtfEsTjzux4gCgTo+h618CyG0A6BUQKLEpHZGNwK9n4XDxDAEqNTAnBnEprpwUulN5SEfALh2Jt9KC9EqVJyUEyFTAMiJ46uYYgdolvpPR7EX29SqzExoaVV5TDjQ9iWbkDR8SG72ywQMPNkKorvIqYFUo2cL38YCFbTTUU2YQVSzstuj5hmITFxONLVDZNwg0fqyuzaY1KQvJpNlvctjrFMDFheL4ZZW+iVXYgv6eQWFwpoX0Dqxsy47hBUq6rpOlSm2AccyuxnBbWIIc2Eu9lQ8xmbLddYWNMNXhZQ6nIvOUIXSMGOMOjUIoI3snQwg5nB36kUtyoocFdSDzIqy8wUQ26grtDrgFpPeEUMELoL6xzI2FWNR7QLn9Zwhrv3+XMQMGYJcfovwwKzp9Iw6n82ht9kdals3iTEvTmB01M6dc6FVMAmY9tFfsvpgJcS3Q2E8Kfs6bGrOdca1KJZpRNvXxNoPoqcMbIyEppEmEwAHYnFEYstxCbiYkuAwnMq4GhOmhn/HAWdvxgqnQc7RZw1ES1B1cJXSYzSUcbKZ/MB2hmqYc8xFnnL/iuljYbJYzN3OGOtfe5SNBo19LjOzwrjDZNrOsVIx0wMtJrxMeQ94EjrfiQaw3qwWoBFsUhxm7xL/hKU7ianoWXiDqatgEdxLJlX2yvtC+ioNj13qbfp+MQjr9r1bkZzowP+ZRUIg7B5xCiXpHUAlmbKYnPP7jJBTsRZWHMdUVVTzcMMRNGTlJa9AdlpiGBRBwkbLttEjE4WUuvE8JIFe1oBo6ewlZ8TPxJYOA8WCHkVFF0LiD+Decjqi5d7CL8TeDjJUbkCCVUWs76dpU+JIIg0kzZ/47TDm1QVgxWI8AXalvfpDxiI4/pFp/bY9hREPboqNFZoixEY7moT4Yw7HSgj/TlvILnS3uu8cN1luhe0swLsJCh9W0rfxFeuhZc7zOuOODaXruiZyOswlfDmd+3hrimwdhH/HylbQGJgjUKuGQuXVclfhm7rY/qiUEYx1oZWNEL0YY0qVRDeoGgTbFRPGlq6U+ATG46Vc2NvqgRjL0Cd5irly0uUSyFSzRcuXLJbUs1d9KjLnMQO22moEA4ehAj6SEuXjQlhOXgodBUHQm4I1C2LaC+K3guBDfpeLlpjaDhatIH+NLKj9uYxgWy6w1K5V7jmOjgKqBD06xjHSh9tx5YEp482gaZiGrddoLhV1W6ISqlVTc8TfNm+qsv6b6noKEr6tiANiWPUdePSVOos9WCII2RmPQSWmhVF+mptGUOPsM7ifbjWroxj10XwrHOKXpPyx/lhWxOiH4ZYpl7Q7yPKy7YvP7Ipt/PzFeP2/lmArxhnaCL2Q95E3J7f1F9/69idT5v6lrmb8PzfvEX3YNGcrQ52h04BTBH7yrhDUKMg47mBp6x+lHraHMMXdLzg+Y0dh5qDrEXOQFFHEeMviE8lq+js1FdoYD4UCGu5LIT5rLyc/cRwnU/MqPoXwxntG6lDKqiVmO8SO+jOSdeIYuMIaW3qdES53s+kzpisdHZ14IEQ0dPeUytMmudKCHorMpNMy2XBuF+iyWXL7RvpLekFg/4M2bX9wSt4JCYRx6q+lQADXI37MQqCwG+dNeII+f0/xqtl5r6ipdLZj0BPzGK5X3gBj/AOWRTf8AEvuS2F+f1IxGXdUPcjLHZ5hRXr92VN4G/NXKmQb0q27Uv2Y20ej4lHWrAbSLbqgaWWwhajcOJclXbq5+0FzZJW1rT3jJ7b7pUuGNC0PaVobYXgXUJWwKZriQRlulM7R0jKlpJuhUQKPuz4YQDYbuGKwrAOS8hGOdIKg5mGkqKLPvLJV95RwJMfqV3EKnvHTvCShOpOqftjFv2bL3qmERRLsLvMxyFQAxvyxG0HRsSy4DcldGWfku91eipjRhmoXH/M3grQm2u+tRdN9Kx6eIlVpnQd5jW/RnTJCZVaUq4SPfNgUYhA5uXF/dQm72+mU2hZBguNaYKZZeVfpEIk7KfeaGcSqjF0y8w0eYbhMrN4bTmBieITJpKChn9H1JZ+yflxqMxoqEigMwLeImhDSLDtxueiITEvDDMqtKvRgwlM49HGmZ4h4l61C+stipoIAnlF0NamJWoETxA/QjBHabtGZu0nT1mAs468uZkPcSuCyCPAjvj1jYq04hAqwtJntHUsUZ3Xg8W3CBY68GSWNJzFUA4IxjHaUc02btjWNkc6Y0TEq77kzrpVTurLgAIdAojgARtYXeqlxWlO1Zj1/T4AVuA38wRoU4LdZmCBuOr26zD+BG+QX3ghww536ES+IQ6J+COZxl0W1kQcmFbQxRiAbMFvNh81A8K2lwIDwKqhQzOMI+1mPUhHYS8m1TGXWjvamOjc68KQTrqaqrbGcsLmSlrdGrhOwJcNXkSFcJfY4sqHySROjEFnP2EtWn/rmwEI0FzF0uwg/2lTGCyHtnDTy994F4UE8iVKEbscNpmfP3M+mpWgQcypdn5C308x020r0k3qVrUrWtNp7aMKYb6c+ghcwDAm8BTymxKsnZ2ijZ5hhKag3gZZ4mTdfs6UDrf5zBHXjSqzHaJL86VD1JF9MVnor8FwwL2A+FlmXLfKujOuyYH3meYlYr1qUVGtKlVoaU6VGEqVtK0rRNAga8QrRgSpQMolSjSz0m5oQeUd7JULrZ96gxaN2YKwSt+LPMrTwyDg8RwapyKOZXi5SR4bqiyhu4Qrh4M17wQQRJcTtEm8drrc9IjIgEcetspOouW6m1yggmBzutx2aKIQmheK27nH8E9ShIiLoxuOl6ceq9GVVxhOK7F09TQKssiuU6QgNAD1I7848OeGKXeGsPiC79xWIPEGwik5VVRehcpGK2hYAEOFMsTO8xJaFWNXbdcRCccbFO4vSVG2tFcJHHAgboRaho8e8PyrrEEygHrtkuDn5xVkSm0Iq2I4Dnvm4Cpsv1Y6XAT2U9FaVr2uT8QNnn/QNNtVqFtHaVWtmgOmNVlTGlFjpxGBiHoPRcJSbsN4NROdzGoRmZggnJtp0dYPtBGLr1zqxnGhehMQxPaEe254wfflaQX20uZJYM5jVM7Zf1EM4deJW+lTFabwz6CY0qEZnWpRGVWqSn0Eq5t6qhCA38H4JBUcA+MaHmKpgibjaUaRJZRe20J2Ukco+TIy0aC3ZSnn8QtQNytUQou4DanbymBc79Z0zN3ma7MXX0jkzc/wDNNGH8kWgycbC4raDVxq3vyxr/ANVSDiNFBSlBhW98pWieoB94MsnwfS4IgiIljGIuwWsD2egIw5SpPLaBLYq1RejKY5zFNu6/ZhIpBGbNMpGXDM37MUutCZdN08Rz67jB0NQEdxgFAAelhvN8tmUsywIroxKqEWDF91hAKGx2mycAe0v2mTHQyaca9p/sSvvr9UYt106CmGJeHZuw0kuMrQyt109uYwtle0+iMvM2lUX3YO3KEjokfSsJsmjdqZsh9Y0zrxBKFnSU2MqLURcJTtUqASmsXIa1LDR3CNkdXxF8wghqONercfhrTJnJm6MYzMbj3mKxoxuBVw0LnLMp6DPwfWVBjHfGKq8PtokqrzosQXm3405050qVPP8Ahx6d9Hb0OpAuVEhCsxDMrMq4Er1Ez8uJ8H5oMNAYoLfrFj7TickzAo7wYGz9ZgN3XAxIyzm+HtA8GIorwyMra4BVrlWbpmVF1WzXWd+QLcuq2yIDlYPEwlaA+BLBb3mrSukllXe3+6Lq8PbAAAAAOgTegF5KjA5nyAVRCiB+BAa3u897JdIfbio1DN2AnvC1iq3DAMCgZeVys3Er2BaveCoNn0aVx0ZcqiGsC0LhkMoqvJxBJSqsss3QxGaU0biS01ZfSVL2UqSq2EWhVoN2IlO4vZrk6Q24KR04gQAIOClTtcrwj3Q1qHEbCuFBpv0Y9GQFWB616Kn7p5035V0NNetjryx0NKK3HIgUp2lU7G05iBqKwj1lU7uCFO7SzN1bgBVI5U2erKcHep26MriIhvrGAm6O4eCUzCVegXyEWFMzmvLNkyCbQtTdBAviEItfY3WA9NYNHtWbLa5swgaA9aIFWhWVdcy8wGbSkLq+WKhYgjHPiq01aqhTccETbRCGfwx7bb46mXGL0f0ucaOIFctqOQugJXKgTlreFrWrqtmklVhW28va053g7zMNA9gH16fRY5aMZW0Yyu8rS6IbQ20xOZzpiXtM+j+yShb2b4hAQ6BNhjpxp0Gz/EXR9LpjR0XvKaDuEr1lnWDCoakdKdTRhDTmczl0NCEphKe7X5aid+L9XQhohSRW0xQaIlzZwS4aH7jKYoqJIBME3c7wyO8t4GOwYqZGNXVnWOCRxo5ISqCNnqIRDiS+i4wo6tACwoL4IdUdBip008sO0lE7qG9R64hTre5Mggwm1+41AwTYVzwWV6oh3vV/uBCiOEqkSs4dCG1BHiLTu2pWaJPOQaOrLLxtLzkYgqteUOyuVxWQtw4kT90ruWMTzhVab2gBUAHggZlvTW+2YxdTU4mNoVR2wRr3gUfw4r7xS6oJeLV2S5Dapw05WAL9psohcYJSKE7xjrVEpJesKb7wMxCjL3ZeARabw86OoTkJn96Sv8L32vkE95fyTiMdxyNEjjabd+UrCGp2sbpnzTPmyOzqCxruuY+q6QxegSZRlqoxYvKtg5nJCP7koW4oQX7EQPaKdFM0g7K4orBcqdWdoEAe23Icp4i+oquqy/q9mxTpLtWsTuyLBsQvYqZ51JtR2YLCGm+xYwOWY0uEJ1CR8kJkFCD85E1Goxxv1Y3t9pulIrEzr2VFh3CfRlWtkNwXNEz0BtV2CjMpwOwNUEAFHW4LmBcry3WWMCepDzr8EJQ9SyDb8fyEd4MUeIq77wa+g6W+FoUesdMdJUZmXF9JptzN7lySLPH2wxDj6DJ9dqymIE12oS/ANtUXvTzAb9DB/wBk/wDHQXb40T/WgGfkl5u8Cwmz4I5YfYmFf5m6oPODxfAT+e/TQ53v1lW33Q4F8wSZ/wBnQb9+0ftOEveiB7xA/wAoYc5exCE/8RHg+JOn8JH/AM+f0Ef+oT/2yf8Aqk/9Mh/3iHLFmj1bhBNkGVi91KwXuuVeX2tCb+PDLnEsgrzG+87ZfZ0IQYMGETBhFIQJHnTYjnPSWKZjRl5i4mY6yPSyovoagu2JxQ6ggtX7JBGF9kQpiHuB2SfZcMds87+Li+PvD722pkRuyMWY1CrlD6lLUtdY/Ghp6EjEiucyCKpiVgeDt0ihUw5PgTEM47H96jYAhmtBUsCtzKMS2X2fuf2H5iVarSgfeFDQgRbT7xH3kGrNtZldhS8WvBmHkwNSkY68WBbryBiEU6kjTFXN0tHvslM3sgLdVKASClJZt7QLalW9yLBz/Rzcfbt9p/5rKP8ApLPbysCoABGxLGVK1zqfdp+iPXZE+2oJxCqcsxpxpiY2qZazBT4/6qhVXgBQTl0cLOT2fMVk4tbxVS4ACTJmZa9RQqFJaVYLHyShNQADUfSW2LogamSjkUqpuc7TJFZtDYbqN1aaAQh7ZWJdyw4+jKa4Jl0Ww2UEJS0ZdiGUhTe0WPwzZfNSm1Au2qcsK2bQO8vtauoHJCCg5qhfMfhWXfqJKd2B2nWXUZvtWG9DYkNv63ArqMufeKOFxU+ofoEYjd34gARyXDQMFsbfaaL3vyY4xjMSjVl3KhaQMkNDtG8Vo7RfLK+MfuCtxT8tTOXtHOZ1m8BARQnWPAsgi+j3RfaZO1feW8fuR4Z07zC3X3JzPygHDzb/AIUwwvBpRemKl6OuGdI7xvJNwX2RRz8SK/rn/iz/AM+HFAf8jP8Ayso/Vn/hZ/5Wf+Fn/hY/8XFsMjvIdIeFAPXiqF3RtpbtveRmL4JUgK6BN8T7oltSQuzeoAAbBR6rg0+hXfQF0LFlxXF21SBsSvaSGyL2Tdm9kocfAhsAIxliW3URe/tzdy8KTMKdYOEU6KwH3ULd1IaIPsPb+dAVq1+5Ac3mQevyoF+1gG0jZfFgO3wZXt8KdH4E/wDBR/4iPJ8KdX4EBo+mQLYvaVOIpuWXdjyJvv0Utpru88KVA74jf/J/XT2BQQeYJWqhrNLj7EAAoqg9OZei8HztAB6cStOGYniXWrD0baVfrJcsqXOZmbmt6CXKZbYRUYism0FzH8EIRRw/yxBSf2xFfn6m4lPqrTOGUJCVcMarppQ70Qr/AJ5MVsq9WD1oZ1qVS3pLly9XQNalao5QFXsR82Hnk6ypsKWdHStL9FznQqptLi+h2JcuGtznMIRld5oT4s1IS5cuDCLly0GZ51Fiy98RZcBtXuW+R9DDKf5cwdDXjS5WPRXoY+p0oD1FS8f06FhtCNerLrjMx0810c0BJF1ceZxW72/lNpnSioDJCp1Yi9lHhm+mNAmJcqIjKQK8eZnHfqoc0DndSSlYVp40dAllOJbUqFQuVUzoGWg7Nk+8AJgCFQYXKKHC/JHN/S/iMw8H7aWVHW+umbjKIUwalXpzpUYVJ2YBvOP2Za/4InLOSMAi1cw53o+WYErN8lzESQFUF31UIZPd1Rs+I4dYGjoyyIRsLYEASksZelRcQRZbLCnlNrZ0rfcpDmh8koLdR8QEMkZRNtOuNN2VWpqQjK9Pvoa1LsvruelcvWyXL0uDL0WMdUrGUNe5o0NXEtjqC8Md/U+vGjoaHrQoC2ECbsuoypWh6eJ30uPosPhE9iOjpUZ3gxFfXTNO4aDXyxpFPrhHq8sMRsrZ3uLQDyVp1IBQBEyO0N0oQaFYzJaDFzpHAAlwQtcKdexABIEB3LhvzWtpVxzvf8rnPmatUlCLFF8whVArfpEFH7GzXR2Z2VG2M1LvMondjNmvLqckeRyGlQqHBhsBRpZ6AN8VswyCRl8IFNbYPQfEB2S+Sp0l9UAgbgIgZi4EMRMkIdJlCZF52nzRKwaCQZX3C+SEPA/Mdi+DXtL0yGNDMd5jBKqNmh6KjlRPvpc/hiogPUIw0Y3E17jD2ovgiFKu6bwYq7lvm4rNWlRmKeV77CV3qDXBKe0AwlfMZoJqq7qvgLgajkC7ls0Vt2jTKqktjVSyNHs0/J0CpjJ7kaAz9qXN2u+twqF6867ereVrcfSQuGly814D9PTNbhrcuEXLly9HQX+33V/GiMtIJ4Bl02YWYpnEdDaB30Tqxcwdh67MKfjVtYbgxVTcqjfiQ+obgxBzTXBGnJIOlaXsmcajzAKLRYyrhVb5BKfiMkTY94PfY31Bxq3rn/U0t7p9Imb9XEpuFY6ULhJQUosSOWh1EZy8Q+BlS4lsCvZMSMkxpbGIfQHQKlORHPgsHET0E9KI+trKlNICu9a4WVAEd8WXXt5ZVFhKGL8444Qogb7Ah51Kc0T8wfItKgC3PRnSytPeongCit2uVCDaqx2uBKgBU9JhecPlnNy1ubyxJ3i/gmbd18kfc8HaeYtaN35Ljko3VoihpuLJcugsXIvcDAKWElfa/B14zoQWUe7D0GvplNaFNQejO6S/Fzc9o1em/wBphFnVuJCo6M240WXieZ4hphDR3THwsw7Kf2ia2z9BTMNcRzohgi7zafN8NwBQA0GXCWW4xD0BAscQmHgz4blJV8urAG5bTuXCwjph2gvsjlsjHQh1TaMsawfFuGMaWGihxZKFtURWKoCGhoc6GtPpvXGg5jDzpzfpFr0PsGo+oly5cJeiy5cuXLmC9ftRzMU0pVW2ZljotTLarzaxXUVUMgu6VjL+ztKbcA+8cPnq3DNEIaFRatbsHupTah1tizUihuJWC7RVyq2gtoIfLC0KAxP6T4hbCBiUZadUDa2BRAdxdBTq+FV2DBFMGlVwqv8A1kdL1YTn0uvFac6GaJQcbK+Sh1uXPfUqW6gYVUucy3ru0Bp6k40wYixAIgjuRd/sMNCBgAoJueU1FvSN0o7vKxVcW6CStYbq5XllGMgjV8ESBAPEJpUnAce90wy1OQF2a4YBrRKbdAjqhfxIpR+hx+BAW2VpvXBEcBU4DdZSIBuVXmECMm+A8Qq8JW9MeQreHLdHeBXnSsY8bRXJQK2ItfFeAK2ZZ9RUc/a58GyFNTBtn6RpR6AohLv8txtNCFkrPRfgS8h4X8wxWzEsNLmbiyusZiPbTJGY0WXmKoP3CYr0gmictflqztGp71p+Se8sl6MuXTq1H0p6Dr6Legp1xX+Beub0DTLsnpmZnQl6Zgy5cuXDR1w/Z/HG0QRlAUavEW4WMXtMBx9wmHSoZI9gUaXaVaQxlgOdVVCIlpPyTPm6ErEVJVoz7VC3FAOEd42ARRbfs05mYjoVEh/utosUVFVGdl/aPoI7el/xLslDbCeedDHR9CtOb+JxMa2abM50SZjrefXjS2Ibkj6ERcrdw/JNsJVmni2IWG4WTs64A0LLgW2ajSB4JV1DKolybq26XONNrxLgw2xxDaTaHiWxo+/2kx5QKF8PszCJme2iSo+hsgzKVjMIEuVFJV7EPufdDvtL+hBiaMue6aVcwZQRlFyQzGf7DkWCxkQGxLi+jGtR2i4u4mMiijdJAJZDTfStcQ9JCJGca041xDQ2/wCKEz6D1hXN6t+m9Lsbo/aGTun5T0Zjo3LZenWOly9H0Zj6XU0vaYlaY9OxLzbmvdWlaVCtfEpXaO/GbI7Q0r1ZnvGJ6NvVniOgaY0vWjMNgCXoegshBub/AHjaeNLIb4irvR3tx0RoG+Ned9M6PmMbYXvr0lxHTcYmFcIIKy/kjW02f6k4houhd9b4lXLTKVZaDyHa0coBx3JZBGWEgjxgNClKI29x95th1e2UwkHEwtZYN7RgF3eZANB2IIYcMbR54uGxgC2JanZDDlyMwkfPsa5N54+rczdZrTaGtaNQ0xK9FYgRhrvpUvTE+v2UP9K0dMy/R7PPuw0KTTKX2lnU0Y1QO8bClxcUZu9hY+U4IuFC+GO/kalblHtH0ioLSvaMSVGDK9VZdM9tKlenMrW3TpK0qVq1DR0N4nNTHudL0vRmYEFMN8L6GLdOEsm3+eJzCtedMa1ZyVoaVMu2lErR39JW2hCVgIdyC3ONBiru/eSqiOw9PpiIxjrmbRczFR3jCqhviYwzxrzKWmIcViQR/iMV5Of10XtOY3Pedpn9yZiCUhUZmDIFXqZb5vrImEVyOZ94Ban2MVmOxaZ+1RpooDKNY1Fm0XY4cEZikz2LITY7TZQdpvQJTebyhXgJXcupSTWh7wQGzeW4hPLfyqGFgAe0w/ZefP8AoYaVCPo9tbrSpToRPmL0x/ma36CKbvZ8UfmAANgqHnpihaOtEtbLXXCAxOSlXXesaPH5/VKOrRUHruXB5YXgLKYV5K7yaCgo2qN56aPFM86RhMA2OXy5idClCKX1htoTCHQZaFyxirTuJEErxULiIMDGg0sT5ZbB6H1JN5Wr6LI5t+H71vR0YQ5iKspruQettqhm8X+m0ObefxSnf39d9e3aD/If1l+f6fMQ5EQ97zNmrhpHIc+SA+y1aNU2AfLU+ksINmG41Co1HStCZmxphr0cTeAIAN1mPJ7YB+6JwC3d7Q/h+uKuBmB5JtdASOHaMLl4iL3ZT8qWTl4F8MpUY1HRiKypvK6zN3KrQurm5MaFuYN+m/MfYYlXQD5WBK0usRKj0+CQMErStWrl9pcrnTmNKwo2XxBQEFPcYNqrYpZtnvQEH+KqbaDbfF1BsghAOnNFFYItowv0X6t2JAhoRhK1BM+krptD5H0E31xpmY9J6SbjlnzfgaMpyFRzujHRXayvFI35FEWDGxB2lDkrqyy9rn8NvaHDVKFXUbFTTdugMtawDCx1gxQF0UhF2Y96LV32HtEBg+FU3BfQ9bp1+GmVOhnk3vrGzi6TRA5pTA74kAxwiBaTqS+PmJLSkP60r7i3RnHPHelqYfp+NX669NnpIFNlX7MSWwB6joRPQRYa2xWWxZfo2FHXi4hEOEub+vJZhvpn2m1PwUP3CtKDVDbMOVeX+YcyEeZTNOB40SK7+2RDj3swCq3IUw/5iWbQMPoyc1fLHnfmP2NTffCUpKEjYn7D8wH2tQqZpnYCH/KTgnHMHypsXvqgoS2MD00VZtfOIPdGeVGox063o1FHmX2lF7RYTppxrmKvfFiVqrf/AARb7J+j30ADUjaJcHAuC1rLBOsdHbXjaYl7yyXLnGm0tgXxWrBJvsysqYhumV6aPRWdptBu5WrqRlektLKnzT8Sv/gxMeh8ws/p2PV2ZQMbaWaJorxfYWl9NGe0L2ZKRi7fstCrIZgqBdV0hUY2GHsJncAG4CjLYd4AJZHI4SKQIqha8REt3IceDAbPlgm7fEq13fRWne9ePTUunYD7ol+1G5trCPoIbxHQ76PGnOrMurzXb6ZWlstiaGN5g+5b5dGA5IQg8Xv+ErYHyXF9/hzNCv8A1Yf87KdvixCgnwgIcHNaXoPa5xq+dcy9dwywtt4O8wbZqWi7LJeDe5qyp5dPMdHQlxzo1vA6yiJte7HR9/tZBS+PwTMMS4JA6RX1VviMXEyn3eliCUBjnE2ue0M2LouM+NSyCWQLp3hvHZ1Yo1Fr84uxIBeh7NE3oLXsQSG55UswkQyhVR63u5FCMvhLzdp31juwWRCXBeHSoTP+Jdx20ahAZn1oq/i8X/4a7+imCEPeyoy+BbTRdWwgqNGl0KS6zKvu63LNay2xeUR2JuEUCmx1p0b67Vl01FIpW60jlQAq00x70Y1QedKzI0zMa2YDtmqbaAbyWAGCVT+ICgXdA3NpY0iPKek2Fp4mI3tjhW4a1/keoBW/7n49ZptpzL9FaXrue5F9BGDNmIDOPsx9GFcv0RhLa9GODWzYa0xoaYjrZ6rAXxlwrLM/ATb9kTMyxuU26M66VvF306RiXCcxjqMVLp8Izfr9hHaYqMK0S90v10uJBYxczEia9VOaWl4uBQFYqVsTFsQjcMNABNzQKEEdxzK/D2hRBrEKRyIwuqUpcdTUhaunaXDe4j7y5cPTmBEhpxKhN9L9POu5cMfU9TMaVCV/m0YwC9iK0s1GxMBtoYibJct5iobHZj6vTi5vMwmYAtRYRUGc5JRb5u0BF1z+W8UIwNt5K2HT3HOAJb3H0OmNKnOPXfzLhUD3DfhhMLAN9nS9Aj6b9N61phtlv3vLjL1/vdI7av8Az1eYEQU/6EEt3HyTGmDXONGpjSu8K120YJMXF0J9hN0Nvwy61cYkYaZl3GcaNwnSoOnTQnCKw7H3heJtl7uIzbXYise/WlFtxeLZcpnEYaEZXouZnOlDCXVAvLRVsvpOfUQqo1p7ajqf4Wz91Ko+rb/A9eG+j7LqcJivfOm4c1kBxGUXM54EaW9CQALV2AnccgCXURpIpppxrgmQiRB/8ZTuR3eeuw7gZXB1W4chooTmD6GKEWGtaXehcA2dqEPc2/CX6y9LNa0DS8R03nj1Wrqlhoen2477T3lTiILofgkfuqezMenMYvovS5cvQlyy4sxN+Im9Z1mX9GI1zMSyWz31XHEbnNSuZzobdZ1zpvCOy7fdLmFSZZDWsSgnfNpggtrI/tLPOyfEuMVbzbEZsyvRvKjMWMxcYdBLAtllFem/StkHHpIX6jWiG7j9I7vrJxK9NanoGrrYvgXqs34YvAPhPp2H2RhWbgEe7IsD0uRyMciXeRVIKxiNzY5KSGIqru5lMeKt035RTpfu4cgq3BdsVFCVdC11mRNLdTw2ESyrSDudZTMrEr+tLlbvujkGjidsZgKUMvC5FtGrM8jqrBzLZaznTFzEZZ6jVAOq1GasLT0gn2+BVOn+Rruepr+n3a9FFaK+gWdFD7WjVzmDEAMmPclieV7JGEzOWZlZ/wAbJcYbaXtqd9iz5MQ4b2iYCaVFqCTfSnRrhhNpVVoEouXLb3Et7H3TeaBVDHM3mb0+VGlXEdzwWwmblEt3a0bguciQ72yy/Mcwyp0gzJJAASu+Z7yto4HpOdBdkuMycwS0h23rLMLAuO8OTSrb4uiDZ7ZTiJHoZcDOJU2150xGBpzoai3K9RoCXpG9M6n+h3HMYCdRcNKvP8STFt4/2QfB+f1EAz3SUnupfsz7BB9yCfspDfiBlRRCZiQB0s0qVofVqDqCmWV3XPa2UjkpKg3aNiN53zRa2DVNFpiWS8ylI9gPLU2z+Qimfgs31ewh9AsfcmadEVfsQR3Qh91sKntgfuqNZWsVi/BLJiv8syvRXOoOPMLuk+z0rTabO0s/pXDRdAStHQUhVsB+D6XXrOdMxITExMTMzL2uOv0EIDuxnyZnAel6Mp3ZmefRipV6N1B0qYmzjcnI6QtvDVBxpROYxg0W8JzFEK7pHGzFwS/8Ma5veWVtpjbuy6utkgTQGgqxUdsf8wmxDr6AmLjUq9N5zAnf07+oJUU3TY9NTQuEf9H01DEBO5PqNQtL9sr7Sxrxn+bn5qR/bn0SCcv3flZiQncIQnF5RaUZPlM2r9FX3CbR3Vn72YjwP4Aj8e0n7Mu/ajwp3jwfKg+5eZ8BPJ/iZc92n3iZcTffZv7ILm+P0x41+FH7BB+Y2joFr8KfJ9+yoFj2a+6xT4dr7CH2+X+SBPun5Zd+Kh919yfeFL7w7+6H34gkKqjbXn1GpKxM+059PXTmGEnVxH5SGVK1s/y3AVR0nvHXrC9TFvn+mDYNxmIeYcx02demt695cJUvaXPoorcXKU9rGMdK03ZmXOxDrU2IY9G8+zHt9IzTwnKOSVob6te4wheam0PghRpXxEP3iG8HzDi3kZwA9j9w4XFpsQHs0bqYb7wD/so3L7Mp39oijeBNhfP6n/tP6ge/zP6jy/O/UA2cH4Uk5Y+xDJekEgyicfV4kGzeyPD8UW7l7E/8FB38WJ3PzJMiuQ6WB0kBdoCbfQQcuASin9OdeZunsFm6P4FDGPEc3DzppB8ilxPqts5uP/0YYsUupehcaLl6LZmJe5c3qO7S+BXBdAzdF5M3L48V3+Got+Bh6KAdvcVm2+9afSIMoNgNL0CVLqOlThD/AAv01o+nmMzri9HcCOnMuOy/tg20YahzP20d/dL8TebMNK066mptLlsp02huTEJ9FKPei7a53jcZxjHRe0zCmOnWOdp0qYuXmtcziBS1xNvxGCRTRFQ3rSllcMas2z4MMQA7AQM2EwTvAxoVKNMQnEo9GLi3BFLtfIRTf4kX/VnX+HFf15/4CdD4MNt8GBbfHm3fx5b+jLt4juvhxc//AEWf+oxTjBY3yU2HxDIeP5iHU+RO58EAecffI5jT3c/eb17JX2j9pUXAliV1cZitDQ/+B130YkzKZUphBpWvPoSU+glLK0qVA1SiBWu039G2nTXj0G/pqV6CdTivjrYF0MvnKAuCSr0JcT+NGGHrT2dO/p30pnGufU6/RaQpXnTlI9CE4jvvqxI7TgIBMXpfiLCd/iZrwQ2vaNnyw0NN5WZtUdDOrpxDSvVi9tD1XMzrONefQa3Ll+i9edH/AOirlDUTQRUp0ZepKhAZjrmZcHlqfUOluPsWib+CD/mQLt9eD/kpD/mJ0ZHRhJbyG77NolpV/GwSX5YpNxcifjGg+48NyrlYlaYhm/Rcxrxo2igbwDJ11BNzPzobW0jCvfFiIxzAiMFntgdErSpRKzKlW/24rHo/sQJ4hoGnSWaLPOltR8ypTnTOuIb8cRImbrKvjjU7zPTSitNniUw51NLjDetHx6RV4z7R5hD3GbmnMY6iUQNeIRdFzL1rVZTLmJvBs9Aep0uGlkuXDOvmc6X6OdEtx8yrf4E/8nP/ACcOH4EOFveD/pUwa8RiTapzGM2jKiY2n19iT6ST8Efpvo35qX+ov+kfrz+PEDc9nf7m4x6V/aofUvJLTa28qzYPgn/j5b+tFyKQX/Yztvlg+fyQLPyFmS/p5/4+LbyKzR+1nQviS+Dw4jZPs/U/TqOYL2/TOCfc/mG8vl592lfmHZewh4T9oq0Em39M3xH2k3n9naP0RfpHF/iY0uJvPf8AaXyDnaHK3uQ/5iHcyCr/ACi0simVAbutOsyPsgGno40Zs6F6t+hGNf495v6DLGXiYhp9JDdN8EHH3n0j99GY3FJmEfE94nRicaPoety8af2n2mOlKhc3nvr10PRWjtpUZfrKXQr0XU+s8I6g/MY7CHgE2NXdM/Df9s/VkD/RP0Q+0ZFt/mZh/K/udL5X9yjadO0OnLZy+n6lrvjw/V/ydt9It4/B+oLvNxFyPlZZu/u/ubVn3y/c+6cCfMHMnv6EQs5fMW2H3n4gj7LHKPvz9x+8qjuL5Y/UwflBzeQfhUp5+Z+GO7bxD9iw/E+xK34my9lX5id3zTuSPMgaq83H/m4Xf225w/Qgez8P1y3b4XFPolSP2f5t/V/7RwfMBIOxHQo/Ysm5cn2xe6UzAvawSjewQhv8GI7+/DZHLcfZDNy9oUf4/wCI8D0YE+WDxPD1Zv8A5f7n/m/3DpfH+5dx8f7ne0sf+00cIgPz99Lf9v1zu4ukRFUR6z4UNsLwfywf1ikDm9/1IqxX/swf9iP/AH46swD8oficg9v+Yc3x5f8Asg5/4eYLxfx1grSPt/cTx+VBuR5jwfeBPuqJ94Ffg1hOdDfSIgKqpROYEqYn8FySruSZZtpjTiFpmZm5ow29WOkcTjTPxMpTrSAYc2TP+W8TVlRzptURYzPHSca1opveJ/bxGk8PpisywgSvErE5l0w3Ya06l7ejfQhpQIt94lYRtZSB6YOZeB3wR+NVTgP4/bAuM9AH2Ib3WLWc18mH43tc2IvBUpljBjqab6b+k9N61C4eu4whsQtL9laso6QbLeSEvvRiXPt0ieB4D8x45H/opdl2LID2DwSj1UYooXIRdEyo3c/TIShmzmDfYN+7D8CEK8wDkWDfZD8QG7+YCmUcpEeBA/sYf9tn8TD/AJM/8WcUzOW/6aePT6Du50uA4HfyJrtpdpAH72bb8NlbV8BNiPgJR0iGlEqIeDFd37GK7p5k57gJgO6+FN29qkfweAi7s+IcEPEN2XuvxC/s+jHN9nH9iV4Bwj91FoCrJXR4hCV6C+19iU/v3j6MBMN5l6Na1j0G850U0IflR/AQ2hFHR+6Wjo6EZUrLL0uO8vipi5vCzmb0z8n4l2cfHlIDB5hMLo26bacw3l1Wh6gqbzxoQ3ZZMeioVj0GmNbNDXfTeVz/AIUVHb0HpvX3hMaHoYS4ujLnOlaC1TUFqoaXh/JArV1uXo49Brel+h0v050NL3jFhCvExNpWhe86egmPQ+g0Yc6V0ZW/U/dOsD/CDp0labyu0cQjvCOl1GFyokZtzN9Cew6BWrzcH/2j51dN5xLlkXOu6RlEqHib1x2ndjTXo30Ex6DTpp4jGDpzLb9WViUCFzORMFB1dNw3PZ9BbrUsl+og6L6MzF+k0NcR9RrXofQ6vprTMU2REwqNFKrjiXLC5YEcZbuDa6wqr9CZYAl0kZJcGY9GfQR1dA0r0Y9BrxqwgR0q+z0VqTrpUQ4SVoBcyfQ50YGIPUE+Sor3RaNmiSk0csWhauFoMuUSmNBC0gNMwZVs4hdT5SlVHeNprpGMBj6E1c3PaFXpTUzUenoj9RHhQV/Zibw7Qx6AgSokK2mJQ6uSoENKhq6Db/BvKkqKPEKeojozg1YXoekhK0K150NtDr6CoMYOpXpL0JzCta1qXpTpT09DUPQxphoDNsX+BgGdF7doeUDsxvx2R0laVqeqpxUYa4jK0qPr51S4U1Zs0rQR2l+pgxKt1504uErS7C8vaJbI3NoEi89oKfdksiSpWtAU5zbMVM3tMrpxcNOHXBC9Kn0zMPdK/CP2n9iLpUzKzcu4h10YDRCr0xU3CZdGyFvmff8A301Ken2IGiks6kXgka5gLPOmJiOlTe/Q7ypnQYhBOKlIkNeIzC1mRcuWQlkvRl1O6TN+WBHde/C5okV5XVDDiSXMPpPQf6loIiF3jZzAtg2DGKOV7Cc4+5+CO1vmguzKjaTgHwRDYyI6zhLqCXXgZ3sY9CF5TJ26/jqTq/ckWLfO33yl+EgFV1KGGQPBW/eFEbn5UdlWLDsu0IXd4aFkBijxn3CU9vUvs0xemx/jUr/e9d9WbIc6gaPooleivQmptQUiWIwtptF32SCq/wAGxewzEYdC4V2lFzfWquOmepC/MqezTOhWI6dI6H4GYPynPxLI3t+JodpnhjG+IvWGJzMx3Z43J7RYYjtBqOTS5t/VwKKubfBE0BFY883QLMWc/wDOsa2q/D+4muI8iNPtDlTTz7aXlXvfsw3l8cK4D5PuToeOSPxK6y8xx08iTB+eDzI7/PN2fxbPs4cHsKOcviX1LtrI+xOX/LDhfu/LDGPNDHZPsH2To2XInE3Ubt18L8w674/aA0z7v3Con5H8CHI8LmA9/wBIxb7NX1IrKv2NKjtodH8DBxsWVQLeTbkSvAytpmkzKxGeujsmp67v1XoB7P2WW9h6L1v/AAv1OIueCfWyabn7VftNxJ4P8yqXx/395sHjr83L910NMB0Nu4lxgneP3iP8Q/A337nEPgMXVl8pyx9v7jHPnKcCPJ/ibb71JvU8QCtCdTOvEr/OvSXKekaN4KnmiSsWMCs+0WcSfCfibV4i/NQO49j9x/Xk/KT9R+ZX9Jdv+5Fm39HedD5n7ne/Z/co3PxBz+xB/TPpA/tF+pRt5R9iIfcQxm5eVOHHkJsH00AYgMMbVNsmCZqNsP2lQ4N3lerCczb0Ua5rTM636L0HY8hnR3D0Ytfw3mKe0V9j8YxlvoLqDdxCVK5mIRuO8am20dx/tdZ9VOjsTE3irKg/QrsdIMti+ipXbS0ssEqfqEzb7AJ+EERbnK7b5cOty4a+ZbN74s2P48+n4CABsGmMabypZe06k9tDfS5mGYaYmJWgM/vCLVUEdLniGntHV9GPVX1H0JdsfrW9A6Zv/Yl6MY/4fQfGfg2im8Tvg8Im2eJH6I5fuTj7ykV0x8vtY7p8Uyrie8t2X8UMIz3fcRjXgF+9Tdztv6seIbph95hh9QVjFfC/aEbSaeETh9QgGDkG0hKTcUF2bMU3+n+orcgjdkU/hL/M/jH5YfdfhN89kn5kU2f7s5l+M+n0CBsASpR0netWEa0q9ES0s+RN3Htm7ewR59pYhLbBv7xZvIPCh0nv/GW+8qdYm4k71PuXPyIbrzg/FT8mn7j9u7hePHM/B4wbc/Lg/I8y4w82TYPiEo7XhoPufcZY7N6VzpW0K0nJxfJEWsSMdq7TqOUN5YYeD9o7R0pu6mYrGuujziEN9UlQaEmEhz3GPlfeAv5n4kqEcEJuwyfNT9xZ0nvBl+hTxs1Ywlkik3c+IkF8JbcMFQwGxacyzQa0ItE3qKmGYw18atadPTv/AICLELuT9kIehrWoem4af190w/vw9aUwbgURd2QWjA9n1v8AgXjuFdMdvSeg9dzppUQmQZ9dEsWt+d9kUu73H7oIROjLF5EuwX4iau/HgTedYmniG5o6s6lHozpc6wKvR0t0v0X6a9WNPeVxKzKKxMxit4NLuIFSvJNz+PN/+MTjh4WK4vCi/RGTSfJEsknBXw/MPvdA2PnB+SKcg8H4ZV2CZGRFfxXCmVhmHljL8pg266m9R8zLpXCUXGOiiGn7gmcw23hyT6h94fdOq4JlgYjrphjJ76Jm140IabVMQqWes+0w0PQvpL81amMlVjYMEcGs0thHaG8JvpN5hAbYLWMs43K/4DzUyFVtVqxDgauVeiJ20OSVLjMMZsirApEhADdYWANjH0MI+m5Nq+hxNH0WaY9NXpsQSFt6fllnVfZekiWVLnipRa98QG+bzb+RQzARXQO56XExqegOs081iWNuvlFsf8uP9+JhG1n3WqtCO62s34njRJitM+o0qcy6mL9HGmdMaYmAnXUWhagVp7zzG9GXCM39JFmZzAr/AM8S3uQNPrZcPh9Ct8XUqoNkrV7GIgkreGik50cs3Opm+8WHmKqK02ip+n2J3WPsS5zKjoXoaCQ0ZA2n0EeEonY3YKZ7CH6Pjcu4dIJoI7QxT1VYfb3IHJ1Tb5N68Qp3GV+U4I7EPGS47qxmru5ddBBANnu70YdZ0idelRMub/7GH6zMkSY7Rpva4goO0b0tATPqo6VxJ94DSLCyCbYXvbysyQvU40NaXeMo1bor9pIXVA/OvMqX6LP8KLkr5v8AKeRvzJ6RnSO9EkCe3r35m/GFXftFAtcBO2mmTpzGyjdeAl2G8qVbdyJTJRuiTEqKDfFgEzK1LVlwUB8FQo3YBryvJEkJ0NSc9SWGidXLs0IzzSDbcvh0r/CnQfRWudLzpzqbJx976qY5VPnJ9ojlgPsuc7+nD6OdcBheld5XoqJKleli6uvmXW7N9Bl6q+jmp0jOZdZjurIfbQm67xrQOGNfdIiXE0q9DuWyytLSVm4MS4MN4DoUzqd9O3veGzQC52IX6S/3lP6y4S4dYEo02lXm5enExpxK1KoREEYJmqlzwBBshOYZgl5B0sUuYK01Vd1ioBuXKIECPuk7xdslF6EUgEIu2FWRZmiIVY4mVkAve9k2YM0/KMuhItsqmOyFHdgnrhXcbphKWjVFHWbcjhHcTc0NydPQ6E6oj9VO4o+dVaY9Bpv6SILn6uRVF/8Aueh0IXB/WQXiwTkTYgRqKdzWxhAYbdHaC9DWu1whixN7FXlJSC26vBEu9WG6ceCClvdG3dZmSPoVHUbER3RuMdnd/Hm3FArE4faDuZpserJCAAAAlZXsIyHL+dBWC2kGG1aFgwpybOtzP+OP8PEuLMPQPpCL0uOnWOn9ccq2v2Db03H1Zm7pm1gsQEDZ6x1ko8jeItzsyyqsLm5D08mnQhvriBmYjKmNL/xqZl6APdJ5SiIl0Pk2wgmRBvH8T7xlRTTzOITliXHaYeZdMszBcYniGcSmfczs8ytCAx7Es2hgi9TS+iLMngbQW7+6E39lSdH9pF39kQ/7JH/tk/8AKQ5vlI/cfZQHPZr+Lm0H5smxe6Sby/BitkhsXbBjpiptrvEERBEyMD367rNfEoAAAFB6PtEYwAHCOzMq9uhRfo9vQ6XLqpde18Y05mIMH/T/AN7xEZ6X4avxpfppzZcWyx5gFweOQdA2IKMuCM3MuO2IMA3SusQ92BbQSzqcQW2z+ZBnxNeVMgjKia83dMO7U4ehBMUKe4cQ+BMKVWGPaHpgMgphhlOxjIBLjo9w+4gGfp1Qq2lG43BCmQDTtAj7RCi2z2DXoqdJeh/g+qobrhF9o6u6D5KmZejLhhMMjs4jz1jHdSd/SwmIQcaXq0aPfaittIj9ZktnaBOUC9irrWqOhZkhyHqLwdb139LKK1xVac1rm5UpmfSbntKVf/tQua/GawWJ8TgYxC8kaKjljpVxEveO8xCl2jULYzoRzPuZenzHfsQNtGooR3gh8raDrOmvYwbjxoW2LyIk4xyYEUszO3s65ubH47+anRp2v7Rt0/IkGcSF2+ZOB8ydDexHd+0Jtvy5zb5Bm9ecIP7ohy/UhyfIw/6aEecwnqP++JxJ4Rm5PLb7T8233Tfh4M2S0dDeboCf+Sg2yaWy5egvzfYivtB9U2m7pvM6XpmXL9SWJ1KjC+PrK9Ric0rVIty2+R++puqErsTpDJDYVkO0XMVZVum6xShBr5pI3a18jG7XuFj7M7ywMYSoLZqqfNRiwNtbvldR0yVnDqlRd9EEbDQR1NKYYhCOC4Zj6m6ly5cJ49j2VDpsr8AJfoqESfii4H13DSr9FHbbuEUkQIWw7lX8R8LegDgdYYiBAO7UEQRs4iZwp2cGKtcKW3OiQatP98Q98G12ajPd5hbt5JsiawZixaeJiNzJL8y4ziJowJU50HrL0xjEqtjR0N2Ocdb8EA/UvzmFXNpN5W8/l7y0dCXo1ElxNMymtqgcQJRF0m+vhZtfMyfB99L5gzqO0r3gEe+gmMRKqA6uh41q+I8hK+EvJMMouW7hia9wrN8B4CDN8sO+RGPF/eNn5f0jwyP+6mo3/IkcwfG/NRJ94UuOUFWfpqXCWKPZgH6WAJivzBNU+8L4PXJvqIbcPEt1JC+6VjE96D+JuTHeBD6bDMNxtApBqr1VKh6DTAyBXkdIPgrbhkhGU9FiH6S2zx/3qAu75pOh707/AOvtGu5+X6h/F+ocvsR/4+F/0Jgu5QqIt7fvOh/TzH+1+Y8f9PMeP54f1nLcfN/U67+f6hw7xP7UPyQb9f8AcF3JCbj5krp8z2737JtfwUOGF1I2/QkN/gz/ANXTNi9wmiCpbngsHMN4ZZrnR8S2LLlyjvV+RDXeb6tLgwl6bB2diln1IBX22yK63peh6B0Bm7X8oK8C62Rsh0Wi9K93DR7yfVJZkUYgphqUU2E2gp24n3DAO1ULGypQF/WFf5X7VahBRYoFxl+DZDrmr1aAxY8oQK6AicjFBaA6rUAEE6jZL0wR0xoTKzfmZ2xMktOIaZc4mdWa2FPhAScH8FQcz6KZsdH3/c1HuRjKuJKjV943ggTcnE94GYFQGU3ib+0bl9ZSVvq3TEYEdAUx6pZDj6VLE5T9Es/IrPckSVHWRIr5CGSpYbDQ0rTGgQhvGEM63EGfXKDN4+HLAN7YbY/AgGwmItv8Ud4vkR30T/y8P+LmwB7YbA+CUdND5PwIdCGprj11pXfKxtHelOTWdMqkvWHtFT6MJ1/mNXXUneM/ZP8A1SPHDoReKLwfHHi+OLfrjGeGbxOJ7aNR90iJH1X6pzPN/TNl4CX4os+0Jb/D90r39pxDf5f6ieQ939aXf/mx4PgZbt8LL9oF23wMsmf81FbF8R7jzP2Rv3n6sBLoks3olx7aSmV8B/M2nfL7R+vPRbE/EE796odYwXBeI7eVB1Eo641uHUWjPmTp7/liCbaO0Nc+h0Q4SxESKkq7YPG/DObHFAQbhUkinBp3Jdcg2h7Cz/1eCooXJRyS9OodUc1gJe+8iLRa4IsxdLfqYNDbdts8sB+C+wIPMGW2ovYBM/R1bLtGu+jmc6dSA3UNdzQzpWYXo9c/BtQee/OwxcCTbUeXf7xN0d86LmNzMtLslyrmYDzKxKKZmobaZDK2nEhl5gHq/kjuxbgw9sPzdHmLmgnqOgR49qsqodle6d4ltuYDc2faKh7/AHpxKBzglBoe62JlL/m5qMLme0KW8HMZ14u8ag3rQhIJTVHY6scLe+mGmC+GmujOj1FtUTC4DYA+YuKbICw+I65uHSMmAFq7VK3z2oa6TE4mVQVaqbKMB5XGqWaR6muY4UgDhgNa29HOlS9LUdT7E+t+/pWmf8jXiXBwGPH+REETaHXvpelur6caUpR0lE7EolEo6SjpEJRMTBri5iMvQBAPkuKt961PtN2fv/m5TY2GJTFEV7OlMC1TVOlziMHaIrZl7kR5llfKjCV2iaGrE7sOZWj59ABSsbI9yXs9DKNGMTFGlLTxo4yLE3pKjc2HEy0RJZxCw4M5r1UvDA4iggCrrpqizeBRWniXvAJoM5hCOl63pmoaW3zBFS6fC0wmPhn3piVzNRuKmlkLlWNcEc8RucEMWXLxCG0puPJcrAFNh2pPOhVTNqdlYhYgl5CI1Hmhs4trjyxZuKi5Rv8Ab2MvCDA0vzFzgQpVWdKjTcKveFOKDGwlRiqwJdVVw971kJhkwJt6kxngAcwyygChw0nkiuKAHEwt2beMksf6u8pg/ky4s9omNaoxfVBFbltujhwodsNy4RJhBtZVh4dfhz0jfJWL7EAwqkKKOSNAUgzySiEt1didomoIh4SUoylNQMvdWcUavASorqnsUb3XRNU9CAsc0dWHJEpW3pK0dfz2Q1/Rlpz6AdDr63U2ev0v0Kx6HKtWzlaXGKzd4VjOxcX1DOYV6O2mfRet9P8AMZuy50nwpfQtS+a341JcBq02qLQIK0fFJS2XZItyvxKbCImXEd2DqUS30SwyzsW/xLMCdUMp6OhTCVONOkdHTY186pKzqsIwm56OdNoQv0DHlq9nuGgrNG73iYL5i9pasq5mN8QxMZzDaXDDKbJd2QK3gUTaOzeJfYlT5yqfbp0jszsPX4TQ6DbKxMRlG+j2hoMIqLBlF3LUDYW2XHoJUpqXc7BdI9K35zEugFcYOIm3zIslIoyNXUcvKlMkb4cDFYQNy3FFv2jdIfaZekuyGhtPlLwPbFfuS6Lt03HWUQbHqqXi7RwwFsW4swOgL25CVJv29p044m1rsmy+V7pc50rSphBGv57umNeP8eNSNdeF8CNWxUdxWvCyZVbF/ZBHVaFVuWXTC5PQaWKlKt+St47L7HFMAQRscjGK8RZ7B/qQ30TKuwO3zMNJyYYRgABarQRna8XJOKuUGnoxovMW2hM3wbLpTJCOzCET+LLOKVXxUdX/AGYw20N9mHxdI49Bo2bCvQFycWepaVcnaXY4AUA6StbHdZVvKAM/ydp/4H6Re6fz+oBuMHaUlF7cyb5OxPtQ+u8rPsw/5n7Q5fgg5Ijn+OgG4+f6jNt4v+JUwvFojc/P7olsnt/c/jPzLP0ftBeP+OsOqZOl+YMkR55ej8P7n85+YLx+39zePIX4ubaXu++fTcSZYEeRvQ1wVpzPbTnXMzjA+z2YNhLfJBblHi+zQpPeLF7yiMzOkSGzpXMGoWNk6TatxgvN59ZZsDrKG4DNkOK3+5M3iRl1FhvNlBvQRgbuEYz6FoiDuWrs1CG0IRuONd8Gm+rHV1XmBN7sIWscOFM2Zyq3p+2NTExMQhUf9XMNB1GuPR31q3Uv0g5T7Dju6VM7K61mVK4g1hdbCM60c6CxEomCbbdrlCkiitXC4wFwtDp8Q9rimi3WsOleslZHDdC3UInSUpDD7uA95QFEyvghwIYeC+oXUvjliVtuDBKByznFhm+j+Qwy1D9qFtkbJXRqSxZvHs2leBQXNpdkFpq0RhfMqpRLrSoWOAeYtC9C5n3H56MPR3AC8Gh6WXnW5eZzWrnQjPkYd+b906wLZv6XboUSoBcolEpAXtE6JfuJvo8hl9a9k3b4sUl/1zphXMkp+/Llv2nF7J8Twi9ycA+ahc/vJN55RDb33Zt/jGb8vhGbz9ZDsCX1jERohU9nxGCd5SDMA9sTZ+exOQvNMQ3SFu3mG8e9+rOW/YT8JMi9/hCt/bDDDfw/tNy9z9Vm118lNr92yWXdjZszLu4+SCh5fiXUcrr9kBGMdKlQuKXtLXHbEyNoOJuRglrVHUlvqgzd37SjQOBT4TxgPgmYS/cMy2XYHMEm0qEm2UM19qyxGNlV1ozLA7AVQpeiKpNyUcjAGMIW/e2CMsWNvFRN4o34y/eZwHQSpvK3l4tJSxag5SqMERZd6vQ03N9FhiBiC+mytKPUSgVI6YvVmOk4OTPwJUA9BoGrKlegiQVl9Ica8JaW9TTmsD4onKZxWFdQ3HZMiQAGWxA+YNWlOleKYOboLoKfEL9DXCnSAvN+CTuA1FpOwoz1CXqpxIFZcgxVBgJC/UgdGIU0d9wO+OtEqhlRWZBscq2KqVAyddDcsvBQDdEUwEbt9qtgs4hZNH5mf3IHdoqWI2RmxN95hM8PINhKimlCkye+0riEOqFhNjw9S3N+0II0FtfUmO0KK2QSuG0w0a94WrE5qO+h6HV1CXH/AHCfy9/oZjQj7FNPMWXr7QrOlzeXLK9YwYRZxpiUSglEW3CKu29iVrfeMVuntiu/wYzQLMf85A38Sf8AiZ/4Cbt8Cfi+ycV+JbcfYxWx8gwH3yJvA90ndijsRdsHxK1FOTT9oiev2Z9CxYw8z9mKxqLoz3nvFpntECZvMHjQuYl1NzxNydD7zb95n/TaU8fEbln/ALqpcPWV9GClPQYdrUjCybvpi7xFJ2eiQ7b4DgjmO4pBSh7csLbAzZC8xZ1a7Zu1iFaXpWUZDqQwlxjba7+xLMthely8cg85TMQ7QsCwhYWds4jvw+Bm3gbtFg91DjWt4zYV1mCXkRUcjojulR4qWbI3lt0t0xfiX6q/UowCYTpiORWyBZCrvsxzl4AtTjDFjIE2b0Pdg2YjqTf0Zdn7CK+z+TCcR40D/JmYEGojWnvGw+80x1oRSUfQFAbkYqwaqRnaF5fq/wBrQvvY/wAom0V0eX4sBUAcnP1wHWdz96ZRl1yX+KQzk2nVAmukIrvWyXRXStOdKhUasazW+mRz2AuntK3Fa6VaPL6KPoMMTmwtC8niUHiEr5PNxKxaUvCVBGbpDkG6VAGW2sjR6Gb6uoaH4PsT6z7/AKr2nWNTe0r6aXM2Q1t9NABK0y4mZc95UuGF0NKzDTE3g1LjtDBU404l0zfVhtNjVqtSZTsZn3cstjyXf/M2Re2jbdRGYmKlRj1ubzeiZol6dZf2ovp/eXR7z6X7I8wuO3s+88lT6yibRM6I0ohQAFI8kURe+UnuN0bI5sK21wmac9fMILcqjFeIUrdybajnHIOUYAG6bk3O+622Uyp0azhuisHOV4yooTsVXUS4gC3+IKiSEhWFX0lY0TlNrg0zDcaN8qpaXZtEyn93uy5Zh6CukLWIHsvSFVvLYF9oPTxOyGx5QGA9DWEiy7ib7G5cKXf2vHo8aGtnj+1HfaD8L0Ppv1OmYr7L6nOUIRY7yGgqKxKZkIiNSZBZLvoKARTfN1DTBKH6A+6JWup9ptG2HNrD6xsnfL6CCq8PeAqvZB/DOr8rHVH5/UcbJX7v3fxCYp3oby8QSpAVVoEDKBGlD7c/s/3nGD+9Y43tvzYQxB8XSHKRDLK4EwexZm3Ty/uP0J+sq628BjCE7Wtg3s1TOo/ET78h94MPywx25+5+ZvPlv4ufeCv3RDOh9NgMpYieg34/0SL+HlHaEd9fGnSyQOQlTsBB1odxWntKV5iRFyyY80Plsmg8k3nZ43VbQvba5ugxODTeVHJK1x6c7zMBE3vohFQDllibympWvMfQ7eRnnU16+jiZCNlcv7SpP8mjvLHUrGV0I6u8d7l9p1UxOZtvtKEMRgzfKKqr2gp+/wB0WIl/D9jQlH8dko7iflfRT00DXvcc6ZubDpWdN9LlzE7VoelcQjMQo6Pd8EUWqy+DmG26x7S4OKnO2mPRd/tvHfb+8ly3XjR0f8X4T6oOm8BALJZyCBdUVK3VYX8nRBEeSOkmslUt5rdlSGN136Ce3eC+0I3IlFWDeMJibzxmiJxoEdMSoH/B9cDtUgVvAiARKR5GFpkB9nJ9GG+0r1XPfQixS7jI3Daqod+q672PJcPzPMN/DxZLWvHh90gZuieQw+5wfZnLHycfsXv2TcIR+Kn4ivswuD5Q7oqdN3zLXfq7TPpJ9JHEP8oJkRgMpspSWBIdKP1iwZKnPLFSR1ui4Iu5jXdDWYT444KtQyd6myU5ISVHwhMSsQyM7NOnEZgFBNnoxNohP/A8LleWO8stJmWLDa86c6dNV7wl8tzZdIm+ejki6E5v0MvQjcIaZIEYZm7oKThPln8N4lh+/wCIv2iysWJEYExMVo4gkaYBlKg6lw8XE/kddfhq2VPr/tTY/wBzrVZm88MQitAWwkqqWaZjWW5gmx+yZn2uE3J7zme8STPoUucRNGWVCOhtc4lZqczbmEDFhRp6MDaQ9Sp77Q8Bb9Xuvo99DMqE6wezpGIZv049OIbempi+iPhMdfq53bTjW4kadtGBBbgL9CMtabHsplqdIpv3n0MWhUr9UjTb8InrWHsaPqagw1fVemdbNan1Udy6IlacuhV6O+zDiO9TbQiGNCLtY3MpCpU2VbY+8213i7lCWdmlHiXKqsGAVzSsiZsbQtkeqnJ2MyxZIFALV1Gioudld0Kp2UbqimrdOxVOMItZ0DUFbIGaQhGq903XJ1SgyjW8PW5ctSHGElOm7NjltcKfeVVQ9oMMp1+2xzcn2YytWpiVHvOd467aPiXow07zM9fzYrz/APhPlsd5Q2mJmJEesq7ubbE3VUxmo300LaYlys1ibE+mmMCskV84kIL8n2oh837sspjt3QXCGbMb/qumykSPJMLwwStomp+zAPFuVJ4l4w4h4MpIiw6kS2rwfkYVTHZC/wCYzKOq8BvD15wQQbva1QAgibjDM7MShZBAA4bsCDAmxbMR3A0HnU0sjWI6OWl7QkbATw6OQpW9sBk5OP3Id89gjqwuyYmdLa0yiqMX0Gr/AJZj/ZfS9D0DqmE1zrxpUACvJZXs6NNgobKAA+3rYwMek9G+nHowzzLIaXWG6dPtkPRTpcfxz19Bt6F736gucTlRliPWiOcnUWtvXMtvIE7Mp6eZWKBsQNjJIdmC/nRZB6XVSiip2Ci4aeTaqpEsgZ9mVAYmkq9VvAwXdNtruURHbwSVMRVfwB4l5lQ7x+0OBl7jZBneH4hUAj9QVOLhcRE7QJYaDlmw3o7vy2uMnheBil95A1gwPKpA+4sxV1CvQaY2m2jOmhMu6GXHr9mb/myKUJ/FNLjRu46N2WSyLXMwsFqLMvONp1mALnmIH4m93MM7vBy0L6QX4F9E+qfdjnclRSk23ow6QnAURVslVLs7znfVdXDDoW6qghrqWQsIMMr1svuwRpm+5uNQ14P4alfey9RqDbrUuUjON9XUDJXpKwYgZXf7V0gkcxR0SY83DwiWcqpDLgpBEESI5RWVs3qKwAKvQIlrPbQ7XW7KEwXwuWWllkPOi1xSm9iBOjKUiAjkMizHkJ98KucxFNUt7LmYdnslocUbsy9FW8NPb15nE/vdIz+7ecbS9bdb0NDbQ14h8T7Lei9bxLly9GXcv1cxL9DrWlejf0PrztXoNh/VRE+kin0YvTnEzPQ+xoYlTatL9F3cqc6sqG2hASnpUP56tXeWXliRYWbUSDGAbXoIAoYCG5aB8MDxJTutFSjdSaoymDh2RFQ3YqRWldLKoV0IR4LbtZwwXicA6CybyvW8h1oqNZmU9JVjgAZQW3B9Ahd6Iw164O91BBubjYteg0ue0auVLzNuY8f3xP4PScztiLMAP0+7PKJcqLHBMczEaaYHBoC5zCcVLOsq09I+bczAr6R/K1qyq/B9yeND08tp5ZRPr4FyvCOxUcoGyLSVycHU8S5ULhSrCjdje+sMxMR3TJoDD2ioX5rky2sVV46IsoDo0jfIOeBUIuu5YEwwUXS4o/hg7K7uNiWwCxtiJAXqXFP6LZ0TVQ4IZWrxmHooHa3qKLg08KMqo5u5tw6QQNgSXphdYoa6Q7tadYGNRr4u5AOmrXNcW6FVlBwql1GUOgK6YGIi+o1eo/s4n87rG/TcuGg6F686FzD7J8V0db9O/rrV9Sav+7pWNMwUOp/SdRV9whL9JmL0uKz8mNzPcXmSZMfJ+k/9d/U6XzfpFtv8/wAQRxAJJTv8NKN/7e0B9iH3gL+J7hNp8wnQHtn3/Q2s+77BKP26X0WgzMbraD6MkuXxNpi4R9BizUmRJQ5aA6MTIW2Vtsqu7LitRC3BvMhld2PKXor6Lm88RdrhNp2kUP8AdaN3m5d9BLxG4jO2lY2iLKR2idJ7yq2YDDrLq5kYlTwxWfUzb7YbkdMr+uZx4WA7oha/Dm0qD+ggVhTpVx4hJaX8mKac8Xh2Q6folRQ+WvvG6R/Crj0EBfzEE496k+iasIuZmtbjVnW46CUAnRgAoAhsgbo1cs9pFuhH5Ltb2TdQWDslMttNsLt2mGo8A6SonCR4ehlIFN5PWLCK7qiyGDJVxissKjLgzFQtQxuxb1UKQJKFOI96Kr6NfpgzHdHi85gH7hmSbGijFqnMGeawcJP43SY9/wBIvQlwzLl+vI9S+F9LGoa4jAIaBKlSomufQ+mptpeht6GLpzpl50Zguv2I66F/vOfSRoPQXDe8j9YqVmUBXYLYD8laxeGMrR6ae8YhMOnyTmG6pN99n8E4j4FLyu5T8xz9QX4n2N/0kq53aj9z6o3/AGLGf4+iQ3d7v4WKk+Y/JF/ngY9gHgkezfbM6Z2R1xcunFx8x9CTj0ZbRHdmu0OgHdYLVAAlSsMqBqErM23hRcu6RPyzFdPtzeR+yVHsmPYjcqBZlHRZZpRHzHdqBKhZON4hCyZSwGuP20B/p1jM6FSnQtVZaHP8aclUn/dwHb58bdRRzva2PyR/opa2z7Rez4JOSflr5UI4rY/DiioThx9mbonsn2YPsvN/kjshOh9qmG965gUg32SOYvoxKh8AbhkEmHStTRjLnMqJKN4BDXfFPuVDQhVIwVDAUVUWRVWO2bjL+hFaS4PRSnZszUVf14mPn+/PfW/QQ31NcS4SneT5h0rQ9JONSENKj6MX6kz6SW+vnTbVi9JinxMf4K0Nn033wv0idyD4NbhNUXps4ZdNkNpSiFenY095evXWyDGoG0qJvLP3wML+aH7JtnhQafpT8ko+2IP2qXfqj9oUq8R+xlG3sj9R3nxIgZb3P3Anfn/oYEfQX+p/6D9TlDDhcE3lTZk4Ie02KWxP7y0qnzOk3hzoyfFfuwdmJNiKbjtM7eRGozMIxYBEIlEKrmCVDa5TsaNpOBGbm87JQd/ty5VSjBxPllHVW/WbzrLiS5vo3zOsOzNoa8yt41KIDXiRnJnq2Mt2OyLLb7E+zHZ58vsIbwe1x2l4fgYbnPd+4ia9mpn3Ps53PX8kNvvwMrQ1rS9TXFbl9N9/S9B4/wAK150LxBbv/vqrStcR1vU9PMf88w/xv02hBnz/ANtLY6Xp4IPsn9Uj/jXCgGwtF6QvSrMKgKhjuVqqrmZxAFtsM6OlZEQaSjfZg9u4BbDzJdGIiQDfInmNGVmR21RGO2j6qu5bHIS9LiG7iATECYfbRhGVKnMAbi24XHcP7EX3+BM9nxJ1jlVUdHzMzmE64V7LO5BfkhoaNuO36n7a4mF3jZcbjjYlrCoJpzrjYmc1fmQok7uyMSqlZ9U/RKqQ4uHqcE3SB7qi3S3xLXMOTaCfkCNs0lzF7kvDLNic3GQrVLBC+VFaMp3G8o3b/iV2gx0YaMojsCXR5QTefNhNneP94LPlgZu2i2Xui+8dofJ903K9iAv5vuR2y9xm6+7BHHzJe31CD7fNNv8Ajz6XSM322jnNeP7mlT21xHSyX6WtDiXf47l1dOJn1kP8Pb/5D0ViUTYZk/j7pUceglJnd9H8lzGhcqK59FESxEEYnEW7eR1XdyvlYdVgidmOOV00YGlsDcnbxEQhHM+nLK5m8dbqXcduWXjU1H1m2pHXEo6wl3K+zD8Ri3UdE33X7UfM5czmNymWWM7sSJiDLzrU7Q2kmFO6bo+jIzJZKF3ia7X2ZmtoXO+hwKIacWKq7m2kAeCW/wBBggA2tPbrdhwRasoUPDS320l0kpi1buz0IqwOPXsuMzItKUJa/sT+NZZMNfoi4BwJQql9xhXeQKs1BuPgYHiBBUDimo+Ik3h6Ma1trtN60bm/ITeR5M3eB5t+FieZ74vbxnH7H3GJP1gY8E+8WbkCoAgrzvu/4uh6agmI/wCbn1ca+8PVcv0Lcv03mL6KzrjVNVnv6DXBO6C17/fDomfRT/ECdsPs+n3nBLL7bwlaB6esdMTnWoano8xXrz6eLhtptD0sdMzclvTBAZ0J8Yg+BhKhLG6xNRYyjM8zBcvpFxc7hcIwxG2cQpxMZXJhqCqyN2MFSOH/ACaUVyHzLQNxzdgRlzXZDXtAACiB30eg9SkokhIN5KNZXArCOw1Ye85+g+7mO3ny1qi7YeSYpvR08weW65rf4CF0XlqH2J9CsJgrrF4FdmPzCW7G5aBbaDdTJxcmxqBSDS8OkifFwAY2jHZGF32jgOyYaXs6AoAhw6VDXPoMutwZj4fsSrBxltxlTiGu/oc6G2lzC3af1O8zL6/4sXQly9LYsWET/A/z3ntK9BC4qXp9qb+5+czRc+YmjC5i+78BB6cHwTY0xHecTMMXDS3pM3oxac+nEPTWda9G7rnpLWYJRONpiX0mHXGvOZj20B2X3qeFB9U+oQ2jgS9tbyK9I+Y6MrjclS1jRpW2lt7aZtxPgubDtGwzPyRbG4Lt0mSI402vroy9UOkxLigqamAWe2PNRTxZCNxfNDFiSlBTeliFhkRuoW5UrbOkOgHggFlX7Lg0p2mZqPCCslDvAFeSrZLr5gTxQOg3NmxjOqiZkcdY7IHrUXhGA3WX8nBFkM2qvLa9UFW1envOY6E2j3ZohbdZfEdF/Pphr+PExrliaH+TpOjmXb+063pz6nnU0NbuVouro+h9N6srR9C6EdL0ir/bzG9LisSpXMaju/tB8RpTMel9N5iQo029WcStC0jvrzoa73Uo0ahH05xr7SoZl6/ir8y//wBwBhvwOilSq391oZZuwmDtNr0dsVM0QOLhidNMzZjL1Ni9IKiE9+FzvLIdA2X9Et3SvwzN1Ml7y9ONK099S9KAlbSszrUZiXuQyuEiWMZGrJ1ZXGOiWQVy3DeZnc990F9aW2LUYjgCDjYNVUZEAYKqcBATRN+UGyksDo5Az2sjVy6lFGKDVorrSOrwoqrVZFcdlt4dAcwIAS8VfSyUskXYRlxlhqfx9WZKh8qlpZVLcfhNOkVfxYz+10hvCZqbPr2zGX6Av82Jl/Ph1P8AB9HMHS+sud/8do40deNXTMdOZUqOt0esW09/y9O7IaHP3/GZL2TG8L9DpmokqoTnmbRuFaby9iXO0WVLui9GoGJWlaVONDnTiXUG5kZfclddaxaaG84052m05mzfumf9D+zFsHX7RwTM941WA6xJnRI+zOdo+IjUxd3Mwut9DEuJzvmfXoikA8KYqYxGIbifGY5+gS6CYZRCUamjNtN5WQlPMZk0uOlwYHacXYz4bmJ1Lny3EFASAABiobYopGHffLzUeEgW877K7QTS8t1Ym6EuMRD1/RLSE0c5e67w7OvDfOJRjTXLILtwVQw3yZw3T0h2SZ9ChcJADkRsjiKrH3Rr/b6fTIZ0v/CsStPqf2nzPy6cXL0NL0sjOdDQI+P8SXo6cTOq/wCDpUr0f3uk+g+6N9COuy7/AIw0XQStbhmGjtvL1rSyO0420a0OZTe+mya16GzbStGY5jN4YjHVgyyXOYXnSkjt7Cn3jV5KfbMFl1jt7y/yjvyfuzhUZg2hvom8TeEXfT3050p64iMYqH+5iUQXoaZfpYg+8V8hBnFahoRrRrao350NGtKhRqo5qG2h6L6S3MvTMJzCKMeEuEGrBK7JG/symEKKk2P0gMQG+V8RuFU2W8LuHQrQPWdFAnnrrZ8/2o7/ALMaEJdQam8JxLlOgQ9F0+oy1c69Ltq6Xo6V6MTfXfVxri5iZ9GJc49FaurCmVBuh8kf9uKqr0GbzmZuVAdk+4hVGmJiY1xLg4dNtanT0E5jxbLOs6zgAm0sm8rE3JiduZShs4hvE0p9Xto8s2gy9Gq0o6y2X2ixcfdCHiiUPOYrGXf13RRmL0qbIWEN2Zem9weIipKnEbTM/q7x3GDjFQm8XBXWsZc3hBuVPM6UytozCQp05NGbEJio7Olw0vt6L0GtB1v0DL0J/L2xW3SVS9LhF0uVrUNcaXD6/Ri5epo7acaZ0v8A3r0voxUsin+SitI3taXDRpQTjSnTbR+D/DLmXQ9d6VMS5tONXVr0spNXF3elZlHp2qbbTfS1JejKvRuWk3YuHn+RMlOXmCh8xj2vuJlMGiUiK3LjTsyjrGW8xSG2IXMhWhw8xtHZEWQ1vhlcTYlyqpQPm/s6cytHF6ZiJbKb1JQw0ccQ0S9ASpVervbrnWiZla8y4T2lfhGeBM+Fl+jZqzcjqaEJ0lgv5Wu9celiwT0LHS2Wa8a9I+nOI41Meu/S/Svswjqn9mgXOXRb0p0/9vo4m82ZRvqsYXqzfVdON57Sk8mnWmXvLxMSrYyitHfGlTfnQOmntNuMaFXmVm5moTwRuXrhZ/VRX7Evk7zZGf58wdZUrRR5si1ObiwSNSkZzPE7sa+zDkh0eYzTgLYwpSNVewT6LBitg+8U5ZsBdxAcHzLfvqpvHtJHvoHB7L7f3Gv8H7Q/4ECcPs/cxSnzCHKPLj/1xTV8lQ2nwYbBfZBHDeEY+jpN5XXRgXpcfM3lejiA6Z05i9bp+J4AP1lml6LeXdTiXmcacw9GYArbCy395dpxDW9fbTmPpK2vZuVriceg9L6LzBVbK6a9dHRhDUl78flCCvLRz6T0Zfd6Dbv5nPorW/Vd6sbvJCPD6NnR6+ntqaVZL02Q5mYQ35040UqbQe0AgW7h8IRUzhEmPkhqEodJtRdNrl81MEWWzPMM5a3bcHlo68kSwsR4gHypvP3LBGXkr1ThryGApP3j/s03Je3/AFC/bggi/cAm9ec4FWfmRR+yUY+hDhiW/RP7GL8DwH5jzHgQbsMo2GHiPkSt9V/3Ha3wJZxfHODf3/khs7+595zvgU/dl+6Efgt48In0iKjfvMnkx3a+8+lcWIdkZ7RjznMymmPRWl8cp8kv57nyHouHDGj0Zl3rWqB70fKVAOUPt/7TjR0vTFQvXfW2OjpctNOdSXFcaXGb6Oho+rnS+3or7X7NXut0aZdws+BOIkdCGjOY76EdOsZmVoQj6cx059GNAqLrnVh5hOd9KqOmL0/l6QXmJj50rRpdjG576dExW2itOkDiybaWUZ030R9pkFmfeWWVUthcPS6bRnDLLntpiXrfTW5xGVc5qNSkRUli774WMNh7vsmx+A4/6xTHd57P4Ycu9qO3PvX3JwCTjT75+CATjP3T7k4x9xjfshN185zYfesm+n2xyvEBl0uufIm8NXTiEfHp51oPdk8OzZ2FfibwMspOYpzCViYDeJrZ6eI68aVpcdMy9OCOGKuca8b6rsaEZxpemYwhvxvuR6y8alTNOkX0YNVxF6ENCO8vF3N5j0XrRHiVMsJzN9TdjfnStKlTmETmVob6VLjruaUZP4sziw7DiubC6P7EQEU03dpsy2486OIbTBcYQqI0w4qiC3O0VawV4mMKiro9DXiMvSteJtTrtLlZ066bzjQD0spvTExejUCJTaIMhN0XyJ+Eabn7eJeU/Bj36tOOelwoQvMKqriqQgFLM64iwZc59G2p5hZL2KWKZgPnYNHZqCWh8Z1oqoE6aOlSoabeq9VNH0B/gOvMq4ENQ0OsdJ/MkHuT49BWhoXpF59RHUj6cTMI5jvOIRr0FwDmWTfRltS4uqR0qUbxvENpdztp1lausdFn1uC42XT8IpMRepp95SsdD2htDQIEwwUEF3gp/EdGY+NiR50GdNL304mxGZ209530eJZxHVhpUvrpXocTiOYznQntHTicTbmDoPXShtkuWTFa8THJobiy6homtaVEPYajF3vMfFpn8LWV9VFmDzH4mHPPH42L/wCg7kuV460LL839YdXJ/EXpfjjzJQUPkSCbRLfx5uudkhSWZ8So61pz6Lgqkm6+jOnDvDSvQeZj1G2084B9ENdxfrL0vTfRdUS9mGcytBHbNmvGlS9bm9w0rMdeJiVMb6XelGamWCznaEMGnSe82xWm0a8TGiaioEvtDee2+lgrn70GHuhryYzd0X1CBlm2qx8Tib8wN4C1qYdFoYlCJLlI1PmO8tKhCUzi4S6ZbCoJreDUJmYlhGOGZ05L1qXOunM2i7SyXonLKr0s5jMxGAN92N51Zf8AnZ6dpcIx5xD6H6Azm89H6J2H994BU+H6Et7J4f2YrbwpL7BLwn/HSN+vCloj7v7GKcDj90ahX6zvq6x4R7sP0m+ee/i590D+UGPbizYA+GU9J7aY1q5RGE50qVK9LDT20qJim+P7kND0Cl5H7o16NgrXbMxrll1pto8ekMaWTOhOZi3RqZhMLMunPpWCws4jPaE8TExem7UF7/wWzbdpbZhNJUXcyCo1GeGZcE86ZjuTMQ0Vpkm1QxKtm0I7bvn18NY+MxLjPECi51ixZmpTM9NC5XTXM5m0ZlucTE2g6mtzfVmMStFmalStycx1ZzMTFy51jvKZe7Aj4lQlaHEYb64uVpfFTEZ00ucQVNCX6syh1Fm8h7vsm2/xG9x35x+InYPP6pNlfw+zHk/mbsf5esO3f3/Mn2FvxqUPin+Ift/JDcP72nU+f9JVufv/AFK/x/Ef6P4iN/nfqLL0RtiNLHn+oY6+xb+oI03+dofjKbdlPpyW8P57y1t/rvK12E+nPbhsj5n3I5W1qlpG4EobJGzEKoEw0vXTiXHfSkma/dis9FTjTmVDHoHSt9DeVK0zjUC5zHrWi1zodGiS6nidCXDeWW6k9pvoStGbJL8RUKw5e57plqgqS4jx9l94iNSybaVLuY2ZRDNQO8uoXERM4nGK3grHvMQrjpZcsuWVvBFQSY64liGYckx9ZZLzKyQwSrl5iEyHpvOtXEqGtG8Sb3KxGcwb0rThlS3U21zpymmJnTELj6MSuvpuXLzLi765WU6bM39GNK14jK0Nala0yiISlwQ6ROwQB0lErqRCVpSTjRlEv3DHxxEbEWWUICiNRxwWgY0q9GdIOw3I2EY1n06lu0uneTW5l9b4dMaJCh9ZJ+Cr/icFeEZ93P6rNtDwPuTfx7SNfFBgM9mdNelSs76MxfoqVxxD0MNOfVVzmbaVptoQWdbohB/zkjTGHsxeEw16B3yx7TESZl5jux0rDLTOYQL05Lug+eKvDmb3uhkFotdoWltFxaGBKcmzALK03zE23jUY1qDeI2JXSJQQVdLMytYqtQbRlUohHsYACVdoFjolRQmuw6kae7QK6RAbGu0QsE5hot0auVgb/IEQwJs6U+jGpforDPfSrhHXb0dAlT2nE20a140x6K0vXnEzpR6OZmGlMONd2Jqwr0765rn1XfqNMyvS6LNsEcA06ujd6Nu0zCYUORhtgCJWm8oNAEW4JuZ8hm+n2zffas+023x3+Y78AzgDyY7W+En6gca9n3TiL70rPf8AKVcMq+Ueup0c5U7zqMj5ysyZp7w+mTo2PgwLf6x+IFu/54nK9ofqFGT945Z+y/ME4+H9wp2fKgm5eZbF7gPuRW3xCDNkY/EeCbP7kF2E9vRtDM4neFYl5INXUx8UtAixdn30BlNxO8NzMUSdUBSsIZe0IaPD0jNb5QHvz6DA7p67JZ3coiasfTNEYUJyzpQcPea3d51jTmOWEdyAOK1u+1y97CHLLASt1G5RUNxpzbBxCi7KqHWGPQnImyK8J0hBsAYl8BZsOjG/znWdJ76dH04nG+mZWZ49BpXeEHSycasJRKMaOJdej21dv8z/AAOYerGnX0MxOY5hpn0Vrzqx1z6eNX1PEXTZJz6+J1gFTE2Y1MO2taFVKMyi7E7R8Rbf4SLufiRbd/bFb/Elpcyt4q3r4UX4vEr2HuMV290I14+LOyb+Vkr2D2ZyX2PyR4S8yrls5u32mWe9m/G7PxDrYEQrGwslPov6hCYv2g4TE3up4TBLm500zLOkbcjiMHMJRe8DeiZgYm5FGjqhuQUPZGAAQ2FyugBcLVI1hmEwzCDUx8Oy5mDZXgxRKANClhccg171VsraG9zEUEratjaPpY3bN+ksfXxApaucGU4WWtggqi9AxVVLcwVW2Vrh6TBo1ZbBqAEpQYEUFBRunVDnzNLlYnEPEtrQjt6GUadfRU4041JiUSmogLnSmIMp06S8S+/ovS5vUZUYRhANMkuUysbTOlHprTnU0dHTMvXmc+jOmIQjrUTSoTMuUenOmNNpWJvc4mNCculTGbgXpnQ0304050v4lYmNDTbTHSVeDQc6FQl4nGqb3MmvyGNi/jwW3wJYU/EnfcgVp9NBukxDrDgXGEXO0vO0XMxEzFsgmjglrdwxuxN46p2tN5iB7x2PEQghpcCB78cJZgOrcA3U0lAjL28RGOVKoKBVg90IvPdjde8WESlfiUyzkydYEdFC0lyhRK15igW8r4C4Gw8V4jUbMfsohtm3Yi91UBmvDyUVpN2k+S4kqKv2pg6TrhzLKQsgR0w6PfTiV6N47aErTmcMrE5hWvOXSo6O0JmX0I6ZZY4htpbLnOgxjoQlempvphlOJWppdaLDVc61V65jKlBOdKiFaFzeZ9Vatw5l3obS5xreqzm5VSmX6KjTONMRnaU60aFyjQJdQqbhKhDTNR3IY40sNHg0b2T2gIN9YB5EOJiiYXeM2SoRLzGJvFlXuQc530w6BKmEYVO8Nl3mzBGZZlgpRpJuQ0QrPaJUn3xHngUmOsQiVhi0WYpQDh6+WbPW7R8mlB1gWjZCqUb9YGKC3yTKBjrHtCKGsBA8a+KhibaCrheqHRJ5mcmlszEXUMocfQ3uletQ3YXLO1TLdcCiPaca0Mp9G2m+poVN5i9HRnWcwIxZ00rQ0qBE7aA9G+oR0IQlRmZXoqO059FOtWRlR7ejM41vQvR0YRuc+jnTmbGuda9GJvrglXmOox0IXperEtiMSPENOdL0z1m3oqYnOgk6xuLhIXpbOsDTAnihDuO/2YoXQ5uN7Vo73plKjAob0LYbaZ9p5aIJ3zc8w/dJzongHIuBLFlh7zFqZygNBfiUrVDZ5ZntQ8WwmSHRZ0CV3uK1KCoW7scZWzrDRWDFsMS4AX1blaO58VCUrTZURGAvIczLXKbrkhRaHRYRHgs8FVHRXUiMSm9EK3jjaZa4lVpfRCKreVKYlSpgJiodtHpohmbcTjWmWbTMIasTeXpSymBq1oStoypWNfEHQGAwlPSVKlQFhpWmWisyvTWth6N+NHW3iGu2J39KVcuXLinTTMaveEvQvS659GIyqvW6Jc5hDfWio8TENe8uIVoVOdM3KC4QvS51xN+YunEXDBjO2hLoJVw1K4jNy/ZKouBxUV6wx2XPeeGVZE7bSu8rM50KjjmZqZipO+DPvB8iaA9IKbNoQ/GcZg7aGKlQBmVKnhKXKaajtOuRbFShxOWrUqJAZQ3EgbyrlSpUqVcwqUytKzKZUqVvPCVi+ICgmmVKiaMzErT3l6bm0qVKNmFTI3EVbPmPBAvBHvL6JZUKhVwbLdJe46NuktLaGElNaAlFRCVAlVGGO86yvVnTjWn0Gt6XDM6R0ZUqcaO+nBmXpU5lTPo3gTBUEhpTK5nHqzKOumV0pmZ0lataXGG8thtMzNMAKhL2sYckJc24CQAeQrMq8MeiXFEuKBaxyQoFxKJ0jDsje0LreZBmZxv0pE8S2G3CAftYt/PAyvrSsx8koakBA/4RAuT7J/AQLf4kOZkHuQOSDlr7MP8A15Yz9aXqR1CLNQDM2flm6QH3D2IIX9kGdv2h+yhov4VDbH4Yf+5BdvqQkn/Qgv6kL/wINt8CP/QIGdzRetpZ4lukv0l+nojoWlpU4jN5WlSsyogTpMaXoO7EQc/NP/PT/wBedT40H/WhbRKHq/4DC0uqGyBK1SK1K1GU6xLpslIw2h6alXKlaEzp7aU6BpTcSB30xm5eIOm5BlStKm2joOjh20GGhmdJU5I3OIEs03rSoxnfRNKxPebTEuWRjFkJe8HSyXN5hJxUq3gGZi0i3A1GWjRxLOCXfEro6PFOlyx0KdKTHaGyzwR48FsF8JDqxgB6zgm0mY09IqbwAZmbomDumUMNpQCJdioN5m9iBTBAwErBWF4xoUSW2BLAXJtgPzBGLH3m2AS04KjdtKf/ACC9fYljb4QJyTS0ZZTaLbt6NsQuoBNiCNVkAqvqyyqRiL+JVu77QT/mIEjyPhCkYHJIfJFS8yVYpUVfRCm2AuYC5DLUr6WACqeb/ULdr+doXo7/AE/SWqdq1/UuNc7o/EZ1Jcjdm5vz++hAkH4ZMNYJZIK2tNQJK+aIK5Xdh2xW3OqE5bJcsa93EvBMFlhuMMkB72SnQEPKCVa4QhrDvpmCm3sAqCjZuXgCL7EdNB2ai9O1h8xBCRSwpifIdeZvZmUZRpzEBeQxhmbV85AvzQ6pHppf3lZdzFSh0JVEzM6OmNalRNOZzoywiJcz3nG8MypWlx0vdqcy8xDiX6KgHELQ0qbTN61ehKtl5jsSqlZ08zrLaYpbEjG0e6WzylKJcuooS7lgQEHjQgKy2pztEIs1cvRq9plnchbd1CsXKJjELhEuEJULttGFLyjGBK3MyviUioyQbEHolzTmAxM7ktaEvm4dTLpug03ndQrpg2sylcxhiwkUh7a2KhcpJSODM4HzGH9WVb7oW3eZQ3ZS8naXMOdNsczmcdgYNQha6Mq61dmYdXG9MApPAxoVsdXeDQCPiGKLDfED/gYWZPiTaGyO2abwcrfzMOgPdl/L5dDHBYPeX5s0N5X44Jsh0o0sP4nRkmwD2hsr4YUwkG2kpY+dAtvn/qEZD3fqM6nWuaotQsnT+FGQN8Q3yuij6hfs9g6DaB1+QRZx8Io4+EWMO1yfgizTBtHdxcADQ9pmq2KKEVasxeBUI9occreItuwimofLOxM1BU3OqBFzY+0/eJEy0vTG8LBQa1tYjF1KFmkVl95QK0CJXgPbE5iI4Xi7IsIbpvztFAAyvdfgMZTtfdh9EoB6rDSirg4X2MoyWwhpl3QdRCd34psAEll/Mof+pP8AwmIIjRCbfBh/x8F/Ulm3sMBYLoynpHaVGHMYG8EZTosFZcHEt00tZmOgqgrhhoKSrlSsyqgTEqG09+NMQNKwyqYmlGlYutAiTMcczPEWXuToiss1oZrDSw2YKCQcQNeUXLKn/i4QS9uCAG4lEGXeQY28R4KmOkxMy+ahWhG25UaYoFjpNxgFyQ7E5bQ4SBcZuHQnjl3SA9Idv4j1CMmJ2hOD5i21fMCLHm4Z0HzLcuvUjVWfklnK/JMuICuJAUpRt3nswBtG2gQWjY3YNwVb/vFXKnZgD/qD8qHVFTY/mYHL5l9/2GWhbrwQTQP4IPAEDMEumKuz5z+5cbUY/m8DLffvCBct4XW8cFHnEcIfSOg3xB9QroP3AUDqOGr3E3uLrDS3DhhJv/ztOhIlePgiPg9mKR9v9iBfv/0Tq/x8YIbEq6l/nSRm/wC36YrYfEX6s+IHCg+0RvyEfeKSQMXwliXh1omKpm4fMiqUsIHwy/mI3mUpyrKbdAITtqHA3HNyyxN4F4ksNmwTF4zLh7d5t35jWwubRbbjFD4yRSq1GR70E3GoeFO+qtysMzAl9jW4xEUYjdDmeVtuDeMwlLEvaJcJVHSpUJmS/wDBsgUsF1V8wvYKiDvnTTEjZtMI4lVHqphKRdjKOtTLhT3gP74FsXhwN/LgO0mXEhfqJTv9KBfrykyOA9/gSHJ9aHN8jOp7Uf8Ajl2D4kqh+2mhidUvYg3HwJm2pH3Z5cvKp8pw/jYPA35jhb2xG3w4LsnhIB2dN+jFSwwm/SX0Vo7CVaysaKbldJXaUQ0FFb6YCxlrFSWl1FesYwjvi72nxmzeHhCB9dDKC5lgOn7ywtig+HRq9Ki9yUG0W4qrOOkeYXVTmYjttKU7SXQiw2URA0ZaUMMRdQjdtPpfLO+QyLF9l8I9X8YmfaEQ39uAaEPiJ7xdadPf58T/AHY9CJruUK9Dz+qUOPuCVqJwfNOm3tlW3xYX2fDhdhGDti/rSrd/Eq5xSMhgLdyv/pMu17srvc62zw/eAVmVYzaHVfBMzK/BBCj6CBVh7xfuD+94M5/l5mQp66olxt9UOR+7BlPzYLvHclUQ02K9sd1fF+Z21/3zGmz7fvnSPj90aCm8N/aBH2ai02TeJn7mQ118v9Rv8n7EzfdkE5PP64mK9yGGxR6AfaMlOaFIb98O/sQaPe++Jim83Z8BASI8iqVcS34uIHWL0CkHzbjeALPx4Iqr5AMNubsZgvFvvCqsPMDg4SDWs2NCMUXxEYXakYCEu5BmqXO7MG8r1hVvN8eJUFrUueSCNWxlB/aNH/Zgysz7R67CtjF817wFZxUS1dTIVYlx+AlAZdZXEwbEBXkVEGw950Cy15EqMUKmW8M4R8I9H6TsHxHkqdEj1CHRZ7x6T5jwv6y3WZ+YkbJTovRlpnlHmWeL3gWx+6A7fOgOL3wHb50AqIH6yV9Xkw/4WdVA3L/acqO5I5/lQ338ZOVTZv8AEhyT6B9iWvD2JjzFZz91FDH1op+hj+4Rux8SboJ7kf8Aqka8H5iOKjFoLGS8JwcQyhDseZba5R2hFtCsKmRIKbjVRXREGKlDKK7TKc7YmB2ZhhBCbse8JfXShJswp3TDU3ae+mIVvUqo7gnYIiIVeh2J0CduKGROtT4nJTyItdp7Zvj+2cz4cYTdivuPlhsCPEumfiDxj4c6UpJzIUj9RpKP5Rqx8tFtvelXt7gja0j3h6l5ceteQjwP8Z1L4KJO57p1V4l/4ZUX9KFWfhhVwfKJNP1URmR3L3yudjuHdggcXmVTj7kdv1Y/97SiOL4sYUzxG0fUQPb2odx8iUNrXWCxR8ifoJClveyb6vVsu1/mdIpzxD+T8faMqUfMftDgpfKgYBHqSWhf/HMBX2z9opbPuy8Pzv4i40PKyqbr+t4cXun9zol8r9xNHORGLEH8/gRGgXt+SL97c5n0hgWm1GHV/ECUCFmzoZnoThlQ03sohNkzUNYdiE0CbjMOZu2XVQDlZagpuop4qusCUfeUuh3m7M4zGXn2SKcrlTlSlQIs4vbpEIWIad+0cnJHtR6R8mlSctG1MAN7QQhVElf/ABG/PyP3G7hgcMOksrP3xcjao15OIq3Al3wHyRzUyMJZqXbaBnMA7KQeTjnsnkRpsplg4S22gX2GBvU2MucyBuBCF/EXjwXG6g+Eeg/EcMWtM6iYi1QE47IhyfMMppjIvzjzud1OWmJddEUoygwpis0OOqlOylUAOGpRuIIMyOhimkm5mGx5iPKUWTAHaG0YK6jdywa3FioltOkd9LznTll2SpUwGhUx0IGdpxMXK1xrTvpnUlaW6S5vGbRcYgsym0Kgw40QclaXC9rl0ZYrpMYTrZCrubxUpq5XJG13KmyzHJHbDCUbQlEo6RNFu4i/6o8vxovf4Uv3+DFN39suq/hx0AL6L7LL9n7SQ4vEOmn3RbYYeOPpj7jHifsMeL3JPF8zEtm8icD3IybDyI9Q9hO6+8PW/DiWz+KxHf4mJ7+0kR39pJV+sY8srwP3MT3LzKoZp5Cdl8lOz94W7fKwdYgKMfFlf8eHCH2weDi8WmI5PtMOcUZlVIDme0/mYHx8mH/sZdcB7TGowwVb4IthPibxncW3SWo6PGTD5hbs+ZyPqjwInRQvZEcVQ4iXXxi5snVNzkg3Tw20XI+6eaEth+YslKKf8Sr0/THO8faVRkfjRH9cVcfVhDOcV/UlBsn0jdYftHACFYLT+dzlligLfD+pjhysepT2iTlPp+4OzZrtDM0vwxYz9P6RdEfP6ly66fJAGqPkgTb8S7hlb/Axv2+DEYo84lBBuSFDF7xBfCgPeJOvaR8wvp+uDOfmNawXuDY6+0XcEyKC3p3uYGU21fEVughxiMU2WWnJcVENkrECFDKjhl95ztLywd9DGtzDLqYWXNmc7xhDaI5nMuZvQ0WyXw6XtPeNaXEJx2nM3gByA2lLTOPRnYZnGIHYXnJ0mdHmyonPM94BM1ll8TAy8zEZWuJ7TPMuN8S74heu2thpdcSiNYmazNnJK0v0UTmIT2zKIEQdydk+I7z4ovuPZLS09kV/Xim8ig4+lRvuC90PZYvt7Mnh9qTwB4h4Y2z9cVx8SPCveTwr5MR2fzCHL7iC5vhP0yT17xD03sIHf2REb+ikR2HsMBuHym6H5cT6PMm/7xRH8gw3CZbiC3HwYcPwZ3R9ydpncRPlMez8QOlgjlgfL8spcL8sqgRb+pMn5T9TqP0QI2fiB3YQhqyOoEf0IX/9R6fz/Sf8lZZVj5l3/RD3fCL7X8kdoYB/Wzgp9mBXmfMWD7kLIrxGm2FW/YlEB8fV/cHab+X7l4sfljaimvMXgPtP4h+p4/SPt8X+41d/r+0b8vyxPWd4+n6mUsPpD+x+4YPx/wAZsevvOov1PxAVyh1kDgnLnA2pvJtCwxENarxqDzmO2pdyhUyjNqC49DptLvTib6OZmW1UFZcOJaTnSpmZgxuGZUvEu4Ny4BqKTmBDLgzn1bwBus1VysXABZZCbp0qFAdGreXmnaYqVLWBUd4lwJmHSFSpjTM92UsF7xGVerF6N8z3mCL6eJzeu9xl6MHaWem6mNLxCtMRKTM330q+ZxUsIl5E0ub8QxPEsSVehUrsSjK7Rbgin6Io2/CR3FPZL7tPJjuvjzaRHbTXcP5TcAeHHqe1ToTPB7Kx6Ppsdj3aR/YQV/5o/s3Hh9pDu2e4jwr4UaTN4kO/tNHn9pIg/apjHh3GX/rYpunzATdnmTsfQZ2R6cgDb40w/UlfP1hMrigRru18TO39Mdl+mX6Q89NIQeqzLvHq6K8yJ3SCGgl23yQ6b5hwMM4AO6DvfGObQ5MQTFZeJZC994Gone1oZTrAReKY1mce6V66TO0Ix6TiHiG+8rMthCWQrTyynh0va4MWCyxuVSVN2ZhTMd9LILptPMonO0uMb2uXPOmOZaMvfMrMRP1DSrh0lgzrMXmFML94jC6l5m0Ay9cyyY0JXCOYXKL0ZbNpeWdMTrNzSta2hqTM3lEo4ZWlxZh3Z7TA1eYLBItSkszUKl6XcfeWdJ7StC55faZNmZIpvaPeFbXCe8HMzVu2meJbLzC4ob6Xcs5nvorg5iBF2om5vL650pZ+IJWxLlBLPeY2ogbQ4RujdaGe1xI38RFmfiQKvlMUZ+PH9IRZzFd+dinC8JcI+6PF5iHPX1UZt74RO1/dpxr+2GMN5nNpvZIfh+7CfigJcqO6+EA5mjv8cRdiKj9Z33xGMPYwDsPmBbMOowPiQJ8sC0w9vXChUxgeY5W6BHMXNug2mIS740JguYUSYqF5gJdwrTFyzW3TLdxc6kVjpzpzL3zKYDvK5GXKlyjptrVbw1rtNsRIzclOmMRZjemUTneo1zLxL5IOBqe8vT3ntKqOmZelvM2czcmxC9MaXN5me853jiVMy9GCxLZtv6Lrmc6Zl6dJ2qMsmR2lkXS5dRF2ZeLWVdyWXhljM73M1KWMoiuzMF1Mbys3bL7k8MvobS50jM3vLztNrnE9oB1zE7zGlS+8qblTEuW4qHclU3M71LMTMtMaEJnm4dhKS9oA8S/FypexoGEsivaW6OhFOWe9FfaLN3KEdbVKLE7ECZUCWXYS0z3sSwb+KcdrxLs0iNh7Qlw0TLtiNzEVYiAaqZhFrNSvM37zFiZR0YwZzCPiEHpKGCoTMMzAQyTqwStpvrnrKzHS/adLlkEjMkrQ0GdIumXRTZhrbmWPMWXxHBPeJzc6ZlkGuJSZSWm0M5m8OxtL08aXc47aUmZcPMv50rQrXmbMMbyrXrs7y8ZIJe1SmbS9Ot1BNL6aXMS5UZe83ly576NR08Qls40voS+k2do5nhlATbxG4OY520XSnE2do10nfiYmz2nvKJdVcqCdZbvKOFl1Gt7zBKl8hLmZktSnQ7ou87gMtZed5XSXi3ME4I9+soXUx10IzeUm0FnRzMPd+k5YoyxionliKGLUscml73FNpImopEw40Vsj1lwSAupW2ZUFqC2QijzvEhSAxrvDzSujZYxDbSa8E2Z7ym5kZXmpRc2rMCcy90yN3LzMnEu4RZ7T7SpxG6l7Sr6zEGbs8MJk4l4bivjGu7pZoK2uX30rtGNPMo6XpdO08TpnGo4nO28alPWcS9LlZlxIOhL6zDCXU71L2qNk20vaJBlzGjWllS/RboLLxvFl6DiWXLlmiz3hQVozM9szPMtZdLpi4LtFL08wocy274lNYgZfFTEudZ99PEzczvCWzMri5e+ICSqbGV3lBGWEsm/M5zp8RXipUKijzK0q43DKNPEBeAlNtoPVqFwsXRG1RxF7VUYPtB3Aj3rQ7k60qlG3DFuFa2itFQBu2pdLmbXc5m7UY1hzq73pYS50hBhvGqly5ZiWS5d2nvFBiz76W4lwgg5l1zoLm5cuBBuXQSniIy7LNNpmN3ellac3CumiwZjrvoS8QWW9JvCXbMaGgu4Q7JiZqVKIvbEv2i4ojZzc6pVs943LcYIJLrFQvQYyoSrgJDQlsuXKhpeN9tMEvt6XTeXl9FsvioPozWKnnQd8zPWtCUuzLxLriX2lzwlvEI3fEOFVFcRl7ZZZdMEjbMJb0gtdYPDPecznMQ1WmjWbWO0WtWU8wrhnnS4TapZ3uWHFMu5XBmdKvc8VKe0pwOe5HPmDIF94hxM9Y1WSOFV8RsbRhqPjaNxzclTKIqLli58we8CpWauBcpY7szmXzWOkTZJejKm8xCtmBvUouMqkpl5l5jFxMyxI0wiy6lwc1Ll6MzGXpizM4gd5bBdIOZelwesxMuIsHrPDL3I3w6WVtMumGeJbOdLGdcTYmO0xM7y2WdMxe0NHxBs2pmIoSiW2MvTc03iIwrS60Wd5Zp7xveUeJnroedONpb0qZtl6VK39Fs7y8RZfSYgu1S+svTeYuWR8wvRxzBuWy2ZnnRxpe0cJakvpUpmXlnWW9pbXWYuWS+86zAQreXi5vzLZZUuZhfEtg8p5lOyy6ckaqDnQUwy6tonvNzErvAO03jRmFVbB4lxcuW9hUW9l81AqVRiBLbySqtuL1jRiIx5ioy8RREVVE8Qt6aW76zKMbu40XDCYlZ95kbJdQS0ZSWzm4N2QWLlzBCUw3mTZiwp5m0u53nvpjOhBlwFpgVUZ1hUut5iPmFdZdkLmYNVUZbcuYmNL7TNTeJ0m8srJAlzHTSwJ4JjW3cdGtC7jtvKqGl7TeDKh0YXtelEHO8tfE9mL0lMXaZ0943ZExLmZvto9pbM1B5YrKzlnvLYLe2ueGXxLG825nEuXLSql9YY4lytowzxO2jmZ402nvCmFnSpzid2c5gkxLZfEurlrNsxSYuggszGrVTG02c/M2lxXiXL6zfeA8TPT3jirjKjnibbMF5j5zLWMzcXoSzoyyY4g8Oh5iZlS1n3mXmZt3qFJiN1LsOs7t4PudYEV4nRnE6N6EVsRTK4k2IUwN4UUdovvLoiLl7Zixti5s3heY5NN8StFJxGF8kLZfOmXFaG8Rp0XO0TmEdcOZjpDS5jh0GWaZuycx3q5nW2smJQXvoxpczcxUuwm0uCqzulmZcdLIMxxKmSWQslvBOWO1M25ly4NbEykuX1m5LYo4hwbSsQd7WbWaXnBDDaG9Xel6CTpiVmZlo7T3ZcuWXTqi4hM86YlmLl9F0zcYbSybzbQlyojMXM9Wp4l1zHOinrB3KlqcVMLMQqCdYwSFMGX1Y0wYrpLGmJlhgUbRwcZm0ti0YqK0UreF1mZ9od03lExcXdlm8sCWdI0SWS5ZK2zKojHGJ4l5lQYeJljVm2Aaq9HcqXLb2ubxalnDH1iKoq5fe4+8c9xoVRWR2mE5XN8RIct6Fz2gbZjdzbdHNVN2ZZdby7jtL0PiVdZgaNXHLHaOr9w299Oz5hvp7nzOmnMN47MINoTh5nHtOZxN2HOh5hzGO6MNo7x2Z+UOY7mobIw7sdp1nDHZnGnsm58T8Jzjx7zlHb2jxNyO8EEO6OnOhunGg76OHzCO57xmw8w3JynWdYzmOsfxpvfac50jszlGG7Db2myEJxCbJxD8Q2nMN9DZnMOJy+NPDNxDaOs2E5JzOXjS4+86zaz7kPunKdJxod5zOcfxNjHjRtZuZzDZ8z8Ib+8N0Y/RJuZ10O3tobE2kI2e7OU/CbHQfQEJswlsY7PiG5NjzHYnCfcJujdN82k3E2MdtOI+9odPMYY4IbEN47k3e+nPvH8TaRh4m2OJy1nabmck//Z;" vertex="1" parent="WIyWlLk6GJQsqaUBKTNV-1">
          <mxGeometry x="680" y="434.11999999999995" width="610" height="457.88" as="geometry" />
        </mxCell>
      </root>
    </mxGraphModel>
  </diagram>
</mxfile>
